G04 EAGLE Gerber RS-274X export*
G75*
%MOMM*%
%FSLAX34Y34*%
%LPD*%
%AMOC8*
5,1,8,0,0,1.08239X$1,22.5*%
G01*
%ADD10R,1.500000X0.600000*%


D10*
X632650Y524131D03*
X632650Y536831D03*
X632650Y549531D03*
X632650Y562231D03*
X557650Y562231D03*
X557650Y549531D03*
X557650Y536831D03*
X557650Y524131D03*
X367250Y475869D03*
X367250Y463169D03*
X367250Y450469D03*
X367250Y437769D03*
X442250Y437769D03*
X442250Y450469D03*
X442250Y463169D03*
X442250Y475869D03*
X700550Y475869D03*
X700550Y463169D03*
X700550Y450469D03*
X700550Y437769D03*
X775550Y437769D03*
X775550Y450469D03*
X775550Y463169D03*
X775550Y475869D03*
X299350Y524131D03*
X299350Y536831D03*
X299350Y549531D03*
X299350Y562231D03*
X224350Y562231D03*
X224350Y549531D03*
X224350Y536831D03*
X224350Y524131D03*
X965950Y524131D03*
X965950Y536831D03*
X965950Y549531D03*
X965950Y562231D03*
X890950Y562231D03*
X890950Y549531D03*
X890950Y536831D03*
X890950Y524131D03*
X33950Y475869D03*
X33950Y463169D03*
X33950Y450469D03*
X33950Y437769D03*
X108950Y437769D03*
X108950Y450469D03*
X108950Y463169D03*
X108950Y475869D03*
M02*
