G04 EAGLE Gerber RS-274X export*
G75*
%MOMM*%
%FSLAX36Y36*%
%LPD*%
%AMOC8*
5,1,8,0,0,1.08239X$1,22.5*%
G01*
%ADD10R,1.500000X0.600000*%
%ADD11R,1.100000X1.000000*%


D10*
X1965000Y47586900D03*
X1965000Y46316900D03*
X1965000Y45046900D03*
X1965000Y43776900D03*
X9465000Y43776900D03*
X9465000Y45046900D03*
X9465000Y46316900D03*
X9465000Y47586900D03*
D11*
X2025238Y40640000D03*
X3725238Y40640000D03*
D10*
X35295000Y47586900D03*
X35295000Y46316900D03*
X35295000Y45046900D03*
X35295000Y43776900D03*
X42795000Y43776900D03*
X42795000Y45046900D03*
X42795000Y46316900D03*
X42795000Y47586900D03*
D11*
X35355238Y40640000D03*
X37055238Y40640000D03*
D10*
X68625000Y47586900D03*
X68625000Y46316900D03*
X68625000Y45046900D03*
X68625000Y43776900D03*
X76125000Y43776900D03*
X76125000Y45046900D03*
X76125000Y46316900D03*
X76125000Y47586900D03*
D11*
X68685238Y40640000D03*
X70385238Y40640000D03*
D10*
X1965000Y97586900D03*
X1965000Y96316900D03*
X1965000Y95046900D03*
X1965000Y93776900D03*
X9465000Y93776900D03*
X9465000Y95046900D03*
X9465000Y96316900D03*
X9465000Y97586900D03*
D11*
X2025238Y90640000D03*
X3725238Y90640000D03*
D10*
X35295000Y97586900D03*
X35295000Y96316900D03*
X35295000Y95046900D03*
X35295000Y93776900D03*
X42795000Y93776900D03*
X42795000Y95046900D03*
X42795000Y96316900D03*
X42795000Y97586900D03*
D11*
X35355238Y90640000D03*
X37055238Y90640000D03*
D10*
X68625000Y97586900D03*
X68625000Y96316900D03*
X68625000Y95046900D03*
X68625000Y93776900D03*
X76125000Y93776900D03*
X76125000Y95046900D03*
X76125000Y96316900D03*
X76125000Y97586900D03*
D11*
X68685238Y90640000D03*
X70385238Y90640000D03*
M02*
