G04 EAGLE Gerber RS-274X export*
G75*
%MOMM*%
%FSLAX36Y36*%
%LPD*%
%AMOC8*
5,1,8,0,0,1.08239X$1,22.5*%
G01*
%ADD10R,1.601600X0.701600*%
%ADD11C,1.981200*%
%ADD12R,2.032000X2.032000*%
%ADD13R,1.751600X1.751600*%
%ADD14C,1.751600*%
%ADD15R,1.201600X1.101600*%
%ADD16P,1.924489X8X292.500000*%


D10*
X1965000Y47586900D03*
X1965000Y46316900D03*
X1965000Y45046900D03*
X1965000Y43776900D03*
X9465000Y43776900D03*
X9465000Y45046900D03*
X9465000Y46316900D03*
X9465000Y47586900D03*
D11*
X7302500Y40640000D03*
X7302500Y33020000D03*
X25717500Y40640000D03*
X25717500Y33020000D03*
D12*
X30480000Y30480000D03*
X30480000Y27940000D03*
X30480000Y25400000D03*
X30480000Y22860000D03*
X30480000Y20320000D03*
X30480000Y17780000D03*
X30480000Y15240000D03*
X30480000Y12700000D03*
X30480000Y10160000D03*
X30480000Y7620000D03*
X2540000Y30480000D03*
X2540000Y27940000D03*
X2540000Y25400000D03*
X2540000Y22860000D03*
X2540000Y20320000D03*
X2540000Y17780000D03*
X2540000Y15240000D03*
X2540000Y12700000D03*
X2540000Y10160000D03*
X2540000Y7620000D03*
D13*
X19050000Y46990000D03*
D14*
X16510000Y46990000D03*
X13970000Y46990000D03*
X19050000Y44450000D03*
X16510000Y44450000D03*
X13970000Y44450000D03*
D15*
X2025238Y40640000D03*
X3725238Y40640000D03*
D16*
X3810000Y37465000D03*
X3810000Y34925000D03*
X29210000Y37465000D03*
X29210000Y34925000D03*
D11*
X5080000Y22860000D03*
X5080000Y20320000D03*
X5080000Y17780000D03*
X5080000Y15240000D03*
X5080000Y12700000D03*
X5080000Y10160000D03*
X5080000Y7620000D03*
X7620000Y15240000D03*
X7620000Y22860000D03*
X7620000Y12700000D03*
X7620000Y20320000D03*
X7620000Y10160000D03*
X7620000Y17780000D03*
X7620000Y7620000D03*
X10160000Y22860000D03*
X12700000Y22860000D03*
X10160000Y10160000D03*
X10160000Y20320000D03*
X12700000Y20320000D03*
X10160000Y7620000D03*
X10160000Y17780000D03*
X12700000Y17780000D03*
X12700000Y10160000D03*
X10160000Y15240000D03*
X12700000Y15240000D03*
X12700000Y7620000D03*
X10160000Y12700000D03*
X12700000Y12700000D03*
X15240000Y22860000D03*
X17780000Y22860000D03*
X20320000Y22860000D03*
X22860000Y22860000D03*
X15240000Y20320000D03*
X17780000Y20320000D03*
X20320000Y20320000D03*
X22860000Y20320000D03*
X15240000Y17780000D03*
X17780000Y17780000D03*
X20320000Y17780000D03*
X22860000Y17780000D03*
X15240000Y15240000D03*
X17780000Y15240000D03*
X20320000Y15240000D03*
X22860000Y15240000D03*
X15240000Y12700000D03*
X17780000Y12700000D03*
X20320000Y12700000D03*
X22860000Y12700000D03*
X15240000Y10160000D03*
X17780000Y10160000D03*
X20320000Y10160000D03*
X22860000Y10160000D03*
X15240000Y7620000D03*
X17780000Y7620000D03*
X20320000Y7620000D03*
X22860000Y7620000D03*
X25400000Y22860000D03*
X27940000Y22860000D03*
X25400000Y10160000D03*
X25400000Y20320000D03*
X27940000Y20320000D03*
X25400000Y7620000D03*
X25400000Y17780000D03*
X27940000Y17780000D03*
X27940000Y10160000D03*
X25400000Y15240000D03*
X27940000Y15240000D03*
X27940000Y7620000D03*
X25400000Y12700000D03*
X27940000Y12700000D03*
X12700000Y1905000D03*
X20320000Y1905000D03*
X17780000Y1905000D03*
X15240000Y1905000D03*
X22860000Y38100000D03*
X22860000Y35560000D03*
X22860000Y33020000D03*
X20320000Y38100000D03*
X20320000Y35560000D03*
X20320000Y33020000D03*
X17780000Y38100000D03*
X17780000Y33020000D03*
X17780000Y35560000D03*
X15240000Y38100000D03*
X15240000Y33020000D03*
X15240000Y35560000D03*
X12700000Y35560000D03*
X12700000Y38100000D03*
X12700000Y33020000D03*
X10160000Y35560000D03*
X10160000Y38100000D03*
X10160000Y33020000D03*
X5080000Y25400000D03*
X5080000Y27940000D03*
X5080000Y30480000D03*
X22860000Y30480000D03*
X7620000Y25400000D03*
X7620000Y27940000D03*
X7620000Y30480000D03*
X25400000Y30480000D03*
X10160000Y25400000D03*
X10160000Y27940000D03*
X10160000Y30480000D03*
X27940000Y30480000D03*
X12700000Y25400000D03*
X12700000Y27940000D03*
X12700000Y30480000D03*
X25400000Y27940000D03*
X15240000Y25400000D03*
X15240000Y27940000D03*
X15240000Y30480000D03*
X27940000Y27940000D03*
X17780000Y25400000D03*
X17780000Y27940000D03*
X17780000Y30480000D03*
X25400000Y25400000D03*
X20320000Y25400000D03*
X20320000Y27940000D03*
X20320000Y30480000D03*
X27940000Y25400000D03*
X22860000Y25400000D03*
X22860000Y27940000D03*
D10*
X35295000Y47586900D03*
X35295000Y46316900D03*
X35295000Y45046900D03*
X35295000Y43776900D03*
X42795000Y43776900D03*
X42795000Y45046900D03*
X42795000Y46316900D03*
X42795000Y47586900D03*
D11*
X40632500Y40640000D03*
X40632500Y33020000D03*
X59047500Y40640000D03*
X59047500Y33020000D03*
D12*
X63810000Y30480000D03*
X63810000Y27940000D03*
X63810000Y25400000D03*
X63810000Y22860000D03*
X63810000Y20320000D03*
X63810000Y17780000D03*
X63810000Y15240000D03*
X63810000Y12700000D03*
X63810000Y10160000D03*
X63810000Y7620000D03*
X35870000Y30480000D03*
X35870000Y27940000D03*
X35870000Y25400000D03*
X35870000Y22860000D03*
X35870000Y20320000D03*
X35870000Y17780000D03*
X35870000Y15240000D03*
X35870000Y12700000D03*
X35870000Y10160000D03*
X35870000Y7620000D03*
D13*
X52380000Y46990000D03*
D14*
X49840000Y46990000D03*
X47300000Y46990000D03*
X52380000Y44450000D03*
X49840000Y44450000D03*
X47300000Y44450000D03*
D15*
X35355238Y40640000D03*
X37055238Y40640000D03*
D16*
X37140000Y37465000D03*
X37140000Y34925000D03*
X62540000Y37465000D03*
X62540000Y34925000D03*
D11*
X38410000Y22860000D03*
X38410000Y20320000D03*
X38410000Y17780000D03*
X38410000Y15240000D03*
X38410000Y12700000D03*
X38410000Y10160000D03*
X38410000Y7620000D03*
X40950000Y15240000D03*
X40950000Y22860000D03*
X40950000Y12700000D03*
X40950000Y20320000D03*
X40950000Y10160000D03*
X40950000Y17780000D03*
X40950000Y7620000D03*
X43490000Y22860000D03*
X46030000Y22860000D03*
X43490000Y10160000D03*
X43490000Y20320000D03*
X46030000Y20320000D03*
X43490000Y7620000D03*
X43490000Y17780000D03*
X46030000Y17780000D03*
X46030000Y10160000D03*
X43490000Y15240000D03*
X46030000Y15240000D03*
X46030000Y7620000D03*
X43490000Y12700000D03*
X46030000Y12700000D03*
X48570000Y22860000D03*
X51110000Y22860000D03*
X53650000Y22860000D03*
X56190000Y22860000D03*
X48570000Y20320000D03*
X51110000Y20320000D03*
X53650000Y20320000D03*
X56190000Y20320000D03*
X48570000Y17780000D03*
X51110000Y17780000D03*
X53650000Y17780000D03*
X56190000Y17780000D03*
X48570000Y15240000D03*
X51110000Y15240000D03*
X53650000Y15240000D03*
X56190000Y15240000D03*
X48570000Y12700000D03*
X51110000Y12700000D03*
X53650000Y12700000D03*
X56190000Y12700000D03*
X48570000Y10160000D03*
X51110000Y10160000D03*
X53650000Y10160000D03*
X56190000Y10160000D03*
X48570000Y7620000D03*
X51110000Y7620000D03*
X53650000Y7620000D03*
X56190000Y7620000D03*
X58730000Y22860000D03*
X61270000Y22860000D03*
X58730000Y10160000D03*
X58730000Y20320000D03*
X61270000Y20320000D03*
X58730000Y7620000D03*
X58730000Y17780000D03*
X61270000Y17780000D03*
X61270000Y10160000D03*
X58730000Y15240000D03*
X61270000Y15240000D03*
X61270000Y7620000D03*
X58730000Y12700000D03*
X61270000Y12700000D03*
X46030000Y1905000D03*
X53650000Y1905000D03*
X51110000Y1905000D03*
X48570000Y1905000D03*
X56190000Y38100000D03*
X56190000Y35560000D03*
X56190000Y33020000D03*
X53650000Y38100000D03*
X53650000Y35560000D03*
X53650000Y33020000D03*
X51110000Y38100000D03*
X51110000Y33020000D03*
X51110000Y35560000D03*
X48570000Y38100000D03*
X48570000Y33020000D03*
X48570000Y35560000D03*
X46030000Y35560000D03*
X46030000Y38100000D03*
X46030000Y33020000D03*
X43490000Y35560000D03*
X43490000Y38100000D03*
X43490000Y33020000D03*
X38410000Y25400000D03*
X38410000Y27940000D03*
X38410000Y30480000D03*
X56190000Y30480000D03*
X40950000Y25400000D03*
X40950000Y27940000D03*
X40950000Y30480000D03*
X58730000Y30480000D03*
X43490000Y25400000D03*
X43490000Y27940000D03*
X43490000Y30480000D03*
X61270000Y30480000D03*
X46030000Y25400000D03*
X46030000Y27940000D03*
X46030000Y30480000D03*
X58730000Y27940000D03*
X48570000Y25400000D03*
X48570000Y27940000D03*
X48570000Y30480000D03*
X61270000Y27940000D03*
X51110000Y25400000D03*
X51110000Y27940000D03*
X51110000Y30480000D03*
X58730000Y25400000D03*
X53650000Y25400000D03*
X53650000Y27940000D03*
X53650000Y30480000D03*
X61270000Y25400000D03*
X56190000Y25400000D03*
X56190000Y27940000D03*
D10*
X68625000Y47586900D03*
X68625000Y46316900D03*
X68625000Y45046900D03*
X68625000Y43776900D03*
X76125000Y43776900D03*
X76125000Y45046900D03*
X76125000Y46316900D03*
X76125000Y47586900D03*
D11*
X73962500Y40640000D03*
X73962500Y33020000D03*
X92377500Y40640000D03*
X92377500Y33020000D03*
D12*
X97140000Y30480000D03*
X97140000Y27940000D03*
X97140000Y25400000D03*
X97140000Y22860000D03*
X97140000Y20320000D03*
X97140000Y17780000D03*
X97140000Y15240000D03*
X97140000Y12700000D03*
X97140000Y10160000D03*
X97140000Y7620000D03*
X69200000Y30480000D03*
X69200000Y27940000D03*
X69200000Y25400000D03*
X69200000Y22860000D03*
X69200000Y20320000D03*
X69200000Y17780000D03*
X69200000Y15240000D03*
X69200000Y12700000D03*
X69200000Y10160000D03*
X69200000Y7620000D03*
D13*
X85710000Y46990000D03*
D14*
X83170000Y46990000D03*
X80630000Y46990000D03*
X85710000Y44450000D03*
X83170000Y44450000D03*
X80630000Y44450000D03*
D15*
X68685238Y40640000D03*
X70385238Y40640000D03*
D16*
X70470000Y37465000D03*
X70470000Y34925000D03*
X95870000Y37465000D03*
X95870000Y34925000D03*
D11*
X71740000Y22860000D03*
X71740000Y20320000D03*
X71740000Y17780000D03*
X71740000Y15240000D03*
X71740000Y12700000D03*
X71740000Y10160000D03*
X71740000Y7620000D03*
X74280000Y15240000D03*
X74280000Y22860000D03*
X74280000Y12700000D03*
X74280000Y20320000D03*
X74280000Y10160000D03*
X74280000Y17780000D03*
X74280000Y7620000D03*
X76820000Y22860000D03*
X79360000Y22860000D03*
X76820000Y10160000D03*
X76820000Y20320000D03*
X79360000Y20320000D03*
X76820000Y7620000D03*
X76820000Y17780000D03*
X79360000Y17780000D03*
X79360000Y10160000D03*
X76820000Y15240000D03*
X79360000Y15240000D03*
X79360000Y7620000D03*
X76820000Y12700000D03*
X79360000Y12700000D03*
X81900000Y22860000D03*
X84440000Y22860000D03*
X86980000Y22860000D03*
X89520000Y22860000D03*
X81900000Y20320000D03*
X84440000Y20320000D03*
X86980000Y20320000D03*
X89520000Y20320000D03*
X81900000Y17780000D03*
X84440000Y17780000D03*
X86980000Y17780000D03*
X89520000Y17780000D03*
X81900000Y15240000D03*
X84440000Y15240000D03*
X86980000Y15240000D03*
X89520000Y15240000D03*
X81900000Y12700000D03*
X84440000Y12700000D03*
X86980000Y12700000D03*
X89520000Y12700000D03*
X81900000Y10160000D03*
X84440000Y10160000D03*
X86980000Y10160000D03*
X89520000Y10160000D03*
X81900000Y7620000D03*
X84440000Y7620000D03*
X86980000Y7620000D03*
X89520000Y7620000D03*
X92060000Y22860000D03*
X94600000Y22860000D03*
X92060000Y10160000D03*
X92060000Y20320000D03*
X94600000Y20320000D03*
X92060000Y7620000D03*
X92060000Y17780000D03*
X94600000Y17780000D03*
X94600000Y10160000D03*
X92060000Y15240000D03*
X94600000Y15240000D03*
X94600000Y7620000D03*
X92060000Y12700000D03*
X94600000Y12700000D03*
X79360000Y1905000D03*
X86980000Y1905000D03*
X84440000Y1905000D03*
X81900000Y1905000D03*
X89520000Y38100000D03*
X89520000Y35560000D03*
X89520000Y33020000D03*
X86980000Y38100000D03*
X86980000Y35560000D03*
X86980000Y33020000D03*
X84440000Y38100000D03*
X84440000Y33020000D03*
X84440000Y35560000D03*
X81900000Y38100000D03*
X81900000Y33020000D03*
X81900000Y35560000D03*
X79360000Y35560000D03*
X79360000Y38100000D03*
X79360000Y33020000D03*
X76820000Y35560000D03*
X76820000Y38100000D03*
X76820000Y33020000D03*
X71740000Y25400000D03*
X71740000Y27940000D03*
X71740000Y30480000D03*
X89520000Y30480000D03*
X74280000Y25400000D03*
X74280000Y27940000D03*
X74280000Y30480000D03*
X92060000Y30480000D03*
X76820000Y25400000D03*
X76820000Y27940000D03*
X76820000Y30480000D03*
X94600000Y30480000D03*
X79360000Y25400000D03*
X79360000Y27940000D03*
X79360000Y30480000D03*
X92060000Y27940000D03*
X81900000Y25400000D03*
X81900000Y27940000D03*
X81900000Y30480000D03*
X94600000Y27940000D03*
X84440000Y25400000D03*
X84440000Y27940000D03*
X84440000Y30480000D03*
X92060000Y25400000D03*
X86980000Y25400000D03*
X86980000Y27940000D03*
X86980000Y30480000D03*
X94600000Y25400000D03*
X89520000Y25400000D03*
X89520000Y27940000D03*
D10*
X1965000Y97586900D03*
X1965000Y96316900D03*
X1965000Y95046900D03*
X1965000Y93776900D03*
X9465000Y93776900D03*
X9465000Y95046900D03*
X9465000Y96316900D03*
X9465000Y97586900D03*
D11*
X7302500Y90640000D03*
X7302500Y83020000D03*
X25717500Y90640000D03*
X25717500Y83020000D03*
D12*
X30480000Y80480000D03*
X30480000Y77940000D03*
X30480000Y75400000D03*
X30480000Y72860000D03*
X30480000Y70320000D03*
X30480000Y67780000D03*
X30480000Y65240000D03*
X30480000Y62700000D03*
X30480000Y60160000D03*
X30480000Y57620000D03*
X2540000Y80480000D03*
X2540000Y77940000D03*
X2540000Y75400000D03*
X2540000Y72860000D03*
X2540000Y70320000D03*
X2540000Y67780000D03*
X2540000Y65240000D03*
X2540000Y62700000D03*
X2540000Y60160000D03*
X2540000Y57620000D03*
D13*
X19050000Y96990000D03*
D14*
X16510000Y96990000D03*
X13970000Y96990000D03*
X19050000Y94450000D03*
X16510000Y94450000D03*
X13970000Y94450000D03*
D15*
X2025238Y90640000D03*
X3725238Y90640000D03*
D16*
X3810000Y87465000D03*
X3810000Y84925000D03*
X29210000Y87465000D03*
X29210000Y84925000D03*
D11*
X5080000Y72860000D03*
X5080000Y70320000D03*
X5080000Y67780000D03*
X5080000Y65240000D03*
X5080000Y62700000D03*
X5080000Y60160000D03*
X5080000Y57620000D03*
X7620000Y65240000D03*
X7620000Y72860000D03*
X7620000Y62700000D03*
X7620000Y70320000D03*
X7620000Y60160000D03*
X7620000Y67780000D03*
X7620000Y57620000D03*
X10160000Y72860000D03*
X12700000Y72860000D03*
X10160000Y60160000D03*
X10160000Y70320000D03*
X12700000Y70320000D03*
X10160000Y57620000D03*
X10160000Y67780000D03*
X12700000Y67780000D03*
X12700000Y60160000D03*
X10160000Y65240000D03*
X12700000Y65240000D03*
X12700000Y57620000D03*
X10160000Y62700000D03*
X12700000Y62700000D03*
X15240000Y72860000D03*
X17780000Y72860000D03*
X20320000Y72860000D03*
X22860000Y72860000D03*
X15240000Y70320000D03*
X17780000Y70320000D03*
X20320000Y70320000D03*
X22860000Y70320000D03*
X15240000Y67780000D03*
X17780000Y67780000D03*
X20320000Y67780000D03*
X22860000Y67780000D03*
X15240000Y65240000D03*
X17780000Y65240000D03*
X20320000Y65240000D03*
X22860000Y65240000D03*
X15240000Y62700000D03*
X17780000Y62700000D03*
X20320000Y62700000D03*
X22860000Y62700000D03*
X15240000Y60160000D03*
X17780000Y60160000D03*
X20320000Y60160000D03*
X22860000Y60160000D03*
X15240000Y57620000D03*
X17780000Y57620000D03*
X20320000Y57620000D03*
X22860000Y57620000D03*
X25400000Y72860000D03*
X27940000Y72860000D03*
X25400000Y60160000D03*
X25400000Y70320000D03*
X27940000Y70320000D03*
X25400000Y57620000D03*
X25400000Y67780000D03*
X27940000Y67780000D03*
X27940000Y60160000D03*
X25400000Y65240000D03*
X27940000Y65240000D03*
X27940000Y57620000D03*
X25400000Y62700000D03*
X27940000Y62700000D03*
X12700000Y51905000D03*
X20320000Y51905000D03*
X17780000Y51905000D03*
X15240000Y51905000D03*
X22860000Y88100000D03*
X22860000Y85560000D03*
X22860000Y83020000D03*
X20320000Y88100000D03*
X20320000Y85560000D03*
X20320000Y83020000D03*
X17780000Y88100000D03*
X17780000Y83020000D03*
X17780000Y85560000D03*
X15240000Y88100000D03*
X15240000Y83020000D03*
X15240000Y85560000D03*
X12700000Y85560000D03*
X12700000Y88100000D03*
X12700000Y83020000D03*
X10160000Y85560000D03*
X10160000Y88100000D03*
X10160000Y83020000D03*
X5080000Y75400000D03*
X5080000Y77940000D03*
X5080000Y80480000D03*
X22860000Y80480000D03*
X7620000Y75400000D03*
X7620000Y77940000D03*
X7620000Y80480000D03*
X25400000Y80480000D03*
X10160000Y75400000D03*
X10160000Y77940000D03*
X10160000Y80480000D03*
X27940000Y80480000D03*
X12700000Y75400000D03*
X12700000Y77940000D03*
X12700000Y80480000D03*
X25400000Y77940000D03*
X15240000Y75400000D03*
X15240000Y77940000D03*
X15240000Y80480000D03*
X27940000Y77940000D03*
X17780000Y75400000D03*
X17780000Y77940000D03*
X17780000Y80480000D03*
X25400000Y75400000D03*
X20320000Y75400000D03*
X20320000Y77940000D03*
X20320000Y80480000D03*
X27940000Y75400000D03*
X22860000Y75400000D03*
X22860000Y77940000D03*
D10*
X35295000Y97586900D03*
X35295000Y96316900D03*
X35295000Y95046900D03*
X35295000Y93776900D03*
X42795000Y93776900D03*
X42795000Y95046900D03*
X42795000Y96316900D03*
X42795000Y97586900D03*
D11*
X40632500Y90640000D03*
X40632500Y83020000D03*
X59047500Y90640000D03*
X59047500Y83020000D03*
D12*
X63810000Y80480000D03*
X63810000Y77940000D03*
X63810000Y75400000D03*
X63810000Y72860000D03*
X63810000Y70320000D03*
X63810000Y67780000D03*
X63810000Y65240000D03*
X63810000Y62700000D03*
X63810000Y60160000D03*
X63810000Y57620000D03*
X35870000Y80480000D03*
X35870000Y77940000D03*
X35870000Y75400000D03*
X35870000Y72860000D03*
X35870000Y70320000D03*
X35870000Y67780000D03*
X35870000Y65240000D03*
X35870000Y62700000D03*
X35870000Y60160000D03*
X35870000Y57620000D03*
D13*
X52380000Y96990000D03*
D14*
X49840000Y96990000D03*
X47300000Y96990000D03*
X52380000Y94450000D03*
X49840000Y94450000D03*
X47300000Y94450000D03*
D15*
X35355238Y90640000D03*
X37055238Y90640000D03*
D16*
X37140000Y87465000D03*
X37140000Y84925000D03*
X62540000Y87465000D03*
X62540000Y84925000D03*
D11*
X38410000Y72860000D03*
X38410000Y70320000D03*
X38410000Y67780000D03*
X38410000Y65240000D03*
X38410000Y62700000D03*
X38410000Y60160000D03*
X38410000Y57620000D03*
X40950000Y65240000D03*
X40950000Y72860000D03*
X40950000Y62700000D03*
X40950000Y70320000D03*
X40950000Y60160000D03*
X40950000Y67780000D03*
X40950000Y57620000D03*
X43490000Y72860000D03*
X46030000Y72860000D03*
X43490000Y60160000D03*
X43490000Y70320000D03*
X46030000Y70320000D03*
X43490000Y57620000D03*
X43490000Y67780000D03*
X46030000Y67780000D03*
X46030000Y60160000D03*
X43490000Y65240000D03*
X46030000Y65240000D03*
X46030000Y57620000D03*
X43490000Y62700000D03*
X46030000Y62700000D03*
X48570000Y72860000D03*
X51110000Y72860000D03*
X53650000Y72860000D03*
X56190000Y72860000D03*
X48570000Y70320000D03*
X51110000Y70320000D03*
X53650000Y70320000D03*
X56190000Y70320000D03*
X48570000Y67780000D03*
X51110000Y67780000D03*
X53650000Y67780000D03*
X56190000Y67780000D03*
X48570000Y65240000D03*
X51110000Y65240000D03*
X53650000Y65240000D03*
X56190000Y65240000D03*
X48570000Y62700000D03*
X51110000Y62700000D03*
X53650000Y62700000D03*
X56190000Y62700000D03*
X48570000Y60160000D03*
X51110000Y60160000D03*
X53650000Y60160000D03*
X56190000Y60160000D03*
X48570000Y57620000D03*
X51110000Y57620000D03*
X53650000Y57620000D03*
X56190000Y57620000D03*
X58730000Y72860000D03*
X61270000Y72860000D03*
X58730000Y60160000D03*
X58730000Y70320000D03*
X61270000Y70320000D03*
X58730000Y57620000D03*
X58730000Y67780000D03*
X61270000Y67780000D03*
X61270000Y60160000D03*
X58730000Y65240000D03*
X61270000Y65240000D03*
X61270000Y57620000D03*
X58730000Y62700000D03*
X61270000Y62700000D03*
X46030000Y51905000D03*
X53650000Y51905000D03*
X51110000Y51905000D03*
X48570000Y51905000D03*
X56190000Y88100000D03*
X56190000Y85560000D03*
X56190000Y83020000D03*
X53650000Y88100000D03*
X53650000Y85560000D03*
X53650000Y83020000D03*
X51110000Y88100000D03*
X51110000Y83020000D03*
X51110000Y85560000D03*
X48570000Y88100000D03*
X48570000Y83020000D03*
X48570000Y85560000D03*
X46030000Y85560000D03*
X46030000Y88100000D03*
X46030000Y83020000D03*
X43490000Y85560000D03*
X43490000Y88100000D03*
X43490000Y83020000D03*
X38410000Y75400000D03*
X38410000Y77940000D03*
X38410000Y80480000D03*
X56190000Y80480000D03*
X40950000Y75400000D03*
X40950000Y77940000D03*
X40950000Y80480000D03*
X58730000Y80480000D03*
X43490000Y75400000D03*
X43490000Y77940000D03*
X43490000Y80480000D03*
X61270000Y80480000D03*
X46030000Y75400000D03*
X46030000Y77940000D03*
X46030000Y80480000D03*
X58730000Y77940000D03*
X48570000Y75400000D03*
X48570000Y77940000D03*
X48570000Y80480000D03*
X61270000Y77940000D03*
X51110000Y75400000D03*
X51110000Y77940000D03*
X51110000Y80480000D03*
X58730000Y75400000D03*
X53650000Y75400000D03*
X53650000Y77940000D03*
X53650000Y80480000D03*
X61270000Y75400000D03*
X56190000Y75400000D03*
X56190000Y77940000D03*
D10*
X68625000Y97586900D03*
X68625000Y96316900D03*
X68625000Y95046900D03*
X68625000Y93776900D03*
X76125000Y93776900D03*
X76125000Y95046900D03*
X76125000Y96316900D03*
X76125000Y97586900D03*
D11*
X73962500Y90640000D03*
X73962500Y83020000D03*
X92377500Y90640000D03*
X92377500Y83020000D03*
D12*
X97140000Y80480000D03*
X97140000Y77940000D03*
X97140000Y75400000D03*
X97140000Y72860000D03*
X97140000Y70320000D03*
X97140000Y67780000D03*
X97140000Y65240000D03*
X97140000Y62700000D03*
X97140000Y60160000D03*
X97140000Y57620000D03*
X69200000Y80480000D03*
X69200000Y77940000D03*
X69200000Y75400000D03*
X69200000Y72860000D03*
X69200000Y70320000D03*
X69200000Y67780000D03*
X69200000Y65240000D03*
X69200000Y62700000D03*
X69200000Y60160000D03*
X69200000Y57620000D03*
D13*
X85710000Y96990000D03*
D14*
X83170000Y96990000D03*
X80630000Y96990000D03*
X85710000Y94450000D03*
X83170000Y94450000D03*
X80630000Y94450000D03*
D15*
X68685238Y90640000D03*
X70385238Y90640000D03*
D16*
X70470000Y87465000D03*
X70470000Y84925000D03*
X95870000Y87465000D03*
X95870000Y84925000D03*
D11*
X71740000Y72860000D03*
X71740000Y70320000D03*
X71740000Y67780000D03*
X71740000Y65240000D03*
X71740000Y62700000D03*
X71740000Y60160000D03*
X71740000Y57620000D03*
X74280000Y65240000D03*
X74280000Y72860000D03*
X74280000Y62700000D03*
X74280000Y70320000D03*
X74280000Y60160000D03*
X74280000Y67780000D03*
X74280000Y57620000D03*
X76820000Y72860000D03*
X79360000Y72860000D03*
X76820000Y60160000D03*
X76820000Y70320000D03*
X79360000Y70320000D03*
X76820000Y57620000D03*
X76820000Y67780000D03*
X79360000Y67780000D03*
X79360000Y60160000D03*
X76820000Y65240000D03*
X79360000Y65240000D03*
X79360000Y57620000D03*
X76820000Y62700000D03*
X79360000Y62700000D03*
X81900000Y72860000D03*
X84440000Y72860000D03*
X86980000Y72860000D03*
X89520000Y72860000D03*
X81900000Y70320000D03*
X84440000Y70320000D03*
X86980000Y70320000D03*
X89520000Y70320000D03*
X81900000Y67780000D03*
X84440000Y67780000D03*
X86980000Y67780000D03*
X89520000Y67780000D03*
X81900000Y65240000D03*
X84440000Y65240000D03*
X86980000Y65240000D03*
X89520000Y65240000D03*
X81900000Y62700000D03*
X84440000Y62700000D03*
X86980000Y62700000D03*
X89520000Y62700000D03*
X81900000Y60160000D03*
X84440000Y60160000D03*
X86980000Y60160000D03*
X89520000Y60160000D03*
X81900000Y57620000D03*
X84440000Y57620000D03*
X86980000Y57620000D03*
X89520000Y57620000D03*
X92060000Y72860000D03*
X94600000Y72860000D03*
X92060000Y60160000D03*
X92060000Y70320000D03*
X94600000Y70320000D03*
X92060000Y57620000D03*
X92060000Y67780000D03*
X94600000Y67780000D03*
X94600000Y60160000D03*
X92060000Y65240000D03*
X94600000Y65240000D03*
X94600000Y57620000D03*
X92060000Y62700000D03*
X94600000Y62700000D03*
X79360000Y51905000D03*
X86980000Y51905000D03*
X84440000Y51905000D03*
X81900000Y51905000D03*
X89520000Y88100000D03*
X89520000Y85560000D03*
X89520000Y83020000D03*
X86980000Y88100000D03*
X86980000Y85560000D03*
X86980000Y83020000D03*
X84440000Y88100000D03*
X84440000Y83020000D03*
X84440000Y85560000D03*
X81900000Y88100000D03*
X81900000Y83020000D03*
X81900000Y85560000D03*
X79360000Y85560000D03*
X79360000Y88100000D03*
X79360000Y83020000D03*
X76820000Y85560000D03*
X76820000Y88100000D03*
X76820000Y83020000D03*
X71740000Y75400000D03*
X71740000Y77940000D03*
X71740000Y80480000D03*
X89520000Y80480000D03*
X74280000Y75400000D03*
X74280000Y77940000D03*
X74280000Y80480000D03*
X92060000Y80480000D03*
X76820000Y75400000D03*
X76820000Y77940000D03*
X76820000Y80480000D03*
X94600000Y80480000D03*
X79360000Y75400000D03*
X79360000Y77940000D03*
X79360000Y80480000D03*
X92060000Y77940000D03*
X81900000Y75400000D03*
X81900000Y77940000D03*
X81900000Y80480000D03*
X94600000Y77940000D03*
X84440000Y75400000D03*
X84440000Y77940000D03*
X84440000Y80480000D03*
X92060000Y75400000D03*
X86980000Y75400000D03*
X86980000Y77940000D03*
X86980000Y80480000D03*
X94600000Y75400000D03*
X89520000Y75400000D03*
X89520000Y77940000D03*
M02*
