M48
;GenerationSoftware,Autodesk,EAGLE,9.1.1*%
;CreationDate,2018-07-27T15:30:15Z*%
FMAT,2
ICI,OFF
METRIC,TZ,00.0000
T6C0.3048
T5C0.8128
T4C0.9000
T3C1.0000
T2C1.0160
T1C1.1000
%
G90
M71
T1
X523800Y469900
X806300Y944500
X831700Y944500
X857100Y944500
X806300Y969900
X831700Y969900
X857100Y969900
X473000Y944500
X498400Y944500
X523800Y944500
X473000Y969900
X498400Y969900
X523800Y969900
X139700Y944500
X165100Y944500
X190500Y944500
X139700Y969900
X165100Y969900
X190500Y969900
X806300Y444500
X831700Y444500
X857100Y444500
X806300Y469900
X831700Y469900
X857100Y469900
X473000Y444500
X498400Y444500
X523800Y444500
X473000Y469900
X498400Y469900
X139700Y444500
X165100Y444500
X190500Y444500
X139700Y469900
X165100Y469900
X190500Y469900
T2
X434900Y627000
X793600Y254000
X895200Y754000
X946000Y754000
X869800Y804800
X869800Y779400
X869800Y754000
X920600Y754000
X844400Y804800
X844400Y779400
X844400Y754000
X946000Y779400
X819000Y804800
X819000Y779400
X819000Y754000
X920600Y779400
X793600Y804800
X793600Y779400
X793600Y754000
X946000Y804800
X768200Y804800
X768200Y779400
X768200Y754000
X920600Y804800
X742800Y804800
X742800Y779400
X742800Y754000
X895200Y804800
X717400Y804800
X717400Y779400
X717400Y754000
X768200Y830200
X768200Y881000
X768200Y855600
X793600Y830200
X793600Y881000
X844400Y601600
X819000Y601600
X895200Y627000
X869800Y627000
X844400Y627000
X819000Y627000
X895200Y652400
X869800Y652400
X844400Y652400
X819000Y652400
X895200Y677800
X869800Y677800
X844400Y677800
X819000Y677800
X895200Y703200
X869800Y703200
X844400Y703200
X819000Y703200
X895200Y728600
X869800Y728600
X844400Y728600
X819000Y728600
X793600Y627000
X768200Y627000
X793600Y855600
X819000Y855600
X819000Y830200
X819000Y881000
X844400Y855600
X844400Y830200
X793600Y576200
X793600Y652400
X768200Y652400
X793600Y601600
X50800Y228600
X50800Y203200
X50800Y177800
X50800Y152400
X50800Y127000
X50800Y101600
X50800Y76200
X76200Y152400
X76200Y228600
X76200Y127000
X76200Y203200
X76200Y101600
X76200Y177800
X76200Y76200
X101600Y228600
X127000Y228600
X101600Y101600
X101600Y203200
X127000Y203200
X101600Y76200
X101600Y177800
X127000Y177800
X127000Y101600
X101600Y152400
X127000Y152400
X127000Y76200
X101600Y127000
X127000Y127000
X152400Y228600
X177800Y228600
X203200Y228600
X228600Y228600
X152400Y203200
X177800Y203200
X203200Y203200
X228600Y203200
X152400Y177800
X177800Y177800
X203200Y177800
X228600Y177800
X152400Y152400
X177800Y152400
X203200Y152400
X228600Y152400
X152400Y127000
X177800Y127000
X203200Y127000
X228600Y127000
X152400Y101600
X177800Y101600
X203200Y101600
X228600Y101600
X152400Y76200
X177800Y76200
X203200Y76200
X228600Y76200
X254000Y228600
X279400Y228600
X254000Y101600
X254000Y203200
X279400Y203200
X254000Y76200
X254000Y177800
X279400Y177800
X279400Y101600
X254000Y152400
X279400Y152400
X279400Y76200
X254000Y127000
X279400Y127000
X127000Y19050
X203200Y19050
X177800Y19050
X152400Y19050
X228600Y381000
X228600Y355600
X228600Y330200
X203200Y381000
X203200Y355600
X203200Y330200
X177800Y381000
X177800Y330200
X177800Y355600
X152400Y381000
X152400Y330200
X152400Y355600
X127000Y355600
X127000Y381000
X127000Y330200
X101600Y355600
X101600Y381000
X101600Y330200
X50800Y254000
X50800Y279400
X50800Y304800
X228600Y304800
X76200Y254000
X76200Y279400
X76200Y304800
X254000Y304800
X101600Y254000
X101600Y279400
X101600Y304800
X279400Y304800
X127000Y254000
X127000Y279400
X127000Y304800
X254000Y279400
X152400Y254000
X152400Y279400
X152400Y304800
X279400Y279400
X177800Y254000
X177800Y279400
X177800Y304800
X254000Y254000
X203200Y254000
X203200Y279400
X203200Y304800
X279400Y254000
X228600Y254000
X228600Y279400
X793600Y677800
X768200Y677800
X768200Y576200
X793600Y703200
X768200Y703200
X768200Y601600
X793600Y728600
X768200Y728600
X742800Y576200
X742800Y677800
X742800Y601600
X742800Y703200
X742800Y627000
X742800Y728600
X742800Y652400
X717400Y576200
X717400Y601600
X717400Y627000
X717400Y652400
X717400Y677800
X717400Y703200
X717400Y728600
X869800Y601600
X895200Y601600
X793600Y355600
X844400Y881000
X869800Y830200
X869800Y855600
X869800Y881000
X895200Y830200
X819000Y576200
X844400Y576200
X869800Y576200
X895200Y576200
X384100Y228600
X384100Y203200
X384100Y177800
X384100Y152400
X384100Y127000
X384100Y101600
X384100Y76200
X409500Y152400
X409500Y228600
X409500Y127000
X409500Y203200
X409500Y101600
X409500Y177800
X409500Y76200
X434900Y228600
X460300Y228600
X434900Y101600
X434900Y203200
X460300Y203200
X434900Y76200
X434900Y177800
X460300Y177800
X460300Y101600
X434900Y152400
X460300Y152400
X460300Y76200
X434900Y127000
X460300Y127000
X485700Y228600
X511100Y228600
X536500Y228600
X561900Y228600
X485700Y203200
X511100Y203200
X536500Y203200
X561900Y203200
X485700Y177800
X511100Y177800
X536500Y177800
X561900Y177800
X485700Y152400
X511100Y152400
X536500Y152400
X561900Y152400
X485700Y127000
X511100Y127000
X536500Y127000
X561900Y127000
X485700Y101600
X511100Y101600
X536500Y101600
X561900Y101600
X485700Y76200
X511100Y76200
X536500Y76200
X561900Y76200
X587300Y228600
X612700Y228600
X587300Y101600
X587300Y203200
X612700Y203200
X587300Y76200
X587300Y177800
X612700Y177800
X612700Y101600
X587300Y152400
X612700Y152400
X612700Y76200
X587300Y127000
X612700Y127000
X460300Y19050
X536500Y19050
X511100Y19050
X485700Y19050
X561900Y381000
X561900Y355600
X561900Y330200
X536500Y381000
X536500Y355600
X536500Y330200
X511100Y381000
X511100Y330200
X511100Y355600
X485700Y381000
X485700Y330200
X485700Y355600
X460300Y355600
X460300Y381000
X460300Y330200
X434900Y355600
X434900Y381000
X434900Y330200
X384100Y254000
X384100Y279400
X384100Y304800
X561900Y304800
X409500Y254000
X409500Y279400
X409500Y304800
X587300Y304800
X434900Y254000
X434900Y279400
X434900Y304800
X612700Y304800
X460300Y254000
X460300Y279400
X460300Y304800
X587300Y279400
X485700Y254000
X485700Y279400
X485700Y304800
X612700Y279400
X511100Y254000
X511100Y279400
X511100Y304800
X587300Y254000
X536500Y254000
X536500Y279400
X536500Y304800
X612700Y254000
X561900Y254000
X561900Y279400
X561900Y779400
X561900Y754000
X612700Y754000
X536500Y804800
X536500Y779400
X536500Y754000
X587300Y754000
X511100Y804800
X511100Y779400
X511100Y754000
X612700Y779400
X485700Y804800
X485700Y779400
X485700Y754000
X587300Y779400
X460300Y804800
X460300Y779400
X460300Y754000
X612700Y804800
X434900Y804800
X434900Y779400
X434900Y754000
X587300Y804800
X409500Y804800
X895200Y855600
X895200Y881000
X819000Y519050
X844400Y519050
X869800Y519050
X793600Y519050
X409500Y779400
X409500Y754000
X561900Y804800
X384100Y804800
X717400Y228600
X717400Y203200
X717400Y177800
X717400Y152400
X717400Y127000
X717400Y101600
X717400Y76200
X742800Y152400
X742800Y228600
X742800Y127000
X742800Y203200
X742800Y101600
X742800Y177800
X742800Y76200
X768200Y228600
X793600Y228600
X768200Y101600
X768200Y203200
X793600Y203200
X768200Y76200
X768200Y177800
X793600Y177800
X793600Y101600
X768200Y152400
X793600Y152400
X793600Y76200
X768200Y127000
X793600Y127000
X819000Y228600
X844400Y228600
X869800Y228600
X895200Y228600
X819000Y203200
X844400Y203200
X869800Y203200
X895200Y203200
X819000Y177800
X844400Y177800
X869800Y177800
X895200Y177800
X819000Y152400
X844400Y152400
X869800Y152400
X895200Y152400
X819000Y127000
X844400Y127000
X869800Y127000
X895200Y127000
X819000Y101600
X844400Y101600
X869800Y101600
X895200Y101600
X819000Y76200
X844400Y76200
X869800Y76200
X895200Y76200
X920600Y228600
X946000Y228600
X920600Y101600
X920600Y203200
X946000Y203200
X920600Y76200
X920600Y177800
X946000Y177800
X946000Y101600
X920600Y152400
X946000Y152400
X946000Y76200
X920600Y127000
X946000Y127000
X793600Y19050
X869800Y19050
X844400Y19050
X819000Y19050
X895200Y381000
X895200Y355600
X895200Y330200
X869800Y381000
X869800Y355600
X869800Y330200
X844400Y381000
X844400Y330200
X844400Y355600
X819000Y381000
X819000Y330200
X819000Y355600
X946000Y627000
X793600Y381000
X793600Y330200
X768200Y355600
X768200Y381000
X768200Y330200
X717400Y254000
X717400Y279400
X717400Y304800
X895200Y304800
X742800Y254000
X742800Y279400
X742800Y304800
X920600Y304800
X768200Y254000
X768200Y279400
X768200Y304800
X946000Y304800
X920600Y627000
X793600Y279400
X793600Y304800
X920600Y279400
X819000Y254000
X819000Y279400
X819000Y304800
X946000Y279400
X844400Y254000
X844400Y279400
X844400Y304800
X920600Y254000
X869800Y254000
X869800Y279400
X869800Y304800
X946000Y254000
X895200Y254000
X895200Y279400
X384100Y779400
X384100Y754000
X434900Y830200
X434900Y881000
X434900Y855600
X460300Y830200
X460300Y881000
X460300Y855600
X485700Y855600
X485700Y830200
X485700Y881000
X511100Y855600
X511100Y830200
X511100Y881000
X536500Y830200
X536500Y855600
X536500Y881000
X561900Y830200
X561900Y855600
X561900Y881000
X485700Y519050
X511100Y519050
X536500Y519050
X460300Y519050
X946000Y576200
X946000Y652400
X920600Y652400
X946000Y601600
X946000Y677800
X920600Y677800
X612700Y627000
X587300Y627000
X612700Y576200
X612700Y652400
X50800Y728600
X50800Y703200
X50800Y677800
X50800Y652400
X50800Y627000
X50800Y601600
X50800Y576200
X76200Y652400
X76200Y728600
X76200Y627000
X76200Y703200
X76200Y601600
X76200Y677800
X76200Y576200
X101600Y728600
X127000Y728600
X101600Y601600
X101600Y703200
X127000Y703200
X101600Y576200
X101600Y677800
X127000Y677800
X127000Y601600
X101600Y652400
X127000Y652400
X127000Y576200
X101600Y627000
X127000Y627000
X152400Y728600
X177800Y728600
X203200Y728600
X228600Y728600
X152400Y703200
X177800Y703200
X203200Y703200
X228600Y703200
X152400Y677800
X177800Y677800
X203200Y677800
X228600Y677800
X152400Y652400
X177800Y652400
X203200Y652400
X228600Y652400
X152400Y627000
X177800Y627000
X203200Y627000
X228600Y627000
X152400Y601600
X177800Y601600
X203200Y601600
X228600Y601600
X152400Y576200
X177800Y576200
X203200Y576200
X228600Y576200
X254000Y728600
X279400Y728600
X254000Y601600
X254000Y703200
X279400Y703200
X254000Y576200
X254000Y677800
X279400Y677800
X279400Y601600
X254000Y652400
X279400Y652400
X279400Y576200
X254000Y627000
X279400Y627000
X127000Y519050
X203200Y519050
X177800Y519050
X152400Y519050
X228600Y881000
X228600Y855600
X228600Y830200
X203200Y881000
X203200Y855600
X203200Y830200
X177800Y881000
X177800Y830200
X177800Y855600
X152400Y881000
X152400Y830200
X152400Y855600
X127000Y855600
X127000Y881000
X127000Y830200
X101600Y855600
X101600Y881000
X101600Y830200
X50800Y754000
X50800Y779400
X50800Y804800
X228600Y804800
X76200Y754000
X76200Y779400
X76200Y804800
X254000Y804800
X101600Y754000
X101600Y779400
X101600Y804800
X279400Y804800
X127000Y754000
X127000Y779400
X127000Y804800
X254000Y779400
X152400Y754000
X152400Y779400
X152400Y804800
X279400Y779400
X177800Y754000
X177800Y779400
X177800Y804800
X254000Y754000
X203200Y754000
X203200Y779400
X203200Y804800
X279400Y754000
X228600Y754000
X228600Y779400
X587300Y652400
X612700Y601600
X612700Y677800
X587300Y677800
X587300Y576200
X612700Y703200
X587300Y703200
X587300Y601600
X612700Y728600
X587300Y728600
X561900Y576200
X536500Y576200
X511100Y576200
X485700Y576200
X561900Y601600
X536500Y601600
X511100Y601600
X485700Y601600
X561900Y627000
X536500Y627000
X511100Y627000
X485700Y627000
X561900Y652400
X536500Y652400
X920600Y576200
X946000Y703200
X920600Y703200
X920600Y601600
X946000Y728600
X920600Y728600
X511100Y652400
X485700Y652400
X561900Y677800
X536500Y677800
X384100Y728600
X384100Y703200
X384100Y677800
X384100Y652400
X384100Y627000
X384100Y601600
X384100Y576200
X409500Y652400
X409500Y728600
X409500Y627000
X409500Y703200
X409500Y601600
X409500Y677800
X409500Y576200
X434900Y728600
X460300Y728600
X434900Y601600
X434900Y703200
X460300Y703200
X434900Y576200
X434900Y677800
X460300Y677800
X460300Y601600
X434900Y652400
X460300Y652400
X460300Y576200
X895200Y779400
X460300Y627000
X485700Y728600
X511100Y728600
X536500Y728600
X561900Y728600
X485700Y703200
X511100Y703200
X536500Y703200
X561900Y703200
X485700Y677800
X511100Y677800
T3
X304800Y304800
X304800Y279400
X304800Y254000
X304800Y228600
X358700Y576200
X358700Y601600
X358700Y627000
X358700Y652400
X358700Y677800
X358700Y703200
X358700Y728600
X358700Y754000
X358700Y779400
X358700Y804800
X638100Y576200
X638100Y601600
X638100Y627000
X638100Y652400
X638100Y677800
X638100Y703200
X638100Y728600
X638100Y754000
X638100Y779400
X638100Y804800
X304800Y203200
X304800Y177800
X304800Y152400
X304800Y127000
X304800Y101600
X304800Y76200
X25400Y304800
X25400Y279400
X25400Y576200
X25400Y601600
X25400Y627000
X25400Y652400
X25400Y677800
X25400Y703200
X25400Y728600
X25400Y754000
X25400Y779400
X25400Y804800
X304800Y576200
X304800Y601600
X304800Y627000
X304800Y652400
X304800Y677800
X304800Y703200
X304800Y728600
X304800Y754000
X304800Y779400
X304800Y804800
X25400Y254000
X25400Y228600
X25400Y203200
X25400Y177800
X25400Y152400
X25400Y127000
X25400Y101600
X25400Y76200
X692000Y76200
X692000Y101600
X692000Y127000
X692000Y152400
X692000Y177800
X692000Y203200
X692000Y228600
X692000Y254000
X692000Y279400
X692000Y304800
X971400Y76200
X971400Y101600
X971400Y127000
X971400Y152400
X971400Y177800
X971400Y203200
X971400Y228600
X971400Y254000
X971400Y279400
X971400Y304800
X638100Y304800
X638100Y279400
X638100Y254000
X638100Y228600
X638100Y203200
X638100Y177800
X638100Y152400
X638100Y127000
X971400Y804800
X971400Y779400
X971400Y754000
X971400Y728600
X971400Y703200
X971400Y677800
X971400Y652400
X971400Y627000
X971400Y601600
X971400Y576200
X692000Y804800
X692000Y779400
X692000Y754000
X692000Y728600
X692000Y703200
X692000Y677800
X692000Y652400
X692000Y627000
X692000Y601600
X692000Y576200
X638100Y101600
X638100Y76200
X358700Y304800
X358700Y279400
X358700Y76200
X358700Y101600
X358700Y254000
X358700Y228600
X358700Y203200
X358700Y177800
X358700Y127000
X358700Y152400
T4
X73025Y406400
X73025Y330200
X257175Y406400
X257175Y330200
X739625Y906400
X590475Y830200
X590475Y906400
X406325Y830200
X923775Y830200
X923775Y906400
X739625Y830200
X406325Y906400
X739625Y406400
X739625Y330200
X923775Y406400
X923775Y330200
X590475Y330200
X590475Y406400
X406325Y330200
X406325Y406400
X257175Y830200
X257175Y906400
X73025Y830200
X73025Y906400
T5
X704700Y374650
X704700Y349250
X958700Y374650
X958700Y349250
X38100Y374650
X38100Y349250
X292100Y374650
X292100Y349250
X38100Y874650
X38100Y849250
X292100Y874650
X292100Y849250
X958700Y849250
X625400Y349250
X625400Y374650
X371400Y349250
X371400Y874650
X371400Y849250
X625400Y874650
X371400Y374650
X704700Y874650
X704700Y849250
X958700Y874650
X625400Y849250
T6
X66675Y455613
X161925Y409575
X111125Y400050
X217488Y444500
X236538Y444500
X249238Y431800
X71438Y423863
X87313Y415925
X123825Y473075
X211138Y406400
X122238Y449263
X412675Y441325
X399975Y455613
X495225Y409575
X444425Y400050
X550788Y444500
X569838Y444500
X582538Y431800
X66675Y955613
X79375Y941325
X404738Y423863
X420613Y415925
X457125Y473075
X544438Y406400
X455538Y449263
X745975Y441325
X733275Y455613
X828525Y409575
X777725Y400050
X884088Y444500
X903138Y444500
X915838Y431800
X738038Y423863
X753913Y415925
X790425Y473075
X877738Y406400
X788838Y449263
X788838Y949263
X877738Y906400
X790425Y973075
X753913Y915925
X738038Y923863
X915838Y931800
X903138Y944500
X884088Y944500
X777725Y900050
X828525Y909575
X733275Y955613
X745975Y941325
X455538Y949263
X544438Y906400
X457125Y973075
X420613Y915925
X404738Y923863
X582538Y931800
X569838Y944500
X550788Y944500
X444425Y900050
X495225Y909575
X399975Y955613
X412675Y941325
X122238Y949263
X211138Y906400
X123825Y973075
X87313Y915925
X71438Y923863
X249238Y931800
X236538Y944500
X217488Y944500
X111125Y900050
X161925Y909575
X79375Y441325
M30