<?xml version="1.0" encoding="utf-8"?>
<!-- Generator: Adobe Illustrator 22.1.0, SVG Export Plug-In . SVG Version: 6.00 Build 0)  -->
<svg version="1.1" xmlns="http://www.w3.org/2000/svg" xmlns:xlink="http://www.w3.org/1999/xlink" x="0px" y="0px"
	 viewBox="0 0 283.5 283.5" style="enable-background:new 0 0 283.5 283.5;" xml:space="preserve">
<style type="text/css">
	.st0{fill:none;}
	.st1{fill:#FFFFFF;}
</style>
<g id="Layer_1">
	<g>
		<polygon class="st0" points="5.7,0 283.5,277.7 283.5,271.1 12.4,0 		"/>
		<polygon class="st0" points="85.4,0 283.5,198.1 283.5,191.5 92,0 		"/>
		<polygon class="st0" points="58.8,0 283.5,224.6 283.5,218 65.5,0 		"/>
		<polygon class="st0" points="19,0 283.5,264.4 283.5,257.8 25.7,0 		"/>
		<polygon class="st0" points="45.6,0 283.5,237.9 283.5,231.3 52.2,0 		"/>
		<polygon class="st0" points="72.1,0 283.5,211.4 283.5,204.7 78.7,0 		"/>
		<polygon class="st0" points="32.3,0 283.5,251.2 283.5,244.5 38.9,0 		"/>
		<polygon class="st0" points="178.3,0 283.5,105.2 283.5,98.6 184.9,0 		"/>
		<polygon class="st0" points="218.1,0 283.5,65.4 283.5,58.8 224.7,0 		"/>
		<polygon class="st0" points="204.8,0 283.5,78.7 283.5,72 211.4,0 		"/>
		<polygon class="st0" points="231.3,0 283.5,52.1 283.5,45.5 238,0 		"/>
		<polygon class="st0" points="191.5,0 283.5,91.9 283.5,85.3 198.2,0 		"/>
		<polygon class="st0" points="271.2,0 283.5,12.3 283.5,5.7 277.8,0 		"/>
		<polygon class="st0" points="257.9,0 283.5,25.6 283.5,18.9 264.5,0 		"/>
		<polygon class="st0" points="244.6,0 283.5,38.8 283.5,32.2 251.3,0 		"/>
		<polygon class="st0" points="125.2,0 283.5,158.3 283.5,151.6 131.8,0 		"/>
		<polygon class="st0" points="0,7.5 275.9,283.5 282.6,283.5 0,0.9 		"/>
		<polygon class="st0" points="98.6,0 283.5,184.8 283.5,178.2 105.3,0 		"/>
		<polygon class="st0" points="111.9,0 283.5,171.6 283.5,164.9 118.5,0 		"/>
		<polygon class="st0" points="138.5,0 283.5,145 283.5,138.4 145.1,0 		"/>
		<polygon class="st0" points="165,0 283.5,118.5 283.5,111.8 171.6,0 		"/>
		<polygon class="st0" points="151.7,0 283.5,131.7 283.5,125.1 158.4,0 		"/>
		<polygon class="st0" points="0,259.7 23.8,283.5 30.4,283.5 0,253 		"/>
		<polygon class="st0" points="0,233.1 50.3,283.5 57,283.5 0,226.5 		"/>
		<polygon class="st0" points="0,100.4 183.1,283.5 189.7,283.5 0,93.8 		"/>
		<polygon class="st0" points="0,87.1 196.3,283.5 203,283.5 0,80.5 		"/>
		<polygon class="st0" points="0,193.3 90.2,283.5 96.8,283.5 0,186.7 		"/>
		<polygon class="st0" points="0,246.4 37.1,283.5 43.7,283.5 0,239.8 		"/>
		<polygon class="st0" points="0,113.7 169.8,283.5 176.4,283.5 0,107 		"/>
		<polygon class="st0" points="0,127 156.5,283.5 163.1,283.5 0,120.3 		"/>
		<polygon class="st0" points="0,140.2 143.2,283.5 149.9,283.5 0,133.6 		"/>
		<polygon class="st0" points="0,219.8 63.6,283.5 70.3,283.5 0,213.2 		"/>
		<polygon class="st0" points="0,206.6 76.9,283.5 83.5,283.5 0,199.9 		"/>
		<polygon class="st0" points="0,283.5 3.9,283.5 0,279.6 		"/>
		<polygon class="st0" points="0,166.8 116.7,283.5 123.3,283.5 0,160.1 		"/>
		<polygon class="st0" points="0,34.1 249.4,283.5 256,283.5 0,27.4 		"/>
		<polygon class="st0" points="0,180 103.4,283.5 110.1,283.5 0,173.4 		"/>
		<polygon class="st0" points="0,20.8 262.7,283.5 269.3,283.5 0,14.2 		"/>
		<polygon class="st0" points="0,47.3 236.1,283.5 242.8,283.5 0,40.7 		"/>
		<polygon class="st0" points="0,153.5 130,283.5 136.6,283.5 0,146.9 		"/>
		<polygon class="st0" points="0,272.9 10.5,283.5 17.2,283.5 0,266.3 		"/>
		<polygon class="st0" points="0,73.9 209.6,283.5 216.2,283.5 0,67.2 		"/>
		<polygon class="st0" points="0,60.6 222.9,283.5 229.5,283.5 0,54 		"/>
		<polygon points="0,279.6 3.9,283.5 10.5,283.5 0,272.9 		"/>
		<polygon points="0,266.3 17.2,283.5 23.8,283.5 0,259.7 		"/>
		<polygon points="0,253 30.4,283.5 37.1,283.5 0,246.4 		"/>
		<polygon points="0,239.8 43.7,283.5 50.3,283.5 0,233.1 		"/>
		<polygon points="0,226.5 57,283.5 63.6,283.5 0,219.8 		"/>
		<polygon points="0,213.2 70.3,283.5 76.9,283.5 0,206.6 		"/>
		<polygon points="0,199.9 83.5,283.5 90.2,283.5 0,193.3 		"/>
		<polygon points="0,186.7 96.8,283.5 103.4,283.5 0,180 		"/>
		<polygon points="0,173.4 110.1,283.5 116.7,283.5 0,166.8 		"/>
		<polygon points="0,160.1 123.3,283.5 130,283.5 0,153.5 		"/>
		<polygon points="0,146.9 136.6,283.5 143.2,283.5 0,140.2 		"/>
		<polygon points="0,133.6 149.9,283.5 156.5,283.5 0,127 		"/>
		<polygon points="0,120.3 163.1,283.5 169.8,283.5 0,113.7 		"/>
		<polygon points="0,107 176.4,283.5 183.1,283.5 0,100.4 		"/>
		<polygon points="0,93.8 189.7,283.5 196.3,283.5 0,87.1 		"/>
		<polygon points="0,80.5 203,283.5 209.6,283.5 0,73.9 		"/>
		<polygon points="0,67.2 216.2,283.5 222.9,283.5 0,60.6 		"/>
		<polygon points="0,54 229.5,283.5 236.1,283.5 0,47.3 		"/>
		<polygon points="0,40.7 242.8,283.5 249.4,283.5 0,34.1 		"/>
		<polygon points="0,27.4 256,283.5 262.7,283.5 0,20.8 		"/>
		<polygon points="0,14.2 269.3,283.5 275.9,283.5 0,7.5 		"/>
		<polygon points="0,0 0,0.9 282.6,283.5 283.5,283.5 283.5,277.7 5.7,0 		"/>
		<polygon points="12.4,0 283.5,271.1 283.5,264.4 19,0 		"/>
		<polygon points="25.7,0 283.5,257.8 283.5,251.2 32.3,0 		"/>
		<polygon points="38.9,0 283.5,244.5 283.5,237.9 45.6,0 		"/>
		<polygon points="52.2,0 283.5,231.3 283.5,224.6 58.8,0 		"/>
		<polygon points="65.5,0 283.5,218 283.5,211.4 72.1,0 		"/>
		<polygon points="78.7,0 283.5,204.7 283.5,198.1 85.4,0 		"/>
		<polygon points="92,0 283.5,191.5 283.5,184.8 98.6,0 		"/>
		<polygon points="105.3,0 283.5,178.2 283.5,171.6 111.9,0 		"/>
		<polygon points="118.5,0 283.5,164.9 283.5,158.3 125.2,0 		"/>
		<polygon points="131.8,0 283.5,151.6 283.5,145 138.5,0 		"/>
		<polygon points="145.1,0 283.5,138.4 283.5,131.7 151.7,0 		"/>
		<polygon points="158.4,0 283.5,125.1 283.5,118.5 165,0 		"/>
		<polygon points="171.6,0 283.5,111.8 283.5,105.2 178.3,0 		"/>
		<polygon points="184.9,0 283.5,98.6 283.5,91.9 191.5,0 		"/>
		<polygon points="198.2,0 283.5,85.3 283.5,78.7 204.8,0 		"/>
		<polygon points="211.4,0 283.5,72 283.5,65.4 218.1,0 		"/>
		<polygon points="224.7,0 283.5,58.8 283.5,52.1 231.3,0 		"/>
		<polygon points="238,0 283.5,45.5 283.5,38.8 244.6,0 		"/>
		<polygon points="251.3,0 283.5,32.2 283.5,25.6 257.9,0 		"/>
		<polygon points="264.5,0 283.5,18.9 283.5,12.3 271.2,0 		"/>
		<polygon points="283.5,5.7 283.5,0 277.8,0 		"/>
	</g>
</g>
<g id="Layer_2">
	<g>
		<g>
			<path d="M24.4,30.8c-1.6,0-2.8-1.3-2.8-2.8v-2.3h-2V28c0,1.6-1.3,2.8-2.8,2.8h-5.1c-1.6,0-2.8-1.3-2.8-2.8V10
				c0-1.6,1.3-2.8,2.8-2.8h5.1c1.5,0,2.7,1.1,2.8,2.6c0.4,0,0.7,0.1,1,0.3c0.3-0.2,0.7-0.3,1-0.3c0.1-1.4,1.3-2.6,2.8-2.6h5.1
				c1.6,0,2.8,1.3,2.8,2.8v18c0,1.6-1.3,2.8-2.8,2.8H24.4z"/>
			<path class="st1" d="M11.6,10h5.1v2.6h2.6v2.6h2.6v-2.6h2.6V10h5.1v18h-5.1v-7.7h-2.6v2.6h-2.6v-2.6h-2.6V28h-5.1V10z"/>
			<path d="M24.4,51.8c-1.6,0-2.8-1.3-2.8-2.8v-2.3h-2V49c0,1.6-1.3,2.8-2.8,2.8h-5.1c-1.6,0-2.8-1.3-2.8-2.8V36.1
				c0-1.5,1.1-2.7,2.6-2.8c0.1-1.4,1.2-2.4,2.6-2.6c0.1-1.4,1.3-2.6,2.8-2.6h7.7c1.5,0,2.7,1.1,2.8,2.6c1.4,0.1,2.4,1.2,2.6,2.6
				c1.4,0.1,2.6,1.3,2.6,2.8V49c0,1.6-1.3,2.8-2.8,2.8H24.4z"/>
			<path class="st1" d="M16.7,31h7.7v2.6H27v2.6h2.6V49h-5.1v-5.1h-7.7V49h-5.1V36.1h2.6v-2.6h2.6V31z M19.3,33.6v2.6h-2.6v5.1h7.7
				v-5.1h-2.6v-2.6H19.3z"/>
			<path d="M14.1,72.8c-1.5,0-2.7-1.1-2.8-2.6c-1.4-0.1-2.6-1.3-2.6-2.8v-2.6c0-1.1,0.7-2.1,1.6-2.6c-1-0.5-1.6-1.4-1.6-2.6v-5.1
				c0-1.5,1.1-2.7,2.6-2.8c0.1-1.4,1.3-2.6,2.8-2.6h10.3c1.5,0,2.7,1.1,2.8,2.6c1.4,0.1,2.6,1.3,2.6,2.8v2.6c0,0.5-0.1,0.9-0.3,1.3
				c0.2,0.3,0.3,0.7,0.3,1c1.4,0.1,2.6,1.3,2.6,2.8v5.1c0,1.5-1.1,2.7-2.6,2.8c-0.1,1.4-1.3,2.6-2.8,2.6H14.1z"/>
			<path class="st1" d="M14.1,52h10.3v2.6H27v2.6h-5.1v-2.6h-5.1v5.1H27v2.6h2.6v5.1H27V70H14.1v-2.6h-2.6v-2.6h5.1v2.6h7.7v-5.1
				H14.1v-2.6h-2.6v-5.1h2.6V52z"/>
			<path d="M19.3,93.8c-1.6,0-2.8-1.3-2.8-2.8V78.4h-2.3c-1.6,0-2.8-1.3-2.8-2.8V73c0-1.6,1.3-2.8,2.8-2.8h15.4
				c1.6,0,2.8,1.3,2.8,2.8v2.6c0,1.6-1.3,2.8-2.8,2.8h-2.3V91c0,1.6-1.3,2.8-2.8,2.8H19.3z"/>
			<path class="st1" d="M14.1,73h15.4v2.6h-5.1V91h-5.1V75.6h-5.1V73z"/>
			<path d="M11.6,114.8c-1.6,0-2.8-1.3-2.8-2.8V94c0-1.6,1.3-2.8,2.8-2.8h18c1.6,0,2.8,1.3,2.8,2.8v2.6c0,1.6-1.3,2.8-2.8,2.8h-0.9
				c0.7,0.5,1.2,1.4,1.2,2.3v2.6c0,0.9-0.5,1.8-1.2,2.3h0.9c1.6,0,2.8,1.3,2.8,2.8v2.6c0,1.6-1.3,2.8-2.8,2.8H11.6z"/>
			<path class="st1" d="M11.6,94h18v2.6H16.7v5.1H27v2.6H16.7v5.1h12.8v2.6h-18V94z"/>
			<path d="M21.8,135.8c-1.1,0-2.1-0.7-2.6-1.6c-0.5,1-1.4,1.6-2.6,1.6h-5.1c-1.6,0-2.8-1.3-2.8-2.8v-18c0-1.6,1.3-2.8,2.8-2.8H27
				c1.5,0,2.7,1.1,2.8,2.6c1.4,0.1,2.6,1.3,2.6,2.8v7.7c0,1.1-0.7,2.1-1.6,2.6c1,0.5,1.6,1.4,1.6,2.6v2.6c0,1.6-1.3,2.8-2.8,2.8
				H21.8z M19.5,121.1c0.2-0.3,0.4-0.5,0.7-0.7h-0.7V121.1z"/>
			<path class="st1" d="M11.6,115H27v2.6h2.6v7.7h-5.1v2.6H27v2.6h2.6v2.6h-7.7v-2.6h-2.6v-2.6h-2.6v5.1h-5.1V115z M16.7,117.6v7.7
				h5.1v-2.6h2.6v-5.1H16.7z"/>
		</g>
	</g>
	<g>
		<path d="M14.1,180.7c-1.5,0-2.7-1.1-2.8-2.6c-1.4-0.1-2.6-1.3-2.6-2.8v-2.6c0-1.1,0.7-2.1,1.6-2.6c-1-0.5-1.6-1.4-1.6-2.6v-5.1
			c0-1.5,1.1-2.7,2.6-2.8c0.1-1.4,1.3-2.6,2.8-2.6h10.3c1.5,0,2.7,1.1,2.8,2.6c1.4,0.1,2.6,1.3,2.6,2.8v2.6c0,0.5-0.1,0.9-0.3,1.3
			c0.2,0.3,0.3,0.7,0.3,1c1.4,0.1,2.6,1.3,2.6,2.8v5.1c0,1.5-1.1,2.7-2.6,2.8c-0.1,1.4-1.3,2.6-2.8,2.6H14.1z"/>
		<path class="st1" d="M14.1,159.9h10.3v2.6H27v2.6h-5.1v-2.6h-5.1v5.1H27v2.6h2.6v5.1H27v2.6H14.1v-2.6h-2.6v-2.6h5.1v2.6h7.7v-5.1
			H14.1v-2.6h-2.6v-5.1h2.6V159.9z"/>
		<path d="M11.6,201.7c-1.6,0-2.8-1.3-2.8-2.8v-18c0-1.6,1.3-2.8,2.8-2.8h5.1c1.6,0,2.8,1.3,2.8,2.8v12.6h10c1.6,0,2.8,1.3,2.8,2.8
			v2.6c0,1.6-1.3,2.8-2.8,2.8H11.6z"/>
		<path class="st1" d="M11.6,180.9h5.1v15.4h12.8v2.6h-18V180.9z"/>
		<path d="M24.4,222.7c-1.6,0-2.8-1.3-2.8-2.8v-2.3h-2v2.3c0,1.6-1.3,2.8-2.8,2.8h-5.1c-1.6,0-2.8-1.3-2.8-2.8V207
			c0-1.5,1.1-2.7,2.6-2.8c0.1-1.4,1.2-2.4,2.6-2.6c0.1-1.4,1.3-2.6,2.8-2.6h7.7c1.5,0,2.7,1.1,2.8,2.6c1.4,0.1,2.4,1.2,2.6,2.6
			c1.4,0.1,2.6,1.3,2.6,2.8v12.8c0,1.6-1.3,2.8-2.8,2.8H24.4z"/>
		<path class="st1" d="M16.7,201.9h7.7v2.6H27v2.6h2.6v12.8h-5.1v-5.1h-7.7v5.1h-5.1V207h2.6v-2.6h2.6V201.9z M19.3,204.4v2.6h-2.6
			v5.1h7.7V207h-2.6v-2.6H19.3z"/>
		<path d="M19.3,243.7c-1.5,0-2.7-1.1-2.8-2.6c-1.4-0.1-2.4-1.2-2.6-2.6c-1.4-0.1-2.4-1.2-2.6-2.6c-1.4-0.1-2.6-1.3-2.6-2.8v-10.3
			c0-1.6,1.3-2.8,2.8-2.8h5.1c1.6,0,2.8,1.3,2.8,2.8v4.9c0.4,0,0.7,0.1,1,0.3c0.3-0.2,0.7-0.3,1-0.3v-4.9c0-1.6,1.3-2.8,2.8-2.8h5.1
			c1.6,0,2.8,1.3,2.8,2.8v10.3c0,1.5-1.1,2.7-2.6,2.8c-0.1,1.4-1.2,2.4-2.6,2.6c-0.1,1.4-1.2,2.4-2.6,2.6c-0.1,1.4-1.3,2.6-2.8,2.6
			H19.3z"/>
		<path class="st1" d="M11.6,222.9h5.1v7.7h2.6v2.6h2.6v-2.6h2.6v-7.7h5.1v10.3H27v2.6h-2.6v2.6h-2.6v2.6h-2.6v-2.6h-2.6v-2.6h-2.6
			v-2.6h-2.6V222.9z"/>
		<path d="M11.6,264.7c-1.6,0-2.8-1.3-2.8-2.8v-18c0-1.6,1.3-2.8,2.8-2.8h18c1.6,0,2.8,1.3,2.8,2.8v2.6c0,1.6-1.3,2.8-2.8,2.8h-0.9
			c0.7,0.5,1.2,1.4,1.2,2.3v2.6c0,0.9-0.5,1.8-1.2,2.3h0.9c1.6,0,2.8,1.3,2.8,2.8v2.6c0,1.6-1.3,2.8-2.8,2.8H11.6z"/>
		<path class="st1" d="M11.6,243.9h18v2.6H16.7v5.1H27v2.6H16.7v5.1h12.8v2.6h-18V243.9z"/>
	</g>
	
		<image style="overflow:visible;" width="700" height="700" xlink:href="../../../../Desktop/noun_1088133_cc.png"  transform="matrix(2.659929e-04 0 0 2.659929e-04 41.4582 48.3033)">
	</image>
	<path d="M86.3,123.2c-0.6,0-1.2-0.2-1.7-0.5l-0.8-0.6c-0.6,0.2-1.3,0.2-1.9-0.1c-0.8-0.3-1.4-0.9-1.7-1.6l-0.5-1.2l-0.5,1.2
		c-0.3,0.7-1,1.4-1.7,1.6c-0.6,0.2-1.2,0.2-1.9,0.1l-0.8,0.6c-1.2,0.8-2.8,0.7-3.8-0.3l-1.9-1.9c-1-1-1.2-2.6-0.3-3.8l0.3-0.5
		l-0.6-0.1c-1.4-0.3-2.4-1.5-2.4-2.9v-2.7c0-1.4,1-2.7,2.4-2.9l0.6-0.1l-0.3-0.5c-0.8-1.2-0.7-2.8,0.3-3.8l1.9-1.9
		c1-1,2.6-1.2,3.8-0.4l0.2,0.1l-1.5,2.4l1.6-2.3l0.2,0.1l0.1-0.6c0.3-1.4,1.5-2.4,2.9-2.4h2.7c1.4,0,2.7,1,2.9,2.4l0.1,0.6l0.5-0.3
		c1.2-0.8,2.8-0.7,3.8,0.4l1.9,1.9c1,1,1.2,2.6,0.4,3.8l-0.3,0.5l0.2,0c0,0,0.1,0,0.1,0l0.2,0c0,0,0,0,0,0c1.4,0.3,2.4,1.5,2.4,2.9
		l0,2.7c0,1.4-1,2.7-2.4,2.9l-0.6,0.1l0.3,0.5c0.8,1.2,0.7,2.8-0.4,3.8l-1.9,1.9C87.9,122.9,87.1,123.2,86.3,123.2z M74.2,121.4
		C74.2,121.4,74.3,121.4,74.2,121.4L74.2,121.4z M85.4,121.4L85.4,121.4C85.3,121.4,85.4,121.4,85.4,121.4z M77,121.3L77,121.3
		C77,121.3,77,121.3,77,121.3z M86,119.8C86,119.8,86,119.9,86,119.8L86,119.8z M73.5,119.8L73.5,119.8
		C73.5,119.8,73.5,119.8,73.5,119.8z M89.4,117.1C89.4,117.1,89.4,117.1,89.4,117.1C89.4,117.1,89.4,117.1,89.4,117.1z M70.1,117.1
		C70.1,117.1,70.1,117.1,70.1,117.1C70.1,117.1,70.1,117.1,70.1,117.1z M89.4,117.1C89.4,117.1,89.4,117.1,89.4,117.1
		C89.4,117.1,89.4,117.1,89.4,117.1z M89.4,117.1C89.4,117.1,89.4,117.1,89.4,117.1C89.4,117.1,89.4,117.1,89.4,117.1z M82.5,117
		L82.5,117C82.5,117,82.5,117,82.5,117z M71.2,116.5C71.2,116.5,71.2,116.5,71.2,116.5L71.2,116.5z M88.4,116.5L88.4,116.5
		C88.4,116.5,88.4,116.5,88.4,116.5z M86.3,116.4C86.3,116.4,86.3,116.4,86.3,116.4L86.3,116.4z M90.4,114.7
		C90.4,114.7,90.4,114.7,90.4,114.7C90.4,114.7,90.4,114.7,90.4,114.7z M90.4,114.7C90.4,114.7,90.4,114.7,90.4,114.7
		C90.4,114.7,90.4,114.7,90.4,114.7z M70.3,114.5C70.3,114.5,70.3,114.5,70.3,114.5L70.3,114.5z M79.8,111.6c-0.1,0-0.2,0.1-0.2,0.2
		c0,0.1,0.1,0.1,0.1,0.2c0,0,0.1,0,0.1,0.1c0,0,0.1,0,0.1-0.1c0,0,0.1-0.1,0.1-0.2C79.9,111.7,79.9,111.6,79.8,111.6z M73.8,111.8
		c0,0,0.1,0.1,0.1,0.1c0-0.1,0-0.1,0-0.2c0,0,0-0.1,0-0.1C73.9,111.7,73.8,111.8,73.8,111.8z M85.6,111.7c0,0,0,0.1,0,0.1
		c0,0.1,0,0.1,0,0.2c0-0.1,0.1-0.1,0.1-0.1C85.7,111.8,85.7,111.7,85.6,111.7z M90.3,108.7C90.3,108.7,90.3,108.7,90.3,108.7
		C90.3,108.7,90.3,108.7,90.3,108.7z M69.2,108.7C69.2,108.7,69.2,108.7,69.2,108.7C69.2,108.7,69.2,108.7,69.2,108.7z M90.3,108.7
		C90.3,108.7,90.3,108.7,90.3,108.7S90.3,108.7,90.3,108.7z M69.2,108.7L69.2,108.7L69.2,108.7z M75.6,107.6c0,0,0,0.1,0,0.1
		c0,0,0.1-0.1,0.1-0.1C75.6,107.6,75.6,107.6,75.6,107.6z M83.9,107.6c0,0,0.1,0.1,0.1,0.1c0,0,0-0.1,0-0.1
		C83.9,107.6,83.9,107.6,83.9,107.6z M89.3,106.4C89.3,106.4,89.3,106.4,89.3,106.4C89.3,106.4,89.3,106.4,89.3,106.4z M70.2,106.4
		C70.2,106.4,70.2,106.4,70.2,106.4C70.2,106.4,70.2,106.4,70.2,106.4z M79.8,105.9C79.8,105.9,79.7,105.9,79.8,105.9
		C79.8,105.9,79.8,105.9,79.8,105.9C79.8,105.9,79.8,105.9,79.8,105.9z M84.4,105.2C84.4,105.2,84.4,105.2,84.4,105.2L84.4,105.2z
		 M85,102.2L85,102.2L85,102.2z M85,102.2L85,102.2L85,102.2z M78.5,101.6C78.5,101.6,78.5,101.6,78.5,101.6L78.5,101.6z
		 M82.8,101.3L82.8,101.3L82.8,101.3z M76.7,101.3L76.7,101.3L76.7,101.3z M82.8,101.3C82.8,101.3,82.8,101.3,82.8,101.3
		C82.8,101.3,82.8,101.3,82.8,101.3z M76.7,101.3C76.7,101.3,76.7,101.3,76.7,101.3C76.7,101.3,76.7,101.3,76.7,101.3z M82.8,101.3
		C82.8,101.3,82.8,101.3,82.8,101.3C82.8,101.3,82.8,101.3,82.8,101.3z M76.7,101.3C76.7,101.3,76.7,101.3,76.7,101.3
		C76.7,101.3,76.7,101.3,76.7,101.3z M82.8,101.3C82.8,101.3,82.8,101.3,82.8,101.3C82.8,101.3,82.8,101.3,82.8,101.3z M76.7,101.3
		C76.7,101.3,76.7,101.3,76.7,101.3C76.7,101.3,76.7,101.3,76.7,101.3z M82.8,101.3C82.8,101.3,82.8,101.3,82.8,101.3
		C82.8,101.3,82.8,101.3,82.8,101.3z M76.7,101.3C76.7,101.3,76.7,101.3,76.7,101.3C76.7,101.3,76.7,101.3,76.7,101.3z"/>
	<path class="st1" d="M90.4,110.3l-0.3,0c-0.1,0-0.2,0-0.2,0l-2.2-0.4c-0.1,0-0.1-0.1-0.2-0.1l-0.8-1.9c0-0.1,0-0.2,0-0.2l1.3-1.8
		c0-0.1,0.1-0.1,0.1-0.2l0.1-0.2c0-0.1,0-0.1,0-0.2l-0.2-0.2l-0.2-0.2l-0.5-0.5l-0.2-0.2l-0.5-0.5l-0.2-0.2l-0.2-0.2
		c0,0-0.1-0.1-0.2,0l-0.2,0.1c-0.1,0-0.1,0.1-0.2,0.1l-1.9,1.3c-0.1,0-0.1,0-0.2,0l-1.8-0.8c-0.1,0-0.1-0.1-0.1-0.2l-0.4-2.3
		c0-0.1,0-0.2,0-0.2l0-0.3c0-0.1-0.1-0.1-0.1-0.1h-0.3h-0.2h-0.7h-0.2h-0.7h-0.2h-0.3c-0.1,0-0.1,0.1-0.1,0.1l0,0.3
		c0,0.1,0,0.2,0,0.2l-0.4,2.3c0,0.1-0.1,0.1-0.1,0.2l-1.8,0.8c-0.1,0-0.2,0-0.2,0l-1.9-1.3c-0.1,0-0.1-0.1-0.2-0.1l-0.2-0.1
		c-0.1,0-0.1,0-0.2,0l-0.2,0.2l-0.2,0.2l-0.5,0.5l-0.2,0.2l-0.5,0.5l-0.2,0.2l-0.2,0.2c0,0-0.1,0.1,0,0.2l0.1,0.2
		c0,0.1,0.1,0.1,0.1,0.2l1.3,1.8c0,0.1,0,0.1,0,0.2l-0.8,1.9c0,0.1-0.1,0.1-0.2,0.1l-2.2,0.4c-0.1,0-0.2,0-0.2,0l-0.3,0
		c-0.1,0-0.1,0.1-0.1,0.1l0,0.3v0.2v0.7v0.2v0.7v0.2v0.3c0,0.1,0.1,0.1,0.1,0.1l0.3,0c0.1,0,0.2,0,0.2,0l2.1,0.4
		c0.1,0,0.1,0.1,0.2,0.1l0.8,2c0,0.1,0,0.2,0,0.2l-1.2,1.7c0,0.1-0.1,0.1-0.1,0.2l-0.1,0.2c0,0.1,0,0.1,0,0.2l0.2,0.2l0.2,0.2
		l0.5,0.5l0.2,0.2l0.5,0.5l0.2,0.2l0.2,0.2c0,0,0.1,0.1,0.2,0l0.2-0.1c0.1,0,0.1-0.1,0.2-0.1l1.7-1.2c0.1,0,0.1,0,0.2,0l0.4,0.2
		c0.1,0,0.2,0.1,0.2,0.1l0.4,0.2c0.1,0,0.1,0,0.2-0.1l0.2-0.4c0-0.1,0.1-0.2,0.1-0.2l1.5-3.5c0-0.1,0.1-0.2,0.1-0.2l0.1-0.3
		c0-0.1,0-0.1-0.1-0.2l-0.2-0.1c0,0-0.1-0.1-0.1-0.1c-0.8-0.5-1.4-1.5-1.4-2.5c0-1.7,1.3-3,3-3c1.7,0,3,1.3,3,3c0,1.1-0.6,2-1.4,2.5
		c0,0-0.1,0.1-0.1,0.1l-0.2,0.1c-0.1,0-0.1,0.1-0.1,0.2l0.1,0.3c0,0.1,0.1,0.2,0.1,0.2l1.5,3.5c0,0.1,0.1,0.2,0.1,0.2l0.2,0.4
		c0,0.1,0.1,0.1,0.2,0.1l0.4-0.2c0.1,0,0.2-0.1,0.2-0.1l0.4-0.2c0.1,0,0.1,0,0.2,0l1.7,1.2c0.1,0,0.1,0.1,0.2,0.1l0.2,0.1
		c0.1,0,0.1,0,0.2,0l0.2-0.2l0.2-0.2l0.5-0.5l0.2-0.2l0.5-0.5l0.2-0.2l0.2-0.2c0,0,0.1-0.1,0-0.2l-0.1-0.2c0-0.1-0.1-0.1-0.1-0.2
		l-1.2-1.7c0-0.1,0-0.1,0-0.2l0.8-2c0-0.1,0.1-0.1,0.2-0.1l2.1-0.4c0.1,0,0.2,0,0.2,0l0.3,0c0.1,0,0.1-0.1,0.1-0.1v-0.3v-0.2v-0.7
		v-0.2l0-0.7v-0.2l0-0.3C90.5,110.3,90.5,110.3,90.4,110.3"/>
	<path d="M180.8,123.2c-0.6,0-1.2-0.2-1.7-0.5l-0.8-0.6c-0.6,0.2-1.3,0.2-1.8,0c-0.8-0.3-1.4-0.9-1.7-1.6l-0.5-1.2l-0.5,1.2
		c-0.3,0.7-1,1.4-1.7,1.6c-0.6,0.2-1.2,0.2-1.9,0.1l-0.8,0.6c-1.2,0.8-2.8,0.7-3.8-0.3l-1.9-1.9c-1-1-1.2-2.6-0.3-3.8l0.3-0.5
		l-0.6-0.1c-1.4-0.3-2.4-1.5-2.4-2.9v-2.7c0-1.4,1-2.7,2.4-2.9l0.6-0.1l-0.3-0.5c-0.8-1.2-0.7-2.8,0.3-3.8l1.9-1.9
		c1-1,2.6-1.2,3.8-0.4l0.3,0.2c0,0,0.1,0.1,0.1,0.1l0.1,0l0.1-0.6c0.3-1.4,1.5-2.4,2.9-2.4h2.7c1.4,0,2.7,1,2.9,2.4l0.1,0.6l0.5-0.3
		c1.2-0.8,2.8-0.7,3.8,0.4l1.9,1.9c1,1,1.2,2.6,0.4,3.8l-0.3,0.5l0.6,0.1c0,0,0,0,0,0c1.4,0.3,2.4,1.5,2.4,2.9v2.7
		c0,1.4-1,2.7-2.4,2.9l-0.6,0.1l0.3,0.5c0.8,1.2,0.7,2.8-0.4,3.8l-1.9,1.9C182.3,122.9,181.6,123.2,180.8,123.2z M168.7,121.4
		C168.7,121.4,168.7,121.4,168.7,121.4L168.7,121.4z M179.9,121.4L179.9,121.4C179.8,121.4,179.8,121.4,179.9,121.4z M177,121.3
		C177,121.3,177,121.3,177,121.3L177,121.3z M171.5,121.3L171.5,121.3C171.5,121.3,171.5,121.3,171.5,121.3z M180.5,119.9
		C180.5,119.9,180.5,119.9,180.5,119.9L180.5,119.9z M168,119.8L168,119.8C168,119.8,168,119.8,168,119.8z M164.6,117.2
		C164.6,117.2,164.6,117.2,164.6,117.2C164.6,117.2,164.6,117.2,164.6,117.2z M164.6,117.2C164.6,117.2,164.6,117.2,164.6,117.2
		C164.6,117.2,164.6,117.2,164.6,117.2z M177,117L177,117C177,117,177,117,177,117z M176.2,116.9
		C176.2,116.9,176.2,116.9,176.2,116.9L176.2,116.9z M165.6,116.5C165.6,116.5,165.7,116.5,165.6,116.5L165.6,116.5z M182.9,116.5
		L182.9,116.5C182.9,116.5,182.9,116.5,182.9,116.5z M180.8,116.4C180.8,116.4,180.8,116.4,180.8,116.4L180.8,116.4z M163.6,114.7
		C163.6,114.7,163.6,114.7,163.6,114.7C163.6,114.7,163.6,114.7,163.6,114.7z M163.6,114.7C163.6,114.7,163.6,114.7,163.6,114.7
		C163.6,114.7,163.6,114.7,163.6,114.7z M184.9,114.7C184.9,114.7,184.9,114.7,184.9,114.7C184.9,114.7,184.9,114.7,184.9,114.7z
		 M163.6,114.7C163.6,114.7,163.6,114.7,163.6,114.7C163.6,114.7,163.6,114.7,163.6,114.7z M184.9,114.7
		C184.9,114.7,184.9,114.7,184.9,114.7C184.9,114.7,184.9,114.7,184.9,114.7z M174.2,112L174.2,112L174.2,112
		C174.2,112,174.2,112,174.2,112z M174.2,111.6c-0.1,0-0.2,0.1-0.2,0.2c0,0.1,0.1,0.1,0.1,0.2c0,0,0.1,0,0.1,0.1c0,0,0.1,0,0.1-0.1
		c0,0,0.1-0.1,0.1-0.2C174.4,111.7,174.3,111.6,174.2,111.6z M180.1,111.7c0,0,0,0.1,0,0.1c0,0.1,0,0.1,0,0.2c0-0.1,0.1-0.1,0.1-0.1
		C180.2,111.8,180.1,111.7,180.1,111.7z M168.3,111.8c0,0,0.1,0.1,0.1,0.1c0-0.1,0-0.1,0-0.2c0,0,0-0.1,0-0.1
		C168.4,111.7,168.3,111.8,168.3,111.8z M184.8,108.7C184.8,108.7,184.8,108.7,184.8,108.7C184.8,108.7,184.8,108.7,184.8,108.7z
		 M184.8,108.7L184.8,108.7L184.8,108.7z M178.3,107.6c0,0,0.1,0.1,0.1,0.1c0,0,0-0.1,0-0.1C178.4,107.6,178.4,107.6,178.3,107.6z
		 M170,107.6c0,0,0,0.1,0,0.1c0,0,0.1-0.1,0.1-0.1C170.1,107.6,170.1,107.6,170,107.6z M183.8,106.4
		C183.8,106.4,183.8,106.4,183.8,106.4C183.8,106.4,183.8,106.4,183.8,106.4z M164.7,106.4C164.7,106.4,164.7,106.4,164.7,106.4
		C164.7,106.4,164.7,106.4,164.7,106.4z M174.2,105.9C174.3,105.9,174.3,105.9,174.2,105.9C174.3,105.9,174.3,105.9,174.2,105.9
		C174.2,105.9,174.2,105.9,174.2,105.9C174.2,105.9,174.2,105.9,174.2,105.9z M178.9,105.2C178.9,105.2,178.9,105.2,178.9,105.2
		L178.9,105.2z M169.4,103.3C169.4,103.3,169.4,103.3,169.4,103.3L169.4,103.3z M179,103.3L179,103.3C179,103.3,179,103.3,179,103.3
		z M176.8,102.4C176.8,102.4,176.8,102.4,176.8,102.4L176.8,102.4z M171.6,102.4L171.6,102.4C171.7,102.4,171.7,102.4,171.6,102.4z
		 M169,102.2C169,102.2,169,102.2,169,102.2S169,102.2,169,102.2z M169,102.2C169,102.2,169,102.2,169,102.2S169,102.2,169,102.2z
		 M179.5,102.2C179.5,102.2,179.5,102.2,179.5,102.2C179.5,102.2,179.5,102.2,179.5,102.2z M179.5,102.2L179.5,102.2L179.5,102.2z
		 M179.4,102.2L179.4,102.2L179.4,102.2z M173,101.6C173,101.6,173,101.6,173,101.6L173,101.6z M175.5,101.6L175.5,101.6
		C175.5,101.6,175.5,101.6,175.5,101.6z M177.3,101.3L177.3,101.3L177.3,101.3z M177.3,101.3C177.3,101.3,177.3,101.3,177.3,101.3
		C177.3,101.3,177.3,101.3,177.3,101.3z M177.3,101.3C177.3,101.3,177.3,101.3,177.3,101.3C177.3,101.3,177.3,101.3,177.3,101.3z
		 M171.2,101.3C171.2,101.3,171.2,101.3,171.2,101.3C171.2,101.3,171.2,101.3,171.2,101.3z"/>
	<path class="st1" d="M184.9,110.3l-0.3,0c-0.1,0-0.2,0-0.2,0l-2.2-0.4c-0.1,0-0.1-0.1-0.2-0.1l-0.8-1.9c0-0.1,0-0.2,0-0.2l1.3-1.8
		c0-0.1,0.1-0.1,0.1-0.2l0.1-0.2c0-0.1,0-0.1,0-0.2l-0.2-0.2l-0.2-0.2l-0.5-0.5l-0.2-0.2l-0.5-0.5l-0.2-0.2l-0.2-0.2
		c0,0-0.1-0.1-0.2,0l-0.2,0.1c-0.1,0-0.1,0.1-0.2,0.1l-1.9,1.3c-0.1,0-0.1,0-0.2,0l-1.8-0.8c-0.1,0-0.1-0.1-0.1-0.2l-0.4-2.3
		c0-0.1,0-0.2,0-0.2l0-0.3c0-0.1-0.1-0.1-0.1-0.1h-0.3h-0.2h-0.7h-0.2h-0.7h-0.2h-0.3c-0.1,0-0.1,0.1-0.1,0.1l0,0.3
		c0,0.1,0,0.2,0,0.2l-0.4,2.3c0,0.1-0.1,0.1-0.1,0.2l-1.8,0.8c-0.1,0-0.2,0-0.2,0l-1.9-1.3c-0.1,0-0.1-0.1-0.2-0.1l-0.2-0.1
		c-0.1,0-0.1,0-0.2,0l-0.2,0.2l-0.2,0.2l-0.5,0.5l-0.2,0.2l-0.5,0.5l-0.2,0.2l-0.2,0.2c0,0-0.1,0.1,0,0.2l0.1,0.2
		c0,0.1,0.1,0.1,0.1,0.2l1.3,1.8c0,0.1,0,0.1,0,0.2l-0.8,1.9c0,0.1-0.1,0.1-0.2,0.1l-2.2,0.4c-0.1,0-0.2,0-0.2,0l-0.3,0
		c-0.1,0-0.1,0.1-0.1,0.1l0,0.3v0.2v0.7v0.2v0.7v0.2v0.3c0,0.1,0.1,0.1,0.1,0.1l0.3,0c0.1,0,0.2,0,0.2,0l2.1,0.4
		c0.1,0,0.1,0.1,0.2,0.1l0.8,2c0,0.1,0,0.2,0,0.2l-1.2,1.7c0,0.1-0.1,0.1-0.1,0.2l-0.1,0.2c0,0.1,0,0.1,0,0.2l0.2,0.2l0.2,0.2
		l0.5,0.5l0.2,0.2l0.5,0.5l0.2,0.2l0.2,0.2c0,0,0.1,0.1,0.2,0l0.2-0.1c0.1,0,0.1-0.1,0.2-0.1l1.7-1.2c0.1,0,0.1,0,0.2,0l0.4,0.2
		c0.1,0,0.2,0.1,0.2,0.1l0.4,0.2c0.1,0,0.1,0,0.2-0.1l0.2-0.4c0-0.1,0.1-0.2,0.1-0.2l1.5-3.5c0-0.1,0.1-0.2,0.1-0.2l0.1-0.3
		c0-0.1,0-0.1-0.1-0.2l-0.2-0.1c0,0-0.1-0.1-0.1-0.1c-0.8-0.5-1.4-1.5-1.4-2.5c0-1.7,1.3-3,3-3c1.7,0,3,1.3,3,3c0,1.1-0.6,2-1.4,2.5
		c0,0-0.1,0.1-0.1,0.1l-0.2,0.1c-0.1,0-0.1,0.1-0.1,0.2l0.1,0.3c0,0.1,0.1,0.2,0.1,0.2l1.5,3.5c0,0.1,0.1,0.2,0.1,0.2l0.2,0.4
		c0,0.1,0.1,0.1,0.2,0.1l0.4-0.2c0.1,0,0.2-0.1,0.2-0.1l0.4-0.2c0.1,0,0.1,0,0.2,0l1.7,1.2c0.1,0,0.1,0.1,0.2,0.1l0.2,0.1
		c0.1,0,0.1,0,0.2,0l0.2-0.2l0.2-0.2l0.5-0.5l0.2-0.2l0.5-0.5l0.2-0.2l0.2-0.2c0,0,0.1-0.1,0-0.2l-0.1-0.2c0-0.1-0.1-0.1-0.1-0.2
		l-1.2-1.7c0-0.1,0-0.1,0-0.2l0.8-2c0-0.1,0.1-0.1,0.2-0.1l2.1-0.4c0.1,0,0.2,0,0.2,0l0.3,0c0.1,0,0.1-0.1,0.1-0.1v-0.3v-0.2v-0.7
		v-0.2l0-0.7v-0.2l0-0.3C185,110.3,185,110.3,184.9,110.3"/>
	<path d="M275.3,123.2c-0.6,0-1.2-0.2-1.7-0.5l-0.8-0.6c-0.6,0.2-1.3,0.2-1.8,0c-0.8-0.3-1.4-0.9-1.7-1.6l-0.5-1.2l-0.5,1.2
		c-0.3,0.7-1,1.4-1.7,1.6c-0.6,0.2-1.2,0.2-1.9,0.1l-0.8,0.6c-1.2,0.8-2.8,0.7-3.8-0.4l-1.9-1.9c-1-1-1.2-2.6-0.3-3.8l0.3-0.5
		l-0.6-0.1c-1.4-0.3-2.4-1.5-2.4-2.9v-2.7c0-1.4,1-2.7,2.4-2.9l0.6-0.1l-0.3-0.5c-0.8-1.2-0.7-2.8,0.4-3.8l1.9-1.9
		c1-1,2.6-1.2,3.8-0.4l0.5,0.3l0.1-0.6c0.3-1.4,1.5-2.4,2.9-2.4h2.7c1.4,0,2.7,1,2.9,2.4l0.1,0.6l0.1,0c0,0,0.1-0.1,0.1-0.1l0.3-0.2
		c1.2-0.8,2.8-0.7,3.8,0.3l1.9,1.9c1,1,1.2,2.6,0.4,3.8l-0.3,0.5l0.6,0.1c0,0,0,0,0,0c1.4,0.3,2.4,1.5,2.4,2.9v2.7
		c0,1.4-1,2.7-2.4,2.9l-0.6,0.1l0.3,0.5c0.8,1.2,0.7,2.8-0.3,3.8l-1.9,1.9C276.8,122.9,276,123.2,275.3,123.2z M263.2,121.4
		C263.2,121.4,263.2,121.4,263.2,121.4L263.2,121.4z M274.3,121.4L274.3,121.4C274.3,121.4,274.3,121.4,274.3,121.4z M271.5,121.3
		C271.5,121.3,271.5,121.3,271.5,121.3L271.5,121.3z M266,121.3L266,121.3C265.9,121.3,266,121.3,266,121.3z M275,119.8
		C275,119.8,275,119.9,275,119.8L275,119.8z M262.5,119.8L262.5,119.8C262.5,119.9,262.5,119.8,262.5,119.8z M264,118.3L264,118.3
		C264.1,118.3,264.1,118.3,264,118.3z M276.8,118L276.8,118C276.8,118,276.8,118,276.8,118z M278.4,117.2
		C278.4,117.2,278.4,117.2,278.4,117.2C278.4,117.2,278.4,117.2,278.4,117.2z M278.4,117.2C278.4,117.2,278.4,117.2,278.4,117.2
		C278.4,117.2,278.4,117.2,278.4,117.2z M270.7,116.9C270.7,116.9,270.7,116.9,270.7,116.9L270.7,116.9z M260.1,116.5
		C260.1,116.5,260.1,116.5,260.1,116.5L260.1,116.5z M277.3,116.5L277.3,116.5C277.3,116.5,277.3,116.5,277.3,116.5z M262.1,116.4
		L262.1,116.4C262.1,116.4,262.1,116.4,262.1,116.4z M258.1,114.7C258.1,114.7,258.1,114.7,258.1,114.7
		C258.1,114.7,258.1,114.7,258.1,114.7z M258.1,114.7C258.1,114.7,258.1,114.7,258.1,114.7C258.1,114.7,258.1,114.7,258.1,114.7z
		 M279.4,114.7C279.4,114.7,279.4,114.7,279.4,114.7C279.4,114.7,279.4,114.7,279.4,114.7z M264.9,113.7
		C264.9,113.7,264.9,113.7,264.9,113.7L264.9,113.7z M268.7,112L268.7,112C268.7,112,268.7,112,268.7,112z M268.7,111.6
		c-0.1,0-0.2,0.1-0.2,0.2c0,0.1,0.1,0.1,0.1,0.2c0,0,0.1,0,0.1,0.1c0,0,0.1,0,0.1-0.1c0,0,0.1-0.1,0.1-0.2
		C268.9,111.7,268.8,111.6,268.7,111.6z M274.6,111.7c0,0,0,0.1,0,0.1c0,0.1,0,0.1,0,0.2c0-0.1,0.1-0.1,0.1-0.1
		C274.7,111.8,274.6,111.7,274.6,111.7z M262.7,111.8c0,0,0.1,0.1,0.1,0.1c0-0.1,0-0.1,0-0.2c0,0,0-0.1,0-0.1
		C262.8,111.7,262.8,111.8,262.7,111.8z M279.3,108.7C279.3,108.7,279.3,108.7,279.3,108.7C279.3,108.7,279.3,108.7,279.3,108.7z
		 M279.3,108.7C279.3,108.7,279.3,108.7,279.3,108.7C279.3,108.7,279.3,108.7,279.3,108.7z M264.5,107.6c0,0,0,0.1,0,0.1
		c0,0,0.1-0.1,0.1-0.1C264.6,107.6,264.6,107.6,264.5,107.6z M272.8,107.6c0,0,0.1,0.1,0.1,0.1c0,0,0-0.1,0-0.1
		C272.9,107.6,272.8,107.6,272.8,107.6z M278.3,106.4C278.3,106.4,278.3,106.4,278.3,106.4C278.3,106.4,278.3,106.4,278.3,106.4z
		 M259.2,106.4C259.2,106.4,259.2,106.4,259.2,106.4C259.2,106.4,259.2,106.4,259.2,106.4z M268.7,105.9
		C268.7,105.9,268.7,105.9,268.7,105.9C268.7,105.9,268.7,105.9,268.7,105.9C268.8,105.9,268.7,105.9,268.7,105.9z M264.1,105.2
		L264.1,105.2C264.1,105.2,264.1,105.2,264.1,105.2z M263.9,103.3C263.9,103.3,263.9,103.3,263.9,103.3L263.9,103.3z M273.5,103.3
		L273.5,103.3C273.5,103.3,273.5,103.3,273.5,103.3z M271.3,102.4C271.3,102.4,271.3,102.4,271.3,102.4L271.3,102.4z M266.1,102.4
		L266.1,102.4C266.1,102.4,266.1,102.4,266.1,102.4z M274,102.2C274,102.2,274,102.2,274,102.2S274,102.2,274,102.2z M274,102.2
		C274,102.2,274,102.2,274,102.2S274,102.2,274,102.2z M267.4,101.6C267.4,101.6,267.4,101.7,267.4,101.6L267.4,101.6z M270,101.6
		L270,101.6C270,101.6,270,101.6,270,101.6z M265.7,101.3L265.7,101.3L265.7,101.3z M265.7,101.3
		C265.7,101.3,265.7,101.3,265.7,101.3C265.7,101.3,265.7,101.3,265.7,101.3z M265.7,101.3C265.7,101.3,265.7,101.3,265.7,101.3
		C265.7,101.3,265.7,101.3,265.7,101.3z M271.8,101.3C271.8,101.3,271.8,101.3,271.8,101.3C271.8,101.3,271.8,101.3,271.8,101.3z"/>
	<path class="st1" d="M279.4,110.3l-0.3,0c-0.1,0-0.2,0-0.2,0l-2.2-0.4c-0.1,0-0.1-0.1-0.2-0.1l-0.8-1.9c0-0.1,0-0.2,0-0.2l1.3-1.8
		c0-0.1,0.1-0.1,0.1-0.2l0.1-0.2c0-0.1,0-0.1,0-0.2l-0.2-0.2l-0.2-0.2l-0.5-0.5l-0.2-0.2l-0.5-0.5l-0.2-0.2l-0.2-0.2
		c0,0-0.1-0.1-0.2,0l-0.2,0.1c-0.1,0-0.1,0.1-0.2,0.1l-1.9,1.3c-0.1,0-0.1,0-0.2,0l-1.8-0.8c-0.1,0-0.1-0.1-0.1-0.2l-0.4-2.3
		c0-0.1,0-0.2,0-0.2l0-0.3c0-0.1-0.1-0.1-0.1-0.1h-0.3h-0.2h-0.7h-0.2h-0.7h-0.2h-0.3c-0.1,0-0.1,0.1-0.1,0.1l0,0.3
		c0,0.1,0,0.2,0,0.2l-0.4,2.3c0,0.1-0.1,0.1-0.1,0.2l-1.8,0.8c-0.1,0-0.2,0-0.2,0l-1.9-1.3c-0.1,0-0.1-0.1-0.2-0.1l-0.2-0.1
		c-0.1,0-0.1,0-0.2,0l-0.2,0.2l-0.2,0.2l-0.5,0.5l-0.2,0.2l-0.5,0.5l-0.2,0.2l-0.2,0.2c0,0-0.1,0.1,0,0.2l0.1,0.2
		c0,0.1,0.1,0.1,0.1,0.2l1.3,1.8c0,0.1,0,0.1,0,0.2l-0.8,1.9c0,0.1-0.1,0.1-0.2,0.1l-2.2,0.4c-0.1,0-0.2,0-0.2,0l-0.3,0
		c-0.1,0-0.1,0.1-0.1,0.1l0,0.3v0.2v0.7v0.2v0.7v0.2v0.3c0,0.1,0.1,0.1,0.1,0.1l0.3,0c0.1,0,0.2,0,0.2,0l2.1,0.4
		c0.1,0,0.1,0.1,0.2,0.1l0.8,2c0,0.1,0,0.2,0,0.2l-1.2,1.7c0,0.1-0.1,0.1-0.1,0.2l-0.1,0.2c0,0.1,0,0.1,0,0.2l0.2,0.2l0.2,0.2
		l0.5,0.5l0.2,0.2l0.5,0.5l0.2,0.2l0.2,0.2c0,0,0.1,0.1,0.2,0l0.2-0.1c0.1,0,0.1-0.1,0.2-0.1l1.7-1.2c0.1,0,0.1,0,0.2,0l0.4,0.2
		c0.1,0,0.2,0.1,0.2,0.1l0.4,0.2c0.1,0,0.1,0,0.2-0.1l0.2-0.4c0-0.1,0.1-0.2,0.1-0.2l1.5-3.5c0-0.1,0.1-0.2,0.1-0.2l0.1-0.3
		c0-0.1,0-0.1-0.1-0.2l-0.2-0.1c0,0-0.1-0.1-0.1-0.1c-0.8-0.5-1.4-1.5-1.4-2.5c0-1.7,1.3-3,3-3c1.7,0,3,1.3,3,3c0,1.1-0.6,2-1.4,2.5
		c0,0-0.1,0.1-0.1,0.1l-0.2,0.1c-0.1,0-0.1,0.1-0.1,0.2l0.1,0.3c0,0.1,0.1,0.2,0.1,0.2l1.5,3.5c0,0.1,0.1,0.2,0.1,0.2l0.2,0.4
		c0,0.1,0.1,0.1,0.2,0.1l0.4-0.2c0.1,0,0.2-0.1,0.2-0.1l0.4-0.2c0.1,0,0.1,0,0.2,0l1.7,1.2c0.1,0,0.1,0.1,0.2,0.1l0.2,0.1
		c0.1,0,0.1,0,0.2,0l0.2-0.2l0.2-0.2l0.5-0.5l0.2-0.2l0.5-0.5l0.2-0.2l0.2-0.2c0,0,0.1-0.1,0-0.2l-0.1-0.2c0-0.1-0.1-0.1-0.1-0.2
		l-1.2-1.7c0-0.1,0-0.1,0-0.2l0.8-2c0-0.1,0.1-0.1,0.2-0.1l2.1-0.4c0.1,0,0.2,0,0.2,0l0.3,0c0.1,0,0.1-0.1,0.1-0.1v-0.3v-0.2v-0.7
		v-0.2l0-0.7v-0.2l0-0.3C279.5,110.3,279.5,110.3,279.4,110.3"/>
	<path d="M73.2,265c-0.8,0-1.5-0.3-2.1-0.9l-1.9-1.9c-1-1-1.2-2.6-0.4-3.8l0.3-0.5l-0.6-0.1c-1.4-0.3-2.4-1.5-2.4-2.9v-2.7
		c0-1.4,1-2.6,2.4-2.9l0.6-0.1l-0.3-0.5c-0.8-1.2-0.7-2.8,0.3-3.8l1.9-1.9c1-1,2.6-1.2,3.8-0.4l0.5,0.3l0.1-0.6
		c0.3-1.4,1.5-2.4,2.9-2.4h2.7c1.4,0,2.7,1,2.9,2.4l0.1,0.6l0.5-0.3c1.2-0.8,2.8-0.7,3.8,0.4l1.9,1.9c1,1,1.2,2.6,0.3,3.8l-0.3,0.5
		l0.6,0.1c0,0,0,0,0,0c1.4,0.3,2.4,1.5,2.4,2.9l0,2.7c0,1.4-1,2.7-2.4,2.9l-0.6,0.1l0.3,0.5c0.8,1.2,0.7,2.8-0.4,3.8l-1.9,1.9
		c-1,1-2.6,1.2-3.8,0.4l-0.8-0.6c-0.6,0.2-1.3,0.2-1.9-0.1c-0.8-0.3-1.4-0.9-1.7-1.6l-0.5-1.2l-0.5,1.2c-0.3,0.7-1,1.4-1.7,1.6
		c-0.6,0.2-1.2,0.2-1.9,0.1l-0.8,0.6C74.4,264.8,73.8,265,73.2,265z M74.2,263.1C74.2,263.1,74.3,263.2,74.2,263.1L74.2,263.1z
		 M85.4,263.1L85.4,263.1C85.3,263.1,85.3,263.1,85.4,263.1z M77,263L77,263C77,263,77,263,77,263z M89.4,258.9
		C89.4,258.9,89.4,258.9,89.4,258.9C89.4,258.9,89.4,258.9,89.4,258.9z M70.1,258.9C70.1,258.9,70.1,258.9,70.1,258.9
		C70.1,258.9,70.1,258.9,70.1,258.9z M70.1,258.9C70.1,258.9,70.1,258.9,70.1,258.9C70.1,258.9,70.1,258.9,70.1,258.9z M89.4,258.9
		C89.4,258.9,89.4,258.9,89.4,258.9C89.4,258.9,89.4,258.9,89.4,258.9z M82.5,258.7L82.5,258.7C82.5,258.7,82.5,258.7,82.5,258.7z
		 M81.7,258.6C81.7,258.6,81.7,258.6,81.7,258.6L81.7,258.6z M71.2,258.3C71.2,258.3,71.2,258.3,71.2,258.3L71.2,258.3z M88.4,258.3
		L88.4,258.3C88.4,258.3,88.4,258.3,88.4,258.3z M86.3,258.2C86.3,258.2,86.3,258.2,86.3,258.2L86.3,258.2z M73.2,258.1L73.2,258.1
		C73.2,258.2,73.2,258.2,73.2,258.1z M90.4,256.5C90.4,256.5,90.4,256.5,90.4,256.5S90.4,256.5,90.4,256.5z M90.4,256.5
		C90.4,256.5,90.4,256.5,90.4,256.5C90.4,256.5,90.4,256.5,90.4,256.5z M70.3,256.2C70.3,256.2,70.3,256.2,70.3,256.2L70.3,256.2z
		 M79.8,253.3c-0.1,0-0.2,0.1-0.2,0.2c0,0.1,0.1,0.1,0.1,0.2c0,0,0.1,0,0.1,0.1c0,0,0.1,0,0.1-0.1c0,0,0.1-0.1,0.1-0.2
		C79.9,253.4,79.9,253.3,79.8,253.3z M73.8,253.5c0,0,0.1,0.1,0.1,0.1c0-0.1,0-0.1,0-0.2c0,0,0-0.1,0-0.1
		C73.9,253.4,73.8,253.5,73.8,253.5z M85.6,253.4c0,0,0,0.1,0,0.1c0,0.1,0,0.1,0,0.2c0,0,0.1-0.1,0.1-0.1
		C85.7,253.5,85.7,253.4,85.6,253.4z M89.9,252.2C89.9,252.2,89.9,252.2,89.9,252.2L89.9,252.2z M69.6,252.2L69.6,252.2
		C69.6,252.2,69.6,252.2,69.6,252.2z M75.6,249.3c0,0,0,0.1,0,0.1c0,0,0.1-0.1,0.1-0.1C75.6,249.3,75.6,249.3,75.6,249.3z
		 M83.9,249.3c0,0,0.1,0.1,0.1,0.1c0,0,0-0.1,0-0.1C83.9,249.3,83.9,249.3,83.9,249.3z M71.2,248.7
		C71.2,248.7,71.2,248.7,71.2,248.7L71.2,248.7z M88.3,248.7L88.3,248.7C88.3,248.7,88.3,248.7,88.3,248.7z M89.3,248.2
		C89.3,248.2,89.3,248.2,89.3,248.2C89.3,248.2,89.3,248.2,89.3,248.2z M70.2,248.2C70.2,248.2,70.2,248.2,70.2,248.2
		C70.2,248.2,70.2,248.2,70.2,248.2z M79.8,247.6C79.8,247.6,79.7,247.7,79.8,247.6C79.8,247.7,79.8,247.7,79.8,247.6
		C79.8,247.7,79.8,247.6,79.8,247.6z M86,245.4C86,245.4,86,245.4,86,245.4L86,245.4z M73.5,245.4L73.5,245.4
		C73.5,245.4,73.5,245.4,73.5,245.4z M82.4,244.1C82.4,244.1,82.3,244.1,82.4,244.1L82.4,244.1z M77.1,244.1L77.1,244.1
		C77.2,244.1,77.1,244.1,77.1,244.1z M85,243.9C85,243.9,85,243.9,85,243.9C85,243.9,85,243.9,85,243.9z M85,243.9
		C85,243.9,85,243.9,85,243.9C85,243.9,85,243.9,85,243.9z M74.6,243.9C74.6,243.9,74.6,243.9,74.6,243.9
		C74.6,243.9,74.6,243.9,74.6,243.9z M85,243.9L85,243.9L85,243.9z M74.6,243.9C74.6,243.9,74.6,243.9,74.6,243.9
		C74.6,243.9,74.6,243.9,74.6,243.9z M74.6,243.9L74.6,243.9C74.6,243.9,74.6,243.9,74.6,243.9z M78.5,243.4
		C78.5,243.4,78.5,243.4,78.5,243.4L78.5,243.4z M82.8,243C82.8,243,82.8,243,82.8,243C82.8,243,82.8,243,82.8,243z M76.7,243
		C76.7,243,76.7,243,76.7,243C76.7,243,76.7,243,76.7,243z M82.8,243C82.8,243,82.8,243,82.8,243C82.8,243,82.8,243,82.8,243z
		 M76.7,243C76.7,243,76.7,243,76.7,243C76.7,243,76.7,243,76.7,243z M82.8,243C82.8,243,82.8,243,82.8,243
		C82.8,243,82.8,243,82.8,243z M76.7,243C76.7,243,76.7,243,76.7,243C76.7,243,76.7,243,76.7,243z M82.8,243
		C82.8,243,82.8,243,82.8,243C82.8,243,82.8,243,82.8,243z M76.7,243C76.7,243,76.7,243,76.7,243C76.7,243,76.7,243,76.7,243z
		 M82.8,243C82.8,243,82.8,243,82.8,243C82.8,243,82.8,243,82.8,243z M76.7,243C76.7,243,76.7,243,76.7,243
		C76.7,243,76.7,243,76.7,243z"/>
	<path class="st1" d="M90.4,252l-0.3,0c-0.1,0-0.2,0-0.2,0l-2.2-0.4c-0.1,0-0.1-0.1-0.2-0.1l-0.8-1.9c0-0.1,0-0.2,0-0.2l1.3-1.8
		c0-0.1,0.1-0.1,0.1-0.2l0.1-0.2c0-0.1,0-0.1,0-0.2l-0.2-0.2l-0.2-0.2l-0.5-0.5l-0.2-0.2l-0.5-0.5l-0.2-0.2l-0.2-0.2
		c0,0-0.1-0.1-0.2,0L86,245c-0.1,0-0.1,0.1-0.2,0.1l-1.9,1.3c-0.1,0-0.1,0-0.2,0l-1.8-0.8c-0.1,0-0.1-0.1-0.1-0.2l-0.4-2.3
		c0-0.1,0-0.2,0-0.2l0-0.3c0-0.1-0.1-0.1-0.1-0.1h-0.3h-0.2h-0.7h-0.2h-0.7h-0.2h-0.3c-0.1,0-0.1,0.1-0.1,0.1l0,0.3
		c0,0.1,0,0.2,0,0.2l-0.4,2.3c0,0.1-0.1,0.1-0.1,0.2l-1.8,0.8c-0.1,0-0.2,0-0.2,0l-1.9-1.3c-0.1,0-0.1-0.1-0.2-0.1l-0.2-0.1
		c-0.1,0-0.1,0-0.2,0l-0.2,0.2l-0.2,0.2l-0.5,0.5l-0.2,0.2l-0.5,0.5l-0.2,0.2l-0.2,0.2c0,0-0.1,0.1,0,0.2l0.1,0.2
		c0,0.1,0.1,0.1,0.1,0.2l1.3,1.8c0,0.1,0,0.1,0,0.2l-0.8,1.9c0,0.1-0.1,0.1-0.2,0.1l-2.2,0.4c-0.1,0-0.2,0-0.2,0l-0.3,0
		c-0.1,0-0.1,0.1-0.1,0.1l0,0.3v0.2v0.7v0.2v0.7v0.2v0.3c0,0.1,0.1,0.1,0.1,0.1l0.3,0c0.1,0,0.2,0,0.2,0l2.1,0.4
		c0.1,0,0.1,0.1,0.2,0.1l0.8,2c0,0.1,0,0.2,0,0.2l-1.2,1.7c0,0.1-0.1,0.1-0.1,0.2l-0.1,0.2c0,0.1,0,0.1,0,0.2l0.2,0.2l0.2,0.2
		l0.5,0.5l0.2,0.2l0.5,0.5l0.2,0.2l0.2,0.2c0,0,0.1,0.1,0.2,0l0.2-0.1c0.1,0,0.1-0.1,0.2-0.1l1.7-1.2c0.1,0,0.1,0,0.2,0l0.4,0.2
		c0.1,0,0.2,0.1,0.2,0.1l0.4,0.2c0.1,0,0.1,0,0.2-0.1l0.2-0.4c0-0.1,0.1-0.2,0.1-0.2l1.5-3.5c0-0.1,0.1-0.2,0.1-0.2l0.1-0.3
		c0-0.1,0-0.1-0.1-0.2l-0.2-0.1c0,0-0.1-0.1-0.1-0.1c-0.8-0.5-1.4-1.5-1.4-2.5c0-1.7,1.3-3,3-3c1.7,0,3,1.3,3,3c0,1.1-0.6,2-1.4,2.5
		c0,0-0.1,0.1-0.1,0.1l-0.2,0.1c-0.1,0-0.1,0.1-0.1,0.2l0.1,0.3c0,0.1,0.1,0.2,0.1,0.2l1.5,3.5c0,0.1,0.1,0.2,0.1,0.2l0.2,0.4
		c0,0.1,0.1,0.1,0.2,0.1l0.4-0.2c0.1,0,0.2-0.1,0.2-0.1l0.4-0.2c0.1,0,0.1,0,0.2,0l1.7,1.2c0.1,0,0.1,0.1,0.2,0.1l0.2,0.1
		c0.1,0,0.1,0,0.2,0l0.2-0.2l0.2-0.2l0.5-0.5l0.2-0.2l0.5-0.5l0.2-0.2l0.2-0.2c0,0,0.1-0.1,0-0.2l-0.1-0.2c0-0.1-0.1-0.1-0.1-0.2
		l-1.2-1.7c0-0.1,0-0.1,0-0.2l0.8-2c0-0.1,0.1-0.1,0.2-0.1l2.1-0.4c0.1,0,0.2,0,0.2,0l0.3,0c0.1,0,0.1-0.1,0.1-0.1v-0.3v-0.2v-0.7
		v-0.2l0-0.7v-0.2l0-0.3C90.5,252.1,90.5,252,90.4,252"/>
	<path d="M167.7,265c-0.8,0-1.5-0.3-2.1-0.8l-1.9-1.9c-1-1-1.2-2.6-0.4-3.8l0.3-0.5l-0.6-0.1c-1.4-0.3-2.4-1.5-2.4-2.9v-2.7
		c0-1.4,1-2.6,2.4-2.9l0.6-0.1l0-0.1l-0.1-0.1l-0.2-0.3c-0.8-1.2-0.7-2.8,0.3-3.8l1.9-1.9c1-1,2.6-1.2,3.8-0.4l0.5,0.3l0.1-0.6
		c0.3-1.4,1.5-2.4,2.9-2.4h2.7c1.4,0,2.7,1,2.9,2.4l0.1,0.6l0.5-0.3c1.2-0.8,2.8-0.7,3.8,0.3l1.9,1.9c1,1,1.2,2.6,0.3,3.8l-0.3,0.5
		l0.6,0.1c0,0,0,0,0,0c1.4,0.3,2.4,1.5,2.4,2.9v2.7c0,1.4-1,2.7-2.4,2.9l-0.6,0.1l0.3,0.5c0.8,1.2,0.7,2.8-0.4,3.8l-1.9,1.9
		c-1,1-2.6,1.2-3.8,0.4l-0.8-0.6c-0.6,0.2-1.3,0.2-1.8,0c-0.8-0.3-1.4-0.9-1.7-1.6l-0.5-1.2l-0.5,1.1c-0.3,0.7-1,1.4-1.7,1.6
		c-0.6,0.2-1.2,0.2-1.9,0.1l-0.8,0.6C168.9,264.8,168.3,265,167.7,265z M168.7,263.1C168.7,263.1,168.7,263.2,168.7,263.1
		L168.7,263.1z M179.9,263.1L179.9,263.1C179.8,263.1,179.8,263.1,179.9,263.1z M177,263C177,263,177,263,177,263L177,263z
		 M171.5,263L171.5,263C171.5,263,171.5,263,171.5,263z M164.6,258.9C164.6,258.9,164.6,258.9,164.6,258.9
		C164.6,258.9,164.6,258.9,164.6,258.9z M164.6,258.9L164.6,258.9L164.6,258.9z M183.9,258.9C183.9,258.9,183.9,258.9,183.9,258.9
		C183.9,258.9,183.9,258.9,183.9,258.9z M183.9,258.9C183.9,258.9,183.9,258.9,183.9,258.9C183.9,258.9,183.9,258.9,183.9,258.9z
		 M183.9,258.9C183.9,258.9,183.9,258.9,183.9,258.9C183.9,258.9,183.9,258.9,183.9,258.9z M183.9,258.9
		C183.9,258.9,183.9,258.9,183.9,258.9C183.9,258.9,183.9,258.9,183.9,258.9z M177,258.7L177,258.7C177,258.7,177,258.7,177,258.7z
		 M176.2,258.6C176.2,258.6,176.2,258.6,176.2,258.6L176.2,258.6z M165.6,258.3C165.6,258.3,165.7,258.3,165.6,258.3L165.6,258.3z
		 M182.9,258.3L182.9,258.3C182.9,258.3,182.9,258.3,182.9,258.3z M180.8,258.2C180.8,258.2,180.8,258.2,180.8,258.2L180.8,258.2z
		 M163.6,256.5C163.6,256.5,163.6,256.5,163.6,256.5C163.6,256.5,163.6,256.5,163.6,256.5z M163.6,256.5
		C163.6,256.5,163.6,256.5,163.6,256.5C163.6,256.5,163.6,256.5,163.6,256.5z M184.9,256.5C184.9,256.5,184.9,256.5,184.9,256.5
		C184.9,256.5,184.9,256.5,184.9,256.5z M163.6,256.5C163.6,256.5,163.6,256.5,163.6,256.5C163.6,256.5,163.6,256.5,163.6,256.5z
		 M184.9,256.5C184.9,256.5,184.9,256.5,184.9,256.5C184.9,256.5,184.9,256.5,184.9,256.5z M174.2,253.3c-0.1,0-0.2,0.1-0.2,0.2
		c0,0.1,0.1,0.1,0.1,0.2c0,0,0.1,0,0.1,0.1c0,0,0.1,0,0.1-0.1c0,0,0.1-0.1,0.1-0.2C174.4,253.4,174.3,253.3,174.2,253.3z
		 M180.1,253.4c0,0,0,0.1,0,0.1c0,0.1,0,0.1,0,0.2c0,0,0.1-0.1,0.1-0.1C180.2,253.5,180.1,253.4,180.1,253.4z M168.3,253.5
		c0,0,0.1,0.1,0.1,0.1c0-0.1,0-0.1,0-0.2c0,0,0-0.1,0-0.1C168.4,253.4,168.3,253.5,168.3,253.5z M184.4,252.2
		C184.4,252.2,184.4,252.2,184.4,252.2L184.4,252.2z M164.1,252.2L164.1,252.2C164.1,252.2,164.1,252.2,164.1,252.2z M163.7,250.4
		C163.7,250.4,163.7,250.4,163.7,250.4C163.7,250.4,163.7,250.4,163.7,250.4z M163.7,250.4C163.7,250.4,163.7,250.4,163.7,250.4
		C163.7,250.4,163.7,250.4,163.7,250.4z M163.7,250.4C163.7,250.4,163.7,250.4,163.7,250.4C163.7,250.4,163.7,250.4,163.7,250.4z
		 M163.7,250.4C163.7,250.4,163.7,250.4,163.7,250.4C163.7,250.4,163.7,250.4,163.7,250.4z M163.7,250.4L163.7,250.4L163.7,250.4z
		 M163.7,250.4L163.7,250.4L163.7,250.4z M170,249.3c0,0,0,0.1,0,0.1c0,0,0.1-0.1,0.1-0.1C170.1,249.3,170.1,249.3,170,249.3z
		 M178.3,249.3c0,0,0.1,0.1,0.1,0.1c0,0,0-0.1,0-0.1C178.4,249.3,178.4,249.3,178.3,249.3z M165.7,248.7
		C165.7,248.7,165.7,248.7,165.7,248.7L165.7,248.7z M182.8,248.7L182.8,248.7C182.8,248.7,182.8,248.7,182.8,248.7z M164.7,248.2
		C164.7,248.2,164.7,248.2,164.7,248.2C164.7,248.2,164.7,248.2,164.7,248.2z M183.8,248.2C183.8,248.2,183.8,248.2,183.8,248.2
		C183.8,248.2,183.8,248.2,183.8,248.2z M174.2,247.7C174.3,247.7,174.3,247.7,174.2,247.7C174.3,247.7,174.3,247.6,174.2,247.7
		C174.2,247.6,174.2,247.7,174.2,247.7C174.2,247.7,174.2,247.7,174.2,247.7z M180.5,245.4C180.5,245.4,180.5,245.4,180.5,245.4
		L180.5,245.4z M168,245.4L168,245.4C168,245.4,168,245.4,168,245.4z M169.4,245C169.4,245.1,169.4,245.1,169.4,245L169.4,245z
		 M179,245L179,245C179,245.1,179,245,179,245z M176.9,244.1C176.8,244.1,176.8,244.1,176.9,244.1L176.9,244.1z M171.6,244.1
		L171.6,244.1C171.6,244.1,171.6,244.1,171.6,244.1z M173,243.4C173,243.4,173,243.4,173,243.4L173,243.4z M175.5,243.3L175.5,243.3
		C175.5,243.4,175.5,243.4,175.5,243.3z M177.3,243C177.3,243,177.3,243,177.3,243C177.3,243,177.3,243,177.3,243z M177.3,243
		C177.3,243,177.3,243,177.3,243C177.3,243,177.3,243,177.3,243z M171.2,243L171.2,243L171.2,243z M177.3,243
		C177.3,243,177.3,243,177.3,243C177.3,243,177.3,243,177.3,243z M171.2,243C171.2,243,171.2,243,171.2,243
		C171.2,243,171.2,243,171.2,243z M171.2,243C171.2,243,171.2,243,171.2,243C171.2,243,171.2,243,171.2,243z"/>
	<path class="st1" d="M184.9,252l-0.3,0c-0.1,0-0.2,0-0.2,0l-2.2-0.4c-0.1,0-0.1-0.1-0.2-0.1l-0.8-1.9c0-0.1,0-0.2,0-0.2l1.3-1.8
		c0-0.1,0.1-0.1,0.1-0.2l0.1-0.2c0-0.1,0-0.1,0-0.2l-0.2-0.2l-0.2-0.2L182,246l-0.2-0.2l-0.5-0.5l-0.2-0.2l-0.2-0.2
		c0,0-0.1-0.1-0.2,0l-0.2,0.1c-0.1,0-0.1,0.1-0.2,0.1l-1.9,1.3c-0.1,0-0.1,0-0.2,0l-1.8-0.8c-0.1,0-0.1-0.1-0.1-0.2l-0.4-2.3
		c0-0.1,0-0.2,0-0.2l0-0.3c0-0.1-0.1-0.1-0.1-0.1h-0.3h-0.2h-0.7h-0.2h-0.7h-0.2h-0.3c-0.1,0-0.1,0.1-0.1,0.1l0,0.3
		c0,0.1,0,0.2,0,0.2l-0.4,2.3c0,0.1-0.1,0.1-0.1,0.2l-1.8,0.8c-0.1,0-0.2,0-0.2,0l-1.9-1.3c-0.1,0-0.1-0.1-0.2-0.1l-0.2-0.1
		c-0.1,0-0.1,0-0.2,0l-0.2,0.2l-0.2,0.2l-0.5,0.5l-0.2,0.2l-0.5,0.5l-0.2,0.2l-0.2,0.2c0,0-0.1,0.1,0,0.2l0.1,0.2
		c0,0.1,0.1,0.1,0.1,0.2l1.3,1.8c0,0.1,0,0.1,0,0.2l-0.8,1.9c0,0.1-0.1,0.1-0.2,0.1l-2.2,0.4c-0.1,0-0.2,0-0.2,0l-0.3,0
		c-0.1,0-0.1,0.1-0.1,0.1l0,0.3v0.2v0.7v0.2v0.7v0.2v0.3c0,0.1,0.1,0.1,0.1,0.1l0.3,0c0.1,0,0.2,0,0.2,0l2.1,0.4
		c0.1,0,0.1,0.1,0.2,0.1l0.8,2c0,0.1,0,0.2,0,0.2l-1.2,1.7c0,0.1-0.1,0.1-0.1,0.2l-0.1,0.2c0,0.1,0,0.1,0,0.2l0.2,0.2l0.2,0.2
		l0.5,0.5l0.2,0.2l0.5,0.5l0.2,0.2l0.2,0.2c0,0,0.1,0.1,0.2,0l0.2-0.1c0.1,0,0.1-0.1,0.2-0.1l1.7-1.2c0.1,0,0.1,0,0.2,0l0.4,0.2
		c0.1,0,0.2,0.1,0.2,0.1l0.4,0.2c0.1,0,0.1,0,0.2-0.1l0.2-0.4c0-0.1,0.1-0.2,0.1-0.2l1.5-3.5c0-0.1,0.1-0.2,0.1-0.2l0.1-0.3
		c0-0.1,0-0.1-0.1-0.2l-0.2-0.1c0,0-0.1-0.1-0.1-0.1c-0.8-0.5-1.4-1.5-1.4-2.5c0-1.7,1.3-3,3-3c1.7,0,3,1.3,3,3c0,1.1-0.6,2-1.4,2.5
		c0,0-0.1,0.1-0.1,0.1l-0.2,0.1c-0.1,0-0.1,0.1-0.1,0.2l0.1,0.3c0,0.1,0.1,0.2,0.1,0.2l1.5,3.5c0,0.1,0.1,0.2,0.1,0.2l0.2,0.4
		c0,0.1,0.1,0.1,0.2,0.1l0.4-0.2c0.1,0,0.2-0.1,0.2-0.1l0.4-0.2c0.1,0,0.1,0,0.2,0l1.7,1.2c0.1,0,0.1,0.1,0.2,0.1l0.2,0.1
		c0.1,0,0.1,0,0.2,0l0.2-0.2l0.2-0.2l0.5-0.5l0.2-0.2l0.5-0.5l0.2-0.2l0.2-0.2c0,0,0.1-0.1,0-0.2l-0.1-0.2c0-0.1-0.1-0.1-0.1-0.2
		l-1.2-1.7c0-0.1,0-0.1,0-0.2l0.8-2c0-0.1,0.1-0.1,0.2-0.1l2.1-0.4c0.1,0,0.2,0,0.2,0l0.3,0c0.1,0,0.1-0.1,0.1-0.1v-0.3v-0.2v-0.7
		v-0.2l0-0.7v-0.2l0-0.3C185,252.1,185,252,184.9,252"/>
	<path d="M262.2,265c-0.8,0-1.5-0.3-2.1-0.9l-1.9-1.9c-1-1-1.2-2.6-0.4-3.8l0.3-0.5l-0.6-0.1c-1.4-0.3-2.4-1.5-2.4-2.9v-2.7
		c0-1.4,1-2.6,2.4-2.9l0.6-0.1l-0.3-0.5c-0.8-1.2-0.7-2.8,0.4-3.8l1.9-1.9c1-1,2.6-1.2,3.8-0.4l0.3,0.2c0,0,0.1,0.1,0.1,0.1l0.1,0
		l0.1-0.6c0.3-1.4,1.5-2.4,2.9-2.4h2.7c1.4,0,2.7,1,2.9,2.4l0.1,0.6l0.5-0.3c1.2-0.8,2.8-0.7,3.8,0.3l1.9,1.9c1,1,1.2,2.6,0.3,3.8
		l-0.2,0.3c0,0-0.1,0.1-0.1,0.1l0,0.1l0.6,0.1c0,0,0,0,0,0c1.4,0.3,2.4,1.5,2.4,2.9v2.7c0,1.4-1,2.7-2.4,2.9l-0.6,0.1l0.3,0.5
		c0.8,1.2,0.7,2.8-0.3,3.8l-1.9,1.9c-1,1-2.6,1.2-3.8,0.3l-0.8-0.6c-0.6,0.2-1.3,0.2-1.8,0c-0.8-0.3-1.4-0.9-1.7-1.6l-0.5-1.2
		l-0.5,1.2c-0.3,0.7-1,1.4-1.7,1.6c-0.6,0.2-1.2,0.2-1.9,0.1l-0.8,0.6C263.3,264.8,262.7,265,262.2,265z M263.2,263.1
		C263.2,263.1,263.2,263.2,263.2,263.1L263.2,263.1z M274.3,263.1L274.3,263.1C274.3,263.1,274.3,263.1,274.3,263.1z M271.5,263
		C271.5,263,271.5,263,271.5,263L271.5,263z M266,263L266,263C265.9,263,266,263,266,263z M276.8,259.8L276.8,259.8
		C276.8,259.8,276.8,259.8,276.8,259.8z M278.4,258.9C278.4,258.9,278.4,258.9,278.4,258.9C278.4,258.9,278.4,258.9,278.4,258.9z
		 M278.4,258.9C278.4,258.9,278.4,258.9,278.4,258.9C278.4,258.9,278.4,258.9,278.4,258.9z M278.4,258.9
		C278.4,258.9,278.4,258.9,278.4,258.9C278.4,258.9,278.4,258.9,278.4,258.9z M278.4,258.9C278.4,258.9,278.4,258.9,278.4,258.9
		C278.4,258.9,278.4,258.9,278.4,258.9z M278.4,258.9C278.4,258.9,278.4,258.9,278.4,258.9C278.4,258.9,278.4,258.9,278.4,258.9z
		 M270.7,258.6C270.7,258.6,270.7,258.6,270.7,258.6L270.7,258.6z M260.1,258.3C260.1,258.3,260.1,258.3,260.1,258.3L260.1,258.3z
		 M277.3,258.3L277.3,258.3C277.3,258.3,277.3,258.3,277.3,258.3z M262.1,258.1L262.1,258.1C262.2,258.2,262.1,258.2,262.1,258.1z
		 M258.1,256.5C258.1,256.5,258.1,256.5,258.1,256.5C258.1,256.5,258.1,256.5,258.1,256.5z M258.1,256.5
		C258.1,256.5,258.1,256.5,258.1,256.5C258.1,256.5,258.1,256.5,258.1,256.5z M279.4,256.5C279.4,256.5,279.4,256.5,279.4,256.5
		C279.4,256.5,279.4,256.5,279.4,256.5z M268.7,253.3c-0.1,0-0.2,0.1-0.2,0.2c0,0.1,0.1,0.1,0.1,0.2c0,0,0.1,0,0.1,0.1
		c0,0,0.1,0,0.1-0.1c0,0,0.1-0.1,0.1-0.2C268.9,253.4,268.8,253.3,268.7,253.3z M274.6,253.4c0,0,0,0.1,0,0.1c0,0.1,0,0.1,0,0.2
		c0,0,0.1-0.1,0.1-0.1C274.7,253.5,274.6,253.4,274.6,253.4z M262.7,253.5c0,0,0.1,0.1,0.1,0.1c0-0.1,0-0.1,0-0.2c0,0,0-0.1,0-0.1
		C262.8,253.4,262.8,253.5,262.7,253.5z M278.9,252.2C278.9,252.2,278.9,252.2,278.9,252.2L278.9,252.2z M258.6,252.2L258.6,252.2
		C258.6,252.2,258.6,252.2,258.6,252.2z M258.2,250.4C258.2,250.4,258.2,250.4,258.2,250.4C258.2,250.4,258.2,250.4,258.2,250.4z
		 M258.2,250.4C258.2,250.4,258.2,250.4,258.2,250.4C258.2,250.4,258.2,250.4,258.2,250.4z M258.2,250.4
		C258.2,250.4,258.2,250.4,258.2,250.4C258.2,250.4,258.2,250.4,258.2,250.4z M258.2,250.4C258.2,250.4,258.2,250.4,258.2,250.4
		C258.2,250.4,258.2,250.4,258.2,250.4z M258.2,250.4L258.2,250.4L258.2,250.4z M258.2,250.4L258.2,250.4L258.2,250.4z M264.5,249.3
		c0,0,0,0.1,0,0.1c0,0,0.1-0.1,0.1-0.1C264.6,249.3,264.6,249.3,264.5,249.3z M272.8,249.3c0,0,0.1,0.1,0.1,0.1c0,0,0-0.1,0-0.1
		C272.9,249.3,272.8,249.3,272.8,249.3z M260.2,248.7C260.2,248.7,260.2,248.7,260.2,248.7L260.2,248.7z M277.2,248.7L277.2,248.7
		C277.3,248.7,277.3,248.7,277.2,248.7z M259.2,248.2C259.2,248.2,259.2,248.2,259.2,248.2C259.2,248.2,259.2,248.2,259.2,248.2z
		 M278.3,248.2C278.3,248.2,278.3,248.2,278.3,248.2C278.3,248.2,278.3,248.2,278.3,248.2z M268.7,247.6
		C268.7,247.6,268.7,247.7,268.7,247.6C268.7,247.7,268.7,247.7,268.7,247.6C268.8,247.7,268.7,247.6,268.7,247.6z M262.5,245.4
		L262.5,245.4C262.5,245.4,262.5,245.4,262.5,245.4z M275,245.4C275,245.4,275,245.4,275,245.4L275,245.4z M263.9,245
		C263.9,245.1,263.9,245.1,263.9,245L263.9,245z M273.5,245L273.5,245C273.5,245.1,273.5,245,273.5,245z M271.3,244.1
		C271.3,244.1,271.3,244.1,271.3,244.1L271.3,244.1z M266.1,244.1L266.1,244.1C266.1,244.1,266.1,244.1,266.1,244.1z M273.9,243.9
		C273.9,243.9,273.9,243.9,273.9,243.9C273.9,243.9,273.9,243.9,273.9,243.9z M273.9,243.9L273.9,243.9L273.9,243.9z M273.9,243.9
		L273.9,243.9L273.9,243.9z M267.4,243.4C267.4,243.4,267.4,243.4,267.4,243.4L267.4,243.4z M270,243.3L270,243.3
		C270,243.4,270,243.4,270,243.3z M265.7,243C265.7,243,265.7,243,265.7,243C265.7,243,265.7,243,265.7,243z M265.7,243
		C265.7,243,265.7,243,265.7,243C265.7,243,265.7,243,265.7,243z M265.7,243C265.7,243,265.7,243,265.7,243
		C265.7,243,265.7,243,265.7,243z M271.8,243L271.8,243L271.8,243z M271.8,243C271.8,243,271.8,243,271.8,243
		C271.8,243,271.8,243,271.8,243z"/>
	<path class="st1" d="M279.4,252l-0.3,0c-0.1,0-0.2,0-0.2,0l-2.2-0.4c-0.1,0-0.1-0.1-0.2-0.1l-0.8-1.9c0-0.1,0-0.2,0-0.2l1.3-1.8
		c0-0.1,0.1-0.1,0.1-0.2l0.1-0.2c0-0.1,0-0.1,0-0.2l-0.2-0.2l-0.2-0.2l-0.5-0.5l-0.2-0.2l-0.5-0.5l-0.2-0.2l-0.2-0.2
		c0,0-0.1-0.1-0.2,0L275,245c-0.1,0-0.1,0.1-0.2,0.1l-1.9,1.3c-0.1,0-0.1,0-0.2,0l-1.8-0.8c-0.1,0-0.1-0.1-0.1-0.2l-0.4-2.3
		c0-0.1,0-0.2,0-0.2l0-0.3c0-0.1-0.1-0.1-0.1-0.1h-0.3h-0.2h-0.7h-0.2h-0.7h-0.2h-0.3c-0.1,0-0.1,0.1-0.1,0.1l0,0.3
		c0,0.1,0,0.2,0,0.2l-0.4,2.3c0,0.1-0.1,0.1-0.1,0.2l-1.8,0.8c-0.1,0-0.2,0-0.2,0l-1.9-1.3c-0.1,0-0.1-0.1-0.2-0.1l-0.2-0.1
		c-0.1,0-0.1,0-0.2,0l-0.2,0.2l-0.2,0.2l-0.5,0.5L261,246l-0.5,0.5l-0.2,0.2l-0.2,0.2c0,0-0.1,0.1,0,0.2l0.1,0.2
		c0,0.1,0.1,0.1,0.1,0.2l1.3,1.8c0,0.1,0,0.1,0,0.2l-0.8,1.9c0,0.1-0.1,0.1-0.2,0.1l-2.2,0.4c-0.1,0-0.2,0-0.2,0l-0.3,0
		c-0.1,0-0.1,0.1-0.1,0.1l0,0.3v0.2v0.7v0.2v0.7v0.2v0.3c0,0.1,0.1,0.1,0.1,0.1l0.3,0c0.1,0,0.2,0,0.2,0l2.1,0.4
		c0.1,0,0.1,0.1,0.2,0.1l0.8,2c0,0.1,0,0.2,0,0.2l-1.2,1.7c0,0.1-0.1,0.1-0.1,0.2l-0.1,0.2c0,0.1,0,0.1,0,0.2l0.2,0.2l0.2,0.2
		l0.5,0.5l0.2,0.2l0.5,0.5l0.2,0.2l0.2,0.2c0,0,0.1,0.1,0.2,0l0.2-0.1c0.1,0,0.1-0.1,0.2-0.1l1.7-1.2c0.1,0,0.1,0,0.2,0l0.4,0.2
		c0.1,0,0.2,0.1,0.2,0.1l0.4,0.2c0.1,0,0.1,0,0.2-0.1l0.2-0.4c0-0.1,0.1-0.2,0.1-0.2l1.5-3.5c0-0.1,0.1-0.2,0.1-0.2l0.1-0.3
		c0-0.1,0-0.1-0.1-0.2l-0.2-0.1c0,0-0.1-0.1-0.1-0.1c-0.8-0.5-1.4-1.5-1.4-2.5c0-1.7,1.3-3,3-3c1.7,0,3,1.3,3,3c0,1.1-0.6,2-1.4,2.5
		c0,0-0.1,0.1-0.1,0.1l-0.2,0.1c-0.1,0-0.1,0.1-0.1,0.2l0.1,0.3c0,0.1,0.1,0.2,0.1,0.2l1.5,3.5c0,0.1,0.1,0.2,0.1,0.2l0.2,0.4
		c0,0.1,0.1,0.1,0.2,0.1l0.4-0.2c0.1,0,0.2-0.1,0.2-0.1l0.4-0.2c0.1,0,0.1,0,0.2,0l1.7,1.2c0.1,0,0.1,0.1,0.2,0.1l0.2,0.1
		c0.1,0,0.1,0,0.2,0l0.2-0.2l0.2-0.2l0.5-0.5l0.2-0.2l0.5-0.5l0.2-0.2l0.2-0.2c0,0,0.1-0.1,0-0.2l-0.1-0.2c0-0.1-0.1-0.1-0.1-0.2
		l-1.2-1.7c0-0.1,0-0.1,0-0.2l0.8-2c0-0.1,0.1-0.1,0.2-0.1l2.1-0.4c0.1,0,0.2,0,0.2,0l0.3,0c0.1,0,0.1-0.1,0.1-0.1v-0.3v-0.2v-0.7
		v-0.2l0-0.7v-0.2l0-0.3C279.5,252.1,279.5,252,279.4,252"/>
	<g>
		<path class="st1" d="M230.8,119.5c-0.2,0-0.4,0-0.6,0c-0.2,0-0.3,0-0.5,0c-0.5,0-1.1,0-1.9-0.2c-3-0.7-5-3.4-5-6.7V86.2
			c-0.2,0-0.4,0.1-0.6,0.1c-0.2,0-0.5,0-0.7,0c-2.6,0-4.8-1.7-5.4-4.1c-0.2-0.7-0.2-1.3-0.2-1.8V79c0-8.9,0-17.9,0-26.8
			c0-1,0.1-2,0.3-2.8c1.2-5.5,6.1-9.5,11.6-9.7c3.1-0.1,6-0.1,8.9-0.1c2.9,0,5.7,0,8.3,0.1c6.5,0.2,11.9,5.7,11.9,12.3
			c0,7.7,0,15.6,0,23.2l0,5.3c0,3.3-2.5,5.9-5.6,5.9c-0.4,0-0.8,0-1.2-0.1l0,5.2c0,6.9,0,14,0,21c0,2-0.7,3.9-2.1,5.3
			c-1.2,1.2-2.9,1.9-4.7,1.9c-0.2,0-0.4,0-0.6,0c-0.1,0-0.3,0-0.4,0c0,0-0.1,0-0.2,0c-0.5,0-1.2,0-1.9-0.2c-1.7-0.4-3.1-1.4-4-2.8
			c-0.2,0.4-0.5,0.7-0.8,1.1C234.3,118.9,232.7,119.5,230.8,119.5z"/>
		<path d="M247.4,83.8c0,9.5,0,19,0,28.5c0,2.3-1.5,4.5-4.3,4.3c-0.7-0.1-1.4,0-2.1-0.1c-1.7-0.4-2.8-1.9-2.8-3.7
			c0-11.2,0-22.4,0-33.7c0-0.3,0-0.6,0-0.9c-0.1-1-0.8-1.6-1.8-1.6c-0.9,0-1.6,0.7-1.7,1.7c0,0.3,0,0.6,0,0.9c0,11,0,22,0,32.9
			c0,2.3-1.4,4.7-4.5,4.5c-0.6,0-1.3,0-1.9-0.1c-1.8-0.4-2.8-1.9-2.8-4c0-18,0-36,0-54c0-1.2,0-2.4,0-3.6c0-0.6,0.1-1.3-0.7-1.3
			c-0.8,0-0.7,0.7-0.7,1.3c0,8.6,0,17.1,0,25.7c0,1.5-1,2.6-2.3,2.8c-1.4,0.2-2.7-0.6-3-2c-0.1-0.4-0.1-0.8-0.1-1.2
			c0-9.4,0-18.7,0-28.1c0-0.7,0.1-1.5,0.2-2.2c0.9-4.2,4.6-7.4,8.9-7.5c5.7-0.1,11.4-0.1,17.1,0c5,0.1,9.1,4.4,9.2,9.5
			c0.1,9.5,0,19,0,28.5c0,1.8-1.2,3-2.8,3c-1.6,0-2.7-1.2-2.7-3.1c0-8.3,0-16.6,0-25c0-0.2,0-0.5,0-0.7c0-0.5-0.1-1-0.7-1
			c-0.7,0-0.6,0.6-0.6,1.1C247.4,64.4,247.4,74.1,247.4,83.8z"/>
		<path class="st1" d="M236.4,41.9c-3.3,0-6.5-1.3-8.8-3.7c-2.4-2.4-3.6-5.5-3.6-8.9c0.1-6.9,5.7-12.4,12.6-12.4
			c6.9,0,12.5,5.7,12.5,12.6C249,36.5,243.5,41.9,236.4,41.9C236.5,41.9,236.4,41.9,236.4,41.9z"/>
		<path d="M246.2,29.4c0,5.4-4.4,9.7-9.8,9.7c-5.3,0-9.7-4.4-9.6-9.8c0-5.4,4.5-9.7,9.9-9.6C241.9,19.8,246.2,24.1,246.2,29.4z"/>
	</g>
	<path class="st1" d="M129.3,253.2c-1.6,0-2.8-1.3-2.8-2.8V241c0-1.6,1.3-2.8,2.8-2.8h1.7c-0.8-0.5-1.4-1.4-1.4-2.4v-6.9
		c0-1.6,1.3-2.8,2.8-2.8h4.3v-12.2c-0.8-0.3-1.6-0.6-2.4-1.1c-6.3-3.5-10-9-10.6-16.1c-0.9-10.1,6.1-19.3,16.1-21.3
		c1.3-0.3,2.6-0.4,3.8-0.4c9.9,0,18.4,7.3,19.8,17c1.2,8.6-2.8,16.6-10.4,20.6c0,10.9,0,21.7,0,32.5v5.1c0,1.6-1.3,2.8-2.8,2.8
		H129.3z M143.5,190.8c-1.1,0-2.2,0.5-3,1.3c-0.8,0.8-1.3,1.9-1.3,3.1c0,2.4,1.9,4.3,4.3,4.3c2.4,0,4.4-2,4.4-4.3
		C147.9,192.7,146,190.8,143.5,190.8l0-2.8L143.5,190.8z"/>
	<path d="M150.2,250.4c-7,0-13.9,0-20.9,0c0-3.1,0-6.2,0-9.3c3.4,0,6.8,0,10.2,0c0-1.8,0-3.5,0-5.3c-2.4,0-4.7,0-7.1,0
		c0-2.3,0-4.5,0-6.9c2.3,0,4.7,0,7.1,0c0-5.7,0-11.3,0-16.9c-1.3-0.5-2.6-0.9-3.8-1.6c-5.5-3-8.6-7.6-9.1-13.8
		c-0.7-8.8,5.2-16.5,13.8-18.3c9.5-1.9,18.9,4.7,20.2,14.3c1.1,7.8-2.8,14.9-9.9,18.2c-0.4,0.2-0.5,0.5-0.5,0.9
		c0,12.6,0,25.2,0,37.8C150.2,249.8,150.2,250,150.2,250.4z M150.8,195.2c0-4-3.3-7.2-7.3-7.2c-3.9,0-7.1,3.3-7,7.2
		c0,4,3.2,7.1,7.2,7.1C147.6,202.3,150.8,199.1,150.8,195.2z"/>
	<path class="st1" d="M120.4,98.5c-3,0-5.5-0.9-7.4-2.6c-2.3-2.1-3.4-4.8-3.5-8.1c0-10.3,0-20.6,0-30.8v-0.5c0-1.5,0-3,0.2-4.6
		c0.5-4.8,4.6-8.5,9.5-8.8l0-0.8c0-2.8,0-5.5,0-8.2c0-4.8,1.3-9.1,3.9-12.7c4.7-6.6,11-9.9,18.9-9.9c0.5,0,1.1,0,1.6,0
		c10.1,0.6,19.1,8.9,20.4,19c0.2,1.4,0.3,2.8,0.3,4.3c0,2.5,0,4.9,0,7.4l0,1c0.4,0,0.8,0.1,1.2,0.1c4.9,0.8,8.5,5.1,8.5,10.1
		c0,11.6,0,23.2,0,34.8c0,5.5-4.3,10-9.8,10.3c-0.5,0-1,0-1.5,0h-19.3C135.7,98.4,128,98.4,120.4,98.5
		C120.4,98.5,120.4,98.5,120.4,98.5z M141.7,67.3c-1.2,0-2.2,0.6-2.8,1.7c-0.6,1.3-0.4,2.8,0.4,3.5c1.2,0.9,2,2,2.3,3.3
		c0.2-1.1,0.7-2,1.7-2.7c1.1-0.8,1.6-1.7,1.4-3.1c-0.1-1.2-1.3-2.5-2.4-2.7C142.2,67.3,141.9,67.3,141.7,67.3z M151.2,43l0-0.9
		c0-2.8,0-5.5,0-8.2c0-5.2-4.3-9.4-9.5-9.4c-0.6,0-1.1,0.1-1.7,0.2c-4.2,0.8-7.4,4.2-7.7,8.1c-0.2,2.9-0.1,5.8-0.1,8.9
		c0,0.4,0,0.9,0,1.3H151.2z"/>
	<path d="M122,45.9c0-4,0-7.9,0-11.8c0-4,1-7.8,3.4-11.1c4.4-6.2,10.4-9.2,18-8.7c8.8,0.5,16.6,7.8,17.8,16.5
		c0.2,1.3,0.3,2.6,0.3,3.9c0,3.4,0,6.8,0,10.2c0,0.3,0,0.6,0,0.9c1.2,0.1,2.4,0,3.5,0.2c3.6,0.6,6.1,3.7,6.1,7.3
		c0,11.6,0,23.2,0,34.8c0,4-3.1,7.2-7.1,7.4c-0.4,0-0.9,0-1.3,0c-14.1,0-28.2,0-42.3,0c-2.1,0-4-0.5-5.5-1.9c-1.8-1.6-2.5-3.7-2.5-6
		c0-10.3,0-20.6,0-30.8c0-1.6,0-3.2,0.2-4.7c0.4-3.5,3.4-6.2,7-6.3C120.3,45.9,121.1,45.9,122,45.9z M129.5,45.8
		c8.2,0,16.3,0,24.6,0c0-4,0-8,0-12c-0.1-7.6-7-13.3-14.5-12c-5.4,1-9.7,5.3-10,10.7C129.3,37,129.5,41.4,129.5,45.8z M139,78.5
		c0,0.7,0,1.4,0,2.1c0,1.6,1.2,2.9,2.6,2.9c1.6,0,2.8-1.2,2.9-2.9c0-1.4,0-2.7,0-4.1c0-0.5,0.1-0.8,0.5-1.1c1.9-1.4,2.8-3.3,2.6-5.7
		c-0.3-2.5-2.3-4.7-4.7-5.2c-2.7-0.5-5.3,0.8-6.4,3.2c-1.2,2.4-0.8,5.4,1.3,7c1.2,0.9,1.4,1.8,1.3,3C139,78,139,78.2,139,78.5z"/>
	<g>
		<path class="st1" d="M219.9,194.3c-3.3,0-5.9-2.6-6-5.9c0-0.2,0-0.4,0-0.6c-1.1-0.4-1.8-1.4-1.8-2.6v-8.4c0-1.2,0.8-2.2,1.8-2.6
			c0-0.2,0-0.4,0-0.6c0-2,0.9-3.7,2.4-4.8c0.5-0.4,1-0.6,1.3-0.8c0.1,0,0.2-0.1,0.3-0.1c0.4-0.2,0.8-0.3,1.3-0.3h24.4
			c0.5,0,0.9,0.1,1.3,0.3c0.1,0,0.2,0.1,0.3,0.1c0.3,0.2,0.8,0.4,1.2,0.7c1.6,1.1,2.5,2.9,2.5,5c0,0.1,0,0.3,0,0.4
			c1.1,0.4,1.8,1.4,1.8,2.6v8.4c0,1.2-0.8,2.2-1.8,2.6c0,0.1,0,0.2,0,0.3c0,0.5-0.1,1.3-0.3,2c-0.7,2.5-3,4.2-5.7,4.2l-12.2,0
			L219.9,194.3z"/>
		<path d="M243.6,170.4c0.4,0.2,0.8,0.3,1.1,0.6c0.9,0.6,1.3,1.6,1.3,2.7c0,1,0,2,0,3.1c0.6,0,1.2,0,1.8,0c0,2.8,0,5.6,0,8.4
			c-0.6,0-1.2,0-1.8,0c0,1,0,1.9,0,2.9c0,0.4,0,0.9-0.2,1.3c-0.4,1.3-1.6,2.2-3,2.2c-7.7,0-15.4,0-23,0c-1.8,0-3.1-1.3-3.1-3.1
			c0-1.1,0-2.1,0-3.2c-0.6,0-1.2,0-1.8,0c0-2.8,0-5.6,0-8.4c0.6,0,1.2,0,1.8,0c0-1.1,0-2.1,0-3.2c0-1,0.4-1.9,1.2-2.5
			c0.4-0.3,0.8-0.4,1.2-0.7C227.4,170.4,235.5,170.4,243.6,170.4z M231.4,183.7c-1,0-2,0-3,0c-1,0-1.5,0.6-1.5,1.5
			c0,1,0.5,1.5,1.5,1.5c2,0,4,0,6,0c1,0,1.6-0.6,1.6-1.5c0-0.9-0.6-1.5-1.6-1.5C233.4,183.7,232.4,183.7,231.4,183.7z M239.1,177
			c0-1.1-0.9-2-2-2c-1.1,0-2,0.9-2,2c0,1.1,0.9,2,2,2C238.1,179.1,239.1,178.1,239.1,177z M225.9,175.1c-1,0-2,1-2,2.1
			c0,1,1,1.9,2,1.9c1.1,0,2-0.9,2-2C227.9,175.9,227,175,225.9,175.1z"/>
		<path class="st1" d="M254.6,230.7c-2.5,0-4.6-1.8-5.1-4.3c-1,0.8-2.4,1.3-3.9,1.3h-28.2c-1.5,0-2.9-0.5-3.9-1.3
			c-0.4,1.9-1.6,3.4-3.5,4c-0.5,0.2-1.1,0.3-1.6,0.3c-2.8,0-5.1-2.3-5.2-5.1c0-1.9,0-3.7,0-5.6c0,0,0-4.5,0-5.7c0-2.7,0-5.4,0-8.1
			c-0.1-3.1,2.1-5.5,5.1-5.5c0,0,0,0,0,0c1.2,0,2.3,0.4,3.1,1c0.5-2.2,2.2-3.9,4.4-4.4c0.7-0.2,1.3-0.2,1.8-0.2c1.2,0,4,0,4,0v-1.9
			c0-1.6,1.3-2.8,2.8-2.8h14c1.6,0,2.8,1.3,2.8,2.8c0,0,0,1.7,0,1.9l2.1,0c0.7,0,1.3,0,2,0l0.2,0c1.8,0,3.4,0.7,4.5,2
			c0.7,0.8,1.2,1.7,1.4,2.7c0.9-0.7,1.9-1,3-1c0.2,0,0.3,0,0.5,0c2.7,0.3,4.7,2.4,4.7,5.2c0,6.5,0,13,0,19.5c0,2.9-2.2,5.2-5,5.3
			C254.7,230.7,254.6,230.7,254.6,230.7z"/>
		<path d="M252.2,211c-1.2,0-2.2,0-3.4,0c0,0.2,0,0.4,0,0.7c0,3.3,0,6.7,0,10c0,2-1.3,3.2-3.3,3.3c-9.4,0-18.8,0-28.2,0
			c-1.9,0-3.2-1.3-3.2-3.3c0-3.3,0-6.6,0-9.9c0-0.2,0-0.4,0-0.7c-1.1,0-2.2,0-3.4,0c0,0.3,0,0.5,0,0.8c0,4.5,0,9,0,13.4
			c0,1.2-0.6,2.2-1.6,2.5c-1.4,0.5-3-0.6-3-2.2c0-2.6,0-5.2,0-7.9c0-3.8,0-7.7,0-11.5c0-1.7,1-2.6,2.3-2.7c1.2,0,2.4,1,2.4,2.5
			c0,0.1,0,0.1,0,0.3c0.5,0,1.1,0,1.6,0c0.5,0,1.1,0,1.7,0c0-1.1,0-2.2,0-3.3c0-1.4,1-2.7,2.3-3c0.4-0.1,0.8-0.1,1.2-0.1
			c2.2,0,4.5,0,6.8,0c0-1.6,0-3.2,0-4.8c4.7,0,9.3,0,14,0c0,1.3,0,2.7,0,4c0,0.6,0.2,0.8,0.8,0.7c2.1,0,4.2,0,6.3,0
			c2.1-0.1,3.5,1.7,3.4,3.4c-0.1,1,0,1.9,0,3c0.2,0,0.3,0,0.5,0c0.9,0,1.9,0,2.9,0c0-0.3,0.1-0.6,0.1-0.8c0.2-1.2,1.4-2.1,2.5-2
			c1.3,0.1,2.1,1.1,2.1,2.4c0,6.5,0,13,0,19.5c0,1.3-1,2.4-2.3,2.5c-1.2,0-2.3-1-2.4-2.4c0-0.2,0-0.4,0-0.6c0-4.4,0-8.8,0-13.1
			C252.2,211.6,252.2,211.3,252.2,211z"/>
		<path class="st1" d="M217.3,247.6c-1.6,0-2.8-1.3-2.8-2.8v-4.3c0-1.5,1.1-2.7,2.6-2.8v-9.1c0-1.6,1.3-2.8,2.8-2.8h4.7
			c1.6,0,2.8,1.3,2.8,2.8v9c1.5,0.1,2.6,1.3,2.6,2.8v4.3c0,1.6-1.3,2.8-2.8,2.8H217.3z"/>
		<path d="M217.3,240.4c0.9,0,1.7,0,2.6,0c0-4,0-7.9,0-11.9c1.6,0,3.1,0,4.7,0c0,3.9,0,7.9,0,11.9c0.9,0,1.7,0,2.6,0
			c0,1.5,0,2.9,0,4.3c-3.3,0-6.5,0-9.8,0C217.3,243.3,217.3,241.9,217.3,240.4z"/>
		<path class="st1" d="M235.9,247.5c-1.6,0-2.8-1.3-2.8-2.8v-4.3c0-1.5,1.1-2.7,2.6-2.8v-9.1c0-1.6,1.3-2.8,2.8-2.8h4.7
			c1.6,0,2.8,1.3,2.8,2.8v9.1c1.5,0.1,2.6,1.3,2.6,2.8v4.3c0,1.6-1.3,2.8-2.8,2.8H235.9z"/>
		<path d="M235.9,240.4c0.8,0,1.7,0,2.6,0c0-4,0-7.9,0-11.9c1.6,0,3.1,0,4.7,0c0,4,0,7.9,0,11.9c0.9,0,1.7,0,2.6,0
			c0,1.5,0,2.9,0,4.3c-3.3,0-6.5,0-9.8,0C235.9,243.3,235.9,241.9,235.9,240.4z"/>
	</g>
</g>
</svg>
