G04 EAGLE Gerber RS-274X export*
G75*
%MOMM*%
%FSLAX34Y34*%
%LPD*%
%INSolderpaste Top*%
%IPPOS*%
%AMOC8*
5,1,8,0,0,1.08239X$1,22.5*%
G01*
%ADD10R,1.500000X0.600000*%
%ADD11R,2.500000X1.200000*%
%ADD12R,1.651000X1.000000*%
%ADD13R,1.000000X1.000000*%
%ADD14R,1.100000X1.000000*%
%ADD15R,2.600000X3.650000*%


D10*
X22420Y850829D03*
X22420Y838129D03*
X22420Y825429D03*
X22420Y812729D03*
X97420Y812729D03*
X97420Y825429D03*
X97420Y838129D03*
X97420Y850829D03*
D11*
X298360Y854440D03*
X298360Y829440D03*
X298360Y879440D03*
X243360Y854440D03*
X243360Y829440D03*
X243360Y879440D03*
D12*
X88280Y709730D03*
X36740Y709730D03*
X36740Y741730D03*
X88280Y741730D03*
D13*
X53510Y765730D03*
X71510Y765730D03*
D12*
X192380Y709730D03*
X140840Y709730D03*
X140840Y741730D03*
X192380Y741730D03*
D13*
X157610Y765730D03*
X175610Y765730D03*
D12*
X296630Y709730D03*
X245090Y709730D03*
X245090Y741730D03*
X296630Y741730D03*
D13*
X261860Y765730D03*
X279860Y765730D03*
D14*
X106060Y771080D03*
X123060Y771080D03*
X210260Y771080D03*
X227260Y771080D03*
D15*
X20160Y125040D03*
X313160Y125040D03*
D10*
X355750Y850829D03*
X355750Y838129D03*
X355750Y825429D03*
X355750Y812729D03*
X430750Y812729D03*
X430750Y825429D03*
X430750Y838129D03*
X430750Y850829D03*
D11*
X631690Y854440D03*
X631690Y829440D03*
X631690Y879440D03*
X576690Y854440D03*
X576690Y829440D03*
X576690Y879440D03*
D12*
X421610Y709730D03*
X370070Y709730D03*
X370070Y741730D03*
X421610Y741730D03*
D13*
X386840Y765730D03*
X404840Y765730D03*
D12*
X525710Y709730D03*
X474170Y709730D03*
X474170Y741730D03*
X525710Y741730D03*
D13*
X490940Y765730D03*
X508940Y765730D03*
D12*
X629960Y709730D03*
X578420Y709730D03*
X578420Y741730D03*
X629960Y741730D03*
D13*
X595190Y765730D03*
X613190Y765730D03*
D14*
X439390Y771080D03*
X456390Y771080D03*
X543590Y771080D03*
X560590Y771080D03*
D15*
X353490Y125040D03*
X646490Y125040D03*
D10*
X689080Y850829D03*
X689080Y838129D03*
X689080Y825429D03*
X689080Y812729D03*
X764080Y812729D03*
X764080Y825429D03*
X764080Y838129D03*
X764080Y850829D03*
D11*
X965020Y854440D03*
X965020Y829440D03*
X965020Y879440D03*
X910020Y854440D03*
X910020Y829440D03*
X910020Y879440D03*
D12*
X754940Y709730D03*
X703400Y709730D03*
X703400Y741730D03*
X754940Y741730D03*
D13*
X720170Y765730D03*
X738170Y765730D03*
D12*
X859040Y709730D03*
X807500Y709730D03*
X807500Y741730D03*
X859040Y741730D03*
D13*
X824270Y765730D03*
X842270Y765730D03*
D12*
X963290Y709730D03*
X911750Y709730D03*
X911750Y741730D03*
X963290Y741730D03*
D13*
X928520Y765730D03*
X946520Y765730D03*
D14*
X772720Y771080D03*
X789720Y771080D03*
X876920Y771080D03*
X893920Y771080D03*
D15*
X686820Y125040D03*
X979820Y125040D03*
M02*
