G04 EAGLE Gerber RS-274X export*
G75*
%MOMM*%
%FSLAX34Y34*%
%LPD*%
%AMOC8*
5,1,8,0,0,1.08239X$1,22.5*%
G01*
%ADD10R,1.500000X0.600000*%
%ADD11C,1.879600*%
%ADD12R,1.930400X1.930400*%
%ADD13R,1.650000X1.650000*%
%ADD14C,1.650000*%
%ADD15P,1.814519X8X112.500000*%
%ADD16C,1.508000*%
%ADD17P,1.814519X8X292.500000*%
%ADD18C,0.254000*%
%ADD19C,0.609600*%
%ADD20C,0.635000*%


D10*
X632650Y524131D03*
X632650Y536831D03*
X632650Y549531D03*
X632650Y562231D03*
X557650Y562231D03*
X557650Y549531D03*
X557650Y536831D03*
X557650Y524131D03*
D11*
X591975Y593600D03*
X591975Y669800D03*
X407825Y593600D03*
X407825Y669800D03*
D12*
X360200Y695200D03*
X360200Y720600D03*
X360200Y746000D03*
X360200Y771400D03*
X360200Y796800D03*
X360200Y822200D03*
X360200Y847600D03*
X360200Y873000D03*
X360200Y898400D03*
X360200Y923800D03*
X639600Y695200D03*
X639600Y720600D03*
X639600Y746000D03*
X639600Y771400D03*
X639600Y796800D03*
X639600Y822200D03*
X639600Y847600D03*
X639600Y873000D03*
X639600Y898400D03*
X639600Y923800D03*
D13*
X436400Y530100D03*
D14*
X461800Y530100D03*
X487200Y530100D03*
X436400Y555500D03*
X461800Y555500D03*
X487200Y555500D03*
D15*
X626900Y625350D03*
X626900Y650750D03*
X372900Y625350D03*
X372900Y650750D03*
D16*
X614200Y771400D03*
X614200Y796800D03*
X614200Y822200D03*
X614200Y847600D03*
X614200Y873000D03*
X614200Y898400D03*
X614200Y923800D03*
X588800Y847600D03*
X588800Y771400D03*
X588800Y873000D03*
X588800Y796800D03*
X588800Y898400D03*
X588800Y822200D03*
X588800Y923800D03*
X563400Y771400D03*
X538000Y771400D03*
X563400Y898400D03*
X563400Y796800D03*
X538000Y796800D03*
X563400Y923800D03*
X563400Y822200D03*
X538000Y822200D03*
X538000Y898400D03*
X563400Y847600D03*
X538000Y847600D03*
X538000Y923800D03*
X563400Y873000D03*
X538000Y873000D03*
X512600Y771400D03*
X487200Y771400D03*
X461800Y771400D03*
X436400Y771400D03*
X512600Y796800D03*
X487200Y796800D03*
X461800Y796800D03*
X436400Y796800D03*
X512600Y822200D03*
X487200Y822200D03*
X461800Y822200D03*
X436400Y822200D03*
X512600Y847600D03*
X487200Y847600D03*
X461800Y847600D03*
X436400Y847600D03*
X512600Y873000D03*
X487200Y873000D03*
X461800Y873000D03*
X436400Y873000D03*
X512600Y898400D03*
X487200Y898400D03*
X461800Y898400D03*
X436400Y898400D03*
X512600Y923800D03*
X487200Y923800D03*
X461800Y923800D03*
X436400Y923800D03*
X411000Y771400D03*
X385600Y771400D03*
X411000Y898400D03*
X411000Y796800D03*
X385600Y796800D03*
X411000Y923800D03*
X411000Y822200D03*
X385600Y822200D03*
X385600Y898400D03*
X411000Y847600D03*
X385600Y847600D03*
X385600Y923800D03*
X411000Y873000D03*
X385600Y873000D03*
X538000Y980950D03*
X461800Y980950D03*
X487200Y980950D03*
X512600Y980950D03*
X436400Y619000D03*
X436400Y644400D03*
X436400Y669800D03*
X461800Y619000D03*
X461800Y644400D03*
X461800Y669800D03*
X487200Y619000D03*
X487200Y669800D03*
X487200Y644400D03*
X512600Y619000D03*
X512600Y669800D03*
X512600Y644400D03*
X538000Y644400D03*
X538000Y619000D03*
X538000Y669800D03*
X563400Y644400D03*
X563400Y619000D03*
X563400Y669800D03*
X614200Y746000D03*
X614200Y720600D03*
X614200Y695200D03*
X436400Y695200D03*
X588800Y746000D03*
X588800Y720600D03*
X588800Y695200D03*
X411000Y695200D03*
X563400Y746000D03*
X563400Y720600D03*
X563400Y695200D03*
X385600Y695200D03*
X538000Y746000D03*
X538000Y720600D03*
X538000Y695200D03*
X411000Y720600D03*
X512600Y746000D03*
X512600Y720600D03*
X512600Y695200D03*
X385600Y720600D03*
X487200Y746000D03*
X487200Y720600D03*
X487200Y695200D03*
X411000Y746000D03*
X461800Y746000D03*
X461800Y720600D03*
X461800Y695200D03*
X385600Y746000D03*
X436400Y746000D03*
X436400Y720600D03*
D11*
X525300Y555500D03*
X525300Y530100D03*
D10*
X367250Y475869D03*
X367250Y463169D03*
X367250Y450469D03*
X367250Y437769D03*
X442250Y437769D03*
X442250Y450469D03*
X442250Y463169D03*
X442250Y475869D03*
D11*
X407925Y406400D03*
X407925Y330200D03*
X592075Y406400D03*
X592075Y330200D03*
D12*
X639700Y304800D03*
X639700Y279400D03*
X639700Y254000D03*
X639700Y228600D03*
X639700Y203200D03*
X639700Y177800D03*
X639700Y152400D03*
X639700Y127000D03*
X639700Y101600D03*
X639700Y76200D03*
X360300Y304800D03*
X360300Y279400D03*
X360300Y254000D03*
X360300Y228600D03*
X360300Y203200D03*
X360300Y177800D03*
X360300Y152400D03*
X360300Y127000D03*
X360300Y101600D03*
X360300Y76200D03*
D13*
X563500Y469900D03*
D14*
X538100Y469900D03*
X512700Y469900D03*
X563500Y444500D03*
X538100Y444500D03*
X512700Y444500D03*
D17*
X373000Y374650D03*
X373000Y349250D03*
X627000Y374650D03*
X627000Y349250D03*
D16*
X385700Y228600D03*
X385700Y203200D03*
X385700Y177800D03*
X385700Y152400D03*
X385700Y127000D03*
X385700Y101600D03*
X385700Y76200D03*
X411100Y152400D03*
X411100Y228600D03*
X411100Y127000D03*
X411100Y203200D03*
X411100Y101600D03*
X411100Y177800D03*
X411100Y76200D03*
X436500Y228600D03*
X461900Y228600D03*
X436500Y101600D03*
X436500Y203200D03*
X461900Y203200D03*
X436500Y76200D03*
X436500Y177800D03*
X461900Y177800D03*
X461900Y101600D03*
X436500Y152400D03*
X461900Y152400D03*
X461900Y76200D03*
X436500Y127000D03*
X461900Y127000D03*
X487300Y228600D03*
X512700Y228600D03*
X538100Y228600D03*
X563500Y228600D03*
X487300Y203200D03*
X512700Y203200D03*
X538100Y203200D03*
X563500Y203200D03*
X487300Y177800D03*
X512700Y177800D03*
X538100Y177800D03*
X563500Y177800D03*
X487300Y152400D03*
X512700Y152400D03*
X538100Y152400D03*
X563500Y152400D03*
X487300Y127000D03*
X512700Y127000D03*
X538100Y127000D03*
X563500Y127000D03*
X487300Y101600D03*
X512700Y101600D03*
X538100Y101600D03*
X563500Y101600D03*
X487300Y76200D03*
X512700Y76200D03*
X538100Y76200D03*
X563500Y76200D03*
X588900Y228600D03*
X614300Y228600D03*
X588900Y101600D03*
X588900Y203200D03*
X614300Y203200D03*
X588900Y76200D03*
X588900Y177800D03*
X614300Y177800D03*
X614300Y101600D03*
X588900Y152400D03*
X614300Y152400D03*
X614300Y76200D03*
X588900Y127000D03*
X614300Y127000D03*
X461900Y19050D03*
X538100Y19050D03*
X512700Y19050D03*
X487300Y19050D03*
X563500Y381000D03*
X563500Y355600D03*
X563500Y330200D03*
X538100Y381000D03*
X538100Y355600D03*
X538100Y330200D03*
X512700Y381000D03*
X512700Y330200D03*
X512700Y355600D03*
X487300Y381000D03*
X487300Y330200D03*
X487300Y355600D03*
X461900Y355600D03*
X461900Y381000D03*
X461900Y330200D03*
X436500Y355600D03*
X436500Y381000D03*
X436500Y330200D03*
X385700Y254000D03*
X385700Y279400D03*
X385700Y304800D03*
X563500Y304800D03*
X411100Y254000D03*
X411100Y279400D03*
X411100Y304800D03*
X588900Y304800D03*
X436500Y254000D03*
X436500Y279400D03*
X436500Y304800D03*
X614300Y304800D03*
X461900Y254000D03*
X461900Y279400D03*
X461900Y304800D03*
X588900Y279400D03*
X487300Y254000D03*
X487300Y279400D03*
X487300Y304800D03*
X614300Y279400D03*
X512700Y254000D03*
X512700Y279400D03*
X512700Y304800D03*
X588900Y254000D03*
X538100Y254000D03*
X538100Y279400D03*
X538100Y304800D03*
X614300Y254000D03*
X563500Y254000D03*
X563500Y279400D03*
D11*
X474600Y444500D03*
X474600Y469900D03*
D10*
X700550Y475869D03*
X700550Y463169D03*
X700550Y450469D03*
X700550Y437769D03*
X775550Y437769D03*
X775550Y450469D03*
X775550Y463169D03*
X775550Y475869D03*
D11*
X741225Y406400D03*
X741225Y330200D03*
X925375Y406400D03*
X925375Y330200D03*
D12*
X973000Y304800D03*
X973000Y279400D03*
X973000Y254000D03*
X973000Y228600D03*
X973000Y203200D03*
X973000Y177800D03*
X973000Y152400D03*
X973000Y127000D03*
X973000Y101600D03*
X973000Y76200D03*
X693600Y304800D03*
X693600Y279400D03*
X693600Y254000D03*
X693600Y228600D03*
X693600Y203200D03*
X693600Y177800D03*
X693600Y152400D03*
X693600Y127000D03*
X693600Y101600D03*
X693600Y76200D03*
D13*
X896800Y469900D03*
D14*
X871400Y469900D03*
X846000Y469900D03*
X896800Y444500D03*
X871400Y444500D03*
X846000Y444500D03*
D17*
X706300Y374650D03*
X706300Y349250D03*
X960300Y374650D03*
X960300Y349250D03*
D16*
X719000Y228600D03*
X719000Y203200D03*
X719000Y177800D03*
X719000Y152400D03*
X719000Y127000D03*
X719000Y101600D03*
X719000Y76200D03*
X744400Y152400D03*
X744400Y228600D03*
X744400Y127000D03*
X744400Y203200D03*
X744400Y101600D03*
X744400Y177800D03*
X744400Y76200D03*
X769800Y228600D03*
X795200Y228600D03*
X769800Y101600D03*
X769800Y203200D03*
X795200Y203200D03*
X769800Y76200D03*
X769800Y177800D03*
X795200Y177800D03*
X795200Y101600D03*
X769800Y152400D03*
X795200Y152400D03*
X795200Y76200D03*
X769800Y127000D03*
X795200Y127000D03*
X820600Y228600D03*
X846000Y228600D03*
X871400Y228600D03*
X896800Y228600D03*
X820600Y203200D03*
X846000Y203200D03*
X871400Y203200D03*
X896800Y203200D03*
X820600Y177800D03*
X846000Y177800D03*
X871400Y177800D03*
X896800Y177800D03*
X820600Y152400D03*
X846000Y152400D03*
X871400Y152400D03*
X896800Y152400D03*
X820600Y127000D03*
X846000Y127000D03*
X871400Y127000D03*
X896800Y127000D03*
X820600Y101600D03*
X846000Y101600D03*
X871400Y101600D03*
X896800Y101600D03*
X820600Y76200D03*
X846000Y76200D03*
X871400Y76200D03*
X896800Y76200D03*
X922200Y228600D03*
X947600Y228600D03*
X922200Y101600D03*
X922200Y203200D03*
X947600Y203200D03*
X922200Y76200D03*
X922200Y177800D03*
X947600Y177800D03*
X947600Y101600D03*
X922200Y152400D03*
X947600Y152400D03*
X947600Y76200D03*
X922200Y127000D03*
X947600Y127000D03*
X795200Y19050D03*
X871400Y19050D03*
X846000Y19050D03*
X820600Y19050D03*
X896800Y381000D03*
X896800Y355600D03*
X896800Y330200D03*
X871400Y381000D03*
X871400Y355600D03*
X871400Y330200D03*
X846000Y381000D03*
X846000Y330200D03*
X846000Y355600D03*
X820600Y381000D03*
X820600Y330200D03*
X820600Y355600D03*
X795200Y355600D03*
X795200Y381000D03*
X795200Y330200D03*
X769800Y355600D03*
X769800Y381000D03*
X769800Y330200D03*
X719000Y254000D03*
X719000Y279400D03*
X719000Y304800D03*
X896800Y304800D03*
X744400Y254000D03*
X744400Y279400D03*
X744400Y304800D03*
X922200Y304800D03*
X769800Y254000D03*
X769800Y279400D03*
X769800Y304800D03*
X947600Y304800D03*
X795200Y254000D03*
X795200Y279400D03*
X795200Y304800D03*
X922200Y279400D03*
X820600Y254000D03*
X820600Y279400D03*
X820600Y304800D03*
X947600Y279400D03*
X846000Y254000D03*
X846000Y279400D03*
X846000Y304800D03*
X922200Y254000D03*
X871400Y254000D03*
X871400Y279400D03*
X871400Y304800D03*
X947600Y254000D03*
X896800Y254000D03*
X896800Y279400D03*
D11*
X807900Y444500D03*
X807900Y469900D03*
D10*
X299350Y524131D03*
X299350Y536831D03*
X299350Y549531D03*
X299350Y562231D03*
X224350Y562231D03*
X224350Y549531D03*
X224350Y536831D03*
X224350Y524131D03*
D11*
X258675Y593600D03*
X258675Y669800D03*
X74525Y593600D03*
X74525Y669800D03*
D12*
X26900Y695200D03*
X26900Y720600D03*
X26900Y746000D03*
X26900Y771400D03*
X26900Y796800D03*
X26900Y822200D03*
X26900Y847600D03*
X26900Y873000D03*
X26900Y898400D03*
X26900Y923800D03*
X306300Y695200D03*
X306300Y720600D03*
X306300Y746000D03*
X306300Y771400D03*
X306300Y796800D03*
X306300Y822200D03*
X306300Y847600D03*
X306300Y873000D03*
X306300Y898400D03*
X306300Y923800D03*
D13*
X103100Y530100D03*
D14*
X128500Y530100D03*
X153900Y530100D03*
X103100Y555500D03*
X128500Y555500D03*
X153900Y555500D03*
D15*
X293600Y625350D03*
X293600Y650750D03*
X39600Y625350D03*
X39600Y650750D03*
D16*
X280900Y771400D03*
X280900Y796800D03*
X280900Y822200D03*
X280900Y847600D03*
X280900Y873000D03*
X280900Y898400D03*
X280900Y923800D03*
X255500Y847600D03*
X255500Y771400D03*
X255500Y873000D03*
X255500Y796800D03*
X255500Y898400D03*
X255500Y822200D03*
X255500Y923800D03*
X230100Y771400D03*
X204700Y771400D03*
X230100Y898400D03*
X230100Y796800D03*
X204700Y796800D03*
X230100Y923800D03*
X230100Y822200D03*
X204700Y822200D03*
X204700Y898400D03*
X230100Y847600D03*
X204700Y847600D03*
X204700Y923800D03*
X230100Y873000D03*
X204700Y873000D03*
X179300Y771400D03*
X153900Y771400D03*
X128500Y771400D03*
X103100Y771400D03*
X179300Y796800D03*
X153900Y796800D03*
X128500Y796800D03*
X103100Y796800D03*
X179300Y822200D03*
X153900Y822200D03*
X128500Y822200D03*
X103100Y822200D03*
X179300Y847600D03*
X153900Y847600D03*
X128500Y847600D03*
X103100Y847600D03*
X179300Y873000D03*
X153900Y873000D03*
X128500Y873000D03*
X103100Y873000D03*
X179300Y898400D03*
X153900Y898400D03*
X128500Y898400D03*
X103100Y898400D03*
X179300Y923800D03*
X153900Y923800D03*
X128500Y923800D03*
X103100Y923800D03*
X77700Y771400D03*
X52300Y771400D03*
X77700Y898400D03*
X77700Y796800D03*
X52300Y796800D03*
X77700Y923800D03*
X77700Y822200D03*
X52300Y822200D03*
X52300Y898400D03*
X77700Y847600D03*
X52300Y847600D03*
X52300Y923800D03*
X77700Y873000D03*
X52300Y873000D03*
X204700Y980950D03*
X128500Y980950D03*
X153900Y980950D03*
X179300Y980950D03*
X103100Y619000D03*
X103100Y644400D03*
X103100Y669800D03*
X128500Y619000D03*
X128500Y644400D03*
X128500Y669800D03*
X153900Y619000D03*
X153900Y669800D03*
X153900Y644400D03*
X179300Y619000D03*
X179300Y669800D03*
X179300Y644400D03*
X204700Y644400D03*
X204700Y619000D03*
X204700Y669800D03*
X230100Y644400D03*
X230100Y619000D03*
X230100Y669800D03*
X280900Y746000D03*
X280900Y720600D03*
X280900Y695200D03*
X103100Y695200D03*
X255500Y746000D03*
X255500Y720600D03*
X255500Y695200D03*
X77700Y695200D03*
X230100Y746000D03*
X230100Y720600D03*
X230100Y695200D03*
X52300Y695200D03*
X204700Y746000D03*
X204700Y720600D03*
X204700Y695200D03*
X77700Y720600D03*
X179300Y746000D03*
X179300Y720600D03*
X179300Y695200D03*
X52300Y720600D03*
X153900Y746000D03*
X153900Y720600D03*
X153900Y695200D03*
X77700Y746000D03*
X128500Y746000D03*
X128500Y720600D03*
X128500Y695200D03*
X52300Y746000D03*
X103100Y746000D03*
X103100Y720600D03*
D11*
X192000Y555500D03*
X192000Y530100D03*
D10*
X965950Y524131D03*
X965950Y536831D03*
X965950Y549531D03*
X965950Y562231D03*
X890950Y562231D03*
X890950Y549531D03*
X890950Y536831D03*
X890950Y524131D03*
D11*
X925275Y593600D03*
X925275Y669800D03*
X741125Y593600D03*
X741125Y669800D03*
D12*
X693500Y695200D03*
X693500Y720600D03*
X693500Y746000D03*
X693500Y771400D03*
X693500Y796800D03*
X693500Y822200D03*
X693500Y847600D03*
X693500Y873000D03*
X693500Y898400D03*
X693500Y923800D03*
X972900Y695200D03*
X972900Y720600D03*
X972900Y746000D03*
X972900Y771400D03*
X972900Y796800D03*
X972900Y822200D03*
X972900Y847600D03*
X972900Y873000D03*
X972900Y898400D03*
X972900Y923800D03*
D13*
X769700Y530100D03*
D14*
X795100Y530100D03*
X820500Y530100D03*
X769700Y555500D03*
X795100Y555500D03*
X820500Y555500D03*
D15*
X960200Y625350D03*
X960200Y650750D03*
X706200Y625350D03*
X706200Y650750D03*
D16*
X947500Y771400D03*
X947500Y796800D03*
X947500Y822200D03*
X947500Y847600D03*
X947500Y873000D03*
X947500Y898400D03*
X947500Y923800D03*
X922100Y847600D03*
X922100Y771400D03*
X922100Y873000D03*
X922100Y796800D03*
X922100Y898400D03*
X922100Y822200D03*
X922100Y923800D03*
X896700Y771400D03*
X871300Y771400D03*
X896700Y898400D03*
X896700Y796800D03*
X871300Y796800D03*
X896700Y923800D03*
X896700Y822200D03*
X871300Y822200D03*
X871300Y898400D03*
X896700Y847600D03*
X871300Y847600D03*
X871300Y923800D03*
X896700Y873000D03*
X871300Y873000D03*
X845900Y771400D03*
X820500Y771400D03*
X795100Y771400D03*
X769700Y771400D03*
X845900Y796800D03*
X820500Y796800D03*
X795100Y796800D03*
X769700Y796800D03*
X845900Y822200D03*
X820500Y822200D03*
X795100Y822200D03*
X769700Y822200D03*
X845900Y847600D03*
X820500Y847600D03*
X795100Y847600D03*
X769700Y847600D03*
X845900Y873000D03*
X820500Y873000D03*
X795100Y873000D03*
X769700Y873000D03*
X845900Y898400D03*
X820500Y898400D03*
X795100Y898400D03*
X769700Y898400D03*
X845900Y923800D03*
X820500Y923800D03*
X795100Y923800D03*
X769700Y923800D03*
X744300Y771400D03*
X718900Y771400D03*
X744300Y898400D03*
X744300Y796800D03*
X718900Y796800D03*
X744300Y923800D03*
X744300Y822200D03*
X718900Y822200D03*
X718900Y898400D03*
X744300Y847600D03*
X718900Y847600D03*
X718900Y923800D03*
X744300Y873000D03*
X718900Y873000D03*
X871300Y980950D03*
X795100Y980950D03*
X820500Y980950D03*
X845900Y980950D03*
X769700Y619000D03*
X769700Y644400D03*
X769700Y669800D03*
X795100Y619000D03*
X795100Y644400D03*
X795100Y669800D03*
X820500Y619000D03*
X820500Y669800D03*
X820500Y644400D03*
X845900Y619000D03*
X845900Y669800D03*
X845900Y644400D03*
X871300Y644400D03*
X871300Y619000D03*
X871300Y669800D03*
X896700Y644400D03*
X896700Y619000D03*
X896700Y669800D03*
X947500Y746000D03*
X947500Y720600D03*
X947500Y695200D03*
X769700Y695200D03*
X922100Y746000D03*
X922100Y720600D03*
X922100Y695200D03*
X744300Y695200D03*
X896700Y746000D03*
X896700Y720600D03*
X896700Y695200D03*
X718900Y695200D03*
X871300Y746000D03*
X871300Y720600D03*
X871300Y695200D03*
X744300Y720600D03*
X845900Y746000D03*
X845900Y720600D03*
X845900Y695200D03*
X718900Y720600D03*
X820500Y746000D03*
X820500Y720600D03*
X820500Y695200D03*
X744300Y746000D03*
X795100Y746000D03*
X795100Y720600D03*
X795100Y695200D03*
X718900Y746000D03*
X769700Y746000D03*
X769700Y720600D03*
D11*
X858600Y555500D03*
X858600Y530100D03*
D10*
X33950Y475869D03*
X33950Y463169D03*
X33950Y450469D03*
X33950Y437769D03*
X108950Y437769D03*
X108950Y450469D03*
X108950Y463169D03*
X108950Y475869D03*
D11*
X74625Y406400D03*
X74625Y330200D03*
X258775Y406400D03*
X258775Y330200D03*
D12*
X306400Y304800D03*
X306400Y279400D03*
X306400Y254000D03*
X306400Y228600D03*
X306400Y203200D03*
X306400Y177800D03*
X306400Y152400D03*
X306400Y127000D03*
X306400Y101600D03*
X306400Y76200D03*
X27000Y304800D03*
X27000Y279400D03*
X27000Y254000D03*
X27000Y228600D03*
X27000Y203200D03*
X27000Y177800D03*
X27000Y152400D03*
X27000Y127000D03*
X27000Y101600D03*
X27000Y76200D03*
D13*
X230200Y469900D03*
D14*
X204800Y469900D03*
X179400Y469900D03*
X230200Y444500D03*
X204800Y444500D03*
X179400Y444500D03*
D17*
X39700Y374650D03*
X39700Y349250D03*
X293700Y374650D03*
X293700Y349250D03*
D16*
X52400Y228600D03*
X52400Y203200D03*
X52400Y177800D03*
X52400Y152400D03*
X52400Y127000D03*
X52400Y101600D03*
X52400Y76200D03*
X77800Y152400D03*
X77800Y228600D03*
X77800Y127000D03*
X77800Y203200D03*
X77800Y101600D03*
X77800Y177800D03*
X77800Y76200D03*
X103200Y228600D03*
X128600Y228600D03*
X103200Y101600D03*
X103200Y203200D03*
X128600Y203200D03*
X103200Y76200D03*
X103200Y177800D03*
X128600Y177800D03*
X128600Y101600D03*
X103200Y152400D03*
X128600Y152400D03*
X128600Y76200D03*
X103200Y127000D03*
X128600Y127000D03*
X154000Y228600D03*
X179400Y228600D03*
X204800Y228600D03*
X230200Y228600D03*
X154000Y203200D03*
X179400Y203200D03*
X204800Y203200D03*
X230200Y203200D03*
X154000Y177800D03*
X179400Y177800D03*
X204800Y177800D03*
X230200Y177800D03*
X154000Y152400D03*
X179400Y152400D03*
X204800Y152400D03*
X230200Y152400D03*
X154000Y127000D03*
X179400Y127000D03*
X204800Y127000D03*
X230200Y127000D03*
X154000Y101600D03*
X179400Y101600D03*
X204800Y101600D03*
X230200Y101600D03*
X154000Y76200D03*
X179400Y76200D03*
X204800Y76200D03*
X230200Y76200D03*
X255600Y228600D03*
X281000Y228600D03*
X255600Y101600D03*
X255600Y203200D03*
X281000Y203200D03*
X255600Y76200D03*
X255600Y177800D03*
X281000Y177800D03*
X281000Y101600D03*
X255600Y152400D03*
X281000Y152400D03*
X281000Y76200D03*
X255600Y127000D03*
X281000Y127000D03*
X128600Y19050D03*
X204800Y19050D03*
X179400Y19050D03*
X154000Y19050D03*
X230200Y381000D03*
X230200Y355600D03*
X230200Y330200D03*
X204800Y381000D03*
X204800Y355600D03*
X204800Y330200D03*
X179400Y381000D03*
X179400Y330200D03*
X179400Y355600D03*
X154000Y381000D03*
X154000Y330200D03*
X154000Y355600D03*
X128600Y355600D03*
X128600Y381000D03*
X128600Y330200D03*
X103200Y355600D03*
X103200Y381000D03*
X103200Y330200D03*
X52400Y254000D03*
X52400Y279400D03*
X52400Y304800D03*
X230200Y304800D03*
X77800Y254000D03*
X77800Y279400D03*
X77800Y304800D03*
X255600Y304800D03*
X103200Y254000D03*
X103200Y279400D03*
X103200Y304800D03*
X281000Y304800D03*
X128600Y254000D03*
X128600Y279400D03*
X128600Y304800D03*
X255600Y279400D03*
X154000Y254000D03*
X154000Y279400D03*
X154000Y304800D03*
X281000Y279400D03*
X179400Y254000D03*
X179400Y279400D03*
X179400Y304800D03*
X255600Y254000D03*
X204800Y254000D03*
X204800Y279400D03*
X204800Y304800D03*
X281000Y254000D03*
X230200Y254000D03*
X230200Y279400D03*
D11*
X141300Y444500D03*
X141300Y469900D03*
D18*
X551970Y563120D02*
X557050Y563120D01*
X551970Y563120D02*
X520220Y594870D01*
X557050Y563120D02*
X557650Y562231D01*
X461800Y555500D02*
X461800Y593600D01*
X436400Y619000D01*
X487200Y965710D02*
X487200Y980950D01*
X487200Y965710D02*
X447830Y926340D01*
X447830Y681230D01*
X436400Y669800D01*
X407825Y669800D01*
X436400Y669800D02*
X436400Y644400D01*
D19*
X520220Y594870D03*
D20*
X461800Y980950D02*
X417350Y980950D01*
X360200Y923800D01*
X360200Y898400D01*
X360200Y873000D01*
X360200Y847600D01*
X360200Y822200D01*
X360200Y796800D01*
X360200Y771400D01*
X360200Y746000D01*
X530380Y525020D02*
X557050Y525020D01*
X530380Y525020D02*
X525300Y530100D01*
X557050Y525020D02*
X557650Y524131D01*
X436400Y555500D02*
X436400Y599950D01*
X388140Y648210D01*
X388140Y667260D01*
X360200Y695200D01*
X360200Y720600D01*
X473230Y570740D02*
X518950Y570740D01*
X473230Y570740D02*
X469420Y574550D01*
X360200Y720600D02*
X360200Y746000D01*
D19*
X518950Y570740D03*
X469420Y574550D03*
D18*
X512600Y644400D02*
X512600Y669800D01*
X606580Y537720D02*
X631980Y537720D01*
X606580Y537720D02*
X536730Y607570D01*
X524030Y607570D01*
X512600Y619000D01*
X631980Y537720D02*
X632650Y536831D01*
X512600Y619000D02*
X512600Y644400D01*
X538000Y644400D02*
X538000Y669800D01*
X606580Y550420D02*
X631980Y550420D01*
X606580Y550420D02*
X538000Y619000D01*
X631980Y550420D02*
X632650Y549531D01*
X538000Y619000D02*
X538000Y644400D01*
D20*
X525300Y555500D02*
X501170Y555500D01*
X487200Y555500D01*
X423700Y599950D02*
X372900Y650750D01*
X423700Y599950D02*
X423700Y563120D01*
X422430Y561850D01*
X422430Y518670D01*
X424970Y516130D01*
X493550Y516130D01*
X501170Y523750D01*
X501170Y555500D01*
X633250Y563120D02*
X633250Y572010D01*
X633250Y563120D02*
X632650Y562231D01*
X582450Y980950D02*
X538000Y980950D01*
X582450Y980950D02*
X639600Y923800D01*
X639600Y898400D01*
X639600Y873000D01*
X639600Y847600D01*
X639600Y822200D01*
X639600Y796800D01*
X639600Y771400D01*
X639600Y746000D01*
X639600Y720600D01*
X639600Y695200D01*
X626900Y681230D02*
X626900Y650750D01*
X626900Y681230D02*
X638330Y692660D01*
X639600Y695200D01*
D19*
X633250Y572010D03*
D18*
X562130Y537720D02*
X558320Y537720D01*
X562130Y537720D02*
X569750Y545340D01*
X569750Y566930D01*
X534190Y602490D01*
X504980Y602490D01*
X488470Y619000D01*
X487200Y619000D01*
X558320Y537720D02*
X557650Y536831D01*
X487200Y619000D02*
X487200Y644400D01*
X512600Y940310D02*
X512600Y980950D01*
X512600Y940310D02*
X498630Y926340D01*
X498630Y681230D01*
X487200Y669800D01*
X487200Y644400D01*
X563400Y644400D02*
X563400Y669800D01*
X633250Y525020D02*
X637060Y525020D01*
X644680Y532640D01*
X644680Y570740D01*
X635790Y579630D01*
X586260Y579630D01*
X563400Y602490D01*
X563400Y619000D01*
X633250Y525020D02*
X632650Y524131D01*
X563400Y619000D02*
X563400Y644400D01*
X461800Y644400D02*
X461800Y669800D01*
X549430Y550420D02*
X557050Y550420D01*
X549430Y550420D02*
X492280Y607570D01*
X473230Y607570D01*
X461800Y619000D01*
X557050Y550420D02*
X557650Y549531D01*
X461800Y619000D02*
X461800Y644400D01*
X624360Y625350D02*
X626900Y625350D01*
X624360Y625350D02*
X592610Y593600D01*
X591975Y593600D01*
X375440Y625350D02*
X372900Y625350D01*
X375440Y625350D02*
X407190Y593600D01*
X407825Y593600D01*
X442850Y436880D02*
X447930Y436880D01*
X479680Y405130D01*
X442850Y436880D02*
X442250Y437769D01*
X538100Y444500D02*
X538100Y406400D01*
X563500Y381000D01*
X512700Y34290D02*
X512700Y19050D01*
X512700Y34290D02*
X552070Y73660D01*
X552070Y318770D01*
X563500Y330200D01*
X592075Y330200D01*
X563500Y330200D02*
X563500Y355600D01*
D19*
X479680Y405130D03*
D20*
X538100Y19050D02*
X582550Y19050D01*
X639700Y76200D01*
X639700Y101600D01*
X639700Y127000D01*
X639700Y152400D01*
X639700Y177800D01*
X639700Y203200D01*
X639700Y228600D01*
X639700Y254000D01*
X469520Y474980D02*
X442850Y474980D01*
X469520Y474980D02*
X474600Y469900D01*
X442850Y474980D02*
X442250Y475869D01*
X563500Y444500D02*
X563500Y400050D01*
X611760Y351790D01*
X611760Y332740D01*
X639700Y304800D01*
X639700Y279400D01*
X526670Y429260D02*
X480950Y429260D01*
X526670Y429260D02*
X530480Y425450D01*
X639700Y279400D02*
X639700Y254000D01*
D19*
X480950Y429260D03*
X530480Y425450D03*
D18*
X487300Y355600D02*
X487300Y330200D01*
X393320Y462280D02*
X367920Y462280D01*
X393320Y462280D02*
X463170Y392430D01*
X475870Y392430D01*
X487300Y381000D01*
X367920Y462280D02*
X367250Y463169D01*
X487300Y381000D02*
X487300Y355600D01*
X461900Y355600D02*
X461900Y330200D01*
X393320Y449580D02*
X367920Y449580D01*
X393320Y449580D02*
X461900Y381000D01*
X367920Y449580D02*
X367250Y450469D01*
X461900Y381000D02*
X461900Y355600D01*
D20*
X474600Y444500D02*
X498730Y444500D01*
X512700Y444500D01*
X576200Y400050D02*
X627000Y349250D01*
X576200Y400050D02*
X576200Y436880D01*
X577470Y438150D01*
X577470Y481330D01*
X574930Y483870D01*
X506350Y483870D01*
X498730Y476250D01*
X498730Y444500D01*
X366650Y436880D02*
X366650Y427990D01*
X366650Y436880D02*
X367250Y437769D01*
X417450Y19050D02*
X461900Y19050D01*
X417450Y19050D02*
X360300Y76200D01*
X360300Y101600D01*
X360300Y127000D01*
X360300Y152400D01*
X360300Y177800D01*
X360300Y203200D01*
X360300Y228600D01*
X360300Y254000D01*
X360300Y279400D01*
X360300Y304800D01*
X373000Y318770D02*
X373000Y349250D01*
X373000Y318770D02*
X361570Y307340D01*
X360300Y304800D01*
D19*
X366650Y427990D03*
D18*
X437770Y462280D02*
X441580Y462280D01*
X437770Y462280D02*
X430150Y454660D01*
X430150Y433070D01*
X465710Y397510D01*
X494920Y397510D01*
X511430Y381000D01*
X512700Y381000D01*
X441580Y462280D02*
X442250Y463169D01*
X512700Y381000D02*
X512700Y355600D01*
X487300Y59690D02*
X487300Y19050D01*
X487300Y59690D02*
X501270Y73660D01*
X501270Y318770D01*
X512700Y330200D01*
X512700Y355600D01*
X436500Y355600D02*
X436500Y330200D01*
X366650Y474980D02*
X362840Y474980D01*
X355220Y467360D01*
X355220Y429260D01*
X364110Y420370D01*
X413640Y420370D01*
X436500Y397510D01*
X436500Y381000D01*
X366650Y474980D02*
X367250Y475869D01*
X436500Y381000D02*
X436500Y355600D01*
X538100Y355600D02*
X538100Y330200D01*
X450470Y449580D02*
X442850Y449580D01*
X450470Y449580D02*
X507620Y392430D01*
X526670Y392430D01*
X538100Y381000D01*
X442850Y449580D02*
X442250Y450469D01*
X538100Y381000D02*
X538100Y355600D01*
X375540Y374650D02*
X373000Y374650D01*
X375540Y374650D02*
X407290Y406400D01*
X407925Y406400D01*
X624460Y374650D02*
X627000Y374650D01*
X624460Y374650D02*
X592710Y406400D01*
X592075Y406400D01*
X776150Y436880D02*
X781230Y436880D01*
X812980Y405130D01*
X776150Y436880D02*
X775550Y437769D01*
X871400Y444500D02*
X871400Y406400D01*
X896800Y381000D01*
X846000Y34290D02*
X846000Y19050D01*
X846000Y34290D02*
X885370Y73660D01*
X885370Y318770D01*
X896800Y330200D01*
X925375Y330200D01*
X896800Y330200D02*
X896800Y355600D01*
D19*
X812980Y405130D03*
D20*
X871400Y19050D02*
X915850Y19050D01*
X973000Y76200D01*
X973000Y101600D01*
X973000Y127000D01*
X973000Y152400D01*
X973000Y177800D01*
X973000Y203200D01*
X973000Y228600D01*
X973000Y254000D01*
X802820Y474980D02*
X776150Y474980D01*
X802820Y474980D02*
X807900Y469900D01*
X776150Y474980D02*
X775550Y475869D01*
X896800Y444500D02*
X896800Y400050D01*
X945060Y351790D01*
X945060Y332740D01*
X973000Y304800D01*
X973000Y279400D01*
X859970Y429260D02*
X814250Y429260D01*
X859970Y429260D02*
X863780Y425450D01*
X973000Y279400D02*
X973000Y254000D01*
D19*
X814250Y429260D03*
X863780Y425450D03*
D18*
X820600Y355600D02*
X820600Y330200D01*
X726620Y462280D02*
X701220Y462280D01*
X726620Y462280D02*
X796470Y392430D01*
X809170Y392430D01*
X820600Y381000D01*
X701220Y462280D02*
X700550Y463169D01*
X820600Y381000D02*
X820600Y355600D01*
X795200Y355600D02*
X795200Y330200D01*
X726620Y449580D02*
X701220Y449580D01*
X726620Y449580D02*
X795200Y381000D01*
X701220Y449580D02*
X700550Y450469D01*
X795200Y381000D02*
X795200Y355600D01*
D20*
X807900Y444500D02*
X832030Y444500D01*
X846000Y444500D01*
X909500Y400050D02*
X960300Y349250D01*
X909500Y400050D02*
X909500Y436880D01*
X910770Y438150D01*
X910770Y481330D01*
X908230Y483870D01*
X839650Y483870D01*
X832030Y476250D01*
X832030Y444500D01*
X699950Y436880D02*
X699950Y427990D01*
X699950Y436880D02*
X700550Y437769D01*
X750750Y19050D02*
X795200Y19050D01*
X750750Y19050D02*
X693600Y76200D01*
X693600Y101600D01*
X693600Y127000D01*
X693600Y152400D01*
X693600Y177800D01*
X693600Y203200D01*
X693600Y228600D01*
X693600Y254000D01*
X693600Y279400D01*
X693600Y304800D01*
X706300Y318770D02*
X706300Y349250D01*
X706300Y318770D02*
X694870Y307340D01*
X693600Y304800D01*
D19*
X699950Y427990D03*
D18*
X771070Y462280D02*
X774880Y462280D01*
X771070Y462280D02*
X763450Y454660D01*
X763450Y433070D01*
X799010Y397510D01*
X828220Y397510D01*
X844730Y381000D01*
X846000Y381000D01*
X774880Y462280D02*
X775550Y463169D01*
X846000Y381000D02*
X846000Y355600D01*
X820600Y59690D02*
X820600Y19050D01*
X820600Y59690D02*
X834570Y73660D01*
X834570Y318770D01*
X846000Y330200D01*
X846000Y355600D01*
X769800Y355600D02*
X769800Y330200D01*
X699950Y474980D02*
X696140Y474980D01*
X688520Y467360D01*
X688520Y429260D01*
X697410Y420370D01*
X746940Y420370D01*
X769800Y397510D01*
X769800Y381000D01*
X699950Y474980D02*
X700550Y475869D01*
X769800Y381000D02*
X769800Y355600D01*
X871400Y355600D02*
X871400Y330200D01*
X783770Y449580D02*
X776150Y449580D01*
X783770Y449580D02*
X840920Y392430D01*
X859970Y392430D01*
X871400Y381000D01*
X776150Y449580D02*
X775550Y450469D01*
X871400Y381000D02*
X871400Y355600D01*
X708840Y374650D02*
X706300Y374650D01*
X708840Y374650D02*
X740590Y406400D01*
X741225Y406400D01*
X957760Y374650D02*
X960300Y374650D01*
X957760Y374650D02*
X926010Y406400D01*
X925375Y406400D01*
X223750Y563120D02*
X218670Y563120D01*
X186920Y594870D01*
X223750Y563120D02*
X224350Y562231D01*
X128500Y555500D02*
X128500Y593600D01*
X103100Y619000D01*
X153900Y965710D02*
X153900Y980950D01*
X153900Y965710D02*
X114530Y926340D01*
X114530Y681230D01*
X103100Y669800D01*
X74525Y669800D01*
X103100Y669800D02*
X103100Y644400D01*
D19*
X186920Y594870D03*
D20*
X128500Y980950D02*
X84050Y980950D01*
X26900Y923800D01*
X26900Y898400D01*
X26900Y873000D01*
X26900Y847600D01*
X26900Y822200D01*
X26900Y796800D01*
X26900Y771400D01*
X26900Y746000D01*
X197080Y525020D02*
X223750Y525020D01*
X197080Y525020D02*
X192000Y530100D01*
X223750Y525020D02*
X224350Y524131D01*
X103100Y555500D02*
X103100Y599950D01*
X54840Y648210D01*
X54840Y667260D01*
X26900Y695200D01*
X26900Y720600D01*
X139930Y570740D02*
X185650Y570740D01*
X139930Y570740D02*
X136120Y574550D01*
X26900Y720600D02*
X26900Y746000D01*
D19*
X185650Y570740D03*
X136120Y574550D03*
D18*
X179300Y644400D02*
X179300Y669800D01*
X273280Y537720D02*
X298680Y537720D01*
X273280Y537720D02*
X203430Y607570D01*
X190730Y607570D01*
X179300Y619000D01*
X298680Y537720D02*
X299350Y536831D01*
X179300Y619000D02*
X179300Y644400D01*
X204700Y644400D02*
X204700Y669800D01*
X273280Y550420D02*
X298680Y550420D01*
X273280Y550420D02*
X204700Y619000D01*
X298680Y550420D02*
X299350Y549531D01*
X204700Y619000D02*
X204700Y644400D01*
D20*
X192000Y555500D02*
X167870Y555500D01*
X153900Y555500D01*
X90400Y599950D02*
X39600Y650750D01*
X90400Y599950D02*
X90400Y563120D01*
X89130Y561850D01*
X89130Y518670D01*
X91670Y516130D01*
X160250Y516130D01*
X167870Y523750D01*
X167870Y555500D01*
X299950Y563120D02*
X299950Y572010D01*
X299950Y563120D02*
X299350Y562231D01*
X249150Y980950D02*
X204700Y980950D01*
X249150Y980950D02*
X306300Y923800D01*
X306300Y898400D01*
X306300Y873000D01*
X306300Y847600D01*
X306300Y822200D01*
X306300Y796800D01*
X306300Y771400D01*
X306300Y746000D01*
X306300Y720600D01*
X306300Y695200D01*
X293600Y681230D02*
X293600Y650750D01*
X293600Y681230D02*
X305030Y692660D01*
X306300Y695200D01*
D19*
X299950Y572010D03*
D18*
X228830Y537720D02*
X225020Y537720D01*
X228830Y537720D02*
X236450Y545340D01*
X236450Y566930D01*
X200890Y602490D01*
X171680Y602490D01*
X155170Y619000D01*
X153900Y619000D01*
X225020Y537720D02*
X224350Y536831D01*
X153900Y619000D02*
X153900Y644400D01*
X179300Y940310D02*
X179300Y980950D01*
X179300Y940310D02*
X165330Y926340D01*
X165330Y681230D01*
X153900Y669800D01*
X153900Y644400D01*
X230100Y644400D02*
X230100Y669800D01*
X299950Y525020D02*
X303760Y525020D01*
X311380Y532640D01*
X311380Y570740D01*
X302490Y579630D01*
X252960Y579630D01*
X230100Y602490D01*
X230100Y619000D01*
X299950Y525020D02*
X299350Y524131D01*
X230100Y619000D02*
X230100Y644400D01*
X128500Y644400D02*
X128500Y669800D01*
X216130Y550420D02*
X223750Y550420D01*
X216130Y550420D02*
X158980Y607570D01*
X139930Y607570D01*
X128500Y619000D01*
X223750Y550420D02*
X224350Y549531D01*
X128500Y619000D02*
X128500Y644400D01*
X291060Y625350D02*
X293600Y625350D01*
X291060Y625350D02*
X259310Y593600D01*
X258675Y593600D01*
X42140Y625350D02*
X39600Y625350D01*
X42140Y625350D02*
X73890Y593600D01*
X74525Y593600D01*
X885270Y563120D02*
X890350Y563120D01*
X885270Y563120D02*
X853520Y594870D01*
X890350Y563120D02*
X890950Y562231D01*
X795100Y555500D02*
X795100Y593600D01*
X769700Y619000D01*
X820500Y965710D02*
X820500Y980950D01*
X820500Y965710D02*
X781130Y926340D01*
X781130Y681230D01*
X769700Y669800D01*
X741125Y669800D01*
X769700Y669800D02*
X769700Y644400D01*
D19*
X853520Y594870D03*
D20*
X795100Y980950D02*
X750650Y980950D01*
X693500Y923800D01*
X693500Y898400D01*
X693500Y873000D01*
X693500Y847600D01*
X693500Y822200D01*
X693500Y796800D01*
X693500Y771400D01*
X693500Y746000D01*
X863680Y525020D02*
X890350Y525020D01*
X863680Y525020D02*
X858600Y530100D01*
X890350Y525020D02*
X890950Y524131D01*
X769700Y555500D02*
X769700Y599950D01*
X721440Y648210D01*
X721440Y667260D01*
X693500Y695200D01*
X693500Y720600D01*
X806530Y570740D02*
X852250Y570740D01*
X806530Y570740D02*
X802720Y574550D01*
X693500Y720600D02*
X693500Y746000D01*
D19*
X852250Y570740D03*
X802720Y574550D03*
D18*
X845900Y644400D02*
X845900Y669800D01*
X939880Y537720D02*
X965280Y537720D01*
X939880Y537720D02*
X870030Y607570D01*
X857330Y607570D01*
X845900Y619000D01*
X965280Y537720D02*
X965950Y536831D01*
X845900Y619000D02*
X845900Y644400D01*
X871300Y644400D02*
X871300Y669800D01*
X939880Y550420D02*
X965280Y550420D01*
X939880Y550420D02*
X871300Y619000D01*
X965280Y550420D02*
X965950Y549531D01*
X871300Y619000D02*
X871300Y644400D01*
D20*
X858600Y555500D02*
X834470Y555500D01*
X820500Y555500D01*
X757000Y599950D02*
X706200Y650750D01*
X757000Y599950D02*
X757000Y563120D01*
X755730Y561850D01*
X755730Y518670D01*
X758270Y516130D01*
X826850Y516130D01*
X834470Y523750D01*
X834470Y555500D01*
X966550Y563120D02*
X966550Y572010D01*
X966550Y563120D02*
X965950Y562231D01*
X915750Y980950D02*
X871300Y980950D01*
X915750Y980950D02*
X972900Y923800D01*
X972900Y898400D01*
X972900Y873000D01*
X972900Y847600D01*
X972900Y822200D01*
X972900Y796800D01*
X972900Y771400D01*
X972900Y746000D01*
X972900Y720600D01*
X972900Y695200D01*
X960200Y681230D02*
X960200Y650750D01*
X960200Y681230D02*
X971630Y692660D01*
X972900Y695200D01*
D19*
X966550Y572010D03*
D18*
X895430Y537720D02*
X891620Y537720D01*
X895430Y537720D02*
X903050Y545340D01*
X903050Y566930D01*
X867490Y602490D01*
X838280Y602490D01*
X821770Y619000D01*
X820500Y619000D01*
X891620Y537720D02*
X890950Y536831D01*
X820500Y619000D02*
X820500Y644400D01*
X845900Y940310D02*
X845900Y980950D01*
X845900Y940310D02*
X831930Y926340D01*
X831930Y681230D01*
X820500Y669800D01*
X820500Y644400D01*
X896700Y644400D02*
X896700Y669800D01*
X966550Y525020D02*
X970360Y525020D01*
X977980Y532640D01*
X977980Y570740D01*
X969090Y579630D01*
X919560Y579630D01*
X896700Y602490D01*
X896700Y619000D01*
X966550Y525020D02*
X965950Y524131D01*
X896700Y619000D02*
X896700Y644400D01*
X795100Y644400D02*
X795100Y669800D01*
X882730Y550420D02*
X890350Y550420D01*
X882730Y550420D02*
X825580Y607570D01*
X806530Y607570D01*
X795100Y619000D01*
X890350Y550420D02*
X890950Y549531D01*
X795100Y619000D02*
X795100Y644400D01*
X957660Y625350D02*
X960200Y625350D01*
X957660Y625350D02*
X925910Y593600D01*
X925275Y593600D01*
X708740Y625350D02*
X706200Y625350D01*
X708740Y625350D02*
X740490Y593600D01*
X741125Y593600D01*
X114630Y436880D02*
X109550Y436880D01*
X114630Y436880D02*
X146380Y405130D01*
X109550Y436880D02*
X108950Y437769D01*
X204800Y444500D02*
X204800Y406400D01*
X230200Y381000D01*
X179400Y34290D02*
X179400Y19050D01*
X179400Y34290D02*
X218770Y73660D01*
X218770Y318770D01*
X230200Y330200D01*
X258775Y330200D01*
X230200Y330200D02*
X230200Y355600D01*
D19*
X146380Y405130D03*
D20*
X204800Y19050D02*
X249250Y19050D01*
X306400Y76200D01*
X306400Y101600D01*
X306400Y127000D01*
X306400Y152400D01*
X306400Y177800D01*
X306400Y203200D01*
X306400Y228600D01*
X306400Y254000D01*
X136220Y474980D02*
X109550Y474980D01*
X136220Y474980D02*
X141300Y469900D01*
X109550Y474980D02*
X108950Y475869D01*
X230200Y444500D02*
X230200Y400050D01*
X278460Y351790D01*
X278460Y332740D01*
X306400Y304800D01*
X306400Y279400D01*
X193370Y429260D02*
X147650Y429260D01*
X193370Y429260D02*
X197180Y425450D01*
X306400Y279400D02*
X306400Y254000D01*
D19*
X147650Y429260D03*
X197180Y425450D03*
D18*
X154000Y355600D02*
X154000Y330200D01*
X60020Y462280D02*
X34620Y462280D01*
X60020Y462280D02*
X129870Y392430D01*
X142570Y392430D01*
X154000Y381000D01*
X34620Y462280D02*
X33950Y463169D01*
X154000Y381000D02*
X154000Y355600D01*
X128600Y355600D02*
X128600Y330200D01*
X60020Y449580D02*
X34620Y449580D01*
X60020Y449580D02*
X128600Y381000D01*
X34620Y449580D02*
X33950Y450469D01*
X128600Y381000D02*
X128600Y355600D01*
D20*
X141300Y444500D02*
X165430Y444500D01*
X179400Y444500D01*
X242900Y400050D02*
X293700Y349250D01*
X242900Y400050D02*
X242900Y436880D01*
X244170Y438150D01*
X244170Y481330D01*
X241630Y483870D01*
X173050Y483870D01*
X165430Y476250D01*
X165430Y444500D01*
X33350Y436880D02*
X33350Y427990D01*
X33350Y436880D02*
X33950Y437769D01*
X84150Y19050D02*
X128600Y19050D01*
X84150Y19050D02*
X27000Y76200D01*
X27000Y101600D01*
X27000Y127000D01*
X27000Y152400D01*
X27000Y177800D01*
X27000Y203200D01*
X27000Y228600D01*
X27000Y254000D01*
X27000Y279400D01*
X27000Y304800D01*
X39700Y318770D02*
X39700Y349250D01*
X39700Y318770D02*
X28270Y307340D01*
X27000Y304800D01*
D19*
X33350Y427990D03*
D18*
X104470Y462280D02*
X108280Y462280D01*
X104470Y462280D02*
X96850Y454660D01*
X96850Y433070D01*
X132410Y397510D01*
X161620Y397510D01*
X178130Y381000D01*
X179400Y381000D01*
X108280Y462280D02*
X108950Y463169D01*
X179400Y381000D02*
X179400Y355600D01*
X154000Y59690D02*
X154000Y19050D01*
X154000Y59690D02*
X167970Y73660D01*
X167970Y318770D01*
X179400Y330200D01*
X179400Y355600D01*
X103200Y355600D02*
X103200Y330200D01*
X33350Y474980D02*
X29540Y474980D01*
X21920Y467360D01*
X21920Y429260D01*
X30810Y420370D01*
X80340Y420370D01*
X103200Y397510D01*
X103200Y381000D01*
X33350Y474980D02*
X33950Y475869D01*
X103200Y381000D02*
X103200Y355600D01*
X204800Y355600D02*
X204800Y330200D01*
X117170Y449580D02*
X109550Y449580D01*
X117170Y449580D02*
X174320Y392430D01*
X193370Y392430D01*
X204800Y381000D01*
X109550Y449580D02*
X108950Y450469D01*
X204800Y381000D02*
X204800Y355600D01*
X42240Y374650D02*
X39700Y374650D01*
X42240Y374650D02*
X73990Y406400D01*
X74625Y406400D01*
X291160Y374650D02*
X293700Y374650D01*
X291160Y374650D02*
X259410Y406400D01*
X258775Y406400D01*
M02*
