M48
;GenerationSoftware,Autodesk,EAGLE,9.1.1*%
;CreationDate,2018-08-06T13:51:49Z*%
FMAT,2
ICI,OFF
METRIC,TZ,000.000
T6C0.305
T5C0.813
T4C0.900
T3C1.000
T2C1.016
T1C1.100
%
G90
M71
T1
X43640Y53010
X46180Y53010
X17940Y44450
X20480Y44450
X23020Y44450
X17940Y46990
X20480Y46990
X23020Y46990
X48720Y53010
X43640Y55550
X82050Y55550
X79510Y55550
X76970Y55550
X82050Y53010
X79510Y53010
X76970Y53010
X46180Y55550
X48720Y55550
X15390Y55550
X12850Y55550
X10310Y55550
X15390Y53010
X12850Y53010
X10310Y53010
X56350Y46990
X53810Y46990
X84600Y44450
X87140Y44450
X89680Y44450
X84600Y46990
X87140Y46990
X89680Y46990
X51270Y46990
X56350Y44450
X51270Y44450
X53810Y44450
T2
X47460Y44450
X47460Y46990
X80790Y44450
X14130Y46990
X52530Y53010
X52530Y55550
X19200Y55550
X19200Y53010
X85860Y55550
X85860Y53010
X14130Y44450
X80790Y46990
T3
X63960Y92380
X63960Y89840
X63960Y87300
X63960Y84760
X63960Y82220
X63960Y79680
X23020Y27940
X23020Y25400
X28100Y25400
X20480Y30480
X61420Y77140
X61420Y79680
X61420Y82220
X61420Y84760
X61420Y87300
X61420Y89840
X61420Y92380
X58880Y84760
X58880Y77140
X58880Y87300
X58880Y79680
X58880Y89840
X58880Y82220
X58880Y92380
X56340Y77140
X53800Y77140
X56340Y89840
X56340Y79680
X53800Y79680
X56340Y92380
X56340Y82220
X53800Y82220
X53800Y89840
X56340Y84760
X53800Y84760
X53800Y92380
X56340Y87300
X53800Y87300
X51260Y77140
X48720Y77140
X46180Y77140
X43640Y77140
X51260Y79680
X48720Y79680
X46180Y79680
X43640Y79680
X51260Y82220
X48720Y82220
X46180Y82220
X43640Y82220
X51260Y84760
X48720Y84760
X46180Y84760
X43640Y84760
X51260Y87300
X48720Y87300
X46180Y87300
X43640Y87300
X51260Y89840
X48720Y89840
X46180Y89840
X43640Y89840
X51260Y92380
X48720Y92380
X46180Y92380
X43640Y92380
X41100Y77140
X38560Y77140
X41100Y89840
X41100Y79680
X38560Y79680
X41100Y92380
X41100Y82220
X38560Y82220
X38560Y89840
X41100Y84760
X38560Y84760
X38560Y92380
X41100Y87300
X38560Y87300
X53800Y98095
X46180Y98095
X48720Y98095
X51260Y98095
X43640Y61900
X43640Y64440
X43640Y66980
X46180Y61900
X46180Y64440
X46180Y66980
X48720Y61900
X48720Y66980
X48720Y64440
X51260Y61900
X51260Y66980
X51260Y64440
X53800Y64440
X53800Y61900
X53800Y66980
X56340Y64440
X56340Y61900
X56340Y66980
X61420Y74600
X61420Y72060
X61420Y69520
X43640Y69520
X58880Y74600
X58880Y72060
X58880Y69520
X41100Y69520
X56340Y74600
X56340Y72060
X56340Y69520
X38560Y69520
X53800Y74600
X53800Y72060
X53800Y69520
X41100Y72060
X51260Y74600
X51260Y72060
X51260Y69520
X38560Y72060
X48720Y74600
X48720Y72060
X48720Y69520
X41100Y74600
X46180Y74600
X46180Y72060
X46180Y69520
X38560Y74600
X43640Y74600
X43640Y72060
X63960Y77140
X63960Y74600
X20480Y27940
X20480Y25400
X25560Y25400
X17940Y30480
X63970Y30480
X63970Y27940
X63970Y25400
X63970Y22860
X63970Y20320
X63970Y17780
X63970Y15240
X63970Y12700
X63970Y10160
X63970Y7620
X36030Y30480
X36030Y27940
X36030Y25400
X36030Y22860
X36030Y20320
X36030Y17780
X36030Y15240
X36030Y12700
X36030Y10160
X36030Y7620
X63960Y72060
X63960Y69520
X36020Y92380
X36020Y89840
X36020Y87300
X36020Y84760
X17940Y27940
X17940Y25400
X28100Y27940
X15400Y30480
X38570Y22860
X38570Y20320
X38570Y17780
X38570Y15240
X38570Y12700
X38570Y10160
X38570Y7620
X41110Y15240
X41110Y22860
X41110Y12700
X41110Y20320
X41110Y10160
X41110Y17780
X41110Y7620
X43650Y22860
X46190Y22860
X43650Y10160
X43650Y20320
X46190Y20320
X43650Y7620
X43650Y17780
X46190Y17780
X46190Y10160
X43650Y15240
X46190Y15240
X46190Y7620
X43650Y12700
X46190Y12700
X48730Y22860
X51270Y22860
X53810Y22860
X56350Y22860
X48730Y20320
X51270Y20320
X53810Y20320
X56350Y20320
X48730Y17780
X51270Y17780
X53810Y17780
X56350Y17780
X48730Y15240
X51270Y15240
X53810Y15240
X56350Y15240
X48730Y12700
X51270Y12700
X53810Y12700
X56350Y12700
X48730Y10160
X51270Y10160
X53810Y10160
X56350Y10160
X48730Y7620
X51270Y7620
X53810Y7620
X56350Y7620
X58890Y22860
X61430Y22860
X58890Y10160
X58890Y20320
X61430Y20320
X58890Y7620
X58890Y17780
X61430Y17780
X61430Y10160
X58890Y15240
X61430Y15240
X61430Y7620
X58890Y12700
X61430Y12700
X46190Y1905
X53810Y1905
X51270Y1905
X48730Y1905
X56350Y38100
X56350Y35560
X56350Y33020
X53810Y38100
X53810Y35560
X53810Y33020
X51270Y38100
X51270Y33020
X51270Y35560
X48730Y38100
X48730Y33020
X48730Y35560
X46190Y35560
X46190Y38100
X46190Y33020
X43650Y35560
X43650Y38100
X43650Y33020
X38570Y25400
X38570Y27940
X38570Y30480
X56350Y30480
X41110Y25400
X41110Y27940
X41110Y30480
X58890Y30480
X43650Y25400
X43650Y27940
X43650Y30480
X61430Y30480
X46190Y25400
X46190Y27940
X46190Y30480
X58890Y27940
X48730Y25400
X48730Y27940
X48730Y30480
X61430Y27940
X51270Y25400
X51270Y27940
X51270Y30480
X58890Y25400
X53810Y25400
X53810Y27940
X53810Y30480
X61430Y25400
X56350Y25400
X56350Y27940
X36020Y82220
X36020Y79680
X15400Y27940
X15400Y25400
X25560Y27940
X12860Y30480
X97300Y30480
X97300Y27940
X97300Y25400
X97300Y22860
X97300Y20320
X97300Y17780
X97300Y15240
X97300Y12700
X97300Y10160
X97300Y7620
X69360Y30480
X69360Y27940
X69360Y25400
X69360Y22860
X69360Y20320
X69360Y17780
X69360Y15240
X69360Y12700
X69360Y10160
X69360Y7620
X36020Y77140
X36020Y74600
X36020Y72060
X36020Y69520
X12860Y27940
X12860Y25400
X28100Y30480
X10320Y30480
X10320Y27940
X10320Y25400
X71900Y22860
X71900Y20320
X71900Y17780
X71900Y15240
X71900Y12700
X71900Y10160
X71900Y7620
X74440Y15240
X74440Y22860
X74440Y12700
X74440Y20320
X74440Y10160
X74440Y17780
X74440Y7620
X76980Y22860
X79520Y22860
X76980Y10160
X76980Y20320
X79520Y20320
X76980Y7620
X76980Y17780
X79520Y17780
X79520Y10160
X76980Y15240
X79520Y15240
X79520Y7620
X76980Y12700
X79520Y12700
X82060Y22860
X84600Y22860
X87140Y22860
X89680Y22860
X82060Y20320
X84600Y20320
X87140Y20320
X89680Y20320
X82060Y17780
X84600Y17780
X87140Y17780
X89680Y17780
X82060Y15240
X84600Y15240
X87140Y15240
X89680Y15240
X82060Y12700
X84600Y12700
X87140Y12700
X89680Y12700
X82060Y10160
X84600Y10160
X87140Y10160
X89680Y10160
X82060Y7620
X84600Y7620
X87140Y7620
X89680Y7620
X92220Y22860
X94760Y22860
X92220Y10160
X92220Y20320
X94760Y20320
X92220Y7620
X92220Y17780
X94760Y17780
X94760Y10160
X92220Y15240
X94760Y15240
X94760Y7620
X92220Y12700
X94760Y12700
X79520Y1905
X87140Y1905
X84600Y1905
X82060Y1905
X89680Y38100
X89680Y35560
X89680Y33020
X87140Y38100
X87140Y35560
X87140Y33020
X84600Y38100
X84600Y33020
X84600Y35560
X82060Y38100
X82060Y33020
X82060Y35560
X79520Y35560
X79520Y38100
X79520Y33020
X76980Y35560
X76980Y38100
X76980Y33020
X71900Y25400
X71900Y27940
X71900Y30480
X89680Y30480
X74440Y25400
X74440Y27940
X74440Y30480
X92220Y30480
X76980Y25400
X76980Y27940
X76980Y30480
X94760Y30480
X79520Y25400
X79520Y27940
X79520Y30480
X92220Y27940
X82060Y25400
X82060Y27940
X82060Y30480
X94760Y27940
X84600Y25400
X84600Y27940
X84600Y30480
X92220Y25400
X87140Y25400
X87140Y27940
X87140Y30480
X94760Y25400
X89680Y25400
X89680Y27940
X25560Y30480
X7780Y30480
X7780Y27940
X7780Y25400
X23020Y30480
X5240Y30480
X2690Y69520
X2690Y72060
X2690Y74600
X2690Y77140
X2690Y79680
X2690Y82220
X2690Y84760
X2690Y87300
X2690Y89840
X2690Y92380
X30630Y69520
X30630Y72060
X30630Y74600
X30630Y77140
X30630Y79680
X30630Y82220
X30630Y84760
X30630Y87300
X30630Y89840
X30630Y92380
X5240Y27940
X5240Y25400
X10320Y33020
X10320Y38100
X10320Y35560
X12860Y33020
X12860Y38100
X12860Y35560
X15400Y35560
X15400Y33020
X28090Y77140
X28090Y79680
X28090Y82220
X28090Y84760
X28090Y87300
X28090Y89840
X28090Y92380
X25550Y84760
X25550Y77140
X25550Y87300
X25550Y79680
X25550Y89840
X25550Y82220
X25550Y92380
X23010Y77140
X20470Y77140
X23010Y89840
X23010Y79680
X20470Y79680
X23010Y92380
X23010Y82220
X20470Y82220
X20470Y89840
X23010Y84760
X20470Y84760
X20470Y92380
X23010Y87300
X20470Y87300
X17930Y77140
X15390Y77140
X12850Y77140
X10310Y77140
X17930Y79680
X15390Y79680
X12850Y79680
X10310Y79680
X17930Y82220
X15390Y82220
X12850Y82220
X10310Y82220
X17930Y84760
X15390Y84760
X12850Y84760
X10310Y84760
X17930Y87300
X15390Y87300
X12850Y87300
X10310Y87300
X17930Y89840
X15390Y89840
X12850Y89840
X10310Y89840
X17930Y92380
X15390Y92380
X12850Y92380
X10310Y92380
X7770Y77140
X5230Y77140
X7770Y89840
X7770Y79680
X5230Y79680
X7770Y92380
X7770Y82220
X5230Y82220
X5230Y89840
X7770Y84760
X5230Y84760
X5230Y92380
X7770Y87300
X5230Y87300
X20470Y98095
X12850Y98095
X15390Y98095
X17930Y98095
X10310Y61900
X10310Y64440
X10310Y66980
X12850Y61900
X12850Y64440
X12850Y66980
X15390Y61900
X15390Y66980
X15390Y64440
X17930Y61900
X17930Y66980
X17930Y64440
X20470Y64440
X20470Y61900
X20470Y66980
X23010Y64440
X23010Y61900
X23010Y66980
X28090Y74600
X28090Y72060
X28090Y69520
X10310Y69520
X25550Y74600
X25550Y72060
X25550Y69520
X7770Y69520
X23010Y74600
X23010Y72060
X23010Y69520
X5230Y69520
X20470Y74600
X20470Y72060
X20470Y69520
X7770Y72060
X17930Y74600
X17930Y72060
X17930Y69520
X5230Y72060
X15390Y74600
X15390Y72060
X15390Y69520
X7770Y74600
X12850Y74600
X12850Y72060
X12850Y69520
X5230Y74600
X10310Y74600
X10310Y72060
X15400Y38100
X17940Y35560
X17940Y33020
X17940Y38100
X20480Y33020
X20480Y35560
X69350Y69520
X69350Y72060
X69350Y74600
X69350Y77140
X69350Y79680
X69350Y82220
X69350Y84760
X69350Y87300
X69350Y89840
X69350Y92380
X97290Y69520
X97290Y72060
X97290Y74600
X97290Y77140
X97290Y79680
X97290Y82220
X97290Y84760
X97290Y87300
X97290Y89840
X97290Y92380
X20480Y38100
X23020Y33020
X23020Y35560
X23020Y38100
X15400Y1905
X17940Y1905
X20480Y1905
X12860Y1905
X28100Y12700
X25560Y12700
X94750Y77140
X94750Y79680
X94750Y82220
X94750Y84760
X94750Y87300
X94750Y89840
X94750Y92380
X92210Y84760
X92210Y77140
X92210Y87300
X92210Y79680
X92210Y89840
X92210Y82220
X92210Y92380
X89670Y77140
X87130Y77140
X89670Y89840
X89670Y79680
X87130Y79680
X89670Y92380
X89670Y82220
X87130Y82220
X87130Y89840
X89670Y84760
X87130Y84760
X87130Y92380
X89670Y87300
X87130Y87300
X84590Y77140
X82050Y77140
X79510Y77140
X76970Y77140
X84590Y79680
X82050Y79680
X79510Y79680
X76970Y79680
X84590Y82220
X82050Y82220
X79510Y82220
X76970Y82220
X84590Y84760
X82050Y84760
X79510Y84760
X76970Y84760
X84590Y87300
X82050Y87300
X79510Y87300
X76970Y87300
X84590Y89840
X82050Y89840
X79510Y89840
X76970Y89840
X84590Y92380
X82050Y92380
X79510Y92380
X76970Y92380
X74430Y77140
X71890Y77140
X74430Y89840
X74430Y79680
X71890Y79680
X74430Y92380
X74430Y82220
X71890Y82220
X71890Y89840
X74430Y84760
X71890Y84760
X71890Y92380
X74430Y87300
X71890Y87300
X87130Y98095
X79510Y98095
X82050Y98095
X84590Y98095
X76970Y61900
X76970Y64440
X76970Y66980
X79510Y61900
X79510Y64440
X79510Y66980
X82050Y61900
X82050Y66980
X82050Y64440
X84590Y61900
X84590Y66980
X84590Y64440
X87130Y64440
X87130Y61900
X87130Y66980
X89670Y64440
X89670Y61900
X89670Y66980
X94750Y74600
X94750Y72060
X94750Y69520
X76970Y69520
X92210Y74600
X92210Y72060
X92210Y69520
X74430Y69520
X89670Y74600
X89670Y72060
X89670Y69520
X71890Y69520
X87130Y74600
X87130Y72060
X87130Y69520
X74430Y72060
X84590Y74600
X84590Y72060
X84590Y69520
X71890Y72060
X82050Y74600
X82050Y72060
X82050Y69520
X74430Y74600
X79510Y74600
X79510Y72060
X79510Y69520
X71890Y74600
X76970Y74600
X76970Y72060
X28100Y7620
X28100Y15240
X25560Y15240
X28100Y10160
X28100Y17780
X25560Y17780
X30640Y30480
X30640Y27940
X30640Y25400
X30640Y22860
X30640Y20320
X30640Y17780
X30640Y15240
X30640Y12700
X30640Y10160
X30640Y7620
X2700Y30480
X2700Y27940
X2700Y25400
X2700Y22860
X2700Y20320
X2700Y17780
X2700Y15240
X2700Y12700
X2700Y10160
X2700Y7620
X25560Y7620
X28100Y20320
X25560Y20320
X25560Y10160
X28100Y22860
X25560Y22860
X23020Y7620
X20480Y7620
X17940Y7620
X15400Y7620
X5240Y22860
X5240Y20320
X5240Y17780
X5240Y15240
X5240Y12700
X5240Y10160
X5240Y7620
X7780Y15240
X7780Y22860
X7780Y12700
X7780Y20320
X7780Y10160
X7780Y17780
X7780Y7620
X10320Y22860
X12860Y22860
X10320Y10160
X10320Y20320
X12860Y20320
X10320Y7620
X10320Y17780
X12860Y17780
X12860Y10160
X10320Y15240
X12860Y15240
X12860Y7620
X10320Y12700
X12860Y12700
X15400Y22860
X17940Y22860
X20480Y22860
X23020Y22860
X15400Y20320
X17940Y20320
X20480Y20320
X23020Y20320
X15400Y17780
X17940Y17780
X20480Y17780
X23020Y17780
X15400Y15240
X17940Y15240
X20480Y15240
X23020Y15240
X15400Y12700
X17940Y12700
X20480Y12700
X23020Y12700
X15400Y10160
X17940Y10160
X20480Y10160
X23020Y10160
T4
X74123Y40640
X59197Y59360
X25867Y59360
X25867Y66980
X7452Y59360
X7452Y66980
X40783Y59360
X40783Y66980
X40793Y40640
X40793Y33020
X25877Y33020
X25877Y40640
X7462Y33020
X7462Y40640
X59207Y40640
X59207Y33020
X92537Y33020
X92537Y40640
X92527Y59360
X92527Y66980
X74113Y59360
X74113Y66980
X74123Y33020
X59197Y66980
T5
X62700Y34925
X62700Y37465
X37300Y34925
X37300Y37465
X96020Y62535
X96020Y65075
X70620Y62535
X70620Y65075
X3960Y65075
X3960Y62535
X29360Y65075
X29360Y62535
X37290Y65075
X37290Y62535
X70630Y37465
X70630Y34925
X96030Y37465
X96030Y34925
X62690Y65075
X62690Y62535
X3970Y37465
X3970Y34925
X29370Y37465
X29370Y34925
T6
X3335Y42799
X19718Y42545
X14765Y42926
X14638Y40513
X96655Y57201
X80272Y57455
X85225Y57074
X85352Y59487
X29995Y57201
X13612Y57455
X18565Y57074
X18692Y59487
X69995Y42799
X86378Y42545
X81425Y42926
X81298Y40513
X36665Y42799
X53048Y42545
X48095Y42926
X47968Y40513
X63325Y57201
X46942Y57455
X51895Y57074
X52022Y59487
M30