G04 EAGLE Gerber RS-274X export*
G75*
%MOMM*%
%FSLAX34Y34*%
%LPD*%
%AMOC8*
5,1,8,0,0,1.08239X$1,22.5*%
G01*
%ADD10C,1.981200*%
%ADD11R,2.032000X2.032000*%
%ADD12R,1.751600X1.751600*%
%ADD13C,1.751600*%
%ADD14P,1.924489X8X112.500000*%
%ADD15C,1.609600*%
%ADD16P,1.924489X8X292.500000*%


D10*
X591975Y593600D03*
X591975Y669800D03*
X407825Y593600D03*
X407825Y669800D03*
D11*
X360200Y695200D03*
X360200Y720600D03*
X360200Y746000D03*
X360200Y771400D03*
X360200Y796800D03*
X360200Y822200D03*
X360200Y847600D03*
X360200Y873000D03*
X360200Y898400D03*
X360200Y923800D03*
X639600Y695200D03*
X639600Y720600D03*
X639600Y746000D03*
X639600Y771400D03*
X639600Y796800D03*
X639600Y822200D03*
X639600Y847600D03*
X639600Y873000D03*
X639600Y898400D03*
X639600Y923800D03*
D12*
X436400Y530100D03*
D13*
X461800Y530100D03*
X487200Y530100D03*
X436400Y555500D03*
X461800Y555500D03*
X487200Y555500D03*
D14*
X626900Y625350D03*
X626900Y650750D03*
X372900Y625350D03*
X372900Y650750D03*
D15*
X614200Y771400D03*
X614200Y796800D03*
X614200Y822200D03*
X614200Y847600D03*
X614200Y873000D03*
X614200Y898400D03*
X614200Y923800D03*
X588800Y847600D03*
X588800Y771400D03*
X588800Y873000D03*
X588800Y796800D03*
X588800Y898400D03*
X588800Y822200D03*
X588800Y923800D03*
X563400Y771400D03*
X538000Y771400D03*
X563400Y898400D03*
X563400Y796800D03*
X538000Y796800D03*
X563400Y923800D03*
X563400Y822200D03*
X538000Y822200D03*
X538000Y898400D03*
X563400Y847600D03*
X538000Y847600D03*
X538000Y923800D03*
X563400Y873000D03*
X538000Y873000D03*
X512600Y771400D03*
X487200Y771400D03*
X461800Y771400D03*
X436400Y771400D03*
X512600Y796800D03*
X487200Y796800D03*
X461800Y796800D03*
X436400Y796800D03*
X512600Y822200D03*
X487200Y822200D03*
X461800Y822200D03*
X436400Y822200D03*
X512600Y847600D03*
X487200Y847600D03*
X461800Y847600D03*
X436400Y847600D03*
X512600Y873000D03*
X487200Y873000D03*
X461800Y873000D03*
X436400Y873000D03*
X512600Y898400D03*
X487200Y898400D03*
X461800Y898400D03*
X436400Y898400D03*
X512600Y923800D03*
X487200Y923800D03*
X461800Y923800D03*
X436400Y923800D03*
X411000Y771400D03*
X385600Y771400D03*
X411000Y898400D03*
X411000Y796800D03*
X385600Y796800D03*
X411000Y923800D03*
X411000Y822200D03*
X385600Y822200D03*
X385600Y898400D03*
X411000Y847600D03*
X385600Y847600D03*
X385600Y923800D03*
X411000Y873000D03*
X385600Y873000D03*
X538000Y980950D03*
X461800Y980950D03*
X487200Y980950D03*
X512600Y980950D03*
X436400Y619000D03*
X436400Y644400D03*
X436400Y669800D03*
X461800Y619000D03*
X461800Y644400D03*
X461800Y669800D03*
X487200Y619000D03*
X487200Y669800D03*
X487200Y644400D03*
X512600Y619000D03*
X512600Y669800D03*
X512600Y644400D03*
X538000Y644400D03*
X538000Y619000D03*
X538000Y669800D03*
X563400Y644400D03*
X563400Y619000D03*
X563400Y669800D03*
X614200Y746000D03*
X614200Y720600D03*
X614200Y695200D03*
X436400Y695200D03*
X588800Y746000D03*
X588800Y720600D03*
X588800Y695200D03*
X411000Y695200D03*
X563400Y746000D03*
X563400Y720600D03*
X563400Y695200D03*
X385600Y695200D03*
X538000Y746000D03*
X538000Y720600D03*
X538000Y695200D03*
X411000Y720600D03*
X512600Y746000D03*
X512600Y720600D03*
X512600Y695200D03*
X385600Y720600D03*
X487200Y746000D03*
X487200Y720600D03*
X487200Y695200D03*
X411000Y746000D03*
X461800Y746000D03*
X461800Y720600D03*
X461800Y695200D03*
X385600Y746000D03*
X436400Y746000D03*
X436400Y720600D03*
D10*
X525300Y555500D03*
X525300Y530100D03*
X407925Y406400D03*
X407925Y330200D03*
X592075Y406400D03*
X592075Y330200D03*
D11*
X639700Y304800D03*
X639700Y279400D03*
X639700Y254000D03*
X639700Y228600D03*
X639700Y203200D03*
X639700Y177800D03*
X639700Y152400D03*
X639700Y127000D03*
X639700Y101600D03*
X639700Y76200D03*
X360300Y304800D03*
X360300Y279400D03*
X360300Y254000D03*
X360300Y228600D03*
X360300Y203200D03*
X360300Y177800D03*
X360300Y152400D03*
X360300Y127000D03*
X360300Y101600D03*
X360300Y76200D03*
D12*
X563500Y469900D03*
D13*
X538100Y469900D03*
X512700Y469900D03*
X563500Y444500D03*
X538100Y444500D03*
X512700Y444500D03*
D16*
X373000Y374650D03*
X373000Y349250D03*
X627000Y374650D03*
X627000Y349250D03*
D15*
X385700Y228600D03*
X385700Y203200D03*
X385700Y177800D03*
X385700Y152400D03*
X385700Y127000D03*
X385700Y101600D03*
X385700Y76200D03*
X411100Y152400D03*
X411100Y228600D03*
X411100Y127000D03*
X411100Y203200D03*
X411100Y101600D03*
X411100Y177800D03*
X411100Y76200D03*
X436500Y228600D03*
X461900Y228600D03*
X436500Y101600D03*
X436500Y203200D03*
X461900Y203200D03*
X436500Y76200D03*
X436500Y177800D03*
X461900Y177800D03*
X461900Y101600D03*
X436500Y152400D03*
X461900Y152400D03*
X461900Y76200D03*
X436500Y127000D03*
X461900Y127000D03*
X487300Y228600D03*
X512700Y228600D03*
X538100Y228600D03*
X563500Y228600D03*
X487300Y203200D03*
X512700Y203200D03*
X538100Y203200D03*
X563500Y203200D03*
X487300Y177800D03*
X512700Y177800D03*
X538100Y177800D03*
X563500Y177800D03*
X487300Y152400D03*
X512700Y152400D03*
X538100Y152400D03*
X563500Y152400D03*
X487300Y127000D03*
X512700Y127000D03*
X538100Y127000D03*
X563500Y127000D03*
X487300Y101600D03*
X512700Y101600D03*
X538100Y101600D03*
X563500Y101600D03*
X487300Y76200D03*
X512700Y76200D03*
X538100Y76200D03*
X563500Y76200D03*
X588900Y228600D03*
X614300Y228600D03*
X588900Y101600D03*
X588900Y203200D03*
X614300Y203200D03*
X588900Y76200D03*
X588900Y177800D03*
X614300Y177800D03*
X614300Y101600D03*
X588900Y152400D03*
X614300Y152400D03*
X614300Y76200D03*
X588900Y127000D03*
X614300Y127000D03*
X461900Y19050D03*
X538100Y19050D03*
X512700Y19050D03*
X487300Y19050D03*
X563500Y381000D03*
X563500Y355600D03*
X563500Y330200D03*
X538100Y381000D03*
X538100Y355600D03*
X538100Y330200D03*
X512700Y381000D03*
X512700Y330200D03*
X512700Y355600D03*
X487300Y381000D03*
X487300Y330200D03*
X487300Y355600D03*
X461900Y355600D03*
X461900Y381000D03*
X461900Y330200D03*
X436500Y355600D03*
X436500Y381000D03*
X436500Y330200D03*
X385700Y254000D03*
X385700Y279400D03*
X385700Y304800D03*
X563500Y304800D03*
X411100Y254000D03*
X411100Y279400D03*
X411100Y304800D03*
X588900Y304800D03*
X436500Y254000D03*
X436500Y279400D03*
X436500Y304800D03*
X614300Y304800D03*
X461900Y254000D03*
X461900Y279400D03*
X461900Y304800D03*
X588900Y279400D03*
X487300Y254000D03*
X487300Y279400D03*
X487300Y304800D03*
X614300Y279400D03*
X512700Y254000D03*
X512700Y279400D03*
X512700Y304800D03*
X588900Y254000D03*
X538100Y254000D03*
X538100Y279400D03*
X538100Y304800D03*
X614300Y254000D03*
X563500Y254000D03*
X563500Y279400D03*
D10*
X474600Y444500D03*
X474600Y469900D03*
X741225Y406400D03*
X741225Y330200D03*
X925375Y406400D03*
X925375Y330200D03*
D11*
X973000Y304800D03*
X973000Y279400D03*
X973000Y254000D03*
X973000Y228600D03*
X973000Y203200D03*
X973000Y177800D03*
X973000Y152400D03*
X973000Y127000D03*
X973000Y101600D03*
X973000Y76200D03*
X693600Y304800D03*
X693600Y279400D03*
X693600Y254000D03*
X693600Y228600D03*
X693600Y203200D03*
X693600Y177800D03*
X693600Y152400D03*
X693600Y127000D03*
X693600Y101600D03*
X693600Y76200D03*
D12*
X896800Y469900D03*
D13*
X871400Y469900D03*
X846000Y469900D03*
X896800Y444500D03*
X871400Y444500D03*
X846000Y444500D03*
D16*
X706300Y374650D03*
X706300Y349250D03*
X960300Y374650D03*
X960300Y349250D03*
D15*
X719000Y228600D03*
X719000Y203200D03*
X719000Y177800D03*
X719000Y152400D03*
X719000Y127000D03*
X719000Y101600D03*
X719000Y76200D03*
X744400Y152400D03*
X744400Y228600D03*
X744400Y127000D03*
X744400Y203200D03*
X744400Y101600D03*
X744400Y177800D03*
X744400Y76200D03*
X769800Y228600D03*
X795200Y228600D03*
X769800Y101600D03*
X769800Y203200D03*
X795200Y203200D03*
X769800Y76200D03*
X769800Y177800D03*
X795200Y177800D03*
X795200Y101600D03*
X769800Y152400D03*
X795200Y152400D03*
X795200Y76200D03*
X769800Y127000D03*
X795200Y127000D03*
X820600Y228600D03*
X846000Y228600D03*
X871400Y228600D03*
X896800Y228600D03*
X820600Y203200D03*
X846000Y203200D03*
X871400Y203200D03*
X896800Y203200D03*
X820600Y177800D03*
X846000Y177800D03*
X871400Y177800D03*
X896800Y177800D03*
X820600Y152400D03*
X846000Y152400D03*
X871400Y152400D03*
X896800Y152400D03*
X820600Y127000D03*
X846000Y127000D03*
X871400Y127000D03*
X896800Y127000D03*
X820600Y101600D03*
X846000Y101600D03*
X871400Y101600D03*
X896800Y101600D03*
X820600Y76200D03*
X846000Y76200D03*
X871400Y76200D03*
X896800Y76200D03*
X922200Y228600D03*
X947600Y228600D03*
X922200Y101600D03*
X922200Y203200D03*
X947600Y203200D03*
X922200Y76200D03*
X922200Y177800D03*
X947600Y177800D03*
X947600Y101600D03*
X922200Y152400D03*
X947600Y152400D03*
X947600Y76200D03*
X922200Y127000D03*
X947600Y127000D03*
X795200Y19050D03*
X871400Y19050D03*
X846000Y19050D03*
X820600Y19050D03*
X896800Y381000D03*
X896800Y355600D03*
X896800Y330200D03*
X871400Y381000D03*
X871400Y355600D03*
X871400Y330200D03*
X846000Y381000D03*
X846000Y330200D03*
X846000Y355600D03*
X820600Y381000D03*
X820600Y330200D03*
X820600Y355600D03*
X795200Y355600D03*
X795200Y381000D03*
X795200Y330200D03*
X769800Y355600D03*
X769800Y381000D03*
X769800Y330200D03*
X719000Y254000D03*
X719000Y279400D03*
X719000Y304800D03*
X896800Y304800D03*
X744400Y254000D03*
X744400Y279400D03*
X744400Y304800D03*
X922200Y304800D03*
X769800Y254000D03*
X769800Y279400D03*
X769800Y304800D03*
X947600Y304800D03*
X795200Y254000D03*
X795200Y279400D03*
X795200Y304800D03*
X922200Y279400D03*
X820600Y254000D03*
X820600Y279400D03*
X820600Y304800D03*
X947600Y279400D03*
X846000Y254000D03*
X846000Y279400D03*
X846000Y304800D03*
X922200Y254000D03*
X871400Y254000D03*
X871400Y279400D03*
X871400Y304800D03*
X947600Y254000D03*
X896800Y254000D03*
X896800Y279400D03*
D10*
X807900Y444500D03*
X807900Y469900D03*
X258675Y593600D03*
X258675Y669800D03*
X74525Y593600D03*
X74525Y669800D03*
D11*
X26900Y695200D03*
X26900Y720600D03*
X26900Y746000D03*
X26900Y771400D03*
X26900Y796800D03*
X26900Y822200D03*
X26900Y847600D03*
X26900Y873000D03*
X26900Y898400D03*
X26900Y923800D03*
X306300Y695200D03*
X306300Y720600D03*
X306300Y746000D03*
X306300Y771400D03*
X306300Y796800D03*
X306300Y822200D03*
X306300Y847600D03*
X306300Y873000D03*
X306300Y898400D03*
X306300Y923800D03*
D12*
X103100Y530100D03*
D13*
X128500Y530100D03*
X153900Y530100D03*
X103100Y555500D03*
X128500Y555500D03*
X153900Y555500D03*
D14*
X293600Y625350D03*
X293600Y650750D03*
X39600Y625350D03*
X39600Y650750D03*
D15*
X280900Y771400D03*
X280900Y796800D03*
X280900Y822200D03*
X280900Y847600D03*
X280900Y873000D03*
X280900Y898400D03*
X280900Y923800D03*
X255500Y847600D03*
X255500Y771400D03*
X255500Y873000D03*
X255500Y796800D03*
X255500Y898400D03*
X255500Y822200D03*
X255500Y923800D03*
X230100Y771400D03*
X204700Y771400D03*
X230100Y898400D03*
X230100Y796800D03*
X204700Y796800D03*
X230100Y923800D03*
X230100Y822200D03*
X204700Y822200D03*
X204700Y898400D03*
X230100Y847600D03*
X204700Y847600D03*
X204700Y923800D03*
X230100Y873000D03*
X204700Y873000D03*
X179300Y771400D03*
X153900Y771400D03*
X128500Y771400D03*
X103100Y771400D03*
X179300Y796800D03*
X153900Y796800D03*
X128500Y796800D03*
X103100Y796800D03*
X179300Y822200D03*
X153900Y822200D03*
X128500Y822200D03*
X103100Y822200D03*
X179300Y847600D03*
X153900Y847600D03*
X128500Y847600D03*
X103100Y847600D03*
X179300Y873000D03*
X153900Y873000D03*
X128500Y873000D03*
X103100Y873000D03*
X179300Y898400D03*
X153900Y898400D03*
X128500Y898400D03*
X103100Y898400D03*
X179300Y923800D03*
X153900Y923800D03*
X128500Y923800D03*
X103100Y923800D03*
X77700Y771400D03*
X52300Y771400D03*
X77700Y898400D03*
X77700Y796800D03*
X52300Y796800D03*
X77700Y923800D03*
X77700Y822200D03*
X52300Y822200D03*
X52300Y898400D03*
X77700Y847600D03*
X52300Y847600D03*
X52300Y923800D03*
X77700Y873000D03*
X52300Y873000D03*
X204700Y980950D03*
X128500Y980950D03*
X153900Y980950D03*
X179300Y980950D03*
X103100Y619000D03*
X103100Y644400D03*
X103100Y669800D03*
X128500Y619000D03*
X128500Y644400D03*
X128500Y669800D03*
X153900Y619000D03*
X153900Y669800D03*
X153900Y644400D03*
X179300Y619000D03*
X179300Y669800D03*
X179300Y644400D03*
X204700Y644400D03*
X204700Y619000D03*
X204700Y669800D03*
X230100Y644400D03*
X230100Y619000D03*
X230100Y669800D03*
X280900Y746000D03*
X280900Y720600D03*
X280900Y695200D03*
X103100Y695200D03*
X255500Y746000D03*
X255500Y720600D03*
X255500Y695200D03*
X77700Y695200D03*
X230100Y746000D03*
X230100Y720600D03*
X230100Y695200D03*
X52300Y695200D03*
X204700Y746000D03*
X204700Y720600D03*
X204700Y695200D03*
X77700Y720600D03*
X179300Y746000D03*
X179300Y720600D03*
X179300Y695200D03*
X52300Y720600D03*
X153900Y746000D03*
X153900Y720600D03*
X153900Y695200D03*
X77700Y746000D03*
X128500Y746000D03*
X128500Y720600D03*
X128500Y695200D03*
X52300Y746000D03*
X103100Y746000D03*
X103100Y720600D03*
D10*
X192000Y555500D03*
X192000Y530100D03*
X925275Y593600D03*
X925275Y669800D03*
X741125Y593600D03*
X741125Y669800D03*
D11*
X693500Y695200D03*
X693500Y720600D03*
X693500Y746000D03*
X693500Y771400D03*
X693500Y796800D03*
X693500Y822200D03*
X693500Y847600D03*
X693500Y873000D03*
X693500Y898400D03*
X693500Y923800D03*
X972900Y695200D03*
X972900Y720600D03*
X972900Y746000D03*
X972900Y771400D03*
X972900Y796800D03*
X972900Y822200D03*
X972900Y847600D03*
X972900Y873000D03*
X972900Y898400D03*
X972900Y923800D03*
D12*
X769700Y530100D03*
D13*
X795100Y530100D03*
X820500Y530100D03*
X769700Y555500D03*
X795100Y555500D03*
X820500Y555500D03*
D14*
X960200Y625350D03*
X960200Y650750D03*
X706200Y625350D03*
X706200Y650750D03*
D15*
X947500Y771400D03*
X947500Y796800D03*
X947500Y822200D03*
X947500Y847600D03*
X947500Y873000D03*
X947500Y898400D03*
X947500Y923800D03*
X922100Y847600D03*
X922100Y771400D03*
X922100Y873000D03*
X922100Y796800D03*
X922100Y898400D03*
X922100Y822200D03*
X922100Y923800D03*
X896700Y771400D03*
X871300Y771400D03*
X896700Y898400D03*
X896700Y796800D03*
X871300Y796800D03*
X896700Y923800D03*
X896700Y822200D03*
X871300Y822200D03*
X871300Y898400D03*
X896700Y847600D03*
X871300Y847600D03*
X871300Y923800D03*
X896700Y873000D03*
X871300Y873000D03*
X845900Y771400D03*
X820500Y771400D03*
X795100Y771400D03*
X769700Y771400D03*
X845900Y796800D03*
X820500Y796800D03*
X795100Y796800D03*
X769700Y796800D03*
X845900Y822200D03*
X820500Y822200D03*
X795100Y822200D03*
X769700Y822200D03*
X845900Y847600D03*
X820500Y847600D03*
X795100Y847600D03*
X769700Y847600D03*
X845900Y873000D03*
X820500Y873000D03*
X795100Y873000D03*
X769700Y873000D03*
X845900Y898400D03*
X820500Y898400D03*
X795100Y898400D03*
X769700Y898400D03*
X845900Y923800D03*
X820500Y923800D03*
X795100Y923800D03*
X769700Y923800D03*
X744300Y771400D03*
X718900Y771400D03*
X744300Y898400D03*
X744300Y796800D03*
X718900Y796800D03*
X744300Y923800D03*
X744300Y822200D03*
X718900Y822200D03*
X718900Y898400D03*
X744300Y847600D03*
X718900Y847600D03*
X718900Y923800D03*
X744300Y873000D03*
X718900Y873000D03*
X871300Y980950D03*
X795100Y980950D03*
X820500Y980950D03*
X845900Y980950D03*
X769700Y619000D03*
X769700Y644400D03*
X769700Y669800D03*
X795100Y619000D03*
X795100Y644400D03*
X795100Y669800D03*
X820500Y619000D03*
X820500Y669800D03*
X820500Y644400D03*
X845900Y619000D03*
X845900Y669800D03*
X845900Y644400D03*
X871300Y644400D03*
X871300Y619000D03*
X871300Y669800D03*
X896700Y644400D03*
X896700Y619000D03*
X896700Y669800D03*
X947500Y746000D03*
X947500Y720600D03*
X947500Y695200D03*
X769700Y695200D03*
X922100Y746000D03*
X922100Y720600D03*
X922100Y695200D03*
X744300Y695200D03*
X896700Y746000D03*
X896700Y720600D03*
X896700Y695200D03*
X718900Y695200D03*
X871300Y746000D03*
X871300Y720600D03*
X871300Y695200D03*
X744300Y720600D03*
X845900Y746000D03*
X845900Y720600D03*
X845900Y695200D03*
X718900Y720600D03*
X820500Y746000D03*
X820500Y720600D03*
X820500Y695200D03*
X744300Y746000D03*
X795100Y746000D03*
X795100Y720600D03*
X795100Y695200D03*
X718900Y746000D03*
X769700Y746000D03*
X769700Y720600D03*
D10*
X858600Y555500D03*
X858600Y530100D03*
X74625Y406400D03*
X74625Y330200D03*
X258775Y406400D03*
X258775Y330200D03*
D11*
X306400Y304800D03*
X306400Y279400D03*
X306400Y254000D03*
X306400Y228600D03*
X306400Y203200D03*
X306400Y177800D03*
X306400Y152400D03*
X306400Y127000D03*
X306400Y101600D03*
X306400Y76200D03*
X27000Y304800D03*
X27000Y279400D03*
X27000Y254000D03*
X27000Y228600D03*
X27000Y203200D03*
X27000Y177800D03*
X27000Y152400D03*
X27000Y127000D03*
X27000Y101600D03*
X27000Y76200D03*
D12*
X230200Y469900D03*
D13*
X204800Y469900D03*
X179400Y469900D03*
X230200Y444500D03*
X204800Y444500D03*
X179400Y444500D03*
D16*
X39700Y374650D03*
X39700Y349250D03*
X293700Y374650D03*
X293700Y349250D03*
D15*
X52400Y228600D03*
X52400Y203200D03*
X52400Y177800D03*
X52400Y152400D03*
X52400Y127000D03*
X52400Y101600D03*
X52400Y76200D03*
X77800Y152400D03*
X77800Y228600D03*
X77800Y127000D03*
X77800Y203200D03*
X77800Y101600D03*
X77800Y177800D03*
X77800Y76200D03*
X103200Y228600D03*
X128600Y228600D03*
X103200Y101600D03*
X103200Y203200D03*
X128600Y203200D03*
X103200Y76200D03*
X103200Y177800D03*
X128600Y177800D03*
X128600Y101600D03*
X103200Y152400D03*
X128600Y152400D03*
X128600Y76200D03*
X103200Y127000D03*
X128600Y127000D03*
X154000Y228600D03*
X179400Y228600D03*
X204800Y228600D03*
X230200Y228600D03*
X154000Y203200D03*
X179400Y203200D03*
X204800Y203200D03*
X230200Y203200D03*
X154000Y177800D03*
X179400Y177800D03*
X204800Y177800D03*
X230200Y177800D03*
X154000Y152400D03*
X179400Y152400D03*
X204800Y152400D03*
X230200Y152400D03*
X154000Y127000D03*
X179400Y127000D03*
X204800Y127000D03*
X230200Y127000D03*
X154000Y101600D03*
X179400Y101600D03*
X204800Y101600D03*
X230200Y101600D03*
X154000Y76200D03*
X179400Y76200D03*
X204800Y76200D03*
X230200Y76200D03*
X255600Y228600D03*
X281000Y228600D03*
X255600Y101600D03*
X255600Y203200D03*
X281000Y203200D03*
X255600Y76200D03*
X255600Y177800D03*
X281000Y177800D03*
X281000Y101600D03*
X255600Y152400D03*
X281000Y152400D03*
X281000Y76200D03*
X255600Y127000D03*
X281000Y127000D03*
X128600Y19050D03*
X204800Y19050D03*
X179400Y19050D03*
X154000Y19050D03*
X230200Y381000D03*
X230200Y355600D03*
X230200Y330200D03*
X204800Y381000D03*
X204800Y355600D03*
X204800Y330200D03*
X179400Y381000D03*
X179400Y330200D03*
X179400Y355600D03*
X154000Y381000D03*
X154000Y330200D03*
X154000Y355600D03*
X128600Y355600D03*
X128600Y381000D03*
X128600Y330200D03*
X103200Y355600D03*
X103200Y381000D03*
X103200Y330200D03*
X52400Y254000D03*
X52400Y279400D03*
X52400Y304800D03*
X230200Y304800D03*
X77800Y254000D03*
X77800Y279400D03*
X77800Y304800D03*
X255600Y304800D03*
X103200Y254000D03*
X103200Y279400D03*
X103200Y304800D03*
X281000Y304800D03*
X128600Y254000D03*
X128600Y279400D03*
X128600Y304800D03*
X255600Y279400D03*
X154000Y254000D03*
X154000Y279400D03*
X154000Y304800D03*
X281000Y279400D03*
X179400Y254000D03*
X179400Y279400D03*
X179400Y304800D03*
X255600Y254000D03*
X204800Y254000D03*
X204800Y279400D03*
X204800Y304800D03*
X281000Y254000D03*
X230200Y254000D03*
X230200Y279400D03*
D10*
X141300Y444500D03*
X141300Y469900D03*
M02*
