  0
SECTION
  2
HEADER
  9
$ACADVER
  1
AC1009
  9
$FILLMODE
 70
1
  9
$EXTMIN
 10
26.7500
 20
-14.0335
 30
0.0000
  9
$EXTMAX
 10
69.7700
 20
101.6635
 30
0.0000
  0
ENDSEC
  0
SECTION
  2
TABLES
  0
TABLE
  2
LTYPE
 70
1
  0
LTYPE
  2
CONTINUOUS
 70
64
  3
Solid line
 72
65
 73
0
 40
0
  0
ENDTAB
  0
TABLE
  2
LAYER
 70
255
  0
LAYER
  2
1
 70
64
 62
14
  6
CONTINUOUS
  0
LAYER
  2
16
 70
64
 62
174
  6
CONTINUOUS
  0
LAYER
  2
17
 70
64
 62
94
  6
CONTINUOUS
  0
LAYER
  2
18
 70
64
 62
94
  6
CONTINUOUS
  0
LAYER
  2
19
 70
64
 62
54
  6
CONTINUOUS
  0
LAYER
  2
20
 70
64
 62
30
  6
CONTINUOUS
  0
LAYER
  2
21
 70
64
 62
250
  6
CONTINUOUS
  0
LAYER
  2
22
 70
64
 62
250
  6
CONTINUOUS
  0
LAYER
  2
23
 70
64
 62
178
  6
CONTINUOUS
  0
LAYER
  2
24
 70
64
 62
178
  6
CONTINUOUS
  0
LAYER
  2
25
 70
64
 62
250
  6
CONTINUOUS
  0
LAYER
  2
26
 70
64
 62
250
  6
CONTINUOUS
  0
LAYER
  2
27
 70
64
 62
250
  6
CONTINUOUS
  0
LAYER
  2
28
 70
64
 62
250
  6
CONTINUOUS
  0
LAYER
  2
39
 70
64
 62
14
  6
CONTINUOUS
  0
LAYER
  2
40
 70
64
 62
174
  6
CONTINUOUS
  0
LAYER
  2
41
 70
64
 62
14
  6
CONTINUOUS
  0
LAYER
  2
42
 70
64
 62
174
  6
CONTINUOUS
  0
LAYER
  2
43
 70
64
 62
94
  6
CONTINUOUS
  0
LAYER
  2
48
 70
64
 62
250
  6
CONTINUOUS
  0
LAYER
  2
49
 70
64
 62
250
  6
CONTINUOUS
  0
LAYER
  2
51
 70
64
 62
250
  6
CONTINUOUS
  0
LAYER
  2
52
 70
64
 62
250
  6
CONTINUOUS
  0
LAYER
  2
101
 70
64
 62
1
  6
CONTINUOUS
  0
LAYER
  2
102
 70
64
 62
250
  6
CONTINUOUS
  0
LAYER
  2
103
 70
64
 62
250
  6
CONTINUOUS
  0
LAYER
  2
104
 70
64
 62
32
  6
CONTINUOUS
  0
LAYER
  2
105
 70
64
 62
250
  6
CONTINUOUS
  0
LAYER
  2
106
 70
64
 62
250
  6
CONTINUOUS
  0
LAYER
  2
107
 70
64
 62
250
  6
CONTINUOUS
  0
LAYER
  2
108
 70
64
 62
3
  6
CONTINUOUS
  0
LAYER
  2
109
 70
64
 62
4
  6
CONTINUOUS
  0
LAYER
  2
110
 70
64
 62
250
  6
CONTINUOUS
  0
LAYER
  2
111
 70
64
 62
250
  6
CONTINUOUS
  0
LAYER
  2
112
 70
64
 62
250
  6
CONTINUOUS
  0
LAYER
  2
113
 70
64
 62
14
  6
CONTINUOUS
  0
LAYER
  2
114
 70
64
 62
250
  6
CONTINUOUS
  0
LAYER
  2
115
 70
64
 62
250
  6
CONTINUOUS
  0
LAYER
  2
116
 70
64
 62
5
  6
CONTINUOUS
  0
LAYER
  2
118
 70
64
 62
250
  6
CONTINUOUS
  0
LAYER
  2
121
 70
64
 62
250
  6
CONTINUOUS
  0
LAYER
  2
122
 70
64
 62
250
  6
CONTINUOUS
  0
LAYER
  2
123
 70
64
 62
250
  6
CONTINUOUS
  0
LAYER
  2
124
 70
64
 62
250
  6
CONTINUOUS
  0
LAYER
  2
125
 70
64
 62
250
  6
CONTINUOUS
  0
LAYER
  2
126
 70
64
 62
250
  6
CONTINUOUS
  0
LAYER
  2
127
 70
64
 62
250
  6
CONTINUOUS
  0
LAYER
  2
128
 70
64
 62
250
  6
CONTINUOUS
  0
LAYER
  2
129
 70
64
 62
250
  6
CONTINUOUS
  0
LAYER
  2
131
 70
64
 62
250
  6
CONTINUOUS
  0
LAYER
  2
132
 70
64
 62
250
  6
CONTINUOUS
  0
LAYER
  2
144
 70
64
 62
250
  6
CONTINUOUS
  0
LAYER
  2
150
 70
64
 62
250
  6
CONTINUOUS
  0
LAYER
  2
151
 70
64
 62
250
  6
CONTINUOUS
  0
LAYER
  2
152
 70
64
 62
250
  6
CONTINUOUS
  0
LAYER
  2
153
 70
64
 62
250
  6
CONTINUOUS
  0
LAYER
  2
154
 70
64
 62
250
  6
CONTINUOUS
  0
LAYER
  2
155
 70
64
 62
250
  6
CONTINUOUS
  0
LAYER
  2
199
 70
64
 62
250
  6
CONTINUOUS
  0
LAYER
  2
200
 70
64
 62
174
  6
CONTINUOUS
  0
LAYER
  2
201
 70
64
 62
94
  6
CONTINUOUS
  0
LAYER
  2
202
 70
64
 62
134
  6
CONTINUOUS
  0
LAYER
  2
203
 70
64
 62
14
  6
CONTINUOUS
  0
LAYER
  2
204
 70
64
 62
214
  6
CONTINUOUS
  0
LAYER
  2
205
 70
64
 62
54
  6
CONTINUOUS
  0
LAYER
  2
206
 70
64
 62
250
  6
CONTINUOUS
  0
LAYER
  2
207
 70
64
 62
254
  6
CONTINUOUS
  0
LAYER
  2
208
 70
64
 62
5
  6
CONTINUOUS
  0
LAYER
  2
209
 70
64
 62
250
  6
CONTINUOUS
  0
LAYER
  2
210
 70
64
 62
250
  6
CONTINUOUS
  0
LAYER
  2
211
 70
64
 62
250
  6
CONTINUOUS
  0
LAYER
  2
212
 70
64
 62
250
  6
CONTINUOUS
  0
LAYER
  2
213
 70
64
 62
250
  6
CONTINUOUS
  0
LAYER
  2
214
 70
64
 62
250
  6
CONTINUOUS
  0
LAYER
  2
215
 70
64
 62
250
  6
CONTINUOUS
  0
LAYER
  2
216
 70
64
 62
250
  6
CONTINUOUS
  0
LAYER
  2
225
 70
64
 62
250
  6
CONTINUOUS
  0
LAYER
  2
226
 70
64
 62
250
  6
CONTINUOUS
  0
LAYER
  2
227
 70
64
 62
250
  6
CONTINUOUS
  0
LAYER
  2
228
 70
64
 62
250
  6
CONTINUOUS
  0
LAYER
  2
229
 70
64
 62
250
  6
CONTINUOUS
  0
LAYER
  2
230
 70
64
 62
250
  6
CONTINUOUS
  0
LAYER
  2
231
 70
64
 62
250
  6
CONTINUOUS
  0
LAYER
  2
232
 70
64
 62
250
  6
CONTINUOUS
  0
LAYER
  2
233
 70
64
 62
250
  6
CONTINUOUS
  0
LAYER
  2
248
 70
64
 62
250
  6
CONTINUOUS
  0
LAYER
  2
249
 70
64
 62
250
  6
CONTINUOUS
  0
LAYER
  2
254
 70
64
 62
250
  6
CONTINUOUS
  0
LAYER
  2
255
 70
64
 62
250
  6
CONTINUOUS
  0
ENDTAB
  0
ENDSEC
  0
SECTION
  2
BLOCKS
  0
BLOCK
  8
0
  2
RECT
 70
64
 10
0.0000
 20
0.0000
 30
0.0000
  3
RECT
  0
SOLID
  8
0
 10
-0.5000
 20
-0.5000
 30
0.0000
 11
0.5000
 21
-0.5000
 31
0.0000
 12
-0.5000
 22
0.5000
 32
0.0000
 13
0.5000
 23
0.5000
 33
0.0000
  0
ENDBLK
  8
0
  0
BLOCK
  8
0
  2
PIE
 70
64
 10
0.0000
 20
0.0000
 30
0.0000
  3
PIE
  0
POLYLINE
  8
0
 66
1
 10
0.0000
 20
0.0000
 30
0.0000
 40
0.5000
 41
0.5000
 70
0
  0
VERTEX
  8
0
 10
0.0000
 20
-0.2500
 30
0.0000
 42
1.0000
  0
VERTEX
  8
0
 10
0.0000
 20
0.2500
 30
0.0000
 42
1.0000
  0
VERTEX
  8
0
 10
0.0000
 20
-0.2500
 30
0.0000
  0
SEQEND
  8
0
  0
ENDBLK
  8
0
  0
BLOCK
  8
0
  2
OCTAGONP
 70
64
 10
0.0000
 20
0.0000
 30
0.0000
  3
OCTAGONP
  0
POLYLINE
  8
0
 66
1
 10
0.0000
 20
0.0000
 30
0.0000
 40
0.5000
 41
0.5000
 70
0
  0
VERTEX
  8
0
 10
-0.2500
 20
-0.1036
 30
0.0000
  0
VERTEX
  8
0
 10
-0.2500
 20
0.1036
 30
0.0000
  0
VERTEX
  8
0
 10
-0.1036
 20
0.2500
 30
0.0000
  0
VERTEX
  8
0
 10
0.1036
 20
0.2500
 30
0.0000
  0
VERTEX
  8
0
 10
0.2500
 20
0.1036
 30
0.0000
  0
VERTEX
  8
0
 10
0.2500
 20
-0.1036
 30
0.0000
  0
VERTEX
  8
0
 10
0.1036
 20
-0.2500
 30
0.0000
  0
VERTEX
  8
0
 10
-0.1036
 20
-0.2500
 30
0.0000
  0
VERTEX
  8
0
 10
-0.2500
 20
-0.1036
 30
0.0000
  0
VERTEX
  8
0
 10
-0.2500
 20
0.1036
 30
0.0000
  0
SEQEND
  8
0
  0
ENDBLK
  8
0
  0
BLOCK
  8
0
  2
SQUAREP
 70
64
 10
0.0000
 20
0.0000
 30
0.0000
  3
SQUAREP
  0
SOLID
  8
0
 10
-0.5000
 20
-0.5000
 30
0.0000
 11
0.5000
 21
-0.5000
 31
0.0000
 12
-0.5000
 22
0.5000
 32
0.0000
 13
0.5000
 23
0.5000
 33
0.0000
  0
ENDBLK
  8
0
  0
BLOCK
  8
0
  2
ROUNDP
 70
64
 10
0.0000
 20
0.0000
 30
0.0000
  3
ROUNDP
  0
POLYLINE
  8
0
 66
1
 10
0.0000
 20
0.0000
 30
0.0000
 40
0.5000
 41
0.5000
 70
0
  0
VERTEX
  8
0
 10
0.0000
 20
-0.2500
 30
0.0000
 42
1.0000
  0
VERTEX
  8
0
 10
0.0000
 20
0.2500
 30
0.0000
 42
1.0000
  0
VERTEX
  8
0
 10
0.0000
 20
-0.2500
 30
0.0000
  0
SEQEND
  8
0
  0
ENDBLK
  8
0
  0
BLOCK
  8
0
  2
ANNULUSP
 70
64
 10
0.0000
 20
0.0000
 30
0.0000
  3
ANNULUSP
  0
POLYLINE
  8
0
 66
1
 10
0.0000
 20
0.0000
 30
0.0000
 40
0.5000
 41
0.5000
 70
0
  0
VERTEX
  8
0
 10
0.0000
 20
-0.2500
 30
0.0000
 42
1.0000
  0
VERTEX
  8
0
 10
0.0000
 20
0.2500
 30
0.0000
 42
1.0000
  0
VERTEX
  8
0
 10
0.0000
 20
-0.2500
 30
0.0000
  0
SEQEND
  8
0
  0
ENDBLK
  8
0
  0
BLOCK
  8
0
  2
THERMALP
 70
64
 10
0.0000
 20
0.0000
 30
0.0000
  3
THERMALP
  0
POLYLINE
  8
0
 66
1
 10
0.0000
 20
0.0000
 30
0.0000
 40
0.1000
 41
0.1000
 70
0
  0
VERTEX
  8
0
 10
-0.2379
 20
0.4500
 30
0.0000
  0
VERTEX
  8
0
 10
0.2379
 20
0.4500
 30
0.0000
  0
SEQEND
  8
0
  0
POLYLINE
  8
0
 66
1
 10
0.0000
 20
0.0000
 30
0.0000
 40
0.0500
 41
0.0500
 70
0
  0
VERTEX
  8
0
 10
0.2379
 20
0.4250
 30
0.0000
 42
1.0000
  0
VERTEX
  8
0
 10
0.2379
 20
0.4750
 30
0.0000
  0
SEQEND
  8
0
  0
POLYLINE
  8
0
 66
1
 10
0.0000
 20
0.0000
 30
0.0000
 40
0.0500
 41
0.0500
 70
0
  0
VERTEX
  8
0
 10
-0.2379
 20
0.4750
 30
0.0000
 42
1.0000
  0
VERTEX
  8
0
 10
-0.2379
 20
0.4250
 30
0.0000
  0
SEQEND
  8
0
  0
POLYLINE
  8
0
 66
1
 10
0.0000
 20
0.0000
 30
0.0000
 40
0.1000
 41
0.1000
 70
0
  0
VERTEX
  8
0
 10
0.4500
 20
0.2379
 30
0.0000
  0
VERTEX
  8
0
 10
0.4500
 20
-0.2379
 30
0.0000
  0
SEQEND
  8
0
  0
POLYLINE
  8
0
 66
1
 10
0.0000
 20
0.0000
 30
0.0000
 40
0.0500
 41
0.0500
 70
0
  0
VERTEX
  8
0
 10
0.4250
 20
-0.2379
 30
0.0000
 42
1.0000
  0
VERTEX
  8
0
 10
0.4750
 20
-0.2379
 30
0.0000
  0
SEQEND
  8
0
  0
POLYLINE
  8
0
 66
1
 10
0.0000
 20
0.0000
 30
0.0000
 40
0.0500
 41
0.0500
 70
0
  0
VERTEX
  8
0
 10
0.4750
 20
0.2379
 30
0.0000
 42
1.0000
  0
VERTEX
  8
0
 10
0.4250
 20
0.2379
 30
0.0000
  0
SEQEND
  8
0
  0
POLYLINE
  8
0
 66
1
 10
0.0000
 20
0.0000
 30
0.0000
 40
0.1000
 41
0.1000
 70
0
  0
VERTEX
  8
0
 10
0.2379
 20
-0.4500
 30
0.0000
  0
VERTEX
  8
0
 10
-0.2379
 20
-0.4500
 30
0.0000
  0
SEQEND
  8
0
  0
POLYLINE
  8
0
 66
1
 10
0.0000
 20
0.0000
 30
0.0000
 40
0.0500
 41
0.0500
 70
0
  0
VERTEX
  8
0
 10
-0.2379
 20
-0.4250
 30
0.0000
 42
1.0000
  0
VERTEX
  8
0
 10
-0.2379
 20
-0.4750
 30
0.0000
  0
SEQEND
  8
0
  0
POLYLINE
  8
0
 66
1
 10
0.0000
 20
0.0000
 30
0.0000
 40
0.0500
 41
0.0500
 70
0
  0
VERTEX
  8
0
 10
0.2379
 20
-0.4750
 30
0.0000
 42
1.0000
  0
VERTEX
  8
0
 10
0.2379
 20
-0.4250
 30
0.0000
  0
SEQEND
  8
0
  0
POLYLINE
  8
0
 66
1
 10
0.0000
 20
0.0000
 30
0.0000
 40
0.1000
 41
0.1000
 70
0
  0
VERTEX
  8
0
 10
-0.4500
 20
-0.2379
 30
0.0000
  0
VERTEX
  8
0
 10
-0.4500
 20
0.2379
 30
0.0000
  0
SEQEND
  8
0
  0
POLYLINE
  8
0
 66
1
 10
0.0000
 20
0.0000
 30
0.0000
 40
0.0500
 41
0.0500
 70
0
  0
VERTEX
  8
0
 10
-0.4250
 20
0.2379
 30
0.0000
 42
1.0000
  0
VERTEX
  8
0
 10
-0.4750
 20
0.2379
 30
0.0000
  0
SEQEND
  8
0
  0
POLYLINE
  8
0
 66
1
 10
0.0000
 20
0.0000
 30
0.0000
 40
0.0500
 41
0.0500
 70
0
  0
VERTEX
  8
0
 10
-0.4750
 20
-0.2379
 30
0.0000
 42
1.0000
  0
VERTEX
  8
0
 10
-0.4250
 20
-0.2379
 30
0.0000
  0
SEQEND
  8
0
  0
ENDBLK
  8
0
  0
BLOCK
  8
0
  2
OCTAGONV
 70
64
 10
0.0000
 20
0.0000
 30
0.0000
  3
OCTAGONV
  0
POLYLINE
  8
0
 66
1
 10
0.0000
 20
0.0000
 30
0.0000
 40
0.5000
 41
0.5000
 70
0
  0
VERTEX
  8
0
 10
-0.2500
 20
-0.1036
 30
0.0000
  0
VERTEX
  8
0
 10
-0.2500
 20
0.1036
 30
0.0000
  0
VERTEX
  8
0
 10
-0.1036
 20
0.2500
 30
0.0000
  0
VERTEX
  8
0
 10
0.1036
 20
0.2500
 30
0.0000
  0
VERTEX
  8
0
 10
0.2500
 20
0.1036
 30
0.0000
  0
VERTEX
  8
0
 10
0.2500
 20
-0.1036
 30
0.0000
  0
VERTEX
  8
0
 10
0.1036
 20
-0.2500
 30
0.0000
  0
VERTEX
  8
0
 10
-0.1036
 20
-0.2500
 30
0.0000
  0
VERTEX
  8
0
 10
-0.2500
 20
-0.1036
 30
0.0000
  0
VERTEX
  8
0
 10
-0.2500
 20
0.1036
 30
0.0000
  0
SEQEND
  8
0
  0
ENDBLK
  8
0
  0
BLOCK
  8
0
  2
SQUAREV
 70
64
 10
0.0000
 20
0.0000
 30
0.0000
  3
SQUAREV
  0
SOLID
  8
0
 10
-0.5000
 20
-0.5000
 30
0.0000
 11
0.5000
 21
-0.5000
 31
0.0000
 12
-0.5000
 22
0.5000
 32
0.0000
 13
0.5000
 23
0.5000
 33
0.0000
  0
ENDBLK
  8
0
  0
BLOCK
  8
0
  2
ROUNDV
 70
64
 10
0.0000
 20
0.0000
 30
0.0000
  3
ROUNDV
  0
POLYLINE
  8
0
 66
1
 10
0.0000
 20
0.0000
 30
0.0000
 40
0.5000
 41
0.5000
 70
0
  0
VERTEX
  8
0
 10
0.0000
 20
-0.2500
 30
0.0000
 42
1.0000
  0
VERTEX
  8
0
 10
0.0000
 20
0.2500
 30
0.0000
 42
1.0000
  0
VERTEX
  8
0
 10
0.0000
 20
-0.2500
 30
0.0000
  0
SEQEND
  8
0
  0
ENDBLK
  8
0
  0
BLOCK
  8
0
  2
ANNULUSV
 70
64
 10
0.0000
 20
0.0000
 30
0.0000
  3
ANNULUSV
  0
POLYLINE
  8
0
 66
1
 10
0.0000
 20
0.0000
 30
0.0000
 40
0.5000
 41
0.5000
 70
0
  0
VERTEX
  8
0
 10
0.0000
 20
-0.2500
 30
0.0000
 42
1.0000
  0
VERTEX
  8
0
 10
0.0000
 20
0.2500
 30
0.0000
 42
1.0000
  0
VERTEX
  8
0
 10
0.0000
 20
-0.2500
 30
0.0000
  0
SEQEND
  8
0
  0
ENDBLK
  8
0
  0
BLOCK
  8
0
  2
THERMALV
 70
64
 10
0.0000
 20
0.0000
 30
0.0000
  3
THERMALV
  0
POLYLINE
  8
0
 66
1
 10
0.0000
 20
0.0000
 30
0.0000
 40
0.1000
 41
0.1000
 70
0
  0
VERTEX
  8
0
 10
-0.2379
 20
0.4500
 30
0.0000
  0
VERTEX
  8
0
 10
0.2379
 20
0.4500
 30
0.0000
  0
SEQEND
  8
0
  0
POLYLINE
  8
0
 66
1
 10
0.0000
 20
0.0000
 30
0.0000
 40
0.0500
 41
0.0500
 70
0
  0
VERTEX
  8
0
 10
0.2379
 20
0.4250
 30
0.0000
 42
1.0000
  0
VERTEX
  8
0
 10
0.2379
 20
0.4750
 30
0.0000
  0
SEQEND
  8
0
  0
POLYLINE
  8
0
 66
1
 10
0.0000
 20
0.0000
 30
0.0000
 40
0.0500
 41
0.0500
 70
0
  0
VERTEX
  8
0
 10
-0.2379
 20
0.4750
 30
0.0000
 42
1.0000
  0
VERTEX
  8
0
 10
-0.2379
 20
0.4250
 30
0.0000
  0
SEQEND
  8
0
  0
POLYLINE
  8
0
 66
1
 10
0.0000
 20
0.0000
 30
0.0000
 40
0.1000
 41
0.1000
 70
0
  0
VERTEX
  8
0
 10
0.4500
 20
0.2379
 30
0.0000
  0
VERTEX
  8
0
 10
0.4500
 20
-0.2379
 30
0.0000
  0
SEQEND
  8
0
  0
POLYLINE
  8
0
 66
1
 10
0.0000
 20
0.0000
 30
0.0000
 40
0.0500
 41
0.0500
 70
0
  0
VERTEX
  8
0
 10
0.4250
 20
-0.2379
 30
0.0000
 42
1.0000
  0
VERTEX
  8
0
 10
0.4750
 20
-0.2379
 30
0.0000
  0
SEQEND
  8
0
  0
POLYLINE
  8
0
 66
1
 10
0.0000
 20
0.0000
 30
0.0000
 40
0.0500
 41
0.0500
 70
0
  0
VERTEX
  8
0
 10
0.4750
 20
0.2379
 30
0.0000
 42
1.0000
  0
VERTEX
  8
0
 10
0.4250
 20
0.2379
 30
0.0000
  0
SEQEND
  8
0
  0
POLYLINE
  8
0
 66
1
 10
0.0000
 20
0.0000
 30
0.0000
 40
0.1000
 41
0.1000
 70
0
  0
VERTEX
  8
0
 10
0.2379
 20
-0.4500
 30
0.0000
  0
VERTEX
  8
0
 10
-0.2379
 20
-0.4500
 30
0.0000
  0
SEQEND
  8
0
  0
POLYLINE
  8
0
 66
1
 10
0.0000
 20
0.0000
 30
0.0000
 40
0.0500
 41
0.0500
 70
0
  0
VERTEX
  8
0
 10
-0.2379
 20
-0.4250
 30
0.0000
 42
1.0000
  0
VERTEX
  8
0
 10
-0.2379
 20
-0.4750
 30
0.0000
  0
SEQEND
  8
0
  0
POLYLINE
  8
0
 66
1
 10
0.0000
 20
0.0000
 30
0.0000
 40
0.0500
 41
0.0500
 70
0
  0
VERTEX
  8
0
 10
0.2379
 20
-0.4750
 30
0.0000
 42
1.0000
  0
VERTEX
  8
0
 10
0.2379
 20
-0.4250
 30
0.0000
  0
SEQEND
  8
0
  0
POLYLINE
  8
0
 66
1
 10
0.0000
 20
0.0000
 30
0.0000
 40
0.1000
 41
0.1000
 70
0
  0
VERTEX
  8
0
 10
-0.4500
 20
-0.2379
 30
0.0000
  0
VERTEX
  8
0
 10
-0.4500
 20
0.2379
 30
0.0000
  0
SEQEND
  8
0
  0
POLYLINE
  8
0
 66
1
 10
0.0000
 20
0.0000
 30
0.0000
 40
0.0500
 41
0.0500
 70
0
  0
VERTEX
  8
0
 10
-0.4250
 20
0.2379
 30
0.0000
 42
1.0000
  0
VERTEX
  8
0
 10
-0.4750
 20
0.2379
 30
0.0000
  0
SEQEND
  8
0
  0
POLYLINE
  8
0
 66
1
 10
0.0000
 20
0.0000
 30
0.0000
 40
0.0500
 41
0.0500
 70
0
  0
VERTEX
  8
0
 10
-0.4750
 20
-0.2379
 30
0.0000
 42
1.0000
  0
VERTEX
  8
0
 10
-0.4250
 20
-0.2379
 30
0.0000
  0
SEQEND
  8
0
  0
ENDBLK
  8
0
  0
ENDSEC
  0
SECTION
  2
ENTITIES
  0
POINT
  8
23
 10
34.2900
 20
6.3500
 30
0.0000
  0
POLYLINE
  8
21
 66
1
 10
0.0000
 20
0.0000
 30
0.0000
 40
0.1270
 41
0.1270
 70
0
  0
VERTEX
  8
21
 10
33.0200
 20
-11.4300
 30
0.0000
 42
0.4142
  0
VERTEX
  8
21
 10
35.5600
 20
-13.9700
 30
0.0000
  0
SEQEND
  8
0
  0
POLYLINE
  8
21
 66
1
 10
0.0000
 20
0.0000
 30
0.0000
 40
0.0635
 41
0.0635
 70
0
  0
VERTEX
  8
21
 10
33.0518
 20
-11.4300
 30
0.0000
 42
1.0000
  0
VERTEX
  8
21
 10
32.9883
 20
-11.4300
 30
0.0000
  0
SEQEND
  8
0
  0
POLYLINE
  8
21
 66
1
 10
0.0000
 20
0.0000
 30
0.0000
 40
0.0635
 41
0.0635
 70
0
  0
VERTEX
  8
21
 10
35.5600
 20
-14.0018
 30
0.0000
 42
1.0000
  0
VERTEX
  8
21
 10
35.5600
 20
-13.9383
 30
0.0000
  0
SEQEND
  8
0
  0
POLYLINE
  8
21
 66
1
 10
0.0000
 20
0.0000
 30
0.0000
 40
0.1270
 41
0.1270
 70
0
  0
VERTEX
  8
21
 10
35.5600
 20
-13.9700
 30
0.0000
  0
VERTEX
  8
21
 10
60.9600
 20
-13.9700
 30
0.0000
  0
SEQEND
  8
0
  0
POLYLINE
  8
21
 66
1
 10
0.0000
 20
0.0000
 30
0.0000
 40
0.0635
 41
0.0635
 70
0
  0
VERTEX
  8
21
 10
60.9600
 20
-14.0018
 30
0.0000
 42
1.0000
  0
VERTEX
  8
21
 10
60.9600
 20
-13.9383
 30
0.0000
  0
SEQEND
  8
0
  0
POLYLINE
  8
21
 66
1
 10
0.0000
 20
0.0000
 30
0.0000
 40
0.0635
 41
0.0635
 70
0
  0
VERTEX
  8
21
 10
35.5600
 20
-13.9383
 30
0.0000
 42
1.0000
  0
VERTEX
  8
21
 10
35.5600
 20
-14.0018
 30
0.0000
  0
SEQEND
  8
0
  0
POLYLINE
  8
21
 66
1
 10
0.0000
 20
0.0000
 30
0.0000
 40
0.1270
 41
0.1270
 70
0
  0
VERTEX
  8
21
 10
60.9600
 20
-13.9700
 30
0.0000
 42
0.4142
  0
VERTEX
  8
21
 10
63.5000
 20
-11.4300
 30
0.0000
  0
SEQEND
  8
0
  0
POLYLINE
  8
21
 66
1
 10
0.0000
 20
0.0000
 30
0.0000
 40
0.0635
 41
0.0635
 70
0
  0
VERTEX
  8
21
 10
60.9600
 20
-13.9383
 30
0.0000
 42
1.0000
  0
VERTEX
  8
21
 10
60.9600
 20
-14.0018
 30
0.0000
  0
SEQEND
  8
0
  0
POLYLINE
  8
21
 66
1
 10
0.0000
 20
0.0000
 30
0.0000
 40
0.0635
 41
0.0635
 70
0
  0
VERTEX
  8
21
 10
63.5318
 20
-11.4300
 30
0.0000
 42
1.0000
  0
VERTEX
  8
21
 10
63.4682
 20
-11.4300
 30
0.0000
  0
SEQEND
  8
0
  0
POLYLINE
  8
21
 66
1
 10
0.0000
 20
0.0000
 30
0.0000
 40
0.1270
 41
0.1270
 70
0
  0
VERTEX
  8
21
 10
63.5000
 20
-11.4300
 30
0.0000
  0
VERTEX
  8
21
 10
63.5000
 20
-6.3500
 30
0.0000
  0
SEQEND
  8
0
  0
POLYLINE
  8
21
 66
1
 10
0.0000
 20
0.0000
 30
0.0000
 40
0.0635
 41
0.0635
 70
0
  0
VERTEX
  8
21
 10
63.5318
 20
-6.3500
 30
0.0000
 42
1.0000
  0
VERTEX
  8
21
 10
63.4682
 20
-6.3500
 30
0.0000
  0
SEQEND
  8
0
  0
POLYLINE
  8
21
 66
1
 10
0.0000
 20
0.0000
 30
0.0000
 40
0.0635
 41
0.0635
 70
0
  0
VERTEX
  8
21
 10
63.4682
 20
-11.4300
 30
0.0000
 42
1.0000
  0
VERTEX
  8
21
 10
63.5318
 20
-11.4300
 30
0.0000
  0
SEQEND
  8
0
  0
POLYLINE
  8
21
 66
1
 10
0.0000
 20
0.0000
 30
0.0000
 40
0.1270
 41
0.1270
 70
0
  0
VERTEX
  8
21
 10
63.5000
 20
-3.8100
 30
0.0000
  0
VERTEX
  8
21
 10
63.5000
 20
-2.5400
 30
0.0000
  0
SEQEND
  8
0
  0
POLYLINE
  8
21
 66
1
 10
0.0000
 20
0.0000
 30
0.0000
 40
0.0635
 41
0.0635
 70
0
  0
VERTEX
  8
21
 10
63.5318
 20
-2.5400
 30
0.0000
 42
1.0000
  0
VERTEX
  8
21
 10
63.4682
 20
-2.5400
 30
0.0000
  0
SEQEND
  8
0
  0
POLYLINE
  8
21
 66
1
 10
0.0000
 20
0.0000
 30
0.0000
 40
0.0635
 41
0.0635
 70
0
  0
VERTEX
  8
21
 10
63.4682
 20
-3.8100
 30
0.0000
 42
1.0000
  0
VERTEX
  8
21
 10
63.5318
 20
-3.8100
 30
0.0000
  0
SEQEND
  8
0
  0
POLYLINE
  8
21
 66
1
 10
0.0000
 20
0.0000
 30
0.0000
 40
0.1270
 41
0.1270
 70
0
  0
VERTEX
  8
21
 10
63.5000
 20
1.2700
 30
0.0000
  0
VERTEX
  8
21
 10
63.5000
 20
101.6000
 30
0.0000
  0
SEQEND
  8
0
  0
POLYLINE
  8
21
 66
1
 10
0.0000
 20
0.0000
 30
0.0000
 40
0.0635
 41
0.0635
 70
0
  0
VERTEX
  8
21
 10
63.5318
 20
101.6000
 30
0.0000
 42
1.0000
  0
VERTEX
  8
21
 10
63.4682
 20
101.6000
 30
0.0000
  0
SEQEND
  8
0
  0
POLYLINE
  8
21
 66
1
 10
0.0000
 20
0.0000
 30
0.0000
 40
0.0635
 41
0.0635
 70
0
  0
VERTEX
  8
21
 10
63.4682
 20
1.2700
 30
0.0000
 42
1.0000
  0
VERTEX
  8
21
 10
63.5318
 20
1.2700
 30
0.0000
  0
SEQEND
  8
0
  0
POLYLINE
  8
21
 66
1
 10
0.0000
 20
0.0000
 30
0.0000
 40
0.1270
 41
0.1270
 70
0
  0
VERTEX
  8
21
 10
63.5000
 20
101.6000
 30
0.0000
  0
VERTEX
  8
21
 10
33.0200
 20
101.6000
 30
0.0000
  0
SEQEND
  8
0
  0
POLYLINE
  8
21
 66
1
 10
0.0000
 20
0.0000
 30
0.0000
 40
0.0635
 41
0.0635
 70
0
  0
VERTEX
  8
21
 10
33.0200
 20
101.6318
 30
0.0000
 42
1.0000
  0
VERTEX
  8
21
 10
33.0200
 20
101.5683
 30
0.0000
  0
SEQEND
  8
0
  0
POLYLINE
  8
21
 66
1
 10
0.0000
 20
0.0000
 30
0.0000
 40
0.0635
 41
0.0635
 70
0
  0
VERTEX
  8
21
 10
63.5000
 20
101.5683
 30
0.0000
 42
1.0000
  0
VERTEX
  8
21
 10
63.5000
 20
101.6318
 30
0.0000
  0
SEQEND
  8
0
  0
POLYLINE
  8
21
 66
1
 10
0.0000
 20
0.0000
 30
0.0000
 40
0.1270
 41
0.1270
 70
0
  0
VERTEX
  8
21
 10
33.0200
 20
101.6000
 30
0.0000
  0
VERTEX
  8
21
 10
33.0200
 20
0.0000
 30
0.0000
  0
SEQEND
  8
0
  0
POLYLINE
  8
21
 66
1
 10
0.0000
 20
0.0000
 30
0.0000
 40
0.0635
 41
0.0635
 70
0
  0
VERTEX
  8
21
 10
32.9883
 20
0.0000
 30
0.0000
 42
1.0000
  0
VERTEX
  8
21
 10
33.0518
 20
0.0000
 30
0.0000
  0
SEQEND
  8
0
  0
POLYLINE
  8
21
 66
1
 10
0.0000
 20
0.0000
 30
0.0000
 40
0.0635
 41
0.0635
 70
0
  0
VERTEX
  8
21
 10
33.0518
 20
101.6000
 30
0.0000
 42
1.0000
  0
VERTEX
  8
21
 10
32.9883
 20
101.6000
 30
0.0000
  0
SEQEND
  8
0
  0
POLYLINE
  8
21
 66
1
 10
0.0000
 20
0.0000
 30
0.0000
 40
0.1270
 41
0.1270
 70
0
  0
VERTEX
  8
21
 10
33.0200
 20
0.0000
 30
0.0000
  0
VERTEX
  8
21
 10
33.0200
 20
-6.3500
 30
0.0000
  0
SEQEND
  8
0
  0
POLYLINE
  8
21
 66
1
 10
0.0000
 20
0.0000
 30
0.0000
 40
0.0635
 41
0.0635
 70
0
  0
VERTEX
  8
21
 10
32.9883
 20
-6.3500
 30
0.0000
 42
1.0000
  0
VERTEX
  8
21
 10
33.0518
 20
-6.3500
 30
0.0000
  0
SEQEND
  8
0
  0
POLYLINE
  8
21
 66
1
 10
0.0000
 20
0.0000
 30
0.0000
 40
0.0635
 41
0.0635
 70
0
  0
VERTEX
  8
21
 10
33.0518
 20
0.0000
 30
0.0000
 42
1.0000
  0
VERTEX
  8
21
 10
32.9883
 20
0.0000
 30
0.0000
  0
SEQEND
  8
0
  0
POLYLINE
  8
21
 66
1
 10
0.0000
 20
0.0000
 30
0.0000
 40
0.1270
 41
0.1270
 70
0
  0
VERTEX
  8
21
 10
33.0200
 20
-6.3500
 30
0.0000
  0
VERTEX
  8
21
 10
33.0200
 20
-11.4300
 30
0.0000
  0
SEQEND
  8
0
  0
POLYLINE
  8
21
 66
1
 10
0.0000
 20
0.0000
 30
0.0000
 40
0.0635
 41
0.0635
 70
0
  0
VERTEX
  8
21
 10
32.9883
 20
-11.4300
 30
0.0000
 42
1.0000
  0
VERTEX
  8
21
 10
33.0518
 20
-11.4300
 30
0.0000
  0
SEQEND
  8
0
  0
POLYLINE
  8
21
 66
1
 10
0.0000
 20
0.0000
 30
0.0000
 40
0.0635
 41
0.0635
 70
0
  0
VERTEX
  8
21
 10
33.0518
 20
-6.3500
 30
0.0000
 42
1.0000
  0
VERTEX
  8
21
 10
32.9883
 20
-6.3500
 30
0.0000
  0
SEQEND
  8
0
  0
POLYLINE
  8
21
 66
1
 10
0.0000
 20
0.0000
 30
0.0000
 40
0.1270
 41
0.1270
 70
0
  0
VERTEX
  8
21
 10
35.5600
 20
90.1700
 30
0.0000
  0
VERTEX
  8
21
 10
35.5600
 20
72.3900
 30
0.0000
  0
SEQEND
  8
0
  0
POLYLINE
  8
21
 66
1
 10
0.0000
 20
0.0000
 30
0.0000
 40
0.0635
 41
0.0635
 70
0
  0
VERTEX
  8
21
 10
35.5282
 20
72.3900
 30
0.0000
 42
1.0000
  0
VERTEX
  8
21
 10
35.5918
 20
72.3900
 30
0.0000
  0
SEQEND
  8
0
  0
POLYLINE
  8
21
 66
1
 10
0.0000
 20
0.0000
 30
0.0000
 40
0.0635
 41
0.0635
 70
0
  0
VERTEX
  8
21
 10
35.5918
 20
90.1700
 30
0.0000
 42
1.0000
  0
VERTEX
  8
21
 10
35.5282
 20
90.1700
 30
0.0000
  0
SEQEND
  8
0
  0
POLYLINE
  8
21
 66
1
 10
0.0000
 20
0.0000
 30
0.0000
 40
0.1270
 41
0.1270
 70
0
  0
VERTEX
  8
21
 10
35.5600
 20
72.3900
 30
0.0000
  0
VERTEX
  8
21
 10
60.9600
 20
72.3900
 30
0.0000
  0
SEQEND
  8
0
  0
POLYLINE
  8
21
 66
1
 10
0.0000
 20
0.0000
 30
0.0000
 40
0.0635
 41
0.0635
 70
0
  0
VERTEX
  8
21
 10
60.9600
 20
72.3582
 30
0.0000
 42
1.0000
  0
VERTEX
  8
21
 10
60.9600
 20
72.4218
 30
0.0000
  0
SEQEND
  8
0
  0
POLYLINE
  8
21
 66
1
 10
0.0000
 20
0.0000
 30
0.0000
 40
0.0635
 41
0.0635
 70
0
  0
VERTEX
  8
21
 10
35.5600
 20
72.4218
 30
0.0000
 42
1.0000
  0
VERTEX
  8
21
 10
35.5600
 20
72.3582
 30
0.0000
  0
SEQEND
  8
0
  0
POLYLINE
  8
21
 66
1
 10
0.0000
 20
0.0000
 30
0.0000
 40
0.1270
 41
0.1270
 70
0
  0
VERTEX
  8
21
 10
60.9600
 20
72.3900
 30
0.0000
  0
VERTEX
  8
21
 10
60.9600
 20
90.1700
 30
0.0000
  0
SEQEND
  8
0
  0
POLYLINE
  8
21
 66
1
 10
0.0000
 20
0.0000
 30
0.0000
 40
0.0635
 41
0.0635
 70
0
  0
VERTEX
  8
21
 10
60.9918
 20
90.1700
 30
0.0000
 42
1.0000
  0
VERTEX
  8
21
 10
60.9282
 20
90.1700
 30
0.0000
  0
SEQEND
  8
0
  0
POLYLINE
  8
21
 66
1
 10
0.0000
 20
0.0000
 30
0.0000
 40
0.0635
 41
0.0635
 70
0
  0
VERTEX
  8
21
 10
60.9282
 20
72.3900
 30
0.0000
 42
1.0000
  0
VERTEX
  8
21
 10
60.9918
 20
72.3900
 30
0.0000
  0
SEQEND
  8
0
  0
POLYLINE
  8
21
 66
1
 10
0.0000
 20
0.0000
 30
0.0000
 40
0.1270
 41
0.1270
 70
0
  0
VERTEX
  8
21
 10
60.9600
 20
90.1700
 30
0.0000
  0
VERTEX
  8
21
 10
35.5600
 20
90.1700
 30
0.0000
  0
SEQEND
  8
0
  0
POLYLINE
  8
21
 66
1
 10
0.0000
 20
0.0000
 30
0.0000
 40
0.0635
 41
0.0635
 70
0
  0
VERTEX
  8
21
 10
35.5600
 20
90.2018
 30
0.0000
 42
1.0000
  0
VERTEX
  8
21
 10
35.5600
 20
90.1382
 30
0.0000
  0
SEQEND
  8
0
  0
POLYLINE
  8
21
 66
1
 10
0.0000
 20
0.0000
 30
0.0000
 40
0.0635
 41
0.0635
 70
0
  0
VERTEX
  8
21
 10
60.9600
 20
90.1382
 30
0.0000
 42
1.0000
  0
VERTEX
  8
21
 10
60.9600
 20
90.2018
 30
0.0000
  0
SEQEND
  8
0
  0
POLYLINE
  8
21
 66
1
 10
0.0000
 20
0.0000
 30
0.0000
 40
0.1270
 41
0.1270
 70
0
  0
VERTEX
  8
21
 10
33.0200
 20
0.0000
 30
0.0000
  0
VERTEX
  8
21
 10
36.8300
 20
0.0000
 30
0.0000
  0
SEQEND
  8
0
  0
POLYLINE
  8
21
 66
1
 10
0.0000
 20
0.0000
 30
0.0000
 40
0.0635
 41
0.0635
 70
0
  0
VERTEX
  8
21
 10
36.8300
 20
-0.0318
 30
0.0000
 42
1.0000
  0
VERTEX
  8
21
 10
36.8300
 20
0.0318
 30
0.0000
  0
SEQEND
  8
0
  0
POLYLINE
  8
21
 66
1
 10
0.0000
 20
0.0000
 30
0.0000
 40
0.0635
 41
0.0635
 70
0
  0
VERTEX
  8
21
 10
33.0200
 20
0.0318
 30
0.0000
 42
1.0000
  0
VERTEX
  8
21
 10
33.0200
 20
-0.0318
 30
0.0000
  0
SEQEND
  8
0
  0
POLYLINE
  8
21
 66
1
 10
0.0000
 20
0.0000
 30
0.0000
 40
0.1270
 41
0.1270
 70
0
  0
VERTEX
  8
21
 10
36.8300
 20
0.0000
 30
0.0000
  0
VERTEX
  8
21
 10
36.8300
 20
-1.2700
 30
0.0000
  0
SEQEND
  8
0
  0
POLYLINE
  8
21
 66
1
 10
0.0000
 20
0.0000
 30
0.0000
 40
0.0635
 41
0.0635
 70
0
  0
VERTEX
  8
21
 10
36.7982
 20
-1.2700
 30
0.0000
 42
1.0000
  0
VERTEX
  8
21
 10
36.8618
 20
-1.2700
 30
0.0000
  0
SEQEND
  8
0
  0
POLYLINE
  8
21
 66
1
 10
0.0000
 20
0.0000
 30
0.0000
 40
0.0635
 41
0.0635
 70
0
  0
VERTEX
  8
21
 10
36.8618
 20
0.0000
 30
0.0000
 42
1.0000
  0
VERTEX
  8
21
 10
36.7982
 20
0.0000
 30
0.0000
  0
SEQEND
  8
0
  0
POLYLINE
  8
21
 66
1
 10
0.0000
 20
0.0000
 30
0.0000
 40
0.1270
 41
0.1270
 70
0
  0
VERTEX
  8
21
 10
36.8300
 20
-1.2700
 30
0.0000
  0
VERTEX
  8
21
 10
36.8300
 20
-5.0800
 30
0.0000
  0
SEQEND
  8
0
  0
POLYLINE
  8
21
 66
1
 10
0.0000
 20
0.0000
 30
0.0000
 40
0.0635
 41
0.0635
 70
0
  0
VERTEX
  8
21
 10
36.7982
 20
-5.0800
 30
0.0000
 42
1.0000
  0
VERTEX
  8
21
 10
36.8618
 20
-5.0800
 30
0.0000
  0
SEQEND
  8
0
  0
POLYLINE
  8
21
 66
1
 10
0.0000
 20
0.0000
 30
0.0000
 40
0.0635
 41
0.0635
 70
0
  0
VERTEX
  8
21
 10
36.8618
 20
-1.2700
 30
0.0000
 42
1.0000
  0
VERTEX
  8
21
 10
36.7982
 20
-1.2700
 30
0.0000
  0
SEQEND
  8
0
  0
POLYLINE
  8
21
 66
1
 10
0.0000
 20
0.0000
 30
0.0000
 40
0.1270
 41
0.1270
 70
0
  0
VERTEX
  8
21
 10
36.8300
 20
-5.0800
 30
0.0000
  0
VERTEX
  8
21
 10
36.8300
 20
-6.3500
 30
0.0000
  0
SEQEND
  8
0
  0
POLYLINE
  8
21
 66
1
 10
0.0000
 20
0.0000
 30
0.0000
 40
0.0635
 41
0.0635
 70
0
  0
VERTEX
  8
21
 10
36.7982
 20
-6.3500
 30
0.0000
 42
1.0000
  0
VERTEX
  8
21
 10
36.8618
 20
-6.3500
 30
0.0000
  0
SEQEND
  8
0
  0
POLYLINE
  8
21
 66
1
 10
0.0000
 20
0.0000
 30
0.0000
 40
0.0635
 41
0.0635
 70
0
  0
VERTEX
  8
21
 10
36.8618
 20
-5.0800
 30
0.0000
 42
1.0000
  0
VERTEX
  8
21
 10
36.7982
 20
-5.0800
 30
0.0000
  0
SEQEND
  8
0
  0
POLYLINE
  8
21
 66
1
 10
0.0000
 20
0.0000
 30
0.0000
 40
0.1270
 41
0.1270
 70
0
  0
VERTEX
  8
21
 10
36.8300
 20
-6.3500
 30
0.0000
  0
VERTEX
  8
21
 10
33.0200
 20
-6.3500
 30
0.0000
  0
SEQEND
  8
0
  0
POLYLINE
  8
21
 66
1
 10
0.0000
 20
0.0000
 30
0.0000
 40
0.0635
 41
0.0635
 70
0
  0
VERTEX
  8
21
 10
33.0200
 20
-6.3183
 30
0.0000
 42
1.0000
  0
VERTEX
  8
21
 10
33.0200
 20
-6.3818
 30
0.0000
  0
SEQEND
  8
0
  0
POLYLINE
  8
21
 66
1
 10
0.0000
 20
0.0000
 30
0.0000
 40
0.0635
 41
0.0635
 70
0
  0
VERTEX
  8
21
 10
36.8300
 20
-6.3818
 30
0.0000
 42
1.0000
  0
VERTEX
  8
21
 10
36.8300
 20
-6.3183
 30
0.0000
  0
SEQEND
  8
0
  0
POLYLINE
  8
21
 66
1
 10
0.0000
 20
0.0000
 30
0.0000
 40
0.1270
 41
0.1270
 70
0
  0
VERTEX
  8
21
 10
63.5000
 20
1.2700
 30
0.0000
  0
VERTEX
  8
21
 10
59.6900
 20
1.2700
 30
0.0000
  0
SEQEND
  8
0
  0
POLYLINE
  8
21
 66
1
 10
0.0000
 20
0.0000
 30
0.0000
 40
0.0635
 41
0.0635
 70
0
  0
VERTEX
  8
21
 10
59.6900
 20
1.3017
 30
0.0000
 42
1.0000
  0
VERTEX
  8
21
 10
59.6900
 20
1.2383
 30
0.0000
  0
SEQEND
  8
0
  0
POLYLINE
  8
21
 66
1
 10
0.0000
 20
0.0000
 30
0.0000
 40
0.0635
 41
0.0635
 70
0
  0
VERTEX
  8
21
 10
63.5000
 20
1.2383
 30
0.0000
 42
1.0000
  0
VERTEX
  8
21
 10
63.5000
 20
1.3017
 30
0.0000
  0
SEQEND
  8
0
  0
POLYLINE
  8
21
 66
1
 10
0.0000
 20
0.0000
 30
0.0000
 40
0.1270
 41
0.1270
 70
0
  0
VERTEX
  8
21
 10
59.6900
 20
1.2700
 30
0.0000
  0
VERTEX
  8
21
 10
59.6900
 20
-6.3500
 30
0.0000
  0
SEQEND
  8
0
  0
POLYLINE
  8
21
 66
1
 10
0.0000
 20
0.0000
 30
0.0000
 40
0.0635
 41
0.0635
 70
0
  0
VERTEX
  8
21
 10
59.6583
 20
-6.3500
 30
0.0000
 42
1.0000
  0
VERTEX
  8
21
 10
59.7218
 20
-6.3500
 30
0.0000
  0
SEQEND
  8
0
  0
POLYLINE
  8
21
 66
1
 10
0.0000
 20
0.0000
 30
0.0000
 40
0.0635
 41
0.0635
 70
0
  0
VERTEX
  8
21
 10
59.7218
 20
1.2700
 30
0.0000
 42
1.0000
  0
VERTEX
  8
21
 10
59.6583
 20
1.2700
 30
0.0000
  0
SEQEND
  8
0
  0
POLYLINE
  8
21
 66
1
 10
0.0000
 20
0.0000
 30
0.0000
 40
0.1270
 41
0.1270
 70
0
  0
VERTEX
  8
21
 10
59.6900
 20
-6.3500
 30
0.0000
  0
VERTEX
  8
21
 10
63.5000
 20
-6.3500
 30
0.0000
  0
SEQEND
  8
0
  0
POLYLINE
  8
21
 66
1
 10
0.0000
 20
0.0000
 30
0.0000
 40
0.0635
 41
0.0635
 70
0
  0
VERTEX
  8
21
 10
63.5000
 20
-6.3818
 30
0.0000
 42
1.0000
  0
VERTEX
  8
21
 10
63.5000
 20
-6.3183
 30
0.0000
  0
SEQEND
  8
0
  0
POLYLINE
  8
21
 66
1
 10
0.0000
 20
0.0000
 30
0.0000
 40
0.0635
 41
0.0635
 70
0
  0
VERTEX
  8
21
 10
59.6900
 20
-6.3183
 30
0.0000
 42
1.0000
  0
VERTEX
  8
21
 10
59.6900
 20
-6.3818
 30
0.0000
  0
SEQEND
  8
0
  0
POLYLINE
  8
21
 66
1
 10
0.0000
 20
0.0000
 30
0.0000
 40
0.1270
 41
0.1270
 70
0
  0
VERTEX
  8
21
 10
63.5000
 20
-6.3500
 30
0.0000
  0
VERTEX
  8
21
 10
63.5000
 20
-3.8100
 30
0.0000
  0
SEQEND
  8
0
  0
POLYLINE
  8
21
 66
1
 10
0.0000
 20
0.0000
 30
0.0000
 40
0.0635
 41
0.0635
 70
0
  0
VERTEX
  8
21
 10
63.5318
 20
-3.8100
 30
0.0000
 42
1.0000
  0
VERTEX
  8
21
 10
63.4682
 20
-3.8100
 30
0.0000
  0
SEQEND
  8
0
  0
POLYLINE
  8
21
 66
1
 10
0.0000
 20
0.0000
 30
0.0000
 40
0.0635
 41
0.0635
 70
0
  0
VERTEX
  8
21
 10
63.4682
 20
-6.3500
 30
0.0000
 42
1.0000
  0
VERTEX
  8
21
 10
63.5318
 20
-6.3500
 30
0.0000
  0
SEQEND
  8
0
  0
POLYLINE
  8
21
 66
1
 10
0.0000
 20
0.0000
 30
0.0000
 40
0.1270
 41
0.1270
 70
0
  0
VERTEX
  8
21
 10
63.5000
 20
-3.8100
 30
0.0000
  0
VERTEX
  8
21
 10
64.7700
 20
-3.8100
 30
0.0000
  0
SEQEND
  8
0
  0
POLYLINE
  8
21
 66
1
 10
0.0000
 20
0.0000
 30
0.0000
 40
0.0635
 41
0.0635
 70
0
  0
VERTEX
  8
21
 10
64.7700
 20
-3.8418
 30
0.0000
 42
1.0000
  0
VERTEX
  8
21
 10
64.7700
 20
-3.7782
 30
0.0000
  0
SEQEND
  8
0
  0
POLYLINE
  8
21
 66
1
 10
0.0000
 20
0.0000
 30
0.0000
 40
0.0635
 41
0.0635
 70
0
  0
VERTEX
  8
21
 10
63.5000
 20
-3.7782
 30
0.0000
 42
1.0000
  0
VERTEX
  8
21
 10
63.5000
 20
-3.8418
 30
0.0000
  0
SEQEND
  8
0
  0
POLYLINE
  8
21
 66
1
 10
0.0000
 20
0.0000
 30
0.0000
 40
0.1270
 41
0.1270
 70
0
  0
VERTEX
  8
21
 10
64.7700
 20
-3.8100
 30
0.0000
  0
VERTEX
  8
21
 10
64.7700
 20
-2.5400
 30
0.0000
  0
SEQEND
  8
0
  0
POLYLINE
  8
21
 66
1
 10
0.0000
 20
0.0000
 30
0.0000
 40
0.0635
 41
0.0635
 70
0
  0
VERTEX
  8
21
 10
64.8017
 20
-2.5400
 30
0.0000
 42
1.0000
  0
VERTEX
  8
21
 10
64.7382
 20
-2.5400
 30
0.0000
  0
SEQEND
  8
0
  0
POLYLINE
  8
21
 66
1
 10
0.0000
 20
0.0000
 30
0.0000
 40
0.0635
 41
0.0635
 70
0
  0
VERTEX
  8
21
 10
64.7382
 20
-3.8100
 30
0.0000
 42
1.0000
  0
VERTEX
  8
21
 10
64.8017
 20
-3.8100
 30
0.0000
  0
SEQEND
  8
0
  0
POLYLINE
  8
21
 66
1
 10
0.0000
 20
0.0000
 30
0.0000
 40
0.1270
 41
0.1270
 70
0
  0
VERTEX
  8
21
 10
64.7700
 20
-2.5400
 30
0.0000
  0
VERTEX
  8
21
 10
63.5000
 20
-2.5400
 30
0.0000
  0
SEQEND
  8
0
  0
POLYLINE
  8
21
 66
1
 10
0.0000
 20
0.0000
 30
0.0000
 40
0.0635
 41
0.0635
 70
0
  0
VERTEX
  8
21
 10
63.5000
 20
-2.5082
 30
0.0000
 42
1.0000
  0
VERTEX
  8
21
 10
63.5000
 20
-2.5718
 30
0.0000
  0
SEQEND
  8
0
  0
POLYLINE
  8
21
 66
1
 10
0.0000
 20
0.0000
 30
0.0000
 40
0.0635
 41
0.0635
 70
0
  0
VERTEX
  8
21
 10
64.7700
 20
-2.5718
 30
0.0000
 42
1.0000
  0
VERTEX
  8
21
 10
64.7700
 20
-2.5082
 30
0.0000
  0
SEQEND
  8
0
  0
POLYLINE
  8
21
 66
1
 10
0.0000
 20
0.0000
 30
0.0000
 40
0.1270
 41
0.1270
 70
0
  0
VERTEX
  8
21
 10
63.5000
 20
-2.5400
 30
0.0000
  0
VERTEX
  8
21
 10
63.5000
 20
1.2700
 30
0.0000
  0
SEQEND
  8
0
  0
POLYLINE
  8
21
 66
1
 10
0.0000
 20
0.0000
 30
0.0000
 40
0.0635
 41
0.0635
 70
0
  0
VERTEX
  8
21
 10
63.5318
 20
1.2700
 30
0.0000
 42
1.0000
  0
VERTEX
  8
21
 10
63.4682
 20
1.2700
 30
0.0000
  0
SEQEND
  8
0
  0
POLYLINE
  8
21
 66
1
 10
0.0000
 20
0.0000
 30
0.0000
 40
0.0635
 41
0.0635
 70
0
  0
VERTEX
  8
21
 10
63.4682
 20
-2.5400
 30
0.0000
 42
1.0000
  0
VERTEX
  8
21
 10
63.5318
 20
-2.5400
 30
0.0000
  0
SEQEND
  8
0
  0
POLYLINE
  8
21
 66
1
 10
0.0000
 20
0.0000
 30
0.0000
 40
0.1270
 41
0.1270
 70
0
  0
VERTEX
  8
21
 10
36.8300
 20
-1.2700
 30
0.0000
  0
VERTEX
  8
21
 10
38.1000
 20
-1.2700
 30
0.0000
  0
SEQEND
  8
0
  0
POLYLINE
  8
21
 66
1
 10
0.0000
 20
0.0000
 30
0.0000
 40
0.0635
 41
0.0635
 70
0
  0
VERTEX
  8
21
 10
38.1000
 20
-1.3017
 30
0.0000
 42
1.0000
  0
VERTEX
  8
21
 10
38.1000
 20
-1.2383
 30
0.0000
  0
SEQEND
  8
0
  0
POLYLINE
  8
21
 66
1
 10
0.0000
 20
0.0000
 30
0.0000
 40
0.0635
 41
0.0635
 70
0
  0
VERTEX
  8
21
 10
36.8300
 20
-1.2383
 30
0.0000
 42
1.0000
  0
VERTEX
  8
21
 10
36.8300
 20
-1.3017
 30
0.0000
  0
SEQEND
  8
0
  0
POLYLINE
  8
21
 66
1
 10
0.0000
 20
0.0000
 30
0.0000
 40
0.1270
 41
0.1270
 70
0
  0
VERTEX
  8
21
 10
38.1000
 20
-1.2700
 30
0.0000
  0
VERTEX
  8
21
 10
38.1000
 20
-5.0800
 30
0.0000
  0
SEQEND
  8
0
  0
POLYLINE
  8
21
 66
1
 10
0.0000
 20
0.0000
 30
0.0000
 40
0.0635
 41
0.0635
 70
0
  0
VERTEX
  8
21
 10
38.0682
 20
-5.0800
 30
0.0000
 42
1.0000
  0
VERTEX
  8
21
 10
38.1318
 20
-5.0800
 30
0.0000
  0
SEQEND
  8
0
  0
POLYLINE
  8
21
 66
1
 10
0.0000
 20
0.0000
 30
0.0000
 40
0.0635
 41
0.0635
 70
0
  0
VERTEX
  8
21
 10
38.1318
 20
-1.2700
 30
0.0000
 42
1.0000
  0
VERTEX
  8
21
 10
38.0682
 20
-1.2700
 30
0.0000
  0
SEQEND
  8
0
  0
POLYLINE
  8
21
 66
1
 10
0.0000
 20
0.0000
 30
0.0000
 40
0.1270
 41
0.1270
 70
0
  0
VERTEX
  8
21
 10
38.1000
 20
-5.0800
 30
0.0000
  0
VERTEX
  8
21
 10
36.8300
 20
-5.0800
 30
0.0000
  0
SEQEND
  8
0
  0
POLYLINE
  8
21
 66
1
 10
0.0000
 20
0.0000
 30
0.0000
 40
0.0635
 41
0.0635
 70
0
  0
VERTEX
  8
21
 10
36.8300
 20
-5.0483
 30
0.0000
 42
1.0000
  0
VERTEX
  8
21
 10
36.8300
 20
-5.1117
 30
0.0000
  0
SEQEND
  8
0
  0
POLYLINE
  8
21
 66
1
 10
0.0000
 20
0.0000
 30
0.0000
 40
0.0635
 41
0.0635
 70
0
  0
VERTEX
  8
21
 10
38.1000
 20
-5.1117
 30
0.0000
 42
1.0000
  0
VERTEX
  8
21
 10
38.1000
 20
-5.0483
 30
0.0000
  0
SEQEND
  8
0
  0
POLYLINE
  8
21
 66
1
 10
0.0000
 20
0.0000
 30
0.0000
 40
0.1270
 41
0.1270
 70
0
  0
VERTEX
  8
21
 10
38.1000
 20
57.1500
 30
0.0000
  0
VERTEX
  8
21
 10
38.1000
 20
39.3700
 30
0.0000
  0
SEQEND
  8
0
  0
POLYLINE
  8
21
 66
1
 10
0.0000
 20
0.0000
 30
0.0000
 40
0.0635
 41
0.0635
 70
0
  0
VERTEX
  8
21
 10
38.0682
 20
39.3700
 30
0.0000
 42
1.0000
  0
VERTEX
  8
21
 10
38.1318
 20
39.3700
 30
0.0000
  0
SEQEND
  8
0
  0
POLYLINE
  8
21
 66
1
 10
0.0000
 20
0.0000
 30
0.0000
 40
0.0635
 41
0.0635
 70
0
  0
VERTEX
  8
21
 10
38.1318
 20
57.1500
 30
0.0000
 42
1.0000
  0
VERTEX
  8
21
 10
38.0682
 20
57.1500
 30
0.0000
  0
SEQEND
  8
0
  0
POLYLINE
  8
21
 66
1
 10
0.0000
 20
0.0000
 30
0.0000
 40
0.1270
 41
0.1270
 70
0
  0
VERTEX
  8
21
 10
38.1000
 20
39.3700
 30
0.0000
  0
VERTEX
  8
21
 10
58.4200
 20
39.3700
 30
0.0000
  0
SEQEND
  8
0
  0
POLYLINE
  8
21
 66
1
 10
0.0000
 20
0.0000
 30
0.0000
 40
0.0635
 41
0.0635
 70
0
  0
VERTEX
  8
21
 10
58.4200
 20
39.3383
 30
0.0000
 42
1.0000
  0
VERTEX
  8
21
 10
58.4200
 20
39.4018
 30
0.0000
  0
SEQEND
  8
0
  0
POLYLINE
  8
21
 66
1
 10
0.0000
 20
0.0000
 30
0.0000
 40
0.0635
 41
0.0635
 70
0
  0
VERTEX
  8
21
 10
38.1000
 20
39.4018
 30
0.0000
 42
1.0000
  0
VERTEX
  8
21
 10
38.1000
 20
39.3383
 30
0.0000
  0
SEQEND
  8
0
  0
POLYLINE
  8
21
 66
1
 10
0.0000
 20
0.0000
 30
0.0000
 40
0.1270
 41
0.1270
 70
0
  0
VERTEX
  8
21
 10
58.4200
 20
39.3700
 30
0.0000
  0
VERTEX
  8
21
 10
58.4200
 20
57.1500
 30
0.0000
  0
SEQEND
  8
0
  0
POLYLINE
  8
21
 66
1
 10
0.0000
 20
0.0000
 30
0.0000
 40
0.0635
 41
0.0635
 70
0
  0
VERTEX
  8
21
 10
58.4518
 20
57.1500
 30
0.0000
 42
1.0000
  0
VERTEX
  8
21
 10
58.3882
 20
57.1500
 30
0.0000
  0
SEQEND
  8
0
  0
POLYLINE
  8
21
 66
1
 10
0.0000
 20
0.0000
 30
0.0000
 40
0.0635
 41
0.0635
 70
0
  0
VERTEX
  8
21
 10
58.3882
 20
39.3700
 30
0.0000
 42
1.0000
  0
VERTEX
  8
21
 10
58.4518
 20
39.3700
 30
0.0000
  0
SEQEND
  8
0
  0
POLYLINE
  8
21
 66
1
 10
0.0000
 20
0.0000
 30
0.0000
 40
0.1270
 41
0.1270
 70
0
  0
VERTEX
  8
21
 10
58.4200
 20
57.1500
 30
0.0000
  0
VERTEX
  8
21
 10
38.1000
 20
57.1500
 30
0.0000
  0
SEQEND
  8
0
  0
POLYLINE
  8
21
 66
1
 10
0.0000
 20
0.0000
 30
0.0000
 40
0.0635
 41
0.0635
 70
0
  0
VERTEX
  8
21
 10
38.1000
 20
57.1818
 30
0.0000
 42
1.0000
  0
VERTEX
  8
21
 10
38.1000
 20
57.1183
 30
0.0000
  0
SEQEND
  8
0
  0
POLYLINE
  8
21
 66
1
 10
0.0000
 20
0.0000
 30
0.0000
 40
0.0635
 41
0.0635
 70
0
  0
VERTEX
  8
21
 10
58.4200
 20
57.1183
 30
0.0000
 42
1.0000
  0
VERTEX
  8
21
 10
58.4200
 20
57.1818
 30
0.0000
  0
SEQEND
  8
0
  0
POLYLINE
  8
21
 66
1
 10
0.0000
 20
0.0000
 30
0.0000
 40
0.1016
 41
0.1016
 70
0
  0
VERTEX
  8
21
 10
34.3408
 20
-5.0292
 30
0.0000
  0
VERTEX
  8
21
 10
35.1846
 20
-5.0292
 30
0.0000
  0
SEQEND
  8
0
  0
POLYLINE
  8
21
 66
1
 10
0.0000
 20
0.0000
 30
0.0000
 40
0.0508
 41
0.0508
 70
0
  0
VERTEX
  8
21
 10
35.1846
 20
-5.0546
 30
0.0000
 42
1.0000
  0
VERTEX
  8
21
 10
35.1846
 20
-5.0038
 30
0.0000
  0
SEQEND
  8
0
  0
POLYLINE
  8
21
 66
1
 10
0.0000
 20
0.0000
 30
0.0000
 40
0.0508
 41
0.0508
 70
0
  0
VERTEX
  8
21
 10
34.3408
 20
-5.0038
 30
0.0000
 42
1.0000
  0
VERTEX
  8
21
 10
34.3408
 20
-5.0546
 30
0.0000
  0
SEQEND
  8
0
  0
POLYLINE
  8
21
 66
1
 10
0.0000
 20
0.0000
 30
0.0000
 40
0.1016
 41
0.1016
 70
0
  0
VERTEX
  8
21
 10
35.1846
 20
-5.0292
 30
0.0000
 42
1.0000
  0
VERTEX
  8
21
 10
35.1846
 20
-4.3801
 30
0.0000
  0
SEQEND
  8
0
  0
POLYLINE
  8
21
 66
1
 10
0.0000
 20
0.0000
 30
0.0000
 40
0.0508
 41
0.0508
 70
0
  0
VERTEX
  8
21
 10
35.1846
 20
-5.0038
 30
0.0000
 42
1.0000
  0
VERTEX
  8
21
 10
35.1846
 20
-5.0546
 30
0.0000
  0
SEQEND
  8
0
  0
POLYLINE
  8
21
 66
1
 10
0.0000
 20
0.0000
 30
0.0000
 40
0.0508
 41
0.0508
 70
0
  0
VERTEX
  8
21
 10
35.1846
 20
-4.3547
 30
0.0000
 42
1.0000
  0
VERTEX
  8
21
 10
35.1846
 20
-4.4055
 30
0.0000
  0
SEQEND
  8
0
  0
POLYLINE
  8
21
 66
1
 10
0.0000
 20
0.0000
 30
0.0000
 40
0.1016
 41
0.1016
 70
0
  0
VERTEX
  8
21
 10
35.1846
 20
-4.3801
 30
0.0000
  0
VERTEX
  8
21
 10
34.3408
 20
-4.3801
 30
0.0000
  0
SEQEND
  8
0
  0
POLYLINE
  8
21
 66
1
 10
0.0000
 20
0.0000
 30
0.0000
 40
0.0508
 41
0.0508
 70
0
  0
VERTEX
  8
21
 10
34.3408
 20
-4.3547
 30
0.0000
 42
1.0000
  0
VERTEX
  8
21
 10
34.3408
 20
-4.4055
 30
0.0000
  0
SEQEND
  8
0
  0
POLYLINE
  8
21
 66
1
 10
0.0000
 20
0.0000
 30
0.0000
 40
0.0508
 41
0.0508
 70
0
  0
VERTEX
  8
21
 10
35.1846
 20
-4.4055
 30
0.0000
 42
1.0000
  0
VERTEX
  8
21
 10
35.1846
 20
-4.3547
 30
0.0000
  0
SEQEND
  8
0
  0
POLYLINE
  8
21
 66
1
 10
0.0000
 20
0.0000
 30
0.0000
 40
0.1016
 41
0.1016
 70
0
  0
VERTEX
  8
21
 10
35.5092
 20
-3.4967
 30
0.0000
 42
0.4142
  0
VERTEX
  8
21
 10
35.2496
 20
-3.2371
 30
0.0000
  0
SEQEND
  8
0
  0
POLYLINE
  8
21
 66
1
 10
0.0000
 20
0.0000
 30
0.0000
 40
0.0508
 41
0.0508
 70
0
  0
VERTEX
  8
21
 10
35.4838
 20
-3.4967
 30
0.0000
 42
1.0000
  0
VERTEX
  8
21
 10
35.5346
 20
-3.4967
 30
0.0000
  0
SEQEND
  8
0
  0
POLYLINE
  8
21
 66
1
 10
0.0000
 20
0.0000
 30
0.0000
 40
0.0508
 41
0.0508
 70
0
  0
VERTEX
  8
21
 10
35.2496
 20
-3.2117
 30
0.0000
 42
1.0000
  0
VERTEX
  8
21
 10
35.2496
 20
-3.2625
 30
0.0000
  0
SEQEND
  8
0
  0
POLYLINE
  8
21
 66
1
 10
0.0000
 20
0.0000
 30
0.0000
 40
0.1016
 41
0.1016
 70
0
  0
VERTEX
  8
21
 10
35.3469
 20
-3.8862
 30
0.0000
 42
0.2000
  0
VERTEX
  8
21
 10
35.5092
 20
-3.4967
 30
0.0000
  0
SEQEND
  8
0
  0
POLYLINE
  8
21
 66
1
 10
0.0000
 20
0.0000
 30
0.0000
 40
0.0508
 41
0.0508
 70
0
  0
VERTEX
  8
21
 10
35.3290
 20
-3.8682
 30
0.0000
 42
1.0000
  0
VERTEX
  8
21
 10
35.3648
 20
-3.9042
 30
0.0000
  0
SEQEND
  8
0
  0
POLYLINE
  8
21
 66
1
 10
0.0000
 20
0.0000
 30
0.0000
 40
0.0508
 41
0.0508
 70
0
  0
VERTEX
  8
21
 10
35.5346
 20
-3.4967
 30
0.0000
 42
1.0000
  0
VERTEX
  8
21
 10
35.4838
 20
-3.4967
 30
0.0000
  0
SEQEND
  8
0
  0
POLYLINE
  8
21
 66
1
 10
0.0000
 20
0.0000
 30
0.0000
 40
0.1016
 41
0.1016
 70
0
  0
VERTEX
  8
21
 10
34.3408
 20
-3.5941
 30
0.0000
 42
0.4142
  0
VERTEX
  8
21
 10
34.6004
 20
-3.8538
 30
0.0000
  0
SEQEND
  8
0
  0
POLYLINE
  8
21
 66
1
 10
0.0000
 20
0.0000
 30
0.0000
 40
0.0508
 41
0.0508
 70
0
  0
VERTEX
  8
21
 10
34.3662
 20
-3.5941
 30
0.0000
 42
1.0000
  0
VERTEX
  8
21
 10
34.3154
 20
-3.5941
 30
0.0000
  0
SEQEND
  8
0
  0
POLYLINE
  8
21
 66
1
 10
0.0000
 20
0.0000
 30
0.0000
 40
0.0508
 41
0.0508
 70
0
  0
VERTEX
  8
21
 10
34.6004
 20
-3.8792
 30
0.0000
 42
1.0000
  0
VERTEX
  8
21
 10
34.6004
 20
-3.8284
 30
0.0000
  0
SEQEND
  8
0
  0
POLYLINE
  8
21
 66
1
 10
0.0000
 20
0.0000
 30
0.0000
 40
0.1016
 41
0.1016
 70
0
  0
VERTEX
  8
21
 10
34.4382
 20
-3.3020
 30
0.0000
 42
0.1623
  0
VERTEX
  8
21
 10
34.3408
 20
-3.5941
 30
0.0000
  0
SEQEND
  8
0
  0
POLYLINE
  8
21
 66
1
 10
0.0000
 20
0.0000
 30
0.0000
 40
0.0508
 41
0.0508
 70
0
  0
VERTEX
  8
21
 10
34.4585
 20
-3.3172
 30
0.0000
 42
1.0000
  0
VERTEX
  8
21
 10
34.4178
 20
-3.2868
 30
0.0000
  0
SEQEND
  8
0
  0
POLYLINE
  8
21
 66
1
 10
0.0000
 20
0.0000
 30
0.0000
 40
0.0508
 41
0.0508
 70
0
  0
VERTEX
  8
21
 10
34.3154
 20
-3.5941
 30
0.0000
 42
1.0000
  0
VERTEX
  8
21
 10
34.3662
 20
-3.5941
 30
0.0000
  0
SEQEND
  8
0
  0
POLYLINE
  8
21
 66
1
 10
0.0000
 20
0.0000
 30
0.0000
 40
0.1016
 41
0.1016
 70
0
  0
VERTEX
  8
21
 10
34.6004
 20
-3.8538
 30
0.0000
 42
0.2656
  0
VERTEX
  8
21
 10
34.8276
 20
-3.7239
 30
0.0000
  0
SEQEND
  8
0
  0
POLYLINE
  8
21
 66
1
 10
0.0000
 20
0.0000
 30
0.0000
 40
0.0508
 41
0.0508
 70
0
  0
VERTEX
  8
21
 10
34.6004
 20
-3.8284
 30
0.0000
 42
1.0000
  0
VERTEX
  8
21
 10
34.6004
 20
-3.8791
 30
0.0000
  0
SEQEND
  8
0
  0
POLYLINE
  8
21
 66
1
 10
0.0000
 20
0.0000
 30
0.0000
 40
0.0508
 41
0.0508
 70
0
  0
VERTEX
  8
21
 10
34.8495
 20
-3.7368
 30
0.0000
 42
1.0000
  0
VERTEX
  8
21
 10
34.8058
 20
-3.7110
 30
0.0000
  0
SEQEND
  8
0
  0
POLYLINE
  8
21
 66
1
 10
0.0000
 20
0.0000
 30
0.0000
 40
0.1016
 41
0.1016
 70
0
  0
VERTEX
  8
21
 10
35.2496
 20
-3.2371
 30
0.0000
 42
0.2656
  0
VERTEX
  8
21
 10
35.0224
 20
-3.3669
 30
0.0000
  0
SEQEND
  8
0
  0
POLYLINE
  8
21
 66
1
 10
0.0000
 20
0.0000
 30
0.0000
 40
0.0508
 41
0.0508
 70
0
  0
VERTEX
  8
21
 10
35.2496
 20
-3.2625
 30
0.0000
 42
1.0000
  0
VERTEX
  8
21
 10
35.2496
 20
-3.2117
 30
0.0000
  0
SEQEND
  8
0
  0
POLYLINE
  8
21
 66
1
 10
0.0000
 20
0.0000
 30
0.0000
 40
0.0508
 41
0.0508
 70
0
  0
VERTEX
  8
21
 10
35.0005
 20
-3.3540
 30
0.0000
 42
1.0000
  0
VERTEX
  8
21
 10
35.0443
 20
-3.3798
 30
0.0000
  0
SEQEND
  8
0
  0
POLYLINE
  8
21
 66
1
 10
0.0000
 20
0.0000
 30
0.0000
 40
0.1016
 41
0.1016
 70
0
  0
VERTEX
  8
21
 10
35.0224
 20
-3.3669
 30
0.0000
  0
VERTEX
  8
21
 10
34.8276
 20
-3.7239
 30
0.0000
  0
SEQEND
  8
0
  0
POLYLINE
  8
21
 66
1
 10
0.0000
 20
0.0000
 30
0.0000
 40
0.0508
 41
0.0508
 70
0
  0
VERTEX
  8
21
 10
34.8053
 20
-3.7118
 30
0.0000
 42
1.0000
  0
VERTEX
  8
21
 10
34.8499
 20
-3.7361
 30
0.0000
  0
SEQEND
  8
0
  0
POLYLINE
  8
21
 66
1
 10
0.0000
 20
0.0000
 30
0.0000
 40
0.0508
 41
0.0508
 70
0
  0
VERTEX
  8
21
 10
35.0447
 20
-3.3791
 30
0.0000
 42
1.0000
  0
VERTEX
  8
21
 10
35.0001
 20
-3.3548
 30
0.0000
  0
SEQEND
  8
0
  0
POLYLINE
  8
21
 66
1
 10
0.0000
 20
0.0000
 30
0.0000
 40
0.1016
 41
0.1016
 70
0
  0
VERTEX
  8
21
 10
34.8601
 20
-2.7263
 30
0.0000
  0
VERTEX
  8
21
 10
34.8601
 20
-2.4017
 30
0.0000
  0
SEQEND
  8
0
  0
POLYLINE
  8
21
 66
1
 10
0.0000
 20
0.0000
 30
0.0000
 40
0.0508
 41
0.0508
 70
0
  0
VERTEX
  8
21
 10
34.8855
 20
-2.4017
 30
0.0000
 42
1.0000
  0
VERTEX
  8
21
 10
34.8347
 20
-2.4017
 30
0.0000
  0
SEQEND
  8
0
  0
POLYLINE
  8
21
 66
1
 10
0.0000
 20
0.0000
 30
0.0000
 40
0.0508
 41
0.0508
 70
0
  0
VERTEX
  8
21
 10
34.8347
 20
-2.7263
 30
0.0000
 42
1.0000
  0
VERTEX
  8
21
 10
34.8855
 20
-2.7263
 30
0.0000
  0
SEQEND
  8
0
  0
POLYLINE
  8
21
 66
1
 10
0.0000
 20
0.0000
 30
0.0000
 40
0.1016
 41
0.1016
 70
0
  0
VERTEX
  8
21
 10
35.5092
 20
-2.4017
 30
0.0000
 42
1.0000
  0
VERTEX
  8
21
 10
34.8601
 20
-2.4017
 30
0.0000
  0
SEQEND
  8
0
  0
POLYLINE
  8
21
 66
1
 10
0.0000
 20
0.0000
 30
0.0000
 40
0.0508
 41
0.0508
 70
0
  0
VERTEX
  8
21
 10
35.4838
 20
-2.4017
 30
0.0000
 42
1.0000
  0
VERTEX
  8
21
 10
35.5346
 20
-2.4017
 30
0.0000
  0
SEQEND
  8
0
  0
POLYLINE
  8
21
 66
1
 10
0.0000
 20
0.0000
 30
0.0000
 40
0.0508
 41
0.0508
 70
0
  0
VERTEX
  8
21
 10
34.8347
 20
-2.4017
 30
0.0000
 42
1.0000
  0
VERTEX
  8
21
 10
34.8855
 20
-2.4017
 30
0.0000
  0
SEQEND
  8
0
  0
POLYLINE
  8
21
 66
1
 10
0.0000
 20
0.0000
 30
0.0000
 40
0.1016
 41
0.1016
 70
0
  0
VERTEX
  8
21
 10
35.5092
 20
-2.4017
 30
0.0000
  0
VERTEX
  8
21
 10
35.5092
 20
-2.7263
 30
0.0000
  0
SEQEND
  8
0
  0
POLYLINE
  8
21
 66
1
 10
0.0000
 20
0.0000
 30
0.0000
 40
0.0508
 41
0.0508
 70
0
  0
VERTEX
  8
21
 10
35.4838
 20
-2.7263
 30
0.0000
 42
1.0000
  0
VERTEX
  8
21
 10
35.5346
 20
-2.7263
 30
0.0000
  0
SEQEND
  8
0
  0
POLYLINE
  8
21
 66
1
 10
0.0000
 20
0.0000
 30
0.0000
 40
0.0508
 41
0.0508
 70
0
  0
VERTEX
  8
21
 10
35.5346
 20
-2.4017
 30
0.0000
 42
1.0000
  0
VERTEX
  8
21
 10
35.4838
 20
-2.4017
 30
0.0000
  0
SEQEND
  8
0
  0
POLYLINE
  8
21
 66
1
 10
0.0000
 20
0.0000
 30
0.0000
 40
0.1016
 41
0.1016
 70
0
  0
VERTEX
  8
21
 10
35.5092
 20
-2.7263
 30
0.0000
  0
VERTEX
  8
21
 10
34.3408
 20
-2.7263
 30
0.0000
  0
SEQEND
  8
0
  0
POLYLINE
  8
21
 66
1
 10
0.0000
 20
0.0000
 30
0.0000
 40
0.0508
 41
0.0508
 70
0
  0
VERTEX
  8
21
 10
34.3408
 20
-2.7009
 30
0.0000
 42
1.0000
  0
VERTEX
  8
21
 10
34.3408
 20
-2.7517
 30
0.0000
  0
SEQEND
  8
0
  0
POLYLINE
  8
21
 66
1
 10
0.0000
 20
0.0000
 30
0.0000
 40
0.0508
 41
0.0508
 70
0
  0
VERTEX
  8
21
 10
35.5092
 20
-2.7517
 30
0.0000
 42
1.0000
  0
VERTEX
  8
21
 10
35.5092
 20
-2.7009
 30
0.0000
  0
SEQEND
  8
0
  0
POLYLINE
  8
21
 66
1
 10
0.0000
 20
0.0000
 30
0.0000
 40
0.1016
 41
0.1016
 70
0
  0
VERTEX
  8
21
 10
34.3408
 20
-2.7263
 30
0.0000
  0
VERTEX
  8
21
 10
34.3408
 20
-2.4017
 30
0.0000
  0
SEQEND
  8
0
  0
POLYLINE
  8
21
 66
1
 10
0.0000
 20
0.0000
 30
0.0000
 40
0.0508
 41
0.0508
 70
0
  0
VERTEX
  8
21
 10
34.3662
 20
-2.4017
 30
0.0000
 42
1.0000
  0
VERTEX
  8
21
 10
34.3154
 20
-2.4017
 30
0.0000
  0
SEQEND
  8
0
  0
POLYLINE
  8
21
 66
1
 10
0.0000
 20
0.0000
 30
0.0000
 40
0.0508
 41
0.0508
 70
0
  0
VERTEX
  8
21
 10
34.3154
 20
-2.7263
 30
0.0000
 42
1.0000
  0
VERTEX
  8
21
 10
34.3662
 20
-2.7263
 30
0.0000
  0
SEQEND
  8
0
  0
POLYLINE
  8
21
 66
1
 10
0.0000
 20
0.0000
 30
0.0000
 40
0.1016
 41
0.1016
 70
0
  0
VERTEX
  8
21
 10
34.8601
 20
-2.4017
 30
0.0000
 42
1.0000
  0
VERTEX
  8
21
 10
34.3408
 20
-2.4017
 30
0.0000
  0
SEQEND
  8
0
  0
POLYLINE
  8
21
 66
1
 10
0.0000
 20
0.0000
 30
0.0000
 40
0.0508
 41
0.0508
 70
0
  0
VERTEX
  8
21
 10
34.8347
 20
-2.4017
 30
0.0000
 42
1.0000
  0
VERTEX
  8
21
 10
34.8855
 20
-2.4017
 30
0.0000
  0
SEQEND
  8
0
  0
POLYLINE
  8
21
 66
1
 10
0.0000
 20
0.0000
 30
0.0000
 40
0.0508
 41
0.0508
 70
0
  0
VERTEX
  8
21
 10
34.3154
 20
-2.4017
 30
0.0000
 42
1.0000
  0
VERTEX
  8
21
 10
34.3662
 20
-2.4017
 30
0.0000
  0
SEQEND
  8
0
  0
POLYLINE
  8
21
 66
1
 10
0.0000
 20
0.0000
 30
0.0000
 40
0.1016
 41
0.1016
 70
0
  0
VERTEX
  8
21
 10
58.3692
 20
-5.4751
 30
0.0000
  0
VERTEX
  8
21
 10
57.2008
 20
-5.4751
 30
0.0000
  0
SEQEND
  8
0
  0
POLYLINE
  8
21
 66
1
 10
0.0000
 20
0.0000
 30
0.0000
 40
0.0508
 41
0.0508
 70
0
  0
VERTEX
  8
21
 10
57.2008
 20
-5.4497
 30
0.0000
 42
1.0000
  0
VERTEX
  8
21
 10
57.2008
 20
-5.5005
 30
0.0000
  0
SEQEND
  8
0
  0
POLYLINE
  8
21
 66
1
 10
0.0000
 20
0.0000
 30
0.0000
 40
0.0508
 41
0.0508
 70
0
  0
VERTEX
  8
21
 10
58.3692
 20
-5.5005
 30
0.0000
 42
1.0000
  0
VERTEX
  8
21
 10
58.3692
 20
-5.4497
 30
0.0000
  0
SEQEND
  8
0
  0
POLYLINE
  8
21
 66
1
 10
0.0000
 20
0.0000
 30
0.0000
 40
0.1016
 41
0.1016
 70
0
  0
VERTEX
  8
21
 10
57.2008
 20
-5.4751
 30
0.0000
  0
VERTEX
  8
21
 10
57.2008
 20
-5.1505
 30
0.0000
  0
SEQEND
  8
0
  0
POLYLINE
  8
21
 66
1
 10
0.0000
 20
0.0000
 30
0.0000
 40
0.0508
 41
0.0508
 70
0
  0
VERTEX
  8
21
 10
57.2262
 20
-5.1505
 30
0.0000
 42
1.0000
  0
VERTEX
  8
21
 10
57.1754
 20
-5.1505
 30
0.0000
  0
SEQEND
  8
0
  0
POLYLINE
  8
21
 66
1
 10
0.0000
 20
0.0000
 30
0.0000
 40
0.0508
 41
0.0508
 70
0
  0
VERTEX
  8
21
 10
57.1754
 20
-5.4751
 30
0.0000
 42
1.0000
  0
VERTEX
  8
21
 10
57.2262
 20
-5.4751
 30
0.0000
  0
SEQEND
  8
0
  0
POLYLINE
  8
21
 66
1
 10
0.0000
 20
0.0000
 30
0.0000
 40
0.1016
 41
0.1016
 70
0
  0
VERTEX
  8
21
 10
57.8499
 20
-5.1505
 30
0.0000
 42
1.0000
  0
VERTEX
  8
21
 10
57.2008
 20
-5.1505
 30
0.0000
  0
SEQEND
  8
0
  0
POLYLINE
  8
21
 66
1
 10
0.0000
 20
0.0000
 30
0.0000
 40
0.0508
 41
0.0508
 70
0
  0
VERTEX
  8
21
 10
57.8245
 20
-5.1505
 30
0.0000
 42
1.0000
  0
VERTEX
  8
21
 10
57.8753
 20
-5.1505
 30
0.0000
  0
SEQEND
  8
0
  0
POLYLINE
  8
21
 66
1
 10
0.0000
 20
0.0000
 30
0.0000
 40
0.0508
 41
0.0508
 70
0
  0
VERTEX
  8
21
 10
57.1754
 20
-5.1505
 30
0.0000
 42
1.0000
  0
VERTEX
  8
21
 10
57.2262
 20
-5.1505
 30
0.0000
  0
SEQEND
  8
0
  0
POLYLINE
  8
21
 66
1
 10
0.0000
 20
0.0000
 30
0.0000
 40
0.1016
 41
0.1016
 70
0
  0
VERTEX
  8
21
 10
57.8499
 20
-5.1505
 30
0.0000
  0
VERTEX
  8
21
 10
57.8499
 20
-5.4751
 30
0.0000
  0
SEQEND
  8
0
  0
POLYLINE
  8
21
 66
1
 10
0.0000
 20
0.0000
 30
0.0000
 40
0.0508
 41
0.0508
 70
0
  0
VERTEX
  8
21
 10
57.8245
 20
-5.4751
 30
0.0000
 42
1.0000
  0
VERTEX
  8
21
 10
57.8753
 20
-5.4751
 30
0.0000
  0
SEQEND
  8
0
  0
POLYLINE
  8
21
 66
1
 10
0.0000
 20
0.0000
 30
0.0000
 40
0.0508
 41
0.0508
 70
0
  0
VERTEX
  8
21
 10
57.8753
 20
-5.1505
 30
0.0000
 42
1.0000
  0
VERTEX
  8
21
 10
57.8245
 20
-5.1505
 30
0.0000
  0
SEQEND
  8
0
  0
POLYLINE
  8
21
 66
1
 10
0.0000
 20
0.0000
 30
0.0000
 40
0.1016
 41
0.1016
 70
0
  0
VERTEX
  8
21
 10
57.2008
 20
-4.4295
 30
0.0000
  0
VERTEX
  8
21
 10
58.3692
 20
-4.1698
 30
0.0000
  0
SEQEND
  8
0
  0
POLYLINE
  8
21
 66
1
 10
0.0000
 20
0.0000
 30
0.0000
 40
0.0508
 41
0.0508
 70
0
  0
VERTEX
  8
21
 10
58.3747
 20
-4.1946
 30
0.0000
 42
1.0000
  0
VERTEX
  8
21
 10
58.3637
 20
-4.1450
 30
0.0000
  0
SEQEND
  8
0
  0
POLYLINE
  8
21
 66
1
 10
0.0000
 20
0.0000
 30
0.0000
 40
0.0508
 41
0.0508
 70
0
  0
VERTEX
  8
21
 10
57.1953
 20
-4.4047
 30
0.0000
 42
1.0000
  0
VERTEX
  8
21
 10
57.2063
 20
-4.4543
 30
0.0000
  0
SEQEND
  8
0
  0
POLYLINE
  8
21
 66
1
 10
0.0000
 20
0.0000
 30
0.0000
 40
0.1016
 41
0.1016
 70
0
  0
VERTEX
  8
21
 10
58.3692
 20
-4.1698
 30
0.0000
  0
VERTEX
  8
21
 10
57.5903
 20
-3.9102
 30
0.0000
  0
SEQEND
  8
0
  0
POLYLINE
  8
21
 66
1
 10
0.0000
 20
0.0000
 30
0.0000
 40
0.0508
 41
0.0508
 70
0
  0
VERTEX
  8
21
 10
57.5983
 20
-3.8861
 30
0.0000
 42
1.0000
  0
VERTEX
  8
21
 10
57.5822
 20
-3.9343
 30
0.0000
  0
SEQEND
  8
0
  0
POLYLINE
  8
21
 66
1
 10
0.0000
 20
0.0000
 30
0.0000
 40
0.0508
 41
0.0508
 70
0
  0
VERTEX
  8
21
 10
58.3612
 20
-4.1939
 30
0.0000
 42
1.0000
  0
VERTEX
  8
21
 10
58.3772
 20
-4.1457
 30
0.0000
  0
SEQEND
  8
0
  0
POLYLINE
  8
21
 66
1
 10
0.0000
 20
0.0000
 30
0.0000
 40
0.1016
 41
0.1016
 70
0
  0
VERTEX
  8
21
 10
57.5903
 20
-3.9102
 30
0.0000
  0
VERTEX
  8
21
 10
58.3692
 20
-3.6505
 30
0.0000
  0
SEQEND
  8
0
  0
POLYLINE
  8
21
 66
1
 10
0.0000
 20
0.0000
 30
0.0000
 40
0.0508
 41
0.0508
 70
0
  0
VERTEX
  8
21
 10
58.3772
 20
-3.6746
 30
0.0000
 42
1.0000
  0
VERTEX
  8
21
 10
58.3612
 20
-3.6264
 30
0.0000
  0
SEQEND
  8
0
  0
POLYLINE
  8
21
 66
1
 10
0.0000
 20
0.0000
 30
0.0000
 40
0.0508
 41
0.0508
 70
0
  0
VERTEX
  8
21
 10
57.5822
 20
-3.8861
 30
0.0000
 42
1.0000
  0
VERTEX
  8
21
 10
57.5983
 20
-3.9343
 30
0.0000
  0
SEQEND
  8
0
  0
POLYLINE
  8
21
 66
1
 10
0.0000
 20
0.0000
 30
0.0000
 40
0.1016
 41
0.1016
 70
0
  0
VERTEX
  8
21
 10
58.3692
 20
-3.6505
 30
0.0000
  0
VERTEX
  8
21
 10
57.2008
 20
-3.3909
 30
0.0000
  0
SEQEND
  8
0
  0
POLYLINE
  8
21
 66
1
 10
0.0000
 20
0.0000
 30
0.0000
 40
0.0508
 41
0.0508
 70
0
  0
VERTEX
  8
21
 10
57.2063
 20
-3.3661
 30
0.0000
 42
1.0000
  0
VERTEX
  8
21
 10
57.1953
 20
-3.4157
 30
0.0000
  0
SEQEND
  8
0
  0
POLYLINE
  8
21
 66
1
 10
0.0000
 20
0.0000
 30
0.0000
 40
0.0508
 41
0.0508
 70
0
  0
VERTEX
  8
21
 10
58.3637
 20
-3.6753
 30
0.0000
 42
1.0000
  0
VERTEX
  8
21
 10
58.3747
 20
-3.6257
 30
0.0000
  0
SEQEND
  8
0
  0
POLYLINE
  8
21
 66
1
 10
0.0000
 20
0.0000
 30
0.0000
 40
0.1016
 41
0.1016
 70
0
  0
VERTEX
  8
21
 10
58.3692
 20
-2.8939
 30
0.0000
  0
VERTEX
  8
21
 10
57.2008
 20
-2.8939
 30
0.0000
  0
SEQEND
  8
0
  0
POLYLINE
  8
21
 66
1
 10
0.0000
 20
0.0000
 30
0.0000
 40
0.0508
 41
0.0508
 70
0
  0
VERTEX
  8
21
 10
57.2008
 20
-2.8685
 30
0.0000
 42
1.0000
  0
VERTEX
  8
21
 10
57.2008
 20
-2.9193
 30
0.0000
  0
SEQEND
  8
0
  0
POLYLINE
  8
21
 66
1
 10
0.0000
 20
0.0000
 30
0.0000
 40
0.0508
 41
0.0508
 70
0
  0
VERTEX
  8
21
 10
58.3692
 20
-2.9193
 30
0.0000
 42
1.0000
  0
VERTEX
  8
21
 10
58.3692
 20
-2.8685
 30
0.0000
  0
SEQEND
  8
0
  0
POLYLINE
  8
21
 66
1
 10
0.0000
 20
0.0000
 30
0.0000
 40
0.1016
 41
0.1016
 70
0
  0
VERTEX
  8
21
 10
57.2008
 20
-2.8939
 30
0.0000
  0
VERTEX
  8
21
 10
57.2008
 20
-2.5693
 30
0.0000
  0
SEQEND
  8
0
  0
POLYLINE
  8
21
 66
1
 10
0.0000
 20
0.0000
 30
0.0000
 40
0.0508
 41
0.0508
 70
0
  0
VERTEX
  8
21
 10
57.2262
 20
-2.5693
 30
0.0000
 42
1.0000
  0
VERTEX
  8
21
 10
57.1754
 20
-2.5693
 30
0.0000
  0
SEQEND
  8
0
  0
POLYLINE
  8
21
 66
1
 10
0.0000
 20
0.0000
 30
0.0000
 40
0.0508
 41
0.0508
 70
0
  0
VERTEX
  8
21
 10
57.1754
 20
-2.8939
 30
0.0000
 42
1.0000
  0
VERTEX
  8
21
 10
57.2262
 20
-2.8939
 30
0.0000
  0
SEQEND
  8
0
  0
POLYLINE
  8
21
 66
1
 10
0.0000
 20
0.0000
 30
0.0000
 40
0.1016
 41
0.1016
 70
0
  0
VERTEX
  8
21
 10
57.8499
 20
-2.5693
 30
0.0000
 42
1.0000
  0
VERTEX
  8
21
 10
57.2008
 20
-2.5693
 30
0.0000
  0
SEQEND
  8
0
  0
POLYLINE
  8
21
 66
1
 10
0.0000
 20
0.0000
 30
0.0000
 40
0.0508
 41
0.0508
 70
0
  0
VERTEX
  8
21
 10
57.8245
 20
-2.5693
 30
0.0000
 42
1.0000
  0
VERTEX
  8
21
 10
57.8753
 20
-2.5693
 30
0.0000
  0
SEQEND
  8
0
  0
POLYLINE
  8
21
 66
1
 10
0.0000
 20
0.0000
 30
0.0000
 40
0.0508
 41
0.0508
 70
0
  0
VERTEX
  8
21
 10
57.1754
 20
-2.5693
 30
0.0000
 42
1.0000
  0
VERTEX
  8
21
 10
57.2262
 20
-2.5693
 30
0.0000
  0
SEQEND
  8
0
  0
POLYLINE
  8
21
 66
1
 10
0.0000
 20
0.0000
 30
0.0000
 40
0.1016
 41
0.1016
 70
0
  0
VERTEX
  8
21
 10
57.8499
 20
-2.5693
 30
0.0000
  0
VERTEX
  8
21
 10
57.8499
 20
-2.8939
 30
0.0000
  0
SEQEND
  8
0
  0
POLYLINE
  8
21
 66
1
 10
0.0000
 20
0.0000
 30
0.0000
 40
0.0508
 41
0.0508
 70
0
  0
VERTEX
  8
21
 10
57.8245
 20
-2.8939
 30
0.0000
 42
1.0000
  0
VERTEX
  8
21
 10
57.8753
 20
-2.8939
 30
0.0000
  0
SEQEND
  8
0
  0
POLYLINE
  8
21
 66
1
 10
0.0000
 20
0.0000
 30
0.0000
 40
0.0508
 41
0.0508
 70
0
  0
VERTEX
  8
21
 10
57.8753
 20
-2.5693
 30
0.0000
 42
1.0000
  0
VERTEX
  8
21
 10
57.8245
 20
-2.5693
 30
0.0000
  0
SEQEND
  8
0
  0
POLYLINE
  8
21
 66
1
 10
0.0000
 20
0.0000
 30
0.0000
 40
0.1016
 41
0.1016
 70
0
  0
VERTEX
  8
21
 10
58.3692
 20
-2.2448
 30
0.0000
  0
VERTEX
  8
21
 10
57.8499
 20
-2.5044
 30
0.0000
  0
SEQEND
  8
0
  0
POLYLINE
  8
21
 66
1
 10
0.0000
 20
0.0000
 30
0.0000
 40
0.0508
 41
0.0508
 70
0
  0
VERTEX
  8
21
 10
57.8386
 20
-2.4817
 30
0.0000
 42
1.0000
  0
VERTEX
  8
21
 10
57.8613
 20
-2.5271
 30
0.0000
  0
SEQEND
  8
0
  0
POLYLINE
  8
21
 66
1
 10
0.0000
 20
0.0000
 30
0.0000
 40
0.0508
 41
0.0508
 70
0
  0
VERTEX
  8
21
 10
58.3806
 20
-2.2675
 30
0.0000
 42
1.0000
  0
VERTEX
  8
21
 10
58.3578
 20
-2.2220
 30
0.0000
  0
SEQEND
  8
0
  0
POLYLINE
  8
21
 66
1
 10
0.0000
 20
0.0000
 30
0.0000
 40
0.1016
 41
0.1016
 70
0
  0
VERTEX
  8
21
 10
58.4990
 20
-1.8076
 30
0.0000
  0
VERTEX
  8
21
 10
58.4990
 20
-1.2883
 30
0.0000
  0
SEQEND
  8
0
  0
POLYLINE
  8
21
 66
1
 10
0.0000
 20
0.0000
 30
0.0000
 40
0.0508
 41
0.0508
 70
0
  0
VERTEX
  8
21
 10
58.5244
 20
-1.2883
 30
0.0000
 42
1.0000
  0
VERTEX
  8
21
 10
58.4736
 20
-1.2883
 30
0.0000
  0
SEQEND
  8
0
  0
POLYLINE
  8
21
 66
1
 10
0.0000
 20
0.0000
 30
0.0000
 40
0.0508
 41
0.0508
 70
0
  0
VERTEX
  8
21
 10
58.4736
 20
-1.8076
 30
0.0000
 42
1.0000
  0
VERTEX
  8
21
 10
58.5244
 20
-1.8076
 30
0.0000
  0
SEQEND
  8
0
  0
POLYLINE
  8
21
 66
1
 10
0.0000
 20
0.0000
 30
0.0000
 40
0.1016
 41
0.1016
 70
0
  0
VERTEX
  8
21
 10
58.3692
 20
-0.4925
 30
0.0000
 42
0.4142
  0
VERTEX
  8
21
 10
58.1096
 20
-0.2328
 30
0.0000
  0
SEQEND
  8
0
  0
POLYLINE
  8
21
 66
1
 10
0.0000
 20
0.0000
 30
0.0000
 40
0.0508
 41
0.0508
 70
0
  0
VERTEX
  8
21
 10
58.3438
 20
-0.4925
 30
0.0000
 42
1.0000
  0
VERTEX
  8
21
 10
58.3946
 20
-0.4925
 30
0.0000
  0
SEQEND
  8
0
  0
POLYLINE
  8
21
 66
1
 10
0.0000
 20
0.0000
 30
0.0000
 40
0.0508
 41
0.0508
 70
0
  0
VERTEX
  8
21
 10
58.1096
 20
-0.2074
 30
0.0000
 42
1.0000
  0
VERTEX
  8
21
 10
58.1096
 20
-0.2582
 30
0.0000
  0
SEQEND
  8
0
  0
POLYLINE
  8
21
 66
1
 10
0.0000
 20
0.0000
 30
0.0000
 40
0.1016
 41
0.1016
 70
0
  0
VERTEX
  8
21
 10
58.2069
 20
-0.8819
 30
0.0000
 42
0.2000
  0
VERTEX
  8
21
 10
58.3692
 20
-0.4925
 30
0.0000
  0
SEQEND
  8
0
  0
POLYLINE
  8
21
 66
1
 10
0.0000
 20
0.0000
 30
0.0000
 40
0.0508
 41
0.0508
 70
0
  0
VERTEX
  8
21
 10
58.1890
 20
-0.8639
 30
0.0000
 42
1.0000
  0
VERTEX
  8
21
 10
58.2248
 20
-0.9000
 30
0.0000
  0
SEQEND
  8
0
  0
POLYLINE
  8
21
 66
1
 10
0.0000
 20
0.0000
 30
0.0000
 40
0.0508
 41
0.0508
 70
0
  0
VERTEX
  8
21
 10
58.3946
 20
-0.4925
 30
0.0000
 42
1.0000
  0
VERTEX
  8
21
 10
58.3438
 20
-0.4925
 30
0.0000
  0
SEQEND
  8
0
  0
POLYLINE
  8
21
 66
1
 10
0.0000
 20
0.0000
 30
0.0000
 40
0.1016
 41
0.1016
 70
0
  0
VERTEX
  8
21
 10
57.2008
 20
-0.5898
 30
0.0000
 42
0.4142
  0
VERTEX
  8
21
 10
57.4604
 20
-0.8495
 30
0.0000
  0
SEQEND
  8
0
  0
POLYLINE
  8
21
 66
1
 10
0.0000
 20
0.0000
 30
0.0000
 40
0.0508
 41
0.0508
 70
0
  0
VERTEX
  8
21
 10
57.2262
 20
-0.5898
 30
0.0000
 42
1.0000
  0
VERTEX
  8
21
 10
57.1754
 20
-0.5898
 30
0.0000
  0
SEQEND
  8
0
  0
POLYLINE
  8
21
 66
1
 10
0.0000
 20
0.0000
 30
0.0000
 40
0.0508
 41
0.0508
 70
0
  0
VERTEX
  8
21
 10
57.4604
 20
-0.8749
 30
0.0000
 42
1.0000
  0
VERTEX
  8
21
 10
57.4604
 20
-0.8241
 30
0.0000
  0
SEQEND
  8
0
  0
POLYLINE
  8
21
 66
1
 10
0.0000
 20
0.0000
 30
0.0000
 40
0.1016
 41
0.1016
 70
0
  0
VERTEX
  8
21
 10
57.2982
 20
-0.2977
 30
0.0000
 42
0.1623
  0
VERTEX
  8
21
 10
57.2008
 20
-0.5898
 30
0.0000
  0
SEQEND
  8
0
  0
POLYLINE
  8
21
 66
1
 10
0.0000
 20
0.0000
 30
0.0000
 40
0.0508
 41
0.0508
 70
0
  0
VERTEX
  8
21
 10
57.3185
 20
-0.3130
 30
0.0000
 42
1.0000
  0
VERTEX
  8
21
 10
57.2778
 20
-0.2825
 30
0.0000
  0
SEQEND
  8
0
  0
POLYLINE
  8
21
 66
1
 10
0.0000
 20
0.0000
 30
0.0000
 40
0.0508
 41
0.0508
 70
0
  0
VERTEX
  8
21
 10
57.1754
 20
-0.5898
 30
0.0000
 42
1.0000
  0
VERTEX
  8
21
 10
57.2262
 20
-0.5898
 30
0.0000
  0
SEQEND
  8
0
  0
POLYLINE
  8
21
 66
1
 10
0.0000
 20
0.0000
 30
0.0000
 40
0.1016
 41
0.1016
 70
0
  0
VERTEX
  8
21
 10
57.4604
 20
-0.8495
 30
0.0000
 42
0.2656
  0
VERTEX
  8
21
 10
57.6876
 20
-0.7197
 30
0.0000
  0
SEQEND
  8
0
  0
POLYLINE
  8
21
 66
1
 10
0.0000
 20
0.0000
 30
0.0000
 40
0.0508
 41
0.0508
 70
0
  0
VERTEX
  8
21
 10
57.4604
 20
-0.8241
 30
0.0000
 42
1.0000
  0
VERTEX
  8
21
 10
57.4604
 20
-0.8749
 30
0.0000
  0
SEQEND
  8
0
  0
POLYLINE
  8
21
 66
1
 10
0.0000
 20
0.0000
 30
0.0000
 40
0.0508
 41
0.0508
 70
0
  0
VERTEX
  8
21
 10
57.7095
 20
-0.7326
 30
0.0000
 42
1.0000
  0
VERTEX
  8
21
 10
57.6658
 20
-0.7068
 30
0.0000
  0
SEQEND
  8
0
  0
POLYLINE
  8
21
 66
1
 10
0.0000
 20
0.0000
 30
0.0000
 40
0.1016
 41
0.1016
 70
0
  0
VERTEX
  8
21
 10
58.1096
 20
-0.2328
 30
0.0000
 42
0.2656
  0
VERTEX
  8
21
 10
57.8824
 20
-0.3627
 30
0.0000
  0
SEQEND
  8
0
  0
POLYLINE
  8
21
 66
1
 10
0.0000
 20
0.0000
 30
0.0000
 40
0.0508
 41
0.0508
 70
0
  0
VERTEX
  8
21
 10
58.1096
 20
-0.2582
 30
0.0000
 42
1.0000
  0
VERTEX
  8
21
 10
58.1096
 20
-0.2074
 30
0.0000
  0
SEQEND
  8
0
  0
POLYLINE
  8
21
 66
1
 10
0.0000
 20
0.0000
 30
0.0000
 40
0.0508
 41
0.0508
 70
0
  0
VERTEX
  8
21
 10
57.8605
 20
-0.3498
 30
0.0000
 42
1.0000
  0
VERTEX
  8
21
 10
57.9043
 20
-0.3755
 30
0.0000
  0
SEQEND
  8
0
  0
POLYLINE
  8
21
 66
1
 10
0.0000
 20
0.0000
 30
0.0000
 40
0.1016
 41
0.1016
 70
0
  0
VERTEX
  8
21
 10
57.8824
 20
-0.3627
 30
0.0000
  0
VERTEX
  8
21
 10
57.6876
 20
-0.7197
 30
0.0000
  0
SEQEND
  8
0
  0
POLYLINE
  8
21
 66
1
 10
0.0000
 20
0.0000
 30
0.0000
 40
0.0508
 41
0.0508
 70
0
  0
VERTEX
  8
21
 10
57.6653
 20
-0.7075
 30
0.0000
 42
1.0000
  0
VERTEX
  8
21
 10
57.7099
 20
-0.7318
 30
0.0000
  0
SEQEND
  8
0
  0
POLYLINE
  8
21
 66
1
 10
0.0000
 20
0.0000
 30
0.0000
 40
0.0508
 41
0.0508
 70
0
  0
VERTEX
  8
21
 10
57.9047
 20
-0.3748
 30
0.0000
 42
1.0000
  0
VERTEX
  8
21
 10
57.8601
 20
-0.3505
 30
0.0000
  0
SEQEND
  8
0
  0
POLYLINE
  8
21
 66
1
 10
0.0000
 20
0.0000
 30
0.0000
 40
0.1016
 41
0.1016
 70
0
  0
VERTEX
  8
21
 10
57.2008
 20
0.1806
 30
0.0000
  0
VERTEX
  8
21
 10
58.3692
 20
0.4403
 30
0.0000
  0
SEQEND
  8
0
  0
POLYLINE
  8
21
 66
1
 10
0.0000
 20
0.0000
 30
0.0000
 40
0.0508
 41
0.0508
 70
0
  0
VERTEX
  8
21
 10
58.3747
 20
0.4155
 30
0.0000
 42
1.0000
  0
VERTEX
  8
21
 10
58.3637
 20
0.4651
 30
0.0000
  0
SEQEND
  8
0
  0
POLYLINE
  8
21
 66
1
 10
0.0000
 20
0.0000
 30
0.0000
 40
0.0508
 41
0.0508
 70
0
  0
VERTEX
  8
21
 10
57.1953
 20
0.2054
 30
0.0000
 42
1.0000
  0
VERTEX
  8
21
 10
57.2063
 20
0.1558
 30
0.0000
  0
SEQEND
  8
0
  0
POLYLINE
  8
21
 66
1
 10
0.0000
 20
0.0000
 30
0.0000
 40
0.1016
 41
0.1016
 70
0
  0
VERTEX
  8
21
 10
58.3692
 20
0.4403
 30
0.0000
  0
VERTEX
  8
21
 10
57.5903
 20
0.6999
 30
0.0000
  0
SEQEND
  8
0
  0
POLYLINE
  8
21
 66
1
 10
0.0000
 20
0.0000
 30
0.0000
 40
0.0508
 41
0.0508
 70
0
  0
VERTEX
  8
21
 10
57.5983
 20
0.7240
 30
0.0000
 42
1.0000
  0
VERTEX
  8
21
 10
57.5822
 20
0.6758
 30
0.0000
  0
SEQEND
  8
0
  0
POLYLINE
  8
21
 66
1
 10
0.0000
 20
0.0000
 30
0.0000
 40
0.0508
 41
0.0508
 70
0
  0
VERTEX
  8
21
 10
58.3612
 20
0.4162
 30
0.0000
 42
1.0000
  0
VERTEX
  8
21
 10
58.3772
 20
0.4644
 30
0.0000
  0
SEQEND
  8
0
  0
POLYLINE
  8
21
 66
1
 10
0.0000
 20
0.0000
 30
0.0000
 40
0.1016
 41
0.1016
 70
0
  0
VERTEX
  8
21
 10
57.5903
 20
0.6999
 30
0.0000
  0
VERTEX
  8
21
 10
58.3692
 20
0.9596
 30
0.0000
  0
SEQEND
  8
0
  0
POLYLINE
  8
21
 66
1
 10
0.0000
 20
0.0000
 30
0.0000
 40
0.0508
 41
0.0508
 70
0
  0
VERTEX
  8
21
 10
58.3772
 20
0.9355
 30
0.0000
 42
1.0000
  0
VERTEX
  8
21
 10
58.3612
 20
0.9837
 30
0.0000
  0
SEQEND
  8
0
  0
POLYLINE
  8
21
 66
1
 10
0.0000
 20
0.0000
 30
0.0000
 40
0.0508
 41
0.0508
 70
0
  0
VERTEX
  8
21
 10
57.5822
 20
0.7240
 30
0.0000
 42
1.0000
  0
VERTEX
  8
21
 10
57.5983
 20
0.6758
 30
0.0000
  0
SEQEND
  8
0
  0
POLYLINE
  8
21
 66
1
 10
0.0000
 20
0.0000
 30
0.0000
 40
0.1016
 41
0.1016
 70
0
  0
VERTEX
  8
21
 10
58.3692
 20
0.9596
 30
0.0000
  0
VERTEX
  8
21
 10
57.2008
 20
1.2192
 30
0.0000
  0
SEQEND
  8
0
  0
POLYLINE
  8
21
 66
1
 10
0.0000
 20
0.0000
 30
0.0000
 40
0.0508
 41
0.0508
 70
0
  0
VERTEX
  8
21
 10
57.2063
 20
1.2440
 30
0.0000
 42
1.0000
  0
VERTEX
  8
21
 10
57.1953
 20
1.1944
 30
0.0000
  0
SEQEND
  8
0
  0
POLYLINE
  8
21
 66
1
 10
0.0000
 20
0.0000
 30
0.0000
 40
0.0508
 41
0.0508
 70
0
  0
VERTEX
  8
21
 10
58.3637
 20
0.9348
 30
0.0000
 42
1.0000
  0
VERTEX
  8
21
 10
58.3747
 20
0.9844
 30
0.0000
  0
SEQEND
  8
0
  0
POLYLINE
  8
21
 66
1
 10
0.0000
 20
0.0000
 30
0.0000
 40
0.1016
 41
0.1016
 70
0
  0
VERTEX
  8
21
 10
36.8808
 20
74.0354
 30
0.0000
  0
VERTEX
  8
21
 10
36.8808
 20
74.5546
 30
0.0000
  0
SEQEND
  8
0
  0
POLYLINE
  8
21
 66
1
 10
0.0000
 20
0.0000
 30
0.0000
 40
0.0508
 41
0.0508
 70
0
  0
VERTEX
  8
21
 10
36.9062
 20
74.5546
 30
0.0000
 42
1.0000
  0
VERTEX
  8
21
 10
36.8554
 20
74.5546
 30
0.0000
  0
SEQEND
  8
0
  0
POLYLINE
  8
21
 66
1
 10
0.0000
 20
0.0000
 30
0.0000
 40
0.0508
 41
0.0508
 70
0
  0
VERTEX
  8
21
 10
36.8554
 20
74.0354
 30
0.0000
 42
1.0000
  0
VERTEX
  8
21
 10
36.9062
 20
74.0354
 30
0.0000
  0
SEQEND
  8
0
  0
POLYLINE
  8
21
 66
1
 10
0.0000
 20
0.0000
 30
0.0000
 40
0.1016
 41
0.1016
 70
0
  0
VERTEX
  8
21
 10
37.5299
 20
74.5546
 30
0.0000
 42
1.0000
  0
VERTEX
  8
21
 10
36.8808
 20
74.5546
 30
0.0000
  0
SEQEND
  8
0
  0
POLYLINE
  8
21
 66
1
 10
0.0000
 20
0.0000
 30
0.0000
 40
0.0508
 41
0.0508
 70
0
  0
VERTEX
  8
21
 10
37.5045
 20
74.5546
 30
0.0000
 42
1.0000
  0
VERTEX
  8
21
 10
37.5553
 20
74.5546
 30
0.0000
  0
SEQEND
  8
0
  0
POLYLINE
  8
21
 66
1
 10
0.0000
 20
0.0000
 30
0.0000
 40
0.0508
 41
0.0508
 70
0
  0
VERTEX
  8
21
 10
36.8554
 20
74.5546
 30
0.0000
 42
1.0000
  0
VERTEX
  8
21
 10
36.9062
 20
74.5546
 30
0.0000
  0
SEQEND
  8
0
  0
POLYLINE
  8
21
 66
1
 10
0.0000
 20
0.0000
 30
0.0000
 40
0.1016
 41
0.1016
 70
0
  0
VERTEX
  8
21
 10
37.5299
 20
74.5546
 30
0.0000
  0
VERTEX
  8
21
 10
37.5299
 20
74.0354
 30
0.0000
  0
SEQEND
  8
0
  0
POLYLINE
  8
21
 66
1
 10
0.0000
 20
0.0000
 30
0.0000
 40
0.0508
 41
0.0508
 70
0
  0
VERTEX
  8
21
 10
37.5045
 20
74.0354
 30
0.0000
 42
1.0000
  0
VERTEX
  8
21
 10
37.5553
 20
74.0354
 30
0.0000
  0
SEQEND
  8
0
  0
POLYLINE
  8
21
 66
1
 10
0.0000
 20
0.0000
 30
0.0000
 40
0.0508
 41
0.0508
 70
0
  0
VERTEX
  8
21
 10
37.5553
 20
74.5546
 30
0.0000
 42
1.0000
  0
VERTEX
  8
21
 10
37.5045
 20
74.5546
 30
0.0000
  0
SEQEND
  8
0
  0
POLYLINE
  8
21
 66
1
 10
0.0000
 20
0.0000
 30
0.0000
 40
0.1016
 41
0.1016
 70
0
  0
VERTEX
  8
21
 10
36.8808
 20
74.0354
 30
0.0000
 42
1.0000
  0
VERTEX
  8
21
 10
37.5299
 20
74.0354
 30
0.0000
  0
SEQEND
  8
0
  0
POLYLINE
  8
21
 66
1
 10
0.0000
 20
0.0000
 30
0.0000
 40
0.0508
 41
0.0508
 70
0
  0
VERTEX
  8
21
 10
36.9062
 20
74.0354
 30
0.0000
 42
1.0000
  0
VERTEX
  8
21
 10
36.8554
 20
74.0354
 30
0.0000
  0
SEQEND
  8
0
  0
POLYLINE
  8
21
 66
1
 10
0.0000
 20
0.0000
 30
0.0000
 40
0.0508
 41
0.0508
 70
0
  0
VERTEX
  8
21
 10
37.5553
 20
74.0354
 30
0.0000
 42
1.0000
  0
VERTEX
  8
21
 10
37.5045
 20
74.0354
 30
0.0000
  0
SEQEND
  8
0
  0
POLYLINE
  8
21
 66
1
 10
0.0000
 20
0.0000
 30
0.0000
 40
0.1016
 41
0.1016
 70
0
  0
VERTEX
  8
21
 10
38.0642
 20
74.8792
 30
0.0000
  0
VERTEX
  8
21
 10
38.0642
 20
73.7108
 30
0.0000
  0
SEQEND
  8
0
  0
POLYLINE
  8
21
 66
1
 10
0.0000
 20
0.0000
 30
0.0000
 40
0.0508
 41
0.0508
 70
0
  0
VERTEX
  8
21
 10
38.0388
 20
73.7108
 30
0.0000
 42
1.0000
  0
VERTEX
  8
21
 10
38.0896
 20
73.7108
 30
0.0000
  0
SEQEND
  8
0
  0
POLYLINE
  8
21
 66
1
 10
0.0000
 20
0.0000
 30
0.0000
 40
0.0508
 41
0.0508
 70
0
  0
VERTEX
  8
21
 10
38.0896
 20
74.8792
 30
0.0000
 42
1.0000
  0
VERTEX
  8
21
 10
38.0388
 20
74.8792
 30
0.0000
  0
SEQEND
  8
0
  0
POLYLINE
  8
21
 66
1
 10
0.0000
 20
0.0000
 30
0.0000
 40
0.1016
 41
0.1016
 70
0
  0
VERTEX
  8
21
 10
38.0642
 20
73.7108
 30
0.0000
  0
VERTEX
  8
21
 10
38.5834
 20
73.7108
 30
0.0000
  0
SEQEND
  8
0
  0
POLYLINE
  8
21
 66
1
 10
0.0000
 20
0.0000
 30
0.0000
 40
0.0508
 41
0.0508
 70
0
  0
VERTEX
  8
21
 10
38.5834
 20
73.6854
 30
0.0000
 42
1.0000
  0
VERTEX
  8
21
 10
38.5834
 20
73.7362
 30
0.0000
  0
SEQEND
  8
0
  0
POLYLINE
  8
21
 66
1
 10
0.0000
 20
0.0000
 30
0.0000
 40
0.0508
 41
0.0508
 70
0
  0
VERTEX
  8
21
 10
38.0642
 20
73.7362
 30
0.0000
 42
1.0000
  0
VERTEX
  8
21
 10
38.0642
 20
73.6854
 30
0.0000
  0
SEQEND
  8
0
  0
POLYLINE
  8
21
 66
1
 10
0.0000
 20
0.0000
 30
0.0000
 40
0.1016
 41
0.1016
 70
0
  0
VERTEX
  8
21
 10
39.5740
 20
73.7108
 30
0.0000
  0
VERTEX
  8
21
 10
39.0548
 20
73.7108
 30
0.0000
  0
SEQEND
  8
0
  0
POLYLINE
  8
21
 66
1
 10
0.0000
 20
0.0000
 30
0.0000
 40
0.0508
 41
0.0508
 70
0
  0
VERTEX
  8
21
 10
39.0548
 20
73.7362
 30
0.0000
 42
1.0000
  0
VERTEX
  8
21
 10
39.0548
 20
73.6854
 30
0.0000
  0
SEQEND
  8
0
  0
POLYLINE
  8
21
 66
1
 10
0.0000
 20
0.0000
 30
0.0000
 40
0.0508
 41
0.0508
 70
0
  0
VERTEX
  8
21
 10
39.5740
 20
73.6854
 30
0.0000
 42
1.0000
  0
VERTEX
  8
21
 10
39.5740
 20
73.7362
 30
0.0000
  0
SEQEND
  8
0
  0
POLYLINE
  8
21
 66
1
 10
0.0000
 20
0.0000
 30
0.0000
 40
0.1016
 41
0.1016
 70
0
  0
VERTEX
  8
21
 10
39.0548
 20
73.7108
 30
0.0000
  0
VERTEX
  8
21
 10
39.0548
 20
74.8792
 30
0.0000
  0
SEQEND
  8
0
  0
POLYLINE
  8
21
 66
1
 10
0.0000
 20
0.0000
 30
0.0000
 40
0.0508
 41
0.0508
 70
0
  0
VERTEX
  8
21
 10
39.0802
 20
74.8792
 30
0.0000
 42
1.0000
  0
VERTEX
  8
21
 10
39.0294
 20
74.8792
 30
0.0000
  0
SEQEND
  8
0
  0
POLYLINE
  8
21
 66
1
 10
0.0000
 20
0.0000
 30
0.0000
 40
0.0508
 41
0.0508
 70
0
  0
VERTEX
  8
21
 10
39.0294
 20
73.7108
 30
0.0000
 42
1.0000
  0
VERTEX
  8
21
 10
39.0802
 20
73.7108
 30
0.0000
  0
SEQEND
  8
0
  0
POLYLINE
  8
21
 66
1
 10
0.0000
 20
0.0000
 30
0.0000
 40
0.1016
 41
0.1016
 70
0
  0
VERTEX
  8
21
 10
39.0548
 20
74.8792
 30
0.0000
  0
VERTEX
  8
21
 10
39.5740
 20
74.8792
 30
0.0000
  0
SEQEND
  8
0
  0
POLYLINE
  8
21
 66
1
 10
0.0000
 20
0.0000
 30
0.0000
 40
0.0508
 41
0.0508
 70
0
  0
VERTEX
  8
21
 10
39.5740
 20
74.8538
 30
0.0000
 42
1.0000
  0
VERTEX
  8
21
 10
39.5740
 20
74.9046
 30
0.0000
  0
SEQEND
  8
0
  0
POLYLINE
  8
21
 66
1
 10
0.0000
 20
0.0000
 30
0.0000
 40
0.0508
 41
0.0508
 70
0
  0
VERTEX
  8
21
 10
39.0548
 20
74.9046
 30
0.0000
 42
1.0000
  0
VERTEX
  8
21
 10
39.0548
 20
74.8538
 30
0.0000
  0
SEQEND
  8
0
  0
POLYLINE
  8
21
 66
1
 10
0.0000
 20
0.0000
 30
0.0000
 40
0.1016
 41
0.1016
 70
0
  0
VERTEX
  8
21
 10
39.0548
 20
74.3599
 30
0.0000
  0
VERTEX
  8
21
 10
39.4442
 20
74.3599
 30
0.0000
  0
SEQEND
  8
0
  0
POLYLINE
  8
21
 66
1
 10
0.0000
 20
0.0000
 30
0.0000
 40
0.0508
 41
0.0508
 70
0
  0
VERTEX
  8
21
 10
39.4442
 20
74.3345
 30
0.0000
 42
1.0000
  0
VERTEX
  8
21
 10
39.4442
 20
74.3853
 30
0.0000
  0
SEQEND
  8
0
  0
POLYLINE
  8
21
 66
1
 10
0.0000
 20
0.0000
 30
0.0000
 40
0.0508
 41
0.0508
 70
0
  0
VERTEX
  8
21
 10
39.0548
 20
74.3853
 30
0.0000
 42
1.0000
  0
VERTEX
  8
21
 10
39.0548
 20
74.3345
 30
0.0000
  0
SEQEND
  8
0
  0
POLYLINE
  8
21
 66
1
 10
0.0000
 20
0.0000
 30
0.0000
 40
0.1016
 41
0.1016
 70
0
  0
VERTEX
  8
21
 10
40.0431
 20
73.7108
 30
0.0000
  0
VERTEX
  8
21
 10
40.0431
 20
74.8792
 30
0.0000
  0
SEQEND
  8
0
  0
POLYLINE
  8
21
 66
1
 10
0.0000
 20
0.0000
 30
0.0000
 40
0.0508
 41
0.0508
 70
0
  0
VERTEX
  8
21
 10
40.0685
 20
74.8792
 30
0.0000
 42
1.0000
  0
VERTEX
  8
21
 10
40.0177
 20
74.8792
 30
0.0000
  0
SEQEND
  8
0
  0
POLYLINE
  8
21
 66
1
 10
0.0000
 20
0.0000
 30
0.0000
 40
0.0508
 41
0.0508
 70
0
  0
VERTEX
  8
21
 10
40.0177
 20
73.7108
 30
0.0000
 42
1.0000
  0
VERTEX
  8
21
 10
40.0685
 20
73.7108
 30
0.0000
  0
SEQEND
  8
0
  0
POLYLINE
  8
21
 66
1
 10
0.0000
 20
0.0000
 30
0.0000
 40
0.1016
 41
0.1016
 70
0
  0
VERTEX
  8
21
 10
40.0431
 20
74.8792
 30
0.0000
  0
VERTEX
  8
21
 10
40.3677
 20
74.8792
 30
0.0000
  0
SEQEND
  8
0
  0
POLYLINE
  8
21
 66
1
 10
0.0000
 20
0.0000
 30
0.0000
 40
0.0508
 41
0.0508
 70
0
  0
VERTEX
  8
21
 10
40.3677
 20
74.8538
 30
0.0000
 42
1.0000
  0
VERTEX
  8
21
 10
40.3677
 20
74.9046
 30
0.0000
  0
SEQEND
  8
0
  0
POLYLINE
  8
21
 66
1
 10
0.0000
 20
0.0000
 30
0.0000
 40
0.0508
 41
0.0508
 70
0
  0
VERTEX
  8
21
 10
40.0431
 20
74.9046
 30
0.0000
 42
1.0000
  0
VERTEX
  8
21
 10
40.0431
 20
74.8538
 30
0.0000
  0
SEQEND
  8
0
  0
POLYLINE
  8
21
 66
1
 10
0.0000
 20
0.0000
 30
0.0000
 40
0.1016
 41
0.1016
 70
0
  0
VERTEX
  8
21
 10
40.6922
 20
74.5546
 30
0.0000
 42
0.4142
  0
VERTEX
  8
21
 10
40.3677
 20
74.8792
 30
0.0000
  0
SEQEND
  8
0
  0
POLYLINE
  8
21
 66
1
 10
0.0000
 20
0.0000
 30
0.0000
 40
0.0508
 41
0.0508
 70
0
  0
VERTEX
  8
21
 10
40.6668
 20
74.5546
 30
0.0000
 42
1.0000
  0
VERTEX
  8
21
 10
40.7176
 20
74.5546
 30
0.0000
  0
SEQEND
  8
0
  0
POLYLINE
  8
21
 66
1
 10
0.0000
 20
0.0000
 30
0.0000
 40
0.0508
 41
0.0508
 70
0
  0
VERTEX
  8
21
 10
40.3677
 20
74.9046
 30
0.0000
 42
1.0000
  0
VERTEX
  8
21
 10
40.3677
 20
74.8538
 30
0.0000
  0
SEQEND
  8
0
  0
POLYLINE
  8
21
 66
1
 10
0.0000
 20
0.0000
 30
0.0000
 40
0.1016
 41
0.1016
 70
0
  0
VERTEX
  8
21
 10
40.6922
 20
74.5546
 30
0.0000
  0
VERTEX
  8
21
 10
40.6922
 20
74.0354
 30
0.0000
  0
SEQEND
  8
0
  0
POLYLINE
  8
21
 66
1
 10
0.0000
 20
0.0000
 30
0.0000
 40
0.0508
 41
0.0508
 70
0
  0
VERTEX
  8
21
 10
40.6668
 20
74.0354
 30
0.0000
 42
1.0000
  0
VERTEX
  8
21
 10
40.7176
 20
74.0354
 30
0.0000
  0
SEQEND
  8
0
  0
POLYLINE
  8
21
 66
1
 10
0.0000
 20
0.0000
 30
0.0000
 40
0.0508
 41
0.0508
 70
0
  0
VERTEX
  8
21
 10
40.7176
 20
74.5546
 30
0.0000
 42
1.0000
  0
VERTEX
  8
21
 10
40.6668
 20
74.5546
 30
0.0000
  0
SEQEND
  8
0
  0
POLYLINE
  8
21
 66
1
 10
0.0000
 20
0.0000
 30
0.0000
 40
0.1016
 41
0.1016
 70
0
  0
VERTEX
  8
21
 10
40.3677
 20
73.7108
 30
0.0000
 42
0.4142
  0
VERTEX
  8
21
 10
40.6922
 20
74.0354
 30
0.0000
  0
SEQEND
  8
0
  0
POLYLINE
  8
21
 66
1
 10
0.0000
 20
0.0000
 30
0.0000
 40
0.0508
 41
0.0508
 70
0
  0
VERTEX
  8
21
 10
40.3677
 20
73.7362
 30
0.0000
 42
1.0000
  0
VERTEX
  8
21
 10
40.3676
 20
73.6854
 30
0.0000
  0
SEQEND
  8
0
  0
POLYLINE
  8
21
 66
1
 10
0.0000
 20
0.0000
 30
0.0000
 40
0.0508
 41
0.0508
 70
0
  0
VERTEX
  8
21
 10
40.7176
 20
74.0354
 30
0.0000
 42
1.0000
  0
VERTEX
  8
21
 10
40.6668
 20
74.0354
 30
0.0000
  0
SEQEND
  8
0
  0
POLYLINE
  8
21
 66
1
 10
0.0000
 20
0.0000
 30
0.0000
 40
0.1016
 41
0.1016
 70
0
  0
VERTEX
  8
21
 10
40.3677
 20
73.7108
 30
0.0000
  0
VERTEX
  8
21
 10
40.0431
 20
73.7108
 30
0.0000
  0
SEQEND
  8
0
  0
POLYLINE
  8
21
 66
1
 10
0.0000
 20
0.0000
 30
0.0000
 40
0.0508
 41
0.0508
 70
0
  0
VERTEX
  8
21
 10
40.0431
 20
73.7362
 30
0.0000
 42
1.0000
  0
VERTEX
  8
21
 10
40.0431
 20
73.6854
 30
0.0000
  0
SEQEND
  8
0
  0
POLYLINE
  8
21
 66
1
 10
0.0000
 20
0.0000
 30
0.0000
 40
0.0508
 41
0.0508
 70
0
  0
VERTEX
  8
21
 10
40.3677
 20
73.6854
 30
0.0000
 42
1.0000
  0
VERTEX
  8
21
 10
40.3677
 20
73.7362
 30
0.0000
  0
SEQEND
  8
0
  0
POLYLINE
  8
21
 66
1
 10
0.0000
 20
0.0000
 30
0.0000
 40
0.1016
 41
0.1016
 70
0
  0
VERTEX
  8
21
 10
39.9401
 20
40.6908
 30
0.0000
  0
VERTEX
  8
21
 10
39.4208
 20
40.6908
 30
0.0000
  0
SEQEND
  8
0
  0
POLYLINE
  8
21
 66
1
 10
0.0000
 20
0.0000
 30
0.0000
 40
0.0508
 41
0.0508
 70
0
  0
VERTEX
  8
21
 10
39.4208
 20
40.7162
 30
0.0000
 42
1.0000
  0
VERTEX
  8
21
 10
39.4208
 20
40.6654
 30
0.0000
  0
SEQEND
  8
0
  0
POLYLINE
  8
21
 66
1
 10
0.0000
 20
0.0000
 30
0.0000
 40
0.0508
 41
0.0508
 70
0
  0
VERTEX
  8
21
 10
39.9401
 20
40.6654
 30
0.0000
 42
1.0000
  0
VERTEX
  8
21
 10
39.9401
 20
40.7162
 30
0.0000
  0
SEQEND
  8
0
  0
POLYLINE
  8
21
 66
1
 10
0.0000
 20
0.0000
 30
0.0000
 40
0.1016
 41
0.1016
 70
0
  0
VERTEX
  8
21
 10
39.4208
 20
40.6908
 30
0.0000
  0
VERTEX
  8
21
 10
39.4208
 20
41.8592
 30
0.0000
  0
SEQEND
  8
0
  0
POLYLINE
  8
21
 66
1
 10
0.0000
 20
0.0000
 30
0.0000
 40
0.0508
 41
0.0508
 70
0
  0
VERTEX
  8
21
 10
39.4462
 20
41.8592
 30
0.0000
 42
1.0000
  0
VERTEX
  8
21
 10
39.3954
 20
41.8592
 30
0.0000
  0
SEQEND
  8
0
  0
POLYLINE
  8
21
 66
1
 10
0.0000
 20
0.0000
 30
0.0000
 40
0.0508
 41
0.0508
 70
0
  0
VERTEX
  8
21
 10
39.3954
 20
40.6908
 30
0.0000
 42
1.0000
  0
VERTEX
  8
21
 10
39.4462
 20
40.6908
 30
0.0000
  0
SEQEND
  8
0
  0
POLYLINE
  8
21
 66
1
 10
0.0000
 20
0.0000
 30
0.0000
 40
0.1016
 41
0.1016
 70
0
  0
VERTEX
  8
21
 10
39.4208
 20
41.8592
 30
0.0000
  0
VERTEX
  8
21
 10
39.9401
 20
41.8592
 30
0.0000
  0
SEQEND
  8
0
  0
POLYLINE
  8
21
 66
1
 10
0.0000
 20
0.0000
 30
0.0000
 40
0.0508
 41
0.0508
 70
0
  0
VERTEX
  8
21
 10
39.9401
 20
41.8338
 30
0.0000
 42
1.0000
  0
VERTEX
  8
21
 10
39.9401
 20
41.8846
 30
0.0000
  0
SEQEND
  8
0
  0
POLYLINE
  8
21
 66
1
 10
0.0000
 20
0.0000
 30
0.0000
 40
0.0508
 41
0.0508
 70
0
  0
VERTEX
  8
21
 10
39.4208
 20
41.8846
 30
0.0000
 42
1.0000
  0
VERTEX
  8
21
 10
39.4208
 20
41.8338
 30
0.0000
  0
SEQEND
  8
0
  0
POLYLINE
  8
21
 66
1
 10
0.0000
 20
0.0000
 30
0.0000
 40
0.1016
 41
0.1016
 70
0
  0
VERTEX
  8
21
 10
39.4208
 20
41.3399
 30
0.0000
  0
VERTEX
  8
21
 10
39.8103
 20
41.3399
 30
0.0000
  0
SEQEND
  8
0
  0
POLYLINE
  8
21
 66
1
 10
0.0000
 20
0.0000
 30
0.0000
 40
0.0508
 41
0.0508
 70
0
  0
VERTEX
  8
21
 10
39.8103
 20
41.3145
 30
0.0000
 42
1.0000
  0
VERTEX
  8
21
 10
39.8103
 20
41.3653
 30
0.0000
  0
SEQEND
  8
0
  0
POLYLINE
  8
21
 66
1
 10
0.0000
 20
0.0000
 30
0.0000
 40
0.0508
 41
0.0508
 70
0
  0
VERTEX
  8
21
 10
39.4208
 20
41.3653
 30
0.0000
 42
1.0000
  0
VERTEX
  8
21
 10
39.4208
 20
41.3145
 30
0.0000
  0
SEQEND
  8
0
  0
POLYLINE
  8
21
 66
1
 10
0.0000
 20
0.0000
 30
0.0000
 40
0.1016
 41
0.1016
 70
0
  0
VERTEX
  8
21
 10
40.7224
 20
40.6908
 30
0.0000
 42
0.4142
  0
VERTEX
  8
21
 10
40.9821
 20
40.9504
 30
0.0000
  0
SEQEND
  8
0
  0
POLYLINE
  8
21
 66
1
 10
0.0000
 20
0.0000
 30
0.0000
 40
0.0508
 41
0.0508
 70
0
  0
VERTEX
  8
21
 10
40.7224
 20
40.7162
 30
0.0000
 42
1.0000
  0
VERTEX
  8
21
 10
40.7224
 20
40.6654
 30
0.0000
  0
SEQEND
  8
0
  0
POLYLINE
  8
21
 66
1
 10
0.0000
 20
0.0000
 30
0.0000
 40
0.0508
 41
0.0508
 70
0
  0
VERTEX
  8
21
 10
41.0074
 20
40.9504
 30
0.0000
 42
1.0000
  0
VERTEX
  8
21
 10
40.9567
 20
40.9504
 30
0.0000
  0
SEQEND
  8
0
  0
POLYLINE
  8
21
 66
1
 10
0.0000
 20
0.0000
 30
0.0000
 40
0.1016
 41
0.1016
 70
0
  0
VERTEX
  8
21
 10
40.3329
 20
40.8531
 30
0.0000
 42
0.2000
  0
VERTEX
  8
21
 10
40.7224
 20
40.6908
 30
0.0000
  0
SEQEND
  8
0
  0
POLYLINE
  8
21
 66
1
 10
0.0000
 20
0.0000
 30
0.0000
 40
0.0508
 41
0.0508
 70
0
  0
VERTEX
  8
21
 10
40.3510
 20
40.8710
 30
0.0000
 42
1.0000
  0
VERTEX
  8
21
 10
40.3149
 20
40.8352
 30
0.0000
  0
SEQEND
  8
0
  0
POLYLINE
  8
21
 66
1
 10
0.0000
 20
0.0000
 30
0.0000
 40
0.0508
 41
0.0508
 70
0
  0
VERTEX
  8
21
 10
40.7224
 20
40.6654
 30
0.0000
 42
1.0000
  0
VERTEX
  8
21
 10
40.7224
 20
40.7162
 30
0.0000
  0
SEQEND
  8
0
  0
POLYLINE
  8
21
 66
1
 10
0.0000
 20
0.0000
 30
0.0000
 40
0.1016
 41
0.1016
 70
0
  0
VERTEX
  8
21
 10
40.6250
 20
41.8592
 30
0.0000
 42
0.4142
  0
VERTEX
  8
21
 10
40.3654
 20
41.5996
 30
0.0000
  0
SEQEND
  8
0
  0
POLYLINE
  8
21
 66
1
 10
0.0000
 20
0.0000
 30
0.0000
 40
0.0508
 41
0.0508
 70
0
  0
VERTEX
  8
21
 10
40.6250
 20
41.8338
 30
0.0000
 42
1.0000
  0
VERTEX
  8
21
 10
40.6250
 20
41.8846
 30
0.0000
  0
SEQEND
  8
0
  0
POLYLINE
  8
21
 66
1
 10
0.0000
 20
0.0000
 30
0.0000
 40
0.0508
 41
0.0508
 70
0
  0
VERTEX
  8
21
 10
40.3400
 20
41.5996
 30
0.0000
 42
1.0000
  0
VERTEX
  8
21
 10
40.3908
 20
41.5996
 30
0.0000
  0
SEQEND
  8
0
  0
POLYLINE
  8
21
 66
1
 10
0.0000
 20
0.0000
 30
0.0000
 40
0.1016
 41
0.1016
 70
0
  0
VERTEX
  8
21
 10
40.9171
 20
41.7618
 30
0.0000
 42
0.1623
  0
VERTEX
  8
21
 10
40.6250
 20
41.8592
 30
0.0000
  0
SEQEND
  8
0
  0
POLYLINE
  8
21
 66
1
 10
0.0000
 20
0.0000
 30
0.0000
 40
0.0508
 41
0.0508
 70
0
  0
VERTEX
  8
21
 10
40.9019
 20
41.7415
 30
0.0000
 42
1.0000
  0
VERTEX
  8
21
 10
40.9324
 20
41.7822
 30
0.0000
  0
SEQEND
  8
0
  0
POLYLINE
  8
21
 66
1
 10
0.0000
 20
0.0000
 30
0.0000
 40
0.0508
 41
0.0508
 70
0
  0
VERTEX
  8
21
 10
40.6250
 20
41.8846
 30
0.0000
 42
1.0000
  0
VERTEX
  8
21
 10
40.6250
 20
41.8338
 30
0.0000
  0
SEQEND
  8
0
  0
POLYLINE
  8
21
 66
1
 10
0.0000
 20
0.0000
 30
0.0000
 40
0.1016
 41
0.1016
 70
0
  0
VERTEX
  8
21
 10
40.3654
 20
41.5996
 30
0.0000
 42
0.2656
  0
VERTEX
  8
21
 10
40.4952
 20
41.3724
 30
0.0000
  0
SEQEND
  8
0
  0
POLYLINE
  8
21
 66
1
 10
0.0000
 20
0.0000
 30
0.0000
 40
0.0508
 41
0.0508
 70
0
  0
VERTEX
  8
21
 10
40.3908
 20
41.5996
 30
0.0000
 42
1.0000
  0
VERTEX
  8
21
 10
40.3400
 20
41.5996
 30
0.0000
  0
SEQEND
  8
0
  0
POLYLINE
  8
21
 66
1
 10
0.0000
 20
0.0000
 30
0.0000
 40
0.0508
 41
0.0508
 70
0
  0
VERTEX
  8
21
 10
40.4823
 20
41.3505
 30
0.0000
 42
1.0000
  0
VERTEX
  8
21
 10
40.5081
 20
41.3942
 30
0.0000
  0
SEQEND
  8
0
  0
POLYLINE
  8
21
 66
1
 10
0.0000
 20
0.0000
 30
0.0000
 40
0.1016
 41
0.1016
 70
0
  0
VERTEX
  8
21
 10
40.9821
 20
40.9504
 30
0.0000
 42
0.2656
  0
VERTEX
  8
21
 10
40.8522
 20
41.1776
 30
0.0000
  0
SEQEND
  8
0
  0
POLYLINE
  8
21
 66
1
 10
0.0000
 20
0.0000
 30
0.0000
 40
0.0508
 41
0.0508
 70
0
  0
VERTEX
  8
21
 10
40.9567
 20
40.9504
 30
0.0000
 42
1.0000
  0
VERTEX
  8
21
 10
41.0074
 20
40.9504
 30
0.0000
  0
SEQEND
  8
0
  0
POLYLINE
  8
21
 66
1
 10
0.0000
 20
0.0000
 30
0.0000
 40
0.0508
 41
0.0508
 70
0
  0
VERTEX
  8
21
 10
40.8651
 20
41.1995
 30
0.0000
 42
1.0000
  0
VERTEX
  8
21
 10
40.8393
 20
41.1557
 30
0.0000
  0
SEQEND
  8
0
  0
POLYLINE
  8
21
 66
1
 10
0.0000
 20
0.0000
 30
0.0000
 40
0.1016
 41
0.1016
 70
0
  0
VERTEX
  8
21
 10
40.8522
 20
41.1776
 30
0.0000
  0
VERTEX
  8
21
 10
40.4952
 20
41.3724
 30
0.0000
  0
SEQEND
  8
0
  0
POLYLINE
  8
21
 66
1
 10
0.0000
 20
0.0000
 30
0.0000
 40
0.0508
 41
0.0508
 70
0
  0
VERTEX
  8
21
 10
40.5074
 20
41.3947
 30
0.0000
 42
1.0000
  0
VERTEX
  8
21
 10
40.4831
 20
41.3501
 30
0.0000
  0
SEQEND
  8
0
  0
POLYLINE
  8
21
 66
1
 10
0.0000
 20
0.0000
 30
0.0000
 40
0.0508
 41
0.0508
 70
0
  0
VERTEX
  8
21
 10
40.8401
 20
41.1553
 30
0.0000
 42
1.0000
  0
VERTEX
  8
21
 10
40.8644
 20
41.1999
 30
0.0000
  0
SEQEND
  8
0
  0
POLYLINE
  8
21
 66
1
 10
0.0000
 20
0.0000
 30
0.0000
 40
0.1016
 41
0.1016
 70
0
  0
VERTEX
  8
21
 10
41.4929
 20
40.6908
 30
0.0000
  0
VERTEX
  8
21
 10
41.4929
 20
41.8592
 30
0.0000
  0
SEQEND
  8
0
  0
POLYLINE
  8
21
 66
1
 10
0.0000
 20
0.0000
 30
0.0000
 40
0.0508
 41
0.0508
 70
0
  0
VERTEX
  8
21
 10
41.5183
 20
41.8592
 30
0.0000
 42
1.0000
  0
VERTEX
  8
21
 10
41.4675
 20
41.8592
 30
0.0000
  0
SEQEND
  8
0
  0
POLYLINE
  8
21
 66
1
 10
0.0000
 20
0.0000
 30
0.0000
 40
0.0508
 41
0.0508
 70
0
  0
VERTEX
  8
21
 10
41.4675
 20
40.6908
 30
0.0000
 42
1.0000
  0
VERTEX
  8
21
 10
41.5183
 20
40.6908
 30
0.0000
  0
SEQEND
  8
0
  0
POLYLINE
  8
21
 66
1
 10
0.0000
 20
0.0000
 30
0.0000
 40
0.1016
 41
0.1016
 70
0
  0
VERTEX
  8
21
 10
41.4929
 20
41.8592
 30
0.0000
  0
VERTEX
  8
21
 10
41.8174
 20
41.8592
 30
0.0000
  0
SEQEND
  8
0
  0
POLYLINE
  8
21
 66
1
 10
0.0000
 20
0.0000
 30
0.0000
 40
0.0508
 41
0.0508
 70
0
  0
VERTEX
  8
21
 10
41.8174
 20
41.8338
 30
0.0000
 42
1.0000
  0
VERTEX
  8
21
 10
41.8174
 20
41.8846
 30
0.0000
  0
SEQEND
  8
0
  0
POLYLINE
  8
21
 66
1
 10
0.0000
 20
0.0000
 30
0.0000
 40
0.0508
 41
0.0508
 70
0
  0
VERTEX
  8
21
 10
41.4929
 20
41.8846
 30
0.0000
 42
1.0000
  0
VERTEX
  8
21
 10
41.4929
 20
41.8338
 30
0.0000
  0
SEQEND
  8
0
  0
POLYLINE
  8
21
 66
1
 10
0.0000
 20
0.0000
 30
0.0000
 40
0.1016
 41
0.1016
 70
0
  0
VERTEX
  8
21
 10
41.8174
 20
41.2101
 30
0.0000
 42
1.0000
  0
VERTEX
  8
21
 10
41.8174
 20
41.8592
 30
0.0000
  0
SEQEND
  8
0
  0
POLYLINE
  8
21
 66
1
 10
0.0000
 20
0.0000
 30
0.0000
 40
0.0508
 41
0.0508
 70
0
  0
VERTEX
  8
21
 10
41.8174
 20
41.2355
 30
0.0000
 42
1.0000
  0
VERTEX
  8
21
 10
41.8174
 20
41.1847
 30
0.0000
  0
SEQEND
  8
0
  0
POLYLINE
  8
21
 66
1
 10
0.0000
 20
0.0000
 30
0.0000
 40
0.0508
 41
0.0508
 70
0
  0
VERTEX
  8
21
 10
41.8174
 20
41.8846
 30
0.0000
 42
1.0000
  0
VERTEX
  8
21
 10
41.8174
 20
41.8338
 30
0.0000
  0
SEQEND
  8
0
  0
POLYLINE
  8
21
 66
1
 10
0.0000
 20
0.0000
 30
0.0000
 40
0.1016
 41
0.1016
 70
0
  0
VERTEX
  8
21
 10
41.8174
 20
41.2101
 30
0.0000
  0
VERTEX
  8
21
 10
41.4929
 20
41.2101
 30
0.0000
  0
SEQEND
  8
0
  0
POLYLINE
  8
21
 66
1
 10
0.0000
 20
0.0000
 30
0.0000
 40
0.0508
 41
0.0508
 70
0
  0
VERTEX
  8
21
 10
41.4929
 20
41.2355
 30
0.0000
 42
1.0000
  0
VERTEX
  8
21
 10
41.4929
 20
41.1847
 30
0.0000
  0
SEQEND
  8
0
  0
POLYLINE
  8
21
 66
1
 10
0.0000
 20
0.0000
 30
0.0000
 40
0.0508
 41
0.0508
 70
0
  0
VERTEX
  8
21
 10
41.8174
 20
41.1847
 30
0.0000
 42
1.0000
  0
VERTEX
  8
21
 10
41.8174
 20
41.2355
 30
0.0000
  0
SEQEND
  8
0
  0
POLYLINE
  8
21
 66
1
 10
0.0000
 20
0.0000
 30
0.0000
 40
0.1016
 41
0.1016
 70
0
  0
VERTEX
  8
21
 10
42.5808
 20
40.6908
 30
0.0000
  0
VERTEX
  8
21
 10
42.9054
 20
40.6908
 30
0.0000
  0
SEQEND
  8
0
  0
POLYLINE
  8
21
 66
1
 10
0.0000
 20
0.0000
 30
0.0000
 40
0.0508
 41
0.0508
 70
0
  0
VERTEX
  8
21
 10
42.9054
 20
40.6654
 30
0.0000
 42
1.0000
  0
VERTEX
  8
21
 10
42.9054
 20
40.7162
 30
0.0000
  0
SEQEND
  8
0
  0
POLYLINE
  8
21
 66
1
 10
0.0000
 20
0.0000
 30
0.0000
 40
0.0508
 41
0.0508
 70
0
  0
VERTEX
  8
21
 10
42.5808
 20
40.7162
 30
0.0000
 42
1.0000
  0
VERTEX
  8
21
 10
42.5808
 20
40.6654
 30
0.0000
  0
SEQEND
  8
0
  0
POLYLINE
  8
21
 66
1
 10
0.0000
 20
0.0000
 30
0.0000
 40
0.1016
 41
0.1016
 70
0
  0
VERTEX
  8
21
 10
42.9054
 20
40.6908
 30
0.0000
 42
1.0000
  0
VERTEX
  8
21
 10
42.9054
 20
41.3399
 30
0.0000
  0
SEQEND
  8
0
  0
POLYLINE
  8
21
 66
1
 10
0.0000
 20
0.0000
 30
0.0000
 40
0.0508
 41
0.0508
 70
0
  0
VERTEX
  8
21
 10
42.9054
 20
40.7162
 30
0.0000
 42
1.0000
  0
VERTEX
  8
21
 10
42.9054
 20
40.6654
 30
0.0000
  0
SEQEND
  8
0
  0
POLYLINE
  8
21
 66
1
 10
0.0000
 20
0.0000
 30
0.0000
 40
0.0508
 41
0.0508
 70
0
  0
VERTEX
  8
21
 10
42.9054
 20
41.3653
 30
0.0000
 42
1.0000
  0
VERTEX
  8
21
 10
42.9054
 20
41.3145
 30
0.0000
  0
SEQEND
  8
0
  0
POLYLINE
  8
21
 66
1
 10
0.0000
 20
0.0000
 30
0.0000
 40
0.1016
 41
0.1016
 70
0
  0
VERTEX
  8
21
 10
42.5808
 20
41.8592
 30
0.0000
  0
VERTEX
  8
21
 10
42.9703
 20
41.8592
 30
0.0000
  0
SEQEND
  8
0
  0
POLYLINE
  8
21
 66
1
 10
0.0000
 20
0.0000
 30
0.0000
 40
0.0508
 41
0.0508
 70
0
  0
VERTEX
  8
21
 10
42.9703
 20
41.8338
 30
0.0000
 42
1.0000
  0
VERTEX
  8
21
 10
42.9703
 20
41.8846
 30
0.0000
  0
SEQEND
  8
0
  0
POLYLINE
  8
21
 66
1
 10
0.0000
 20
0.0000
 30
0.0000
 40
0.0508
 41
0.0508
 70
0
  0
VERTEX
  8
21
 10
42.5808
 20
41.8846
 30
0.0000
 42
1.0000
  0
VERTEX
  8
21
 10
42.5808
 20
41.8338
 30
0.0000
  0
SEQEND
  8
0
  0
POLYLINE
  8
21
 66
1
 10
0.0000
 20
0.0000
 30
0.0000
 40
0.1016
 41
0.1016
 70
0
  0
VERTEX
  8
21
 10
42.9703
 20
41.3399
 30
0.0000
 42
1.0000
  0
VERTEX
  8
21
 10
42.9703
 20
41.8592
 30
0.0000
  0
SEQEND
  8
0
  0
POLYLINE
  8
21
 66
1
 10
0.0000
 20
0.0000
 30
0.0000
 40
0.0508
 41
0.0508
 70
0
  0
VERTEX
  8
21
 10
42.9703
 20
41.3653
 30
0.0000
 42
1.0000
  0
VERTEX
  8
21
 10
42.9703
 20
41.3145
 30
0.0000
  0
SEQEND
  8
0
  0
POLYLINE
  8
21
 66
1
 10
0.0000
 20
0.0000
 30
0.0000
 40
0.0508
 41
0.0508
 70
0
  0
VERTEX
  8
21
 10
42.9703
 20
41.8846
 30
0.0000
 42
1.0000
  0
VERTEX
  8
21
 10
42.9703
 20
41.8338
 30
0.0000
  0
SEQEND
  8
0
  0
POLYLINE
  8
21
 66
1
 10
0.0000
 20
0.0000
 30
0.0000
 40
0.1016
 41
0.1016
 70
0
  0
VERTEX
  8
21
 10
42.9703
 20
41.3399
 30
0.0000
  0
VERTEX
  8
21
 10
42.7107
 20
41.3399
 30
0.0000
  0
SEQEND
  8
0
  0
POLYLINE
  8
21
 66
1
 10
0.0000
 20
0.0000
 30
0.0000
 40
0.0508
 41
0.0508
 70
0
  0
VERTEX
  8
21
 10
42.7107
 20
41.3653
 30
0.0000
 42
1.0000
  0
VERTEX
  8
21
 10
42.7107
 20
41.3145
 30
0.0000
  0
SEQEND
  8
0
  0
POLYLINE
  8
21
 66
1
 10
0.0000
 20
0.0000
 30
0.0000
 40
0.0508
 41
0.0508
 70
0
  0
VERTEX
  8
21
 10
42.9703
 20
41.3145
 30
0.0000
 42
1.0000
  0
VERTEX
  8
21
 10
42.9703
 20
41.3653
 30
0.0000
  0
SEQEND
  8
0
  0
POLYLINE
  8
21
 66
1
 10
0.0000
 20
0.0000
 30
0.0000
 40
0.1016
 41
0.1016
 70
0
  0
VERTEX
  8
21
 10
44.3729
 20
41.5671
 30
0.0000
 42
0.4142
  0
VERTEX
  8
21
 10
44.0808
 20
41.8592
 30
0.0000
  0
SEQEND
  8
0
  0
POLYLINE
  8
21
 66
1
 10
0.0000
 20
0.0000
 30
0.0000
 40
0.0508
 41
0.0508
 70
0
  0
VERTEX
  8
21
 10
44.3475
 20
41.5671
 30
0.0000
 42
1.0000
  0
VERTEX
  8
21
 10
44.3983
 20
41.5671
 30
0.0000
  0
SEQEND
  8
0
  0
POLYLINE
  8
21
 66
1
 10
0.0000
 20
0.0000
 30
0.0000
 40
0.0508
 41
0.0508
 70
0
  0
VERTEX
  8
21
 10
44.0808
 20
41.8846
 30
0.0000
 42
1.0000
  0
VERTEX
  8
21
 10
44.0808
 20
41.8338
 30
0.0000
  0
SEQEND
  8
0
  0
POLYLINE
  8
21
 66
1
 10
0.0000
 20
0.0000
 30
0.0000
 40
0.1016
 41
0.1016
 70
0
  0
VERTEX
  8
21
 10
44.0808
 20
41.8592
 30
0.0000
 42
0.3252
  0
VERTEX
  8
21
 10
43.7238
 20
41.5996
 30
0.0000
  0
SEQEND
  8
0
  0
POLYLINE
  8
21
 66
1
 10
0.0000
 20
0.0000
 30
0.0000
 40
0.0508
 41
0.0508
 70
0
  0
VERTEX
  8
21
 10
44.0808
 20
41.8338
 30
0.0000
 42
1.0000
  0
VERTEX
  8
21
 10
44.0808
 20
41.8846
 30
0.0000
  0
SEQEND
  8
0
  0
POLYLINE
  8
21
 66
1
 10
0.0000
 20
0.0000
 30
0.0000
 40
0.0508
 41
0.0508
 70
0
  0
VERTEX
  8
21
 10
43.6997
 20
41.6074
 30
0.0000
 42
1.0000
  0
VERTEX
  8
21
 10
43.7480
 20
41.5917
 30
0.0000
  0
SEQEND
  8
0
  0
POLYLINE
  8
21
 66
1
 10
0.0000
 20
0.0000
 30
0.0000
 40
0.1016
 41
0.1016
 70
0
  0
VERTEX
  8
21
 10
44.2756
 20
41.3399
 30
0.0000
 42
0.2053
  0
VERTEX
  8
21
 10
44.3729
 20
41.5671
 30
0.0000
  0
SEQEND
  8
0
  0
POLYLINE
  8
21
 66
1
 10
0.0000
 20
0.0000
 30
0.0000
 40
0.0508
 41
0.0508
 70
0
  0
VERTEX
  8
21
 10
44.2581
 20
41.3583
 30
0.0000
 42
1.0000
  0
VERTEX
  8
21
 10
44.2931
 20
41.3215
 30
0.0000
  0
SEQEND
  8
0
  0
POLYLINE
  8
21
 66
1
 10
0.0000
 20
0.0000
 30
0.0000
 40
0.0508
 41
0.0508
 70
0
  0
VERTEX
  8
21
 10
44.3983
 20
41.5671
 30
0.0000
 42
1.0000
  0
VERTEX
  8
21
 10
44.3475
 20
41.5671
 30
0.0000
  0
SEQEND
  8
0
  0
POLYLINE
  8
21
 66
1
 10
0.0000
 20
0.0000
 30
0.0000
 40
0.1016
 41
0.1016
 70
0
  0
VERTEX
  8
21
 10
44.2756
 20
41.3399
 30
0.0000
  0
VERTEX
  8
21
 10
43.7238
 20
40.6908
 30
0.0000
  0
SEQEND
  8
0
  0
POLYLINE
  8
21
 66
1
 10
0.0000
 20
0.0000
 30
0.0000
 40
0.0508
 41
0.0508
 70
0
  0
VERTEX
  8
21
 10
43.7045
 20
40.7073
 30
0.0000
 42
1.0000
  0
VERTEX
  8
21
 10
43.7432
 20
40.6743
 30
0.0000
  0
SEQEND
  8
0
  0
POLYLINE
  8
21
 66
1
 10
0.0000
 20
0.0000
 30
0.0000
 40
0.0508
 41
0.0508
 70
0
  0
VERTEX
  8
21
 10
44.2949
 20
41.3235
 30
0.0000
 42
1.0000
  0
VERTEX
  8
21
 10
44.2562
 20
41.3564
 30
0.0000
  0
SEQEND
  8
0
  0
POLYLINE
  8
21
 66
1
 10
0.0000
 20
0.0000
 30
0.0000
 40
0.1016
 41
0.1016
 70
0
  0
VERTEX
  8
21
 10
43.7238
 20
40.6908
 30
0.0000
  0
VERTEX
  8
21
 10
44.3729
 20
40.6908
 30
0.0000
  0
SEQEND
  8
0
  0
POLYLINE
  8
21
 66
1
 10
0.0000
 20
0.0000
 30
0.0000
 40
0.0508
 41
0.0508
 70
0
  0
VERTEX
  8
21
 10
44.3729
 20
40.6654
 30
0.0000
 42
1.0000
  0
VERTEX
  8
21
 10
44.3729
 20
40.7162
 30
0.0000
  0
SEQEND
  8
0
  0
POLYLINE
  8
21
 66
1
 10
0.0000
 20
0.0000
 30
0.0000
 40
0.0508
 41
0.0508
 70
0
  0
VERTEX
  8
21
 10
43.7238
 20
40.7162
 30
0.0000
 42
1.0000
  0
VERTEX
  8
21
 10
43.7238
 20
40.6654
 30
0.0000
  0
SEQEND
  8
0
  0
CIRCLE
  8
20
 10
35.5600
 20
-11.4300
 30
0.0000
 40
1.5875
  0
CIRCLE
  8
20
 10
60.9600
 20
-11.4300
 30
0.0000
 40
1.5875
  0
INSERT
  8
17
  2
ROUNDP
 10
62.2300
 20
22.8600
 30
0.0000
 41
1.5080
 42
1.5080
 43
1.0000
 50
0.0000
  0
INSERT
  8
17
  2
ROUNDP
 10
62.2300
 20
22.8600
 30
0.0000
 41
1.5080
 42
1.5080
 43
1.0000
 50
0.0000
  0
INSERT
  8
17
  2
ROUNDP
 10
62.2300
 20
20.3200
 30
0.0000
 41
1.5080
 42
1.5080
 43
1.0000
 50
0.0000
  0
INSERT
  8
17
  2
ROUNDP
 10
62.2300
 20
20.3200
 30
0.0000
 41
1.5080
 42
1.5080
 43
1.0000
 50
0.0000
  0
INSERT
  8
17
  2
SQUAREP
 10
34.2900
 20
55.8800
 30
0.0000
 41
1.5080
 42
1.5080
 43
1.0000
 50
0.0000
  0
INSERT
  8
17
  2
SQUAREP
 10
34.2900
 20
55.8800
 30
0.0000
 41
1.5080
 42
1.5080
 43
1.0000
 50
0.0000
  0
INSERT
  8
17
  2
ROUNDP
 10
62.2300
 20
25.4000
 30
0.0000
 41
1.5080
 42
1.5080
 43
1.0000
 50
0.0000
  0
INSERT
  8
17
  2
ROUNDP
 10
62.2300
 20
25.4000
 30
0.0000
 41
1.5080
 42
1.5080
 43
1.0000
 50
0.0000
  0
INSERT
  8
17
  2
ROUNDP
 10
62.2300
 20
33.0200
 30
0.0000
 41
1.5080
 42
1.5080
 43
1.0000
 50
0.0000
  0
INSERT
  8
17
  2
ROUNDP
 10
62.2300
 20
33.0200
 30
0.0000
 41
1.5080
 42
1.5080
 43
1.0000
 50
0.0000
  0
INSERT
  8
17
  2
ROUNDP
 10
34.2900
 20
10.1600
 30
0.0000
 41
1.5080
 42
1.5080
 43
1.0000
 50
0.0000
  0
INSERT
  8
17
  2
ROUNDP
 10
34.2900
 20
10.1600
 30
0.0000
 41
1.5080
 42
1.5080
 43
1.0000
 50
0.0000
  0
INSERT
  8
17
  2
ROUNDP
 10
34.2900
 20
25.4000
 30
0.0000
 41
1.5080
 42
1.5080
 43
1.0000
 50
0.0000
  0
INSERT
  8
17
  2
ROUNDP
 10
34.2900
 20
25.4000
 30
0.0000
 41
1.5080
 42
1.5080
 43
1.0000
 50
0.0000
  0
INSERT
  8
17
  2
ROUNDP
 10
34.2900
 20
20.3200
 30
0.0000
 41
1.5080
 42
1.5080
 43
1.0000
 50
0.0000
  0
INSERT
  8
17
  2
ROUNDP
 10
34.2900
 20
20.3200
 30
0.0000
 41
1.5080
 42
1.5080
 43
1.0000
 50
0.0000
  0
INSERT
  8
17
  2
ROUNDP
 10
34.2900
 20
27.9400
 30
0.0000
 41
1.5080
 42
1.5080
 43
1.0000
 50
0.0000
  0
INSERT
  8
17
  2
ROUNDP
 10
34.2900
 20
27.9400
 30
0.0000
 41
1.5080
 42
1.5080
 43
1.0000
 50
0.0000
  0
INSERT
  8
17
  2
ROUNDP
 10
62.2300
 20
17.7800
 30
0.0000
 41
1.5080
 42
1.5080
 43
1.0000
 50
0.0000
  0
INSERT
  8
17
  2
ROUNDP
 10
62.2300
 20
17.7800
 30
0.0000
 41
1.5080
 42
1.5080
 43
1.0000
 50
0.0000
  0
INSERT
  8
17
  2
ROUNDP
 10
62.2300
 20
27.9400
 30
0.0000
 41
1.5080
 42
1.5080
 43
1.0000
 50
0.0000
  0
INSERT
  8
17
  2
ROUNDP
 10
62.2300
 20
27.9400
 30
0.0000
 41
1.5080
 42
1.5080
 43
1.0000
 50
0.0000
  0
INSERT
  8
17
  2
ROUNDP
 10
62.2300
 20
30.4800
 30
0.0000
 41
1.5080
 42
1.5080
 43
1.0000
 50
0.0000
  0
INSERT
  8
17
  2
ROUNDP
 10
62.2300
 20
30.4800
 30
0.0000
 41
1.5080
 42
1.5080
 43
1.0000
 50
0.0000
  0
INSERT
  8
17
  2
ROUNDP
 10
62.2300
 20
35.5600
 30
0.0000
 41
1.5080
 42
1.5080
 43
1.0000
 50
0.0000
  0
INSERT
  8
17
  2
ROUNDP
 10
62.2300
 20
35.5600
 30
0.0000
 41
1.5080
 42
1.5080
 43
1.0000
 50
0.0000
  0
INSERT
  8
17
  2
ROUNDP
 10
62.2300
 20
38.1000
 30
0.0000
 41
1.5080
 42
1.5080
 43
1.0000
 50
0.0000
  0
INSERT
  8
17
  2
ROUNDP
 10
62.2300
 20
38.1000
 30
0.0000
 41
1.5080
 42
1.5080
 43
1.0000
 50
0.0000
  0
INSERT
  8
17
  2
ROUNDP
 10
62.2300
 20
43.1800
 30
0.0000
 41
1.5080
 42
1.5080
 43
1.0000
 50
0.0000
  0
INSERT
  8
17
  2
ROUNDP
 10
62.2300
 20
43.1800
 30
0.0000
 41
1.5080
 42
1.5080
 43
1.0000
 50
0.0000
  0
INSERT
  8
17
  2
ROUNDP
 10
62.2300
 20
50.8000
 30
0.0000
 41
1.5080
 42
1.5080
 43
1.0000
 50
0.0000
  0
INSERT
  8
17
  2
ROUNDP
 10
62.2300
 20
50.8000
 30
0.0000
 41
1.5080
 42
1.5080
 43
1.0000
 50
0.0000
  0
INSERT
  8
17
  2
ROUNDP
 10
62.2300
 20
53.3400
 30
0.0000
 41
1.5080
 42
1.5080
 43
1.0000
 50
0.0000
  0
INSERT
  8
17
  2
ROUNDP
 10
62.2300
 20
53.3400
 30
0.0000
 41
1.5080
 42
1.5080
 43
1.0000
 50
0.0000
  0
INSERT
  8
17
  2
ROUNDP
 10
34.2900
 20
35.5600
 30
0.0000
 41
1.5080
 42
1.5080
 43
1.0000
 50
0.0000
  0
INSERT
  8
17
  2
ROUNDP
 10
34.2900
 20
35.5600
 30
0.0000
 41
1.5080
 42
1.5080
 43
1.0000
 50
0.0000
  0
INSERT
  8
17
  2
ROUNDP
 10
34.2900
 20
33.0200
 30
0.0000
 41
1.5080
 42
1.5080
 43
1.0000
 50
0.0000
  0
INSERT
  8
17
  2
ROUNDP
 10
34.2900
 20
33.0200
 30
0.0000
 41
1.5080
 42
1.5080
 43
1.0000
 50
0.0000
  0
INSERT
  8
17
  2
ROUNDP
 10
34.2900
 20
30.4800
 30
0.0000
 41
1.5080
 42
1.5080
 43
1.0000
 50
0.0000
  0
INSERT
  8
17
  2
ROUNDP
 10
34.2900
 20
30.4800
 30
0.0000
 41
1.5080
 42
1.5080
 43
1.0000
 50
0.0000
  0
INSERT
  8
17
  2
ROUNDP
 10
34.2900
 20
40.6400
 30
0.0000
 41
1.5080
 42
1.5080
 43
1.0000
 50
0.0000
  0
INSERT
  8
17
  2
ROUNDP
 10
34.2900
 20
40.6400
 30
0.0000
 41
1.5080
 42
1.5080
 43
1.0000
 50
0.0000
  0
INSERT
  8
17
  2
ROUNDP
 10
34.2900
 20
38.1000
 30
0.0000
 41
1.5080
 42
1.5080
 43
1.0000
 50
0.0000
  0
INSERT
  8
17
  2
ROUNDP
 10
34.2900
 20
38.1000
 30
0.0000
 41
1.5080
 42
1.5080
 43
1.0000
 50
0.0000
  0
INSERT
  8
17
  2
ROUNDP
 10
34.2900
 20
45.7200
 30
0.0000
 41
1.5080
 42
1.5080
 43
1.0000
 50
0.0000
  0
INSERT
  8
17
  2
ROUNDP
 10
34.2900
 20
45.7200
 30
0.0000
 41
1.5080
 42
1.5080
 43
1.0000
 50
0.0000
  0
INSERT
  8
17
  2
ROUNDP
 10
34.2900
 20
43.1800
 30
0.0000
 41
1.5080
 42
1.5080
 43
1.0000
 50
0.0000
  0
INSERT
  8
17
  2
ROUNDP
 10
34.2900
 20
43.1800
 30
0.0000
 41
1.5080
 42
1.5080
 43
1.0000
 50
0.0000
  0
INSERT
  8
17
  2
ROUNDP
 10
62.2300
 20
10.1600
 30
0.0000
 41
1.5080
 42
1.5080
 43
1.0000
 50
0.0000
  0
INSERT
  8
17
  2
ROUNDP
 10
62.2300
 20
10.1600
 30
0.0000
 41
1.5080
 42
1.5080
 43
1.0000
 50
0.0000
  0
INSERT
  8
17
  2
ROUNDP
 10
34.2900
 20
12.7000
 30
0.0000
 41
1.5080
 42
1.5080
 43
1.0000
 50
0.0000
  0
INSERT
  8
17
  2
ROUNDP
 10
34.2900
 20
12.7000
 30
0.0000
 41
1.5080
 42
1.5080
 43
1.0000
 50
0.0000
  0
INSERT
  8
17
  2
ROUNDP
 10
34.2900
 20
53.3400
 30
0.0000
 41
1.5080
 42
1.5080
 43
1.0000
 50
0.0000
  0
INSERT
  8
17
  2
ROUNDP
 10
34.2900
 20
53.3400
 30
0.0000
 41
1.5080
 42
1.5080
 43
1.0000
 50
0.0000
  0
INSERT
  8
17
  2
ROUNDP
 10
34.2900
 20
22.8600
 30
0.0000
 41
1.5080
 42
1.5080
 43
1.0000
 50
0.0000
  0
INSERT
  8
17
  2
ROUNDP
 10
34.2900
 20
22.8600
 30
0.0000
 41
1.5080
 42
1.5080
 43
1.0000
 50
0.0000
  0
INSERT
  8
17
  2
ROUNDP
 10
62.2300
 20
40.6400
 30
0.0000
 41
1.5080
 42
1.5080
 43
1.0000
 50
0.0000
  0
INSERT
  8
17
  2
ROUNDP
 10
62.2300
 20
40.6400
 30
0.0000
 41
1.5080
 42
1.5080
 43
1.0000
 50
0.0000
  0
INSERT
  8
17
  2
SQUAREP
 10
62.2300
 20
55.8800
 30
0.0000
 41
1.5080
 42
1.5080
 43
1.0000
 50
0.0000
  0
INSERT
  8
17
  2
SQUAREP
 10
62.2300
 20
55.8800
 30
0.0000
 41
1.5080
 42
1.5080
 43
1.0000
 50
0.0000
  0
INSERT
  8
17
  2
ROUNDP
 10
34.2900
 20
7.6200
 30
0.0000
 41
1.5080
 42
1.5080
 43
1.0000
 50
0.0000
  0
INSERT
  8
17
  2
ROUNDP
 10
34.2900
 20
7.6200
 30
0.0000
 41
1.5080
 42
1.5080
 43
1.0000
 50
0.0000
  0
INSERT
  8
17
  2
ROUNDP
 10
62.2300
 20
7.6200
 30
0.0000
 41
1.5080
 42
1.5080
 43
1.0000
 50
0.0000
  0
INSERT
  8
17
  2
ROUNDP
 10
62.2300
 20
7.6200
 30
0.0000
 41
1.5080
 42
1.5080
 43
1.0000
 50
0.0000
  0
INSERT
  8
17
  2
ROUNDP
 10
62.2300
 20
45.7200
 30
0.0000
 41
1.5080
 42
1.5080
 43
1.0000
 50
0.0000
  0
INSERT
  8
17
  2
ROUNDP
 10
62.2300
 20
45.7200
 30
0.0000
 41
1.5080
 42
1.5080
 43
1.0000
 50
0.0000
  0
INSERT
  8
17
  2
ROUNDP
 10
62.2300
 20
12.7000
 30
0.0000
 41
1.5080
 42
1.5080
 43
1.0000
 50
0.0000
  0
INSERT
  8
17
  2
ROUNDP
 10
62.2300
 20
12.7000
 30
0.0000
 41
1.5080
 42
1.5080
 43
1.0000
 50
0.0000
  0
INSERT
  8
17
  2
ROUNDP
 10
62.2300
 20
15.2400
 30
0.0000
 41
1.5080
 42
1.5080
 43
1.0000
 50
0.0000
  0
INSERT
  8
17
  2
ROUNDP
 10
62.2300
 20
15.2400
 30
0.0000
 41
1.5080
 42
1.5080
 43
1.0000
 50
0.0000
  0
INSERT
  8
17
  2
ROUNDP
 10
34.2900
 20
17.7800
 30
0.0000
 41
1.5080
 42
1.5080
 43
1.0000
 50
0.0000
  0
INSERT
  8
17
  2
ROUNDP
 10
34.2900
 20
17.7800
 30
0.0000
 41
1.5080
 42
1.5080
 43
1.0000
 50
0.0000
  0
INSERT
  8
17
  2
ROUNDP
 10
34.2900
 20
15.2400
 30
0.0000
 41
1.5080
 42
1.5080
 43
1.0000
 50
0.0000
  0
INSERT
  8
17
  2
ROUNDP
 10
34.2900
 20
15.2400
 30
0.0000
 41
1.5080
 42
1.5080
 43
1.0000
 50
0.0000
  0
INSERT
  8
17
  2
ROUNDP
 10
34.2900
 20
48.2600
 30
0.0000
 41
1.5080
 42
1.5080
 43
1.0000
 50
0.0000
  0
INSERT
  8
17
  2
ROUNDP
 10
34.2900
 20
48.2600
 30
0.0000
 41
1.5080
 42
1.5080
 43
1.0000
 50
0.0000
  0
INSERT
  8
17
  2
ROUNDP
 10
34.2900
 20
50.8000
 30
0.0000
 41
1.5080
 42
1.5080
 43
1.0000
 50
0.0000
  0
INSERT
  8
17
  2
ROUNDP
 10
34.2900
 20
50.8000
 30
0.0000
 41
1.5080
 42
1.5080
 43
1.0000
 50
0.0000
  0
INSERT
  8
17
  2
ROUNDP
 10
62.2300
 20
48.2600
 30
0.0000
 41
1.5080
 42
1.5080
 43
1.0000
 50
0.0000
  0
INSERT
  8
17
  2
ROUNDP
 10
62.2300
 20
48.2600
 30
0.0000
 41
1.5080
 42
1.5080
 43
1.0000
 50
0.0000
  0
ENDSEC
  0
EOF
