%
M48
M72
T01C0.01378
T02C0.03200
T03C0.03543
T04C0.03937
T05C0.04331
T06C0.04724
%
T01
X70377Y275175
X58502Y268925
X46002Y260175
X37252Y167675
X56002Y190800
X87252Y181425
X349752Y181425
X327877Y182675
X329127Y170175
X296002Y168925
X321002Y268925
X332252Y274550
X218502Y181425
X206627Y170175
X196627Y182675
X222252Y163300
X189752Y268925
X201002Y274550
T02
X20047Y255280
X20047Y245280
X17104Y192570
X17104Y182570
X113207Y182570
X113207Y192570
X378650Y245280
X378650Y255280
X375707Y192570
X375707Y182570
X279604Y192570
X279604Y182570
X244457Y192570
X244457Y182570
X282547Y245280
X282547Y255280
X247400Y255280
X247400Y245280
X151297Y245280
X151297Y255280
X148354Y192570
X148354Y182570
X116150Y245280
X116150Y255280
T03
X37764Y263060
X37116Y204790
X37764Y233060
X96138Y233060
X358638Y233060
X357990Y204790
X357990Y174790
X299616Y174790
X300264Y233060
X299616Y204790
X300264Y263060
X358638Y263060
X227388Y263060
X227388Y233060
X226740Y204790
X226740Y174790
X168366Y174790
X169014Y233060
X168366Y204790
X169014Y263060
X96138Y263060
X95490Y204790
X95490Y174790
X37116Y174790
T04
X374752Y370800
X374752Y360800
X374752Y350800
X374752Y340800
X374752Y330800
X374752Y320800
X374752Y310800
X374752Y300800
X374752Y290800
X374752Y280800
X359752Y280800
X359752Y290800
X359752Y300800
X359752Y310800
X359752Y320800
X359752Y330800
X359752Y340800
X349752Y340800
X349752Y330800
X349752Y320800
X339752Y320800
X339752Y330800
X339752Y340800
X329752Y340800
X329752Y330800
X329752Y320800
X319752Y320800
X319752Y330800
X319752Y340800
X309752Y340800
X309752Y330800
X309752Y320800
X299752Y320800
X299752Y330800
X299752Y340800
X304752Y350800
X314752Y350800
X324752Y350800
X334752Y350800
X344752Y350800
X344752Y360800
X344752Y370800
X334752Y370800
X334752Y360800
X324752Y360800
X324752Y370800
X314752Y370800
X314752Y360800
X304752Y360800
X304752Y370800
X284752Y370800
X284752Y360800
X284752Y350800
X284752Y340800
X284752Y330800
X284752Y320800
X284752Y310800
X284752Y300800
X284752Y290800
X284752Y280800
X299752Y280800
X309752Y280800
X319752Y280800
X329752Y280800
X339752Y280800
X349752Y280800
X349752Y290800
X349752Y300800
X349752Y310800
X339752Y310800
X339752Y300800
X339752Y290800
X329752Y290800
X329752Y300800
X329752Y310800
X319752Y310800
X319752Y300800
X319752Y290800
X309752Y290800
X309752Y300800
X309752Y310800
X299752Y310800
X299752Y300800
X299752Y290800
X283502Y157050
X283502Y147050
X283502Y137050
X283502Y127050
X283502Y117050
X283502Y107050
X283502Y97050
X283502Y87050
X283502Y77050
X283502Y67050
X303502Y67050
X303502Y77050
X303502Y87050
X313502Y87050
X323502Y87050
X333502Y87050
X343502Y87050
X353502Y87050
X353502Y77050
X353502Y67050
X343502Y67050
X343502Y77050
X333502Y77050
X333502Y67050
X323502Y67050
X323502Y77050
X313502Y77050
X313502Y67050
X318502Y97050
X328502Y97050
X338502Y97050
X348502Y97050
X358502Y97050
X358502Y107050
X358502Y117050
X348502Y117050
X348502Y107050
X338502Y107050
X338502Y117050
X328502Y117050
X328502Y107050
X318502Y107050
X318502Y117050
X308502Y117050
X308502Y107050
X308502Y97050
X298502Y97050
X298502Y107050
X298502Y117050
X298502Y127050
X298502Y137050
X298502Y147050
X298502Y157050
X308502Y157050
X318502Y157050
X328502Y157050
X338502Y157050
X348502Y157050
X358502Y157050
X358502Y147050
X358502Y137050
X358502Y127050
X348502Y127050
X348502Y137050
X348502Y147050
X338502Y147050
X338502Y137050
X338502Y127050
X328502Y127050
X328502Y137050
X328502Y147050
X318502Y147050
X318502Y137050
X318502Y127050
X308502Y127050
X308502Y137050
X308502Y147050
X373502Y147050
X373502Y137050
X373502Y127050
X373502Y117050
X373502Y107050
X373502Y97050
X373502Y87050
X373502Y77050
X373502Y67050
X243502Y370800
X243502Y360800
X243502Y350800
X243502Y340800
X243502Y330800
X243502Y320800
X243502Y310800
X243502Y300800
X243502Y290800
X243502Y280800
X228502Y280800
X228502Y290800
X228502Y300800
X228502Y310800
X218502Y310800
X218502Y300800
X218502Y290800
X218502Y280800
X208502Y280800
X208502Y290800
X208502Y300800
X208502Y310800
X198502Y310800
X198502Y300800
X198502Y290800
X198502Y280800
X188502Y280800
X188502Y290800
X188502Y300800
X188502Y310800
X178502Y310800
X178502Y300800
X178502Y290800
X178502Y280800
X168502Y280800
X168502Y290800
X168502Y300800
X168502Y310800
X168502Y320800
X178502Y320800
X188502Y320800
X188502Y330800
X188502Y340800
X178502Y340800
X178502Y330800
X168502Y330800
X168502Y340800
X173502Y350800
X183502Y350800
X183502Y360800
X183502Y370800
X173502Y370800
X173502Y360800
X153502Y360800
X153502Y350800
X153502Y340800
X153502Y330800
X153502Y320800
X153502Y310800
X153502Y300800
X153502Y290800
X153502Y280800
X112252Y280800
X112252Y290800
X112252Y300800
X112252Y310800
X112252Y320800
X112252Y330800
X112252Y340800
X112252Y350800
X112252Y360800
X112252Y370800
X92252Y370800
X92252Y360800
X92252Y350800
X82252Y350800
X82252Y360800
X82252Y370800
X72252Y370800
X72252Y360800
X72252Y350800
X62252Y350800
X62252Y360800
X62252Y370800
X52252Y370800
X52252Y360800
X52252Y350800
X42252Y350800
X42252Y360800
X42252Y370800
X22252Y370800
X22252Y360800
X22252Y350800
X22252Y340800
X22252Y330800
X22252Y320800
X22252Y310800
X22252Y300800
X22252Y290800
X22252Y280800
X37252Y280800
X47252Y280800
X57252Y280800
X67252Y280800
X77252Y280800
X87252Y280800
X87252Y290800
X87252Y300800
X87252Y310800
X77252Y310800
X77252Y300800
X77252Y290800
X67252Y290800
X67252Y300800
X67252Y310800
X57252Y310800
X57252Y300800
X57252Y290800
X47252Y290800
X47252Y300800
X47252Y310800
X37252Y310800
X37252Y300800
X37252Y290800
X37252Y320800
X47252Y320800
X57252Y320800
X67252Y320800
X77252Y320800
X87252Y320800
X87252Y330800
X87252Y340800
X77252Y340800
X77252Y330800
X67252Y330800
X67252Y340800
X57252Y340800
X57252Y330800
X47252Y330800
X47252Y340800
X37252Y340800
X37252Y330800
X97252Y330800
X97252Y320800
X97252Y310800
X97252Y300800
X97252Y290800
X97252Y280800
X153502Y370800
X193502Y370800
X203502Y370800
X213502Y370800
X223502Y370800
X223502Y360800
X223502Y350800
X213502Y350800
X213502Y360800
X203502Y360800
X203502Y350800
X193502Y350800
X193502Y360800
X198502Y340800
X208502Y340800
X218502Y340800
X228502Y340800
X228502Y330800
X228502Y320800
X218502Y320800
X218502Y330800
X208502Y330800
X208502Y320800
X198502Y320800
X198502Y330800
X97252Y340800
X21002Y157050
X21002Y147050
X21002Y137050
X21002Y127050
X21002Y117050
X21002Y107050
X21002Y97050
X21002Y87050
X21002Y77050
X21002Y67050
X41002Y67050
X41002Y77050
X41002Y87050
X51002Y87050
X61002Y87050
X71002Y87050
X81002Y87050
X91002Y87050
X91002Y77050
X91002Y67050
X81002Y67050
X81002Y77050
X71002Y77050
X71002Y67050
X61002Y67050
X61002Y77050
X51002Y77050
X51002Y67050
X56002Y97050
X66002Y97050
X76002Y97050
X86002Y97050
X96002Y97050
X96002Y107050
X96002Y117050
X86002Y117050
X86002Y107050
X76002Y107050
X76002Y117050
X66002Y117050
X66002Y107050
X56002Y107050
X56002Y117050
X56002Y127050
X66002Y127050
X76002Y127050
X86002Y127050
X96002Y127050
X96002Y137050
X96002Y147050
X96002Y157050
X86002Y157050
X86002Y147050
X86002Y137050
X76002Y137050
X76002Y147050
X76002Y157050
X66002Y157050
X66002Y147050
X66002Y137050
X56002Y137050
X56002Y147050
X56002Y157050
X46002Y157050
X46002Y147050
X46002Y137050
X46002Y127050
X36002Y127050
X36002Y137050
X36002Y147050
X36002Y157050
X36002Y117050
X46002Y117050
X46002Y107050
X46002Y97050
X36002Y97050
X36002Y107050
X373502Y157050
X242252Y67050
X242252Y77050
X242252Y87050
X242252Y97050
X242252Y107050
X242252Y117050
X242252Y127050
X242252Y137050
X242252Y147050
X242252Y157050
X227252Y157050
X227252Y147050
X227252Y137050
X227252Y127050
X217252Y127050
X217252Y137050
X217252Y147050
X217252Y157050
X207252Y157050
X207252Y147050
X207252Y137050
X207252Y127050
X207252Y117050
X217252Y117050
X227252Y117050
X227252Y107050
X227252Y97050
X217252Y97050
X217252Y107050
X207252Y107050
X207252Y97050
X197252Y97050
X197252Y107050
X197252Y117050
X187252Y117050
X187252Y107050
X187252Y97050
X177252Y97050
X177252Y107050
X177252Y117050
X167252Y117050
X167252Y107050
X167252Y97050
X172252Y87050
X182252Y87050
X192252Y87050
X202252Y87050
X202252Y77050
X202252Y67050
X192252Y67050
X192252Y77050
X182252Y77050
X182252Y67050
X172252Y67050
X172252Y77050
X152252Y77050
X152252Y67050
X152252Y87050
X152252Y97050
X152252Y107050
X152252Y117050
X152252Y127050
X152252Y137050
X152252Y147050
X152252Y157050
X167252Y157050
X177252Y157050
X187252Y157050
X197252Y157050
X197252Y147050
X197252Y137050
X197252Y127050
X187252Y127050
X187252Y137050
X187252Y147050
X177252Y147050
X177252Y137050
X177252Y127050
X167252Y127050
X167252Y137050
X167252Y147050
X111002Y147050
X111002Y137050
X111002Y127050
X111002Y117050
X111002Y107050
X111002Y97050
X111002Y87050
X111002Y77050
X111002Y67050
X212252Y67050
X222252Y67050
X222252Y77050
X222252Y87050
X212252Y87050
X212252Y77050
X111002Y157050
X354752Y350800
X354752Y360800
X354752Y370800
T05
X56002Y240800
X66002Y240800
X76002Y240800
X76002Y230800
X66002Y230800
X56002Y230800
X57252Y207050
X67252Y207050
X77252Y207050
X77252Y197050
X67252Y197050
X57252Y197050
X339752Y207050
X339752Y197050
X329752Y197050
X329752Y207050
X319752Y207050
X319752Y197050
X318502Y230800
X328502Y230800
X338502Y230800
X338502Y240800
X328502Y240800
X318502Y240800
X207252Y230800
X207252Y240800
X197252Y240800
X197252Y230800
X187252Y230800
X187252Y240800
X188502Y207050
X188502Y197050
X198502Y197050
X208502Y197050
X208502Y207050
X198502Y207050
T06
X27203Y268959
X106051Y168891
X368551Y168891
X237301Y168891
X158453Y268959
X289703Y268959
M30
